<svg xmlns="http://www.w3.org/2000/svg" xmlns:xlink="http://www.w3.org/1999/xlink" width="715" height="495" viewBox="0 0 715 495">
  <defs>
    <clipPath id="clip-path">
      <rect id="Rectángulo_85517" data-name="Rectángulo 85517" width="715" height="495" transform="translate(443 6265)" fill="#fff"/>
    </clipPath>
  </defs>
  <g id="Grupo_138889" data-name="Grupo 138889" transform="translate(9546 5362)">
    <g id="Grupo_138888" data-name="Grupo 138888">
      <g id="Enmascarar_grupo_156" data-name="Enmascarar grupo 156" transform="translate(-9989 -11627)" clip-path="url(#clip-path)">
        <g id="imagenRecurso_2" data-name="imagenRecurso 2" transform="translate(441.478 6265.313)">
          <path id="Trazado_200989" data-name="Trazado 200989" d="M604.857,175.112V454.954H26.9Z" fill="#485b96"/>
          <path id="Trazado_200990" data-name="Trazado 200990" d="M1.523,376.28l43.313,66.83,155.317-75.628Z" fill="#b0c0d2"/>
          <line id="Línea_511" data-name="Línea 511" x2="564.082" transform="translate(33.838 465.105)" fill="none" stroke="#12263f" stroke-miterlimit="10" stroke-width="3.384"/>
          <g id="Grupo_138847" data-name="Grupo 138847">
            <path id="Trazado_200991" data-name="Trazado 200991" d="M235.344,72.921l8.629,8.121-1.184-11.674,2.876-1.523L252.094,80.7l-2.2,1.184-2.2-4.23-2.538-5.752,1.184,11.843-1.523.846-8.8-8.121,3.045,5.583,2.2,4.23-2.2,1.184-6.429-12.858Z" fill="#12263f"/>
            <path id="Trazado_200992" data-name="Trazado 200992" d="M258.862,77.489a4.572,4.572,0,0,1-3.891.338,5.57,5.57,0,0,1-3.045-2.876l-.169-.338a5.978,5.978,0,0,1-.677-2.876,4.078,4.078,0,0,1,.677-2.538,4.5,4.5,0,0,1,1.861-1.692,4.852,4.852,0,0,1,3.722-.338c1.184.338,2.03,1.523,2.876,3.045l.508.846-6.26,3.215a4.8,4.8,0,0,0,1.692,1.523,2.83,2.83,0,0,0,2.03-.169,3.735,3.735,0,0,0,1.861-2.369l1.692.508a3.714,3.714,0,0,1-.846,2.03A6,6,0,0,1,258.862,77.489Zm-4.4-8.121a2.347,2.347,0,0,0-1.184,1.354,2.829,2.829,0,0,0,.169,2.03l4.061-2.03v-.169a2.621,2.621,0,0,0-1.354-1.354A3.05,3.05,0,0,0,254.463,69.368Z" fill="#12263f"/>
            <path id="Trazado_200993" data-name="Trazado 200993" d="M258.185,62.6a2.146,2.146,0,0,1-.169-1.015c0-.338.338-.508.677-.846s.677-.169,1.015-.169.508.338.677.677a2.146,2.146,0,0,1,.169,1.015,2.971,2.971,0,0,1-.677.846c-.338.338-.677.169-1.015.169A1.321,1.321,0,0,1,258.185,62.6Zm3.553,1.354,5.245,10.49a2.859,2.859,0,0,1,.338,2.538,3.515,3.515,0,0,1-1.692,1.861,3.137,3.137,0,0,1-1.184.338l-.846-1.692a2.858,2.858,0,0,0,.846-.338c.677-.338.846-.846.508-1.692l-5.245-10.49Z" fill="#12263f"/>
            <path id="Trazado_200994" data-name="Trazado 200994" d="M265.968,67.676a5.978,5.978,0,0,1-.677-2.876,4.078,4.078,0,0,1,.677-2.538A4.974,4.974,0,0,1,268,60.57a4.852,4.852,0,0,1,3.722-.338,6.6,6.6,0,0,1,3.045,2.707l.338.508a5.978,5.978,0,0,1,.677,2.876,4.775,4.775,0,0,1-.677,2.538,7.212,7.212,0,0,1-2.03,1.861,4.572,4.572,0,0,1-3.891.338,8.858,8.858,0,0,1-3.215-3.384Zm2.2-.846a4.186,4.186,0,0,0,1.692,2.03,2.5,2.5,0,0,0,2.2,0,2.326,2.326,0,0,0,1.354-1.692,5.043,5.043,0,0,0-.677-2.876,4.186,4.186,0,0,0-1.692-2.03,2.5,2.5,0,0,0-2.2,0,1.84,1.84,0,0,0-1.184,1.692A4.907,4.907,0,0,0,268.167,66.83Z" fill="#12263f"/>
            <path id="Trazado_200995" data-name="Trazado 200995" d="M280.349,57.017c-.338.169-.677.169-.846.338a1.979,1.979,0,0,0-1.354,2.2l3.215,6.6-2.2,1.015-4.737-9.644,2.03-1.015.508,1.015a3.29,3.29,0,0,1,1.523-2.369c.338-.169.508-.169.846-.338Z" fill="#12263f"/>
            <path id="Trazado_200996" data-name="Trazado 200996" d="M291.008,61.247a4.628,4.628,0,0,1-.677-.846,4,4,0,0,1-2.03,2.369,3.169,3.169,0,0,1-2.707.338,2.831,2.831,0,0,1-1.861-1.523,2.9,2.9,0,0,1,0-2.876,6,6,0,0,1,2.876-2.369l1.354-.677-.338-.677a1.525,1.525,0,0,0-1.015-1.015,1.684,1.684,0,0,0-1.523.169,1.525,1.525,0,0,0-1.015,1.015,1.445,1.445,0,0,0,0,1.184l-2.2,1.015a2,2,0,0,1-.169-1.692,4.568,4.568,0,0,1,.846-1.861,5.3,5.3,0,0,1,1.861-1.354,5.249,5.249,0,0,1,3.045-.508,3.02,3.02,0,0,1,2.2,1.861l2.2,4.4a5.865,5.865,0,0,0,1.354,1.861v.169Zm-3.215-.338a1.733,1.733,0,0,0,1.015-.846c.338-.338.338-.846.508-1.184l-.846-1.861-1.184.508a2.464,2.464,0,0,0-1.523,1.354,1.269,1.269,0,0,0,0,1.523,2.039,2.039,0,0,0,.846.846A3.137,3.137,0,0,0,287.793,60.909Z" fill="#12263f"/>
            <path id="Trazado_200998" data-name="Trazado 200998" d="M257.508,96.439a5.978,5.978,0,0,1-.677-2.876,4.078,4.078,0,0,1,.677-2.538,4.974,4.974,0,0,1,2.03-1.692,4.852,4.852,0,0,1,3.722-.338,5.78,5.78,0,0,1,3.045,2.707l.338.508a5.978,5.978,0,0,1,.677,2.876,4.406,4.406,0,0,1-.677,2.538,7.212,7.212,0,0,1-2.03,1.861,4.572,4.572,0,0,1-3.891.338,5.776,5.776,0,0,1-3.215-3.384Zm2.2-.846a4.186,4.186,0,0,0,1.692,2.03,2.5,2.5,0,0,0,2.2,0,2.326,2.326,0,0,0,1.354-1.692,5.043,5.043,0,0,0-.677-2.876,3.692,3.692,0,0,0-1.861-2.03,2.5,2.5,0,0,0-2.2,0,1.84,1.84,0,0,0-1.184,1.692A5.043,5.043,0,0,0,259.708,95.593Z" fill="#12263f"/>
            <path id="Trazado_200999" data-name="Trazado 200999" d="M267.829,85.441l.677,1.015a4.332,4.332,0,0,1,2.2-2.707c2.03-1.015,3.553-.338,4.737,1.861l3.215,6.26-2.2,1.015-3.045-6.26a2.437,2.437,0,0,0-1.015-1.184,1.707,1.707,0,0,0-1.523.169,2.439,2.439,0,0,0-1.354,2.2l3.384,6.768-2.2,1.015-4.737-9.644Z" fill="#12263f"/>
            <path id="Trazado_201000" data-name="Trazado 201000" d="M277.473,77.659l1.184,2.369,1.692-.846.846,1.523-1.692.846,2.707,5.414c.169.338.338.677.677.677.169.169.508,0,.846-.169.169-.169.508-.338.677-.508l.846,1.692a3.684,3.684,0,0,1-1.354.846c-1.692.846-2.876.338-3.891-1.523L277.3,82.565l-1.523.846-.846-1.523,1.523-.846-1.184-2.369Z" fill="#12263f"/>
            <path id="Trazado_201001" data-name="Trazado 201001" d="M280.687,75.8a2.146,2.146,0,0,1-.169-1.015,2.97,2.97,0,0,1,.677-.846,2.146,2.146,0,0,1,1.015-.169,1.321,1.321,0,0,1,.677.677,2.146,2.146,0,0,1,.169,1.015,2.971,2.971,0,0,1-.677.846,2.146,2.146,0,0,1-1.015.169C281.195,76.474,280.857,76.136,280.687,75.8Zm8.46,11-2.2,1.015-4.737-9.644,2.2-1.015Z" fill="#12263f"/>
            <path id="Trazado_201002" data-name="Trazado 201002" d="M288.639,74.951l.677,1.184a4.332,4.332,0,0,1,2.2-2.707c2.03-1.015,3.553-.338,4.737,1.861l3.215,6.26-2.2,1.015-3.045-6.26a2.437,2.437,0,0,0-1.015-1.184,1.707,1.707,0,0,0-1.523.169,2.439,2.439,0,0,0-1.354,2.2l3.384,6.768-2.2,1.015-4.737-9.644Z" fill="#12263f"/>
            <path id="Trazado_201003" data-name="Trazado 201003" d="M306.912,76.813a4.51,4.51,0,0,1-2.2,2.538,3.547,3.547,0,0,1-2.876.338,4.571,4.571,0,0,1-2.2-2.2l-3.045-6.26,2.2-1.015,3.045,6.26c.677,1.184,1.354,1.523,2.369,1.015a2.33,2.33,0,0,0,1.523-2.2l-3.384-6.937,2.2-1.015,4.737,9.644L307.25,78Z" fill="#12263f"/>
            <path id="Trazado_201004" data-name="Trazado 201004" d="M317.4,72.752a4.628,4.628,0,0,1-.677-.846,4,4,0,0,1-2.03,2.369,3.169,3.169,0,0,1-2.707.338,3.4,3.4,0,0,1-1.861-1.523,2.9,2.9,0,0,1,0-2.876A6,6,0,0,1,313,67.845l1.354-.677-.338-.677A1.525,1.525,0,0,0,313,65.477a1.684,1.684,0,0,0-1.523.169,1.525,1.525,0,0,0-1.015,1.015,1.445,1.445,0,0,0,0,1.184l-2.2,1.015a2,2,0,0,1-.169-1.692,4.568,4.568,0,0,1,.846-1.861,5.3,5.3,0,0,1,1.861-1.354,5.249,5.249,0,0,1,3.045-.508,3.02,3.02,0,0,1,2.2,1.861l2.2,4.4a5.865,5.865,0,0,0,1.354,1.861v.169Zm-3.215-.508A1.733,1.733,0,0,0,315.2,71.4c.338-.338.338-.846.508-1.184l-.846-1.861-1.184.508a2.464,2.464,0,0,0-1.523,1.354,1.269,1.269,0,0,0,0,1.523,2.039,2.039,0,0,0,.846.846A1.824,1.824,0,0,0,314.187,72.244Z" fill="#12263f"/>
          </g>
          <g id="Grupo_138849" data-name="Grupo 138849">
            <g id="Grupo_138848" data-name="Grupo 138848">
              <path id="Trazado_201005" data-name="Trazado 201005" d="M629.389,295.576l4.23,11,4.23-11h3.215v14.381h-2.538V305.22l.169-6.429-4.23,11.167H632.6l-4.23-11.167.169,6.429v4.737h-2.538V295.576Z" fill="#12263f"/>
              <path id="Trazado_201006" data-name="Trazado 201006" d="M648.339,310.127a4.949,4.949,0,0,1-5.076-5.414v-.169a5.561,5.561,0,0,1,.677-2.876,6.77,6.77,0,0,1,1.692-2.03,4.077,4.077,0,0,1,2.538-.677,4.448,4.448,0,0,1,3.384,1.354,5.37,5.37,0,0,1,1.184,3.891v1.015H645.8a2.888,2.888,0,0,0,2.876,2.876,3.288,3.288,0,0,0,2.707-1.354l1.353,1.184a4.8,4.8,0,0,1-1.692,1.523A7.093,7.093,0,0,1,648.339,310.127ZM648,300.99a1.649,1.649,0,0,0-1.523.677,6.256,6.256,0,0,0-.846,1.861H650.2v-.169a3.079,3.079,0,0,0-.677-1.861C649.185,300.99,648.677,300.99,648,300.99Z" fill="#12263f"/>
              <path id="Trazado_201007" data-name="Trazado 201007" d="M656.968,299.3v11.674a4.156,4.156,0,0,1-.846,2.538,2.748,2.748,0,0,1-2.369.846,3.725,3.725,0,0,1-1.354-.169v-1.861a7.328,7.328,0,0,0,.846.169c.846,0,1.184-.508,1.184-1.354V299.3h2.538Zm-2.538-2.876a1.292,1.292,0,0,1,.338-.846,1.692,1.692,0,0,1,2.03,0,1.227,1.227,0,0,1,0,1.692,1.692,1.692,0,0,1-2.03,0A1.292,1.292,0,0,1,654.43,296.422Z" fill="#12263f"/>
              <path id="Trazado_201008" data-name="Trazado 201008" d="M659.167,304.543a5.561,5.561,0,0,1,.677-2.876,4.58,4.58,0,0,1,1.692-1.861,6.272,6.272,0,0,1,2.538-.677,5.138,5.138,0,0,1,3.553,1.354,5.367,5.367,0,0,1,1.523,3.722v.508a5.561,5.561,0,0,1-.677,2.876,4.58,4.58,0,0,1-1.692,1.861,6.272,6.272,0,0,1-2.538.677,4.37,4.37,0,0,1-3.553-1.523,5.921,5.921,0,0,1-1.523-4.061Zm2.369.169a3.512,3.512,0,0,0,.677,2.538,2.579,2.579,0,0,0,1.861,1.015,1.944,1.944,0,0,0,1.861-1.015,5.767,5.767,0,0,0,.677-2.707,4.078,4.078,0,0,0-.677-2.538,2.214,2.214,0,0,0-3.722,0A4.292,4.292,0,0,0,661.536,304.712Z" fill="#12263f"/>
              <path id="Trazado_201009" data-name="Trazado 201009" d="M676.763,301.5h-1.015c-1.184,0-1.861.338-2.2,1.354v7.275H671.18V299.468h2.369v1.184a2.4,2.4,0,0,1,2.369-1.354,1.268,1.268,0,0,1,.846.169Z" fill="#12263f"/>
              <path id="Trazado_201010" data-name="Trazado 201010" d="M684.376,309.957c-.169-.169-.169-.508-.338-1.015a3.711,3.711,0,0,1-2.876,1.184,4.681,4.681,0,0,1-2.707-.846,2.728,2.728,0,0,1-1.015-2.2,3.288,3.288,0,0,1,1.354-2.707c.846-.677,2.03-.846,3.722-.846h1.523v-.677a1.747,1.747,0,0,0-1.861-1.861,3.188,3.188,0,0,0-1.354.338,1.206,1.206,0,0,0-.508,1.015h-2.369a3.264,3.264,0,0,1,.508-1.692,3.684,3.684,0,0,1,1.523-1.184,5.053,5.053,0,0,1,5.245.508,3.155,3.155,0,0,1,1.184,2.707v4.907a8.819,8.819,0,0,0,.338,2.369v.169h-2.369Zm-2.707-1.692a3.982,3.982,0,0,0,1.354-.338c.508-.169.677-.508,1.015-1.015v-2.03h-1.353a3.608,3.608,0,0,0-2.03.508,1.373,1.373,0,0,0-.677,1.354,1.536,1.536,0,0,0,.508,1.184A1.428,1.428,0,0,0,681.669,308.265Z" fill="#12263f"/>
              <path id="Trazado_201011" data-name="Trazado 201011" d="M695.035,307.081a1.206,1.206,0,0,0-.508-1.015c-.338-.338-1.015-.338-1.692-.677s-1.523-.338-2.03-.677a2.687,2.687,0,0,1-1.861-2.538,2.954,2.954,0,0,1,1.184-2.369,4.415,4.415,0,0,1,3.045-1.015,4.136,4.136,0,0,1,3.045,1.015,3.6,3.6,0,0,1,1.184,2.538h-2.369a1.536,1.536,0,0,0-.508-1.184,1.921,1.921,0,0,0-1.354-.508,3.188,3.188,0,0,0-1.354.338,1.023,1.023,0,0,0-.508,1.015.93.93,0,0,0,.508.846c.338.169,1.015.338,1.861.677s1.692.508,2.2.677a2.38,2.38,0,0,1,1.184,1.015,3.378,3.378,0,0,1,.338,1.523,2.744,2.744,0,0,1-1.184,2.369,4.824,4.824,0,0,1-3.215.846,5.4,5.4,0,0,1-2.369-.508,2.985,2.985,0,0,1-1.523-1.354,3.857,3.857,0,0,1-.508-1.861h2.369a1.539,1.539,0,0,0,.677,1.354,2.362,2.362,0,0,0,1.523.508,3.378,3.378,0,0,0,1.523-.338C695.036,307.589,695.035,307.42,695.035,307.081Z" fill="#12263f"/>
              <path id="Trazado_201012" data-name="Trazado 201012" d="M625.329,326.538a6.112,6.112,0,0,1,1.184-4.061,3.843,3.843,0,0,1,3.045-1.523,3.155,3.155,0,0,1,2.707,1.184v-5.414h2.369v15.227h-2.2l-.169-1.184a3.614,3.614,0,0,1-2.876,1.354,3.843,3.843,0,0,1-3.045-1.523A6.078,6.078,0,0,1,625.329,326.538Zm2.369.169a4.078,4.078,0,0,0,.677,2.538,1.984,1.984,0,0,0,1.861.846,2.439,2.439,0,0,0,2.2-1.354v-4.568a2.467,2.467,0,0,0-4.061-.508A5.087,5.087,0,0,0,627.7,326.707Z" fill="#12263f"/>
              <path id="Trazado_201013" data-name="Trazado 201013" d="M642.079,332.121A4.949,4.949,0,0,1,637,326.707v-.169a5.561,5.561,0,0,1,.677-2.876,6.77,6.77,0,0,1,1.692-2.03,4.078,4.078,0,0,1,2.538-.677,4.449,4.449,0,0,1,3.384,1.354,5.37,5.37,0,0,1,1.184,3.891v1.015h-6.937a2.888,2.888,0,0,0,2.876,2.876,3.287,3.287,0,0,0,2.707-1.354l1.354,1.184a4.8,4.8,0,0,1-1.692,1.523A7.093,7.093,0,0,1,642.079,332.121Zm-.338-9.136a1.649,1.649,0,0,0-1.523.677,6.256,6.256,0,0,0-.846,1.861h4.568v-.169a3.079,3.079,0,0,0-.677-1.861C642.925,322.985,642.417,322.985,641.74,322.985Z" fill="#12263f"/>
              <path id="Trazado_201014" data-name="Trazado 201014" d="M657.644,330.26a2.068,2.068,0,0,0,1.523-.508,2.089,2.089,0,0,0,.677-1.354h2.2a2.545,2.545,0,0,1-.677,1.861,5.837,5.837,0,0,1-1.523,1.354,4.683,4.683,0,0,1-2.2.508,4.37,4.37,0,0,1-3.553-1.523,6.174,6.174,0,0,1-1.354-4.061h0a5.709,5.709,0,0,1,1.354-3.891,4.37,4.37,0,0,1,3.553-1.523,3.62,3.62,0,0,1,3.045,1.184,4.415,4.415,0,0,1,1.184,2.876h-2.03a1.649,1.649,0,0,0-.677-1.523,2.52,2.52,0,0,0-1.523-.677,2.424,2.424,0,0,0-1.861.846,3.512,3.512,0,0,0-.677,2.538v.338a3.512,3.512,0,0,0,.677,2.538A2.579,2.579,0,0,0,657.644,330.26Z" fill="#12263f"/>
              <path id="Trazado_201015" data-name="Trazado 201015" d="M670.334,331.952c-.169-.169-.169-.508-.338-1.015a3.711,3.711,0,0,1-2.876,1.184,4.681,4.681,0,0,1-2.707-.846,2.728,2.728,0,0,1-1.015-2.2,3.288,3.288,0,0,1,1.353-2.707c.846-.677,2.03-.846,3.722-.846H670v-.677a1.747,1.747,0,0,0-1.861-1.861,3.187,3.187,0,0,0-1.354.338,1.206,1.206,0,0,0-.508,1.015H663.9a3.264,3.264,0,0,1,.508-1.692,3.684,3.684,0,0,1,1.523-1.184,5.053,5.053,0,0,1,5.245.508,3.155,3.155,0,0,1,1.184,2.707v4.907a8.819,8.819,0,0,0,.338,2.369v.169h-2.369Zm-2.707-1.692a3.983,3.983,0,0,0,1.354-.338c.508-.169.677-.508,1.015-1.015v-2.03h-1.354a3.608,3.608,0,0,0-2.03.508,1.373,1.373,0,0,0-.677,1.354,1.536,1.536,0,0,0,.508,1.184A1.428,1.428,0,0,0,667.627,330.26Z" fill="#12263f"/>
              <path id="Trazado_201016" data-name="Trazado 201016" d="M677.44,331.952h-2.369V316.725h2.369Z" fill="#12263f"/>
              <path id="Trazado_201017" data-name="Trazado 201017" d="M679.977,318.417a1.292,1.292,0,0,1,.338-.846,1.692,1.692,0,0,1,2.03,0,1.227,1.227,0,0,1,0,1.692,1.692,1.692,0,0,1-2.03,0A1.292,1.292,0,0,1,679.977,318.417Zm2.538,13.535h-2.369V321.293h2.369Z" fill="#12263f"/>
              <path id="Trazado_201018" data-name="Trazado 201018" d="M684.715,326.538a6.112,6.112,0,0,1,1.184-4.061,3.843,3.843,0,0,1,3.045-1.523,3.155,3.155,0,0,1,2.707,1.184v-5.414h2.369v15.227h-2.03l-.169-1.184a3.614,3.614,0,0,1-2.876,1.354A3.843,3.843,0,0,1,685.9,330.6,6.112,6.112,0,0,1,684.715,326.538Zm2.538.169a4.078,4.078,0,0,0,.677,2.538,1.984,1.984,0,0,0,1.861.846,2.439,2.439,0,0,0,2.2-1.354v-4.568a2.467,2.467,0,0,0-4.061-.508A5.087,5.087,0,0,0,687.253,326.707Z" fill="#12263f"/>
              <path id="Trazado_201019" data-name="Trazado 201019" d="M703.157,331.952c-.169-.169-.169-.508-.338-1.015a3.711,3.711,0,0,1-2.876,1.184,4.681,4.681,0,0,1-2.707-.846,2.728,2.728,0,0,1-1.015-2.2,3.288,3.288,0,0,1,1.354-2.707c.846-.677,2.03-.846,3.722-.846h1.523v-.677a1.747,1.747,0,0,0-1.861-1.861,3.187,3.187,0,0,0-1.353.338,1.206,1.206,0,0,0-.508,1.015h-2.369a3.265,3.265,0,0,1,.508-1.692,3.685,3.685,0,0,1,1.523-1.184,5.053,5.053,0,0,1,5.245.508,3.155,3.155,0,0,1,1.184,2.707v4.907a8.819,8.819,0,0,0,.338,2.369v.169h-2.369Zm-2.707-1.692a3.983,3.983,0,0,0,1.354-.338c.508-.169.677-.508,1.015-1.015v-2.03h-1.354a3.608,3.608,0,0,0-2.03.508,1.373,1.373,0,0,0-.677,1.354,1.536,1.536,0,0,0,.508,1.184A1.428,1.428,0,0,0,700.45,330.26Z" fill="#12263f"/>
              <path id="Trazado_201020" data-name="Trazado 201020" d="M707.217,326.538a6.112,6.112,0,0,1,1.184-4.061,3.843,3.843,0,0,1,3.045-1.523,3.155,3.155,0,0,1,2.707,1.184v-5.414h2.369v15.227h-2.2l-.169-1.184a3.614,3.614,0,0,1-2.876,1.354,3.843,3.843,0,0,1-3.045-1.523A6.078,6.078,0,0,1,707.217,326.538Zm2.369.169a4.078,4.078,0,0,0,.677,2.538,1.984,1.984,0,0,0,1.861.846,2.439,2.439,0,0,0,2.2-1.354v-4.568a2.467,2.467,0,0,0-4.061-.508A5.087,5.087,0,0,0,709.586,326.707Z" fill="#12263f"/>
            </g>
          </g>
          <g id="Grupo_138850" data-name="Grupo 138850">
            <path id="Trazado_201021" data-name="Trazado 201021" d="M293.377,471.7h-4.568v12.351h-2.538V471.7h-4.4v-2.03h11.5Z" fill="#12263f"/>
            <path id="Trazado_201022" data-name="Trazado 201022" d="M294.9,470.689a1.292,1.292,0,0,1,.338-.846,1.692,1.692,0,0,1,2.03,0,1.227,1.227,0,0,1,0,1.692,1.692,1.692,0,0,1-2.03,0A1.292,1.292,0,0,1,294.9,470.689Zm2.707,13.366h-2.369V473.4h2.369Z" fill="#12263f"/>
            <path id="Trazado_201023" data-name="Trazado 201023" d="M304.882,484.393a4.949,4.949,0,0,1-5.076-5.414v-.169a5.561,5.561,0,0,1,.677-2.876,6.77,6.77,0,0,1,1.692-2.03,4.077,4.077,0,0,1,2.538-.677,4.448,4.448,0,0,1,3.384,1.353,5.37,5.37,0,0,1,1.184,3.891v1.015h-6.937a2.888,2.888,0,0,0,2.876,2.876,3.288,3.288,0,0,0,2.707-1.354l1.354,1.184a4.8,4.8,0,0,1-1.692,1.523A7.094,7.094,0,0,1,304.882,484.393Zm-.338-9.305a1.649,1.649,0,0,0-1.523.677,6.256,6.256,0,0,0-.846,1.861h4.568v-.169a3.079,3.079,0,0,0-.677-1.861C305.728,475.087,305.22,475.088,304.543,475.088Z" fill="#12263f"/>
            <path id="Trazado_201024" data-name="Trazado 201024" d="M313.341,473.4v1.184a3.962,3.962,0,0,1,3.045-1.354,2.83,2.83,0,0,1,2.876,1.692,4.089,4.089,0,0,1,3.215-1.692,3.572,3.572,0,0,1,2.707,1.015,3.91,3.91,0,0,1,.846,2.876v7.106h-2.369v-7.106a1.795,1.795,0,0,0-2.03-2.03,1.921,1.921,0,0,0-1.354.508,2.726,2.726,0,0,0-.677,1.184v7.275h-2.369v-6.937a1.693,1.693,0,0,0-1.861-1.861,1.916,1.916,0,0,0-2.03,1.184v7.783h-2.369V473.565h2.369Z" fill="#12263f"/>
            <path id="Trazado_201025" data-name="Trazado 201025" d="M338.043,478.81a5.37,5.37,0,0,1-1.184,3.891,4.112,4.112,0,0,1-3.045,1.523,3.485,3.485,0,0,1-2.876-1.184v5.076h-2.369V473.226h2.2l.169,1.015a3.614,3.614,0,0,1,2.876-1.353,3.416,3.416,0,0,1,3.045,1.523,8,8,0,0,1,1.184,4.4Zm-2.369-.169A4.078,4.078,0,0,0,335,476.1a2.123,2.123,0,0,0-1.861-1.015,2.3,2.3,0,0,0-2.2,1.184v4.737a2.3,2.3,0,0,0,2.2,1.184,2.424,2.424,0,0,0,1.861-.846A3.73,3.73,0,0,0,335.674,478.641Z" fill="#12263f"/>
            <path id="Trazado_201026" data-name="Trazado 201026" d="M339.735,478.641a5.561,5.561,0,0,1,.677-2.876A4.58,4.58,0,0,1,342.1,473.9a6.272,6.272,0,0,1,2.538-.677,5.138,5.138,0,0,1,3.553,1.353,5.367,5.367,0,0,1,1.523,3.722v.508a5.561,5.561,0,0,1-.677,2.876,4.581,4.581,0,0,1-1.692,1.861,6.272,6.272,0,0,1-2.538.677,4.37,4.37,0,0,1-3.553-1.523,5.921,5.921,0,0,1-1.523-4.061Zm2.369.169a3.512,3.512,0,0,0,.677,2.538,2.579,2.579,0,0,0,1.861,1.015,1.944,1.944,0,0,0,1.861-1.015,5.766,5.766,0,0,0,.677-2.707,4.078,4.078,0,0,0-.677-2.538,2.214,2.214,0,0,0-3.722,0A4.293,4.293,0,0,0,342.1,478.81Z" fill="#12263f"/>
          </g>
          <g id="Grupo_138851" data-name="Grupo 138851">
            <path id="Trazado_201027" data-name="Trazado 201027" d="M227.392,380.172a4.735,4.735,0,0,1,0,3.722,5.274,5.274,0,0,1-2.707,2.707,4.388,4.388,0,0,1-2.876.508,5.729,5.729,0,0,1-2.538-1.015,7.491,7.491,0,0,1-2.03-2.538l-.508-1.184a8.274,8.274,0,0,1-.846-3.215,5.561,5.561,0,0,1,.677-2.876,5.142,5.142,0,0,1,2.2-2.03,4.954,4.954,0,0,1,3.722-.508,4.8,4.8,0,0,1,2.876,2.369l-2.03,1.015a2.888,2.888,0,0,0-1.692-1.523,3.187,3.187,0,0,0-2.03.338,3.019,3.019,0,0,0-1.523,2.03,4.828,4.828,0,0,0,.677,3.215l.508,1.015a4.8,4.8,0,0,0,2.2,2.538,2.305,2.305,0,0,0,2.538,0,2.275,2.275,0,0,0,1.523-1.523,3.416,3.416,0,0,0-.169-2.2Z" fill="#fff"/>
            <path id="Trazado_201028" data-name="Trazado 201028" d="M228.238,378.818a4.774,4.774,0,0,1-.677-2.538,3.884,3.884,0,0,1,.677-2.369,6.034,6.034,0,0,1,1.861-1.692,4.055,4.055,0,0,1,3.384-.338,4.619,4.619,0,0,1,2.707,2.369l.169.508a4.774,4.774,0,0,1,.677,2.538,3.885,3.885,0,0,1-.677,2.369,6.034,6.034,0,0,1-1.861,1.692,3.786,3.786,0,0,1-3.553.169,5.242,5.242,0,0,1-2.707-2.707Zm2.03-.846a4.581,4.581,0,0,0,1.692,1.861,1.826,1.826,0,0,0,1.861,0,2.152,2.152,0,0,0,1.184-1.523,3.787,3.787,0,0,0-.508-2.538,4.58,4.58,0,0,0-1.692-1.861,2.253,2.253,0,0,0-3.215,1.523A5.683,5.683,0,0,0,230.269,377.972Z" fill="#fff"/>
            <path id="Trazado_201029" data-name="Trazado 201029" d="M237.882,368.667l.508,1.015a3.782,3.782,0,0,1,2.03-2.538c1.861-.846,3.215-.338,4.4,1.692l2.876,5.752-2.03,1.015-2.876-5.752a2.873,2.873,0,0,0-1.015-1.015,1.358,1.358,0,0,0-1.354.169,1.916,1.916,0,0,0-1.184,2.03l3.045,6.26-2.03,1.015-4.4-8.8Z" fill="#fff"/>
            <path id="Trazado_201030" data-name="Trazado 201030" d="M253.448,368.836a.93.93,0,0,0-.846-.508,7.008,7.008,0,0,0-1.692.169,8.491,8.491,0,0,1-2.03.338,2.783,2.783,0,0,1-2.538-1.354,2.883,2.883,0,0,1,0-2.369,3.949,3.949,0,0,1,2.03-2.03,4.56,4.56,0,0,1,2.876-.508,3.019,3.019,0,0,1,2.03,1.523l-2.03,1.015a1.124,1.124,0,0,0-.846-.677,2,2,0,0,0-1.354.169,1.39,1.39,0,0,0-.846.846,1.079,1.079,0,0,0,0,1.015c.169.338.338.508.677.508a4.733,4.733,0,0,0,1.861-.338,11.644,11.644,0,0,1,2.2-.338,3.188,3.188,0,0,1,1.354.338,1.733,1.733,0,0,1,.846,1.015,2.89,2.89,0,0,1,0,2.369,4.335,4.335,0,0,1-2.2,2.03,4.683,4.683,0,0,1-2.2.508,6.083,6.083,0,0,1-1.861-.338,2.665,2.665,0,0,1-1.184-1.184l1.861-1.015a2.255,2.255,0,0,0,1.015.846,1.726,1.726,0,0,0,1.523-.338c.508-.338.846-.508,1.015-.846C253.448,369.513,253.448,369.174,253.448,368.836Z" fill="#fff"/>
            <path id="Trazado_201031" data-name="Trazado 201031" d="M255.647,365.114a4.775,4.775,0,0,1-.677-2.538,3.884,3.884,0,0,1,.677-2.369,6.034,6.034,0,0,1,1.861-1.692,4.814,4.814,0,0,1,3.384-.338,4.619,4.619,0,0,1,2.707,2.369l.169.508a4.775,4.775,0,0,1,.677,2.538,3.885,3.885,0,0,1-.677,2.369,6.034,6.034,0,0,1-1.861,1.692,3.787,3.787,0,0,1-3.553.169,4.236,4.236,0,0,1-2.707-2.707Zm2.03-.677a4.581,4.581,0,0,0,1.692,1.861,1.826,1.826,0,0,0,1.861,0,2.152,2.152,0,0,0,1.184-1.523,3.787,3.787,0,0,0-.508-2.538,4.58,4.58,0,0,0-1.692-1.861A2.253,2.253,0,0,0,257,361.9,6.264,6.264,0,0,0,257.677,364.437Z" fill="#fff"/>
            <path id="Trazado_201032" data-name="Trazado 201032" d="M269.859,363.76l-2.03,1.015-6.26-12.52,2.03-1.015Z" fill="#fff"/>
            <path id="Trazado_201033" data-name="Trazado 201033" d="M266.475,351.578a1.84,1.84,0,0,1-.169-.846,1.321,1.321,0,0,1,.677-.677,2.146,2.146,0,0,1,1.015-.169,1.321,1.321,0,0,1,.677.677.755.755,0,0,1,0,.846c-.169.169-.338.508-.677.677a2.146,2.146,0,0,1-1.015.169C266.645,352.255,266.645,351.917,266.475,351.578Zm7.614,9.982-2.03,1.015-4.4-8.8,2.03-1.015Z" fill="#fff"/>
            <path id="Trazado_201034" data-name="Trazado 201034" d="M273.581,356.146a6.076,6.076,0,0,1-.677-3.722,3.253,3.253,0,0,1,1.861-2.538,3.088,3.088,0,0,1,2.707-.169l-2.2-4.568,2.03-1.015,6.26,12.52-1.861.846-.508-.846a3.02,3.02,0,0,1-1.861,2.2,3.236,3.236,0,0,1-3.045,0A4.236,4.236,0,0,1,273.581,356.146Zm2.03-.677a5.969,5.969,0,0,0,1.523,1.861,1.833,1.833,0,0,0,1.861,0,1.916,1.916,0,0,0,1.184-2.03l-1.861-3.722a2.08,2.08,0,0,0-2.2-.169,1.626,1.626,0,0,0-1.015,1.523A3.787,3.787,0,0,0,275.612,355.47Z" fill="#fff"/>
            <path id="Trazado_201035" data-name="Trazado 201035" d="M290.839,353.1l-.677-.677a3.434,3.434,0,0,1-1.861,2.2,3.381,3.381,0,0,1-2.538.338,2.207,2.207,0,0,1-1.692-1.523,2.592,2.592,0,0,1,0-2.707,6.639,6.639,0,0,1,2.538-2.2l1.184-.677-.338-.508a1.39,1.39,0,0,0-.846-.846,1.358,1.358,0,0,0-1.354.169,1.733,1.733,0,0,0-1.015.846,1.078,1.078,0,0,0,0,1.015l-2.03,1.015a2.389,2.389,0,0,1-.169-1.523,3.984,3.984,0,0,1,.846-1.692,6.625,6.625,0,0,1,1.692-1.354,4.56,4.56,0,0,1,2.876-.508,3.292,3.292,0,0,1,2.03,1.692l2.03,3.891a3.534,3.534,0,0,0,1.354,1.692v.169Zm-2.876-.338a4.487,4.487,0,0,0,1.015-.846,2.445,2.445,0,0,0,.338-1.184l-.846-1.692-1.015.508a5.946,5.946,0,0,0-1.523,1.184,1.868,1.868,0,0,0,0,1.354,1.124,1.124,0,0,0,.846.677A.818.818,0,0,0,287.963,352.763Z" fill="#fff"/>
            <path id="Trazado_201036" data-name="Trazado 201036" d="M297.437,348.025a1.975,1.975,0,0,0,1.015-1.015,1.853,1.853,0,0,0,0-1.354l1.861-.846a3.361,3.361,0,0,1,.169,1.861,3.006,3.006,0,0,1-.677,1.692,5.837,5.837,0,0,1-1.523,1.354,4.39,4.39,0,0,1-3.553.338,5.273,5.273,0,0,1-2.707-2.707l-.169-.169a4.954,4.954,0,0,1-.508-3.722,4.121,4.121,0,0,1,2.369-2.707,3.878,3.878,0,0,1,3.045-.338,3.435,3.435,0,0,1,2.2,1.861l-1.861.846a2.275,2.275,0,0,0-1.184-1.015,1.644,1.644,0,0,0-1.523.169,2.263,2.263,0,0,0-1.184,1.354,3.355,3.355,0,0,0,.508,2.369l.169.338a4.463,4.463,0,0,0,1.523,1.861A2.177,2.177,0,0,0,297.437,348.025Z" fill="#fff"/>
            <path id="Trazado_201037" data-name="Trazado 201037" d="M297.776,335.844a1.839,1.839,0,0,1-.169-.846,1.321,1.321,0,0,1,.677-.677,2.146,2.146,0,0,1,1.015-.169,1.321,1.321,0,0,1,.677.677.755.755,0,0,1,0,.846c-.169.169-.338.508-.677.677a2.146,2.146,0,0,1-1.015.169A2.336,2.336,0,0,1,297.776,335.844Zm7.614,9.982-2.03,1.015-4.4-8.8,2.03-1.015Z" fill="#fff"/>
            <path id="Trazado_201038" data-name="Trazado 201038" d="M305.051,340.581a4.775,4.775,0,0,1-.677-2.538,3.884,3.884,0,0,1,.677-2.369,6.034,6.034,0,0,1,1.861-1.692,4.814,4.814,0,0,1,3.384-.338A4.619,4.619,0,0,1,313,336.013l.169.508a4.775,4.775,0,0,1,.677,2.538,3.885,3.885,0,0,1-.677,2.369,6.034,6.034,0,0,1-1.861,1.692,3.787,3.787,0,0,1-3.553.169,4.719,4.719,0,0,1-2.707-2.707Zm.508-10.321,2.2-1.184-1.015,3.553-1.523.846Zm1.523,9.475a4.58,4.58,0,0,0,1.692,1.861,1.826,1.826,0,0,0,1.861,0,2.152,2.152,0,0,0,1.184-1.523,3.787,3.787,0,0,0-.508-2.538,4.58,4.58,0,0,0-1.692-1.861A2.253,2.253,0,0,0,306.4,337.2,5.683,5.683,0,0,0,307.081,339.735Z" fill="#fff"/>
            <path id="Trazado_201039" data-name="Trazado 201039" d="M314.526,330.429l.508,1.015a3.782,3.782,0,0,1,2.03-2.538c1.861-.846,3.215-.338,4.4,1.692l2.876,5.752-2.03,1.015-2.876-5.752a2.873,2.873,0,0,0-1.015-1.015,1.358,1.358,0,0,0-1.354.169,1.916,1.916,0,0,0-1.184,2.03l3.045,6.26-2.03,1.015-4.4-8.8Z" fill="#fff"/>
            <path id="Trazado_201040" data-name="Trazado 201040" d="M335.674,330.768l-.677-.677a3.434,3.434,0,0,1-1.861,2.2,3.381,3.381,0,0,1-2.538.338,2.207,2.207,0,0,1-1.692-1.523,2.592,2.592,0,0,1,0-2.707,6.639,6.639,0,0,1,2.538-2.2l1.184-.677-.338-.508a1.39,1.39,0,0,0-.846-.846,1.357,1.357,0,0,0-1.354.169,1.733,1.733,0,0,0-1.015.846,1.078,1.078,0,0,0,0,1.015l-2.03,1.015a2.389,2.389,0,0,1-.169-1.523,3.984,3.984,0,0,1,.846-1.692,6.625,6.625,0,0,1,1.692-1.354,4.56,4.56,0,0,1,2.876-.508,3.292,3.292,0,0,1,2.03,1.692l2.03,3.891a3.534,3.534,0,0,0,1.354,1.692v.169Zm-2.876-.338a4.487,4.487,0,0,0,1.015-.846,2.445,2.445,0,0,0,.338-1.184l-.846-1.692-1.015.508a5.946,5.946,0,0,0-1.523,1.184c-.338.338-.169.846,0,1.354a1.124,1.124,0,0,0,.846.677C331.952,330.768,332.46,330.6,332.8,330.429Z" fill="#fff"/>
            <path id="Trazado_201041" data-name="Trazado 201041" d="M340.581,314.695l1.015,2.2,1.523-.846.677,1.523-1.523.846,2.369,4.907a2.336,2.336,0,0,0,.508.677,1.84,1.84,0,0,0,.846-.169c.169-.169.508-.338.677-.508l.846,1.523a5.141,5.141,0,0,1-1.184.846c-1.523.677-2.707.338-3.553-1.354l-2.538-4.907-1.523.677-.677-1.523,1.523-.677-1.015-2.2Z" fill="#fff"/>
            <path id="Trazado_201042" data-name="Trazado 201042" d="M350.225,314.695c-.338.169-.508.169-.846.338a2.387,2.387,0,0,0-1.354,2.03l3.045,6.091-2.03,1.015-4.4-8.8,1.861-1.015.508,1.015a2.8,2.8,0,0,1,1.354-2.2,1.279,1.279,0,0,1,.677-.169Z" fill="#fff"/>
            <path id="Trazado_201043" data-name="Trazado 201043" d="M360.038,318.586l-.677-.677a3.434,3.434,0,0,1-1.861,2.2,3.381,3.381,0,0,1-2.538.338,2.207,2.207,0,0,1-1.692-1.523,2.592,2.592,0,0,1,0-2.707,6.639,6.639,0,0,1,2.538-2.2l1.184-.677-.338-.508a1.39,1.39,0,0,0-.846-.846,1.357,1.357,0,0,0-1.354.169,1.733,1.733,0,0,0-1.015.846,1.079,1.079,0,0,0,0,1.015l-2.03,1.015a2.389,2.389,0,0,1-.169-1.523,3.984,3.984,0,0,1,.846-1.692,6.624,6.624,0,0,1,1.692-1.354,4.56,4.56,0,0,1,2.876-.508,3.292,3.292,0,0,1,2.03,1.692l2.03,3.891a3.534,3.534,0,0,0,1.354,1.692v.169Zm-2.876-.338a4.486,4.486,0,0,0,1.015-.846,2.445,2.445,0,0,0,.338-1.184l-.846-1.692-1.015.508a5.947,5.947,0,0,0-1.523,1.184,1.868,1.868,0,0,0,0,1.354,1.124,1.124,0,0,0,.846.677C356.316,318.586,356.654,318.586,357.162,318.248Z" fill="#fff"/>
            <path id="Trazado_201044" data-name="Trazado 201044" d="M365.452,312.834l-1.354-7.275,2.03-1.015,1.354,10.321-1.692.846-7.444-7.275,2.03-1.015Z" fill="#fff"/>
            <path id="Trazado_201045" data-name="Trazado 201045" d="M375.773,310.973a4.444,4.444,0,0,1-3.553.338,4.868,4.868,0,0,1-2.707-2.538l-.169-.169a4.774,4.774,0,0,1-.677-2.538,3.884,3.884,0,0,1,.677-2.369,3.7,3.7,0,0,1,1.692-1.523,3.471,3.471,0,0,1,3.384-.169,5.683,5.683,0,0,1,2.538,2.707l.338.846-5.752,2.876a2.89,2.89,0,0,0,1.523,1.354,2.328,2.328,0,0,0,1.861-.169,3.193,3.193,0,0,0,1.692-2.2l1.523.508a3.756,3.756,0,0,1-.846,1.861A5.268,5.268,0,0,1,375.773,310.973Zm-6.091-12.689,2.2-1.184-1.015,3.553-1.523.846Zm2.03,5.245a2.275,2.275,0,0,0-1.015,1.184,2.45,2.45,0,0,0,.169,1.861l3.722-1.861v-.169a2.263,2.263,0,0,0-1.354-1.184A2.389,2.389,0,0,0,371.712,303.528Z" fill="#fff"/>
            <path id="Trazado_201046" data-name="Trazado 201046" d="M384.4,303.359a.93.93,0,0,0-.846-.508,7.008,7.008,0,0,0-1.692.169,8.491,8.491,0,0,1-2.03.338,2.783,2.783,0,0,1-2.538-1.354,2.883,2.883,0,0,1,0-2.369,3.949,3.949,0,0,1,2.03-2.03,4.56,4.56,0,0,1,2.876-.508,3.019,3.019,0,0,1,2.03,1.523l-2.03,1.015a1.124,1.124,0,0,0-.846-.677,2,2,0,0,0-1.354.169,1.39,1.39,0,0,0-.846.846,1.079,1.079,0,0,0,0,1.015c.169.338.338.508.677.508a4.733,4.733,0,0,0,1.861-.338,5.377,5.377,0,0,1,2.2-.338,3.188,3.188,0,0,1,1.354.338,1.733,1.733,0,0,1,.846,1.015,2.89,2.89,0,0,1,0,2.369,4.335,4.335,0,0,1-2.2,2.03,4.684,4.684,0,0,1-2.2.508,6.083,6.083,0,0,1-1.861-.338,2.666,2.666,0,0,1-1.184-1.184l1.861-1.015a2.255,2.255,0,0,0,1.015.846,1.726,1.726,0,0,0,1.523-.338c.508-.338.846-.508,1.015-.846C384.57,304.036,384.57,303.7,384.4,303.359Z" fill="#fff"/>
            <path id="Trazado_201047" data-name="Trazado 201047" d="M227.223,404.027a6.076,6.076,0,0,1-.677-3.722,3.253,3.253,0,0,1,1.861-2.538,3.088,3.088,0,0,1,2.707-.169l-2.2-4.568,2.03-1.015,6.26,12.52-1.861.846-.508-.846a3.02,3.02,0,0,1-1.861,2.2,3.236,3.236,0,0,1-3.045,0A5.963,5.963,0,0,1,227.223,404.027Zm2.03-.846a5.97,5.97,0,0,0,1.523,1.861,1.826,1.826,0,0,0,1.861,0,1.916,1.916,0,0,0,1.184-2.03l-1.861-3.722a2.355,2.355,0,0,0-2.369-.169,1.626,1.626,0,0,0-1.015,1.523A5.684,5.684,0,0,0,229.253,403.181Z" fill="#fff"/>
            <path id="Trazado_201048" data-name="Trazado 201048" d="M243.127,401.828a4.423,4.423,0,0,1-6.26-2.2l-.169-.169a4.774,4.774,0,0,1-.677-2.538,3.885,3.885,0,0,1,.677-2.369,3.7,3.7,0,0,1,1.692-1.523,3.471,3.471,0,0,1,3.384-.169,5.683,5.683,0,0,1,2.538,2.707l.338.846L238.9,399.29a2.89,2.89,0,0,0,1.523,1.354,2.328,2.328,0,0,0,1.861-.169,3.193,3.193,0,0,0,1.692-2.2l1.523.508a3.756,3.756,0,0,1-.846,1.861A5.946,5.946,0,0,1,243.127,401.828Zm-3.891-7.444a2.275,2.275,0,0,0-1.015,1.184,2.45,2.45,0,0,0,.169,1.861l3.722-1.861V395.4a2.263,2.263,0,0,0-1.354-1.184A1.644,1.644,0,0,0,239.236,394.384Z" fill="#fff"/>
            <path id="Trazado_201049" data-name="Trazado 201049" d="M254.463,395.906l-2.03,1.015-6.26-12.52,2.03-1.015Z" fill="#fff"/>
            <path id="Trazado_201050" data-name="Trazado 201050" d="M261.907,392.184l-.677-.677a3.434,3.434,0,0,1-1.861,2.2,3.381,3.381,0,0,1-2.538.338,2.207,2.207,0,0,1-1.692-1.523,2.592,2.592,0,0,1,0-2.707,6.64,6.64,0,0,1,2.538-2.2l1.184-.677-.338-.508a1.39,1.39,0,0,0-.846-.846,1.357,1.357,0,0,0-1.354.169,1.733,1.733,0,0,0-1.015.846,1.079,1.079,0,0,0,0,1.015l-2.03,1.015a2.389,2.389,0,0,1-.169-1.523,3.984,3.984,0,0,1,.846-1.692,6.625,6.625,0,0,1,1.692-1.354,4.56,4.56,0,0,1,2.876-.508,3.292,3.292,0,0,1,2.03,1.692l2.03,3.891a3.534,3.534,0,0,0,1.354,1.692V391Zm-2.876-.338a4.486,4.486,0,0,0,1.015-.846,2.445,2.445,0,0,0,.338-1.184l-.846-1.692-1.015.508A5.947,5.947,0,0,0,257,389.815a1.868,1.868,0,0,0,0,1.354,1.124,1.124,0,0,0,.846.677C258.185,392.184,258.523,392.184,259.031,391.846Z" fill="#fff"/>
            <path id="Trazado_201051" data-name="Trazado 201051" d="M273.751,386.6a4.423,4.423,0,0,1-6.26-2.2l-.169-.169a4.774,4.774,0,0,1-.677-2.538,3.884,3.884,0,0,1,.677-2.369,3.7,3.7,0,0,1,1.692-1.523,3.471,3.471,0,0,1,3.384-.169,5.683,5.683,0,0,1,2.538,2.707l.338.846-5.752,2.876a2.89,2.89,0,0,0,1.523,1.354,2.328,2.328,0,0,0,1.861-.169,3.193,3.193,0,0,0,1.692-2.2l1.523.508a3.756,3.756,0,0,1-.846,1.861A16.384,16.384,0,0,1,273.751,386.6Zm-4.061-7.444a2.274,2.274,0,0,0-1.015,1.184,2.451,2.451,0,0,0,.169,1.861l3.722-1.861v-.169a2.263,2.263,0,0,0-1.354-1.184A1.644,1.644,0,0,0,269.69,379.156Z" fill="#fff"/>
            <path id="Trazado_201052" data-name="Trazado 201052" d="M282.379,378.987a.931.931,0,0,0-.846-.508,7.007,7.007,0,0,0-1.692.169,8.492,8.492,0,0,1-2.03.338,2.783,2.783,0,0,1-2.538-1.354,2.883,2.883,0,0,1,0-2.369,3.949,3.949,0,0,1,2.03-2.03,4.56,4.56,0,0,1,2.876-.508,3.019,3.019,0,0,1,2.03,1.523l-2.03,1.015a1.124,1.124,0,0,0-.846-.677,2,2,0,0,0-1.354.169,1.39,1.39,0,0,0-.846.846,1.079,1.079,0,0,0,0,1.015c.169.338.338.508.677.508a4.733,4.733,0,0,0,1.861-.338,11.641,11.641,0,0,1,2.2-.338,3.187,3.187,0,0,1,1.354.338,1.733,1.733,0,0,1,.846,1.015,2.89,2.89,0,0,1,0,2.369,4.335,4.335,0,0,1-2.2,2.03,4.683,4.683,0,0,1-2.2.508,6.082,6.082,0,0,1-1.861-.338,2.665,2.665,0,0,1-1.184-1.184l1.861-1.015a2.255,2.255,0,0,0,1.015.846,1.726,1.726,0,0,0,1.523-.338c.508-.338.846-.508,1.015-.846C282.548,379.664,282.548,379.326,282.379,378.987Z" fill="#fff"/>
            <path id="Trazado_201053" data-name="Trazado 201053" d="M284.24,367.313l1.015,2.2,1.523-.846.677,1.523-1.523.846,2.369,4.907a2.336,2.336,0,0,0,.508.677,1.839,1.839,0,0,0,.846-.169c.169-.169.508-.338.677-.508l.846,1.523a5.141,5.141,0,0,1-1.184.846c-1.523.677-2.707.338-3.553-1.354L283.9,372.05l-1.523.677L281.7,371.2l1.523-.677-1.015-2.2Z" fill="#fff"/>
            <path id="Trazado_201054" data-name="Trazado 201054" d="M298.114,374.25l-.677-.677a3.434,3.434,0,0,1-1.861,2.2,3.381,3.381,0,0,1-2.538.338,2.207,2.207,0,0,1-1.692-1.523,2.592,2.592,0,0,1,0-2.707,6.639,6.639,0,0,1,2.538-2.2l1.184-.677-.338-.508a1.39,1.39,0,0,0-.846-.846,1.358,1.358,0,0,0-1.354.169,1.733,1.733,0,0,0-1.015.846,1.078,1.078,0,0,0,0,1.015l-2.03,1.015a2.389,2.389,0,0,1-.169-1.523,3.984,3.984,0,0,1,.846-1.692,6.624,6.624,0,0,1,1.692-1.354,4.56,4.56,0,0,1,2.876-.508,3.292,3.292,0,0,1,2.03,1.692l2.03,3.891a3.534,3.534,0,0,0,1.354,1.692v.169Zm-2.876-.338a4.488,4.488,0,0,0,1.015-.846,1.427,1.427,0,0,0,.338-1.184l-.846-1.692-1.015.508a5.946,5.946,0,0,0-1.523,1.184,1.868,1.868,0,0,0,0,1.354,1.124,1.124,0,0,0,.846.677A1.431,1.431,0,0,0,295.238,373.911Z" fill="#fff"/>
            <path id="Trazado_201055" data-name="Trazado 201055" d="M299.3,362.576l.508,1.015a3.782,3.782,0,0,1,2.03-2.538c1.861-.846,3.215-.338,4.4,1.692l2.876,5.752-2.03,1.015L304.2,363.76a2.873,2.873,0,0,0-1.015-1.015,1.357,1.357,0,0,0-1.354.169,1.916,1.916,0,0,0-1.184,2.03l3.045,6.26-2.03,1.015-4.4-8.8Z" fill="#fff"/>
            <path id="Trazado_201056" data-name="Trazado 201056" d="M308.435,363.422a6.076,6.076,0,0,1-.677-3.722,3.253,3.253,0,0,1,1.861-2.538,3.088,3.088,0,0,1,2.707-.169l-2.2-4.568,2.03-1.015,6.26,12.52-1.861.846-.508-.846a3.02,3.02,0,0,1-1.861,2.2,3.236,3.236,0,0,1-3.045,0A5.242,5.242,0,0,1,308.435,363.422Zm2.03-.846a5.97,5.97,0,0,0,1.523,1.861,1.833,1.833,0,0,0,1.861,0,1.916,1.916,0,0,0,1.184-2.03l-1.861-3.722a2.354,2.354,0,0,0-2.369-.169,2.152,2.152,0,0,0-1.184,1.523A11.028,11.028,0,0,0,310.465,362.576Z" fill="#fff"/>
            <path id="Trazado_201057" data-name="Trazado 201057" d="M325.692,360.376l-.677-.677a3.434,3.434,0,0,1-1.861,2.2,3.381,3.381,0,0,1-2.538.338,2.207,2.207,0,0,1-1.692-1.523,2.592,2.592,0,0,1,0-2.707,6.639,6.639,0,0,1,2.538-2.2l1.184-.677-.338-.508a1.39,1.39,0,0,0-.846-.846,1.358,1.358,0,0,0-1.354.169,1.733,1.733,0,0,0-1.015.846,1.078,1.078,0,0,0,0,1.015l-2.03,1.015a2.389,2.389,0,0,1-.169-1.523,3.984,3.984,0,0,1,.846-1.692,6.625,6.625,0,0,1,1.692-1.354,4.56,4.56,0,0,1,2.876-.508,3.292,3.292,0,0,1,2.03,1.692l2.03,3.891a3.534,3.534,0,0,0,1.354,1.692v.169Zm-2.876-.338a4.487,4.487,0,0,0,1.015-.846,2.445,2.445,0,0,0,.338-1.184l-.846-1.692-1.015.508a5.946,5.946,0,0,0-1.523,1.184,1.868,1.868,0,0,0,0,1.354,1.124,1.124,0,0,0,.846.677A1.445,1.445,0,0,0,322.816,360.038Z" fill="#fff"/>
            <path id="Trazado_201058" data-name="Trazado 201058" d="M330.6,349.21c-.338.169-.508.169-.846.338a2.387,2.387,0,0,0-1.354,2.03l3.045,6.091-2.03,1.015-4.4-8.8,1.861-1.015.508,1.015a2.8,2.8,0,0,1,1.354-2.2,1.279,1.279,0,0,1,.677-.169Z" fill="#fff"/>
            <path id="Trazado_201059" data-name="Trazado 201059" d="M329.753,344.472a1.84,1.84,0,0,1-.169-.846,1.321,1.321,0,0,1,.677-.677,2.146,2.146,0,0,1,1.015-.169,1.321,1.321,0,0,1,.677.677.755.755,0,0,1,0,.846,1.321,1.321,0,0,1-.677.677,2.146,2.146,0,0,1-1.015.169A2.336,2.336,0,0,1,329.753,344.472Zm7.614,9.982-2.03,1.015-4.4-8.8,2.03-1.015Z" fill="#fff"/>
            <path id="Trazado_201060" data-name="Trazado 201060" d="M340.919,350.732l4.737-2.369.846,1.523-7.106,3.553-.677-1.354,1.523-8.121-4.4,2.2L335,344.642l6.937-3.384.677,1.184Z" fill="#fff"/>
            <path id="Trazado_201061" data-name="Trazado 201061" d="M353.27,346.672l-.677-.677a3.434,3.434,0,0,1-1.861,2.2,3.381,3.381,0,0,1-2.538.338,2.207,2.207,0,0,1-1.692-1.523,2.592,2.592,0,0,1,0-2.707,6.639,6.639,0,0,1,2.538-2.2l1.184-.677-.338-.508a1.39,1.39,0,0,0-.846-.846,1.358,1.358,0,0,0-1.354.169,1.733,1.733,0,0,0-1.015.846,1.078,1.078,0,0,0,0,1.015l-2.03,1.015a2.389,2.389,0,0,1-.169-1.523,3.984,3.984,0,0,1,.846-1.692,6.624,6.624,0,0,1,1.692-1.354,4.56,4.56,0,0,1,2.876-.508,3.292,3.292,0,0,1,2.03,1.692l2.03,3.891a3.534,3.534,0,0,0,1.354,1.692v.169Zm-2.876-.338a4.488,4.488,0,0,0,1.015-.846,1.427,1.427,0,0,0,.338-1.184l-.846-1.692-1.015.508a5.946,5.946,0,0,0-1.523,1.184,1.868,1.868,0,0,0,0,1.354,1.124,1.124,0,0,0,.846.677A1.431,1.431,0,0,0,350.394,346.333Z" fill="#fff"/>
            <path id="Trazado_201062" data-name="Trazado 201062" d="M359.869,341.6a1.974,1.974,0,0,0,1.015-1.015,1.868,1.868,0,0,0,0-1.354l1.861-.846a3.361,3.361,0,0,1,.169,1.861,3.006,3.006,0,0,1-.677,1.692,4,4,0,0,1-1.523,1.354,4.39,4.39,0,0,1-3.553.338,5.274,5.274,0,0,1-2.707-2.707l-.169-.169a4.954,4.954,0,0,1-.508-3.722,4.121,4.121,0,0,1,2.369-2.707,3.878,3.878,0,0,1,3.045-.338,3.434,3.434,0,0,1,2.2,1.861l-1.861.846a2.274,2.274,0,0,0-1.184-1.015,1.645,1.645,0,0,0-1.523.169,2.263,2.263,0,0,0-1.184,1.354,3.355,3.355,0,0,0,.508,2.369l.169.338a4.463,4.463,0,0,0,1.523,1.861A2.206,2.206,0,0,0,359.869,341.6Z" fill="#fff"/>
            <path id="Trazado_201063" data-name="Trazado 201063" d="M360.207,329.245a1.839,1.839,0,0,1-.169-.846,1.321,1.321,0,0,1,.677-.677,2.146,2.146,0,0,1,1.015-.169c.338,0,.508.338.677.677a.755.755,0,0,1,0,.846,1.321,1.321,0,0,1-.677.677,2.146,2.146,0,0,1-1.015.169A2.337,2.337,0,0,1,360.207,329.245Zm7.614,10.151-2.03,1.015-4.4-8.8,2.03-1.015Z" fill="#fff"/>
            <path id="Trazado_201064" data-name="Trazado 201064" d="M367.313,333.982a4.775,4.775,0,0,1-.677-2.538,3.885,3.885,0,0,1,.677-2.369,6.034,6.034,0,0,1,1.861-1.692,4.055,4.055,0,0,1,3.384-.338,4.619,4.619,0,0,1,2.707,2.369l.169.508a4.774,4.774,0,0,1,.677,2.538,3.884,3.884,0,0,1-.677,2.369,6.034,6.034,0,0,1-1.861,1.692,3.786,3.786,0,0,1-3.553.169,4.718,4.718,0,0,1-2.707-2.707Zm.677-10.321,2.2-1.184-1.015,3.553-1.523.846Zm1.354,9.475A4.58,4.58,0,0,0,371.035,335a2.253,2.253,0,0,0,3.215-1.523,5.179,5.179,0,0,0-.508-2.538,4.58,4.58,0,0,0-1.692-1.861,2.253,2.253,0,0,0-3.215,1.523A3.786,3.786,0,0,0,369.343,333.137Z" fill="#fff"/>
            <path id="Trazado_201065" data-name="Trazado 201065" d="M376.788,323.831l.508,1.015a3.782,3.782,0,0,1,2.03-2.538c1.861-.846,3.215-.338,4.4,1.692l2.876,5.752-2.03,1.015-2.876-5.752A2.873,2.873,0,0,0,380.679,324a1.357,1.357,0,0,0-1.354.169,1.916,1.916,0,0,0-1.184,2.03l3.045,6.26-2.03,1.015-4.4-8.8Z" fill="#fff"/>
          </g>
          <g id="Grupo_138853" data-name="Grupo 138853">
            <g id="Grupo_138852" data-name="Grupo 138852">
              <path id="Trazado_201066" data-name="Trazado 201066" d="M50.757,416.04l-4.907,2.369,1.861,3.722,5.752-2.876.846,1.692-7.783,3.891-5.922-11.843,7.614-3.891.846,1.692-5.583,2.876,1.692,3.215,4.907-2.369Z" fill="#0d2380"/>
              <path id="Trazado_201067" data-name="Trazado 201067" d="M59.386,415.363a.93.93,0,0,0-.846-.508,7.007,7.007,0,0,0-1.692.169,8.492,8.492,0,0,1-2.03.338,2.783,2.783,0,0,1-2.538-1.354,2.883,2.883,0,0,1,0-2.369,3.949,3.949,0,0,1,2.03-2.03,4.56,4.56,0,0,1,2.876-.508,3.019,3.019,0,0,1,2.03,1.523l-2.03,1.015a1.124,1.124,0,0,0-.846-.677,2,2,0,0,0-1.354.169,1.39,1.39,0,0,0-.846.846,1.079,1.079,0,0,0,0,1.015c.169.338.338.508.677.508a4.733,4.733,0,0,0,1.861-.338,11.641,11.641,0,0,1,2.2-.338,3.187,3.187,0,0,1,1.354.338,1.733,1.733,0,0,1,.846,1.015,2.89,2.89,0,0,1,0,2.369,4.335,4.335,0,0,1-2.2,2.03,4.683,4.683,0,0,1-2.2.508,6.082,6.082,0,0,1-1.861-.338,2.666,2.666,0,0,1-1.184-1.184l1.861-1.015a2.256,2.256,0,0,0,1.015.846,1.726,1.726,0,0,0,1.523-.338c.508-.338.846-.508,1.015-.846C59.555,416.04,59.555,415.7,59.386,415.363Z" fill="#0d2380"/>
              <path id="Trazado_201068" data-name="Trazado 201068" d="M61.247,403.689l1.015,2.2,1.523-.846.677,1.523-1.523.846,2.369,4.907a2.336,2.336,0,0,0,.508.677,1.839,1.839,0,0,0,.846-.169c.169-.169.508-.338.677-.508l.846,1.523a5.141,5.141,0,0,1-1.184.846c-1.523.677-2.707.338-3.553-1.354l-2.538-4.907-1.523.677-.677-1.523,1.523-.677-1.015-2.2Z" fill="#0d2380"/>
              <path id="Trazado_201069" data-name="Trazado 201069" d="M75.121,410.457l-.677-.677a3.435,3.435,0,0,1-1.861,2.2,3.381,3.381,0,0,1-2.538.338,2.207,2.207,0,0,1-1.692-1.523,2.592,2.592,0,0,1,0-2.707,6.639,6.639,0,0,1,2.538-2.2l1.184-.677-.338-.508a1.39,1.39,0,0,0-.846-.846,1.357,1.357,0,0,0-1.354.169,1.733,1.733,0,0,0-1.015.846,1.079,1.079,0,0,0,0,1.015l-2.03,1.015a2.389,2.389,0,0,1-.169-1.523,3.984,3.984,0,0,1,.846-1.692,6.624,6.624,0,0,1,1.692-1.354,4.56,4.56,0,0,1,2.876-.508,3.292,3.292,0,0,1,2.03,1.692l2.03,3.891a3.534,3.534,0,0,0,1.354,1.692v.169Zm-7.275-11.843,2.2-1.184-1.015,3.553-1.523.846Zm4.4,11.5a4.486,4.486,0,0,0,1.015-.846,2.445,2.445,0,0,0,.338-1.184l-.846-1.692-1.015.508a5.946,5.946,0,0,0-1.523,1.184c-.338.338-.169.846,0,1.354a1.124,1.124,0,0,0,.846.677C71.4,410.457,71.737,410.457,72.244,410.118Z" fill="#0d2380"/>
              <path id="Trazado_201070" data-name="Trazado 201070" d="M76.305,398.952l.508,1.015a3.782,3.782,0,0,1,2.03-2.538c1.861-.846,3.215-.338,4.4,1.692l2.876,5.752-2.03,1.015-2.876-5.752a2.873,2.873,0,0,0-1.015-1.015,1.357,1.357,0,0,0-1.354.169,1.916,1.916,0,0,0-1.184,2.03l3.045,6.26-2.03,1.015-4.4-8.8Z" fill="#0d2380"/>
              <path id="Trazado_201071" data-name="Trazado 201071" d="M85.441,399.8a6.076,6.076,0,0,1-.677-3.722,3.253,3.253,0,0,1,1.861-2.538,3.088,3.088,0,0,1,2.707-.169l-2.2-4.568,2.03-1.015,6.26,12.52-1.861.846-.508-.846a3.02,3.02,0,0,1-1.861,2.2,3.236,3.236,0,0,1-3.045,0A6.883,6.883,0,0,1,85.441,399.8Zm2.2-.846a5.969,5.969,0,0,0,1.523,1.861,1.833,1.833,0,0,0,1.861,0,1.916,1.916,0,0,0,1.184-2.03l-1.861-3.722a2.08,2.08,0,0,0-2.2-.169,2.152,2.152,0,0,0-1.184,1.523A4.085,4.085,0,0,0,87.641,398.952Z" fill="#0d2380"/>
              <path id="Trazado_201072" data-name="Trazado 201072" d="M102.7,396.752l-.677-.677a3.434,3.434,0,0,1-1.861,2.2,3.381,3.381,0,0,1-2.538.338,2.207,2.207,0,0,1-1.692-1.523,2.592,2.592,0,0,1,0-2.707,6.639,6.639,0,0,1,2.538-2.2l1.184-.677L99.315,391a1.39,1.39,0,0,0-.846-.846,1.357,1.357,0,0,0-1.354.169,1.733,1.733,0,0,0-1.015.846,1.079,1.079,0,0,0,0,1.015L94.07,393.2a2.389,2.389,0,0,1-.169-1.523,3.984,3.984,0,0,1,.846-1.692,6.624,6.624,0,0,1,1.692-1.354,4.56,4.56,0,0,1,2.876-.508,3.292,3.292,0,0,1,2.03,1.692l2.03,3.891a3.534,3.534,0,0,0,1.354,1.692v.169Zm-2.876-.338a4.486,4.486,0,0,0,1.015-.846,2.445,2.445,0,0,0,.338-1.184l-.846-1.692-1.015.508a5.946,5.946,0,0,0-1.523,1.184c-.338.338-.169.846,0,1.354a1.124,1.124,0,0,0,.846.677A1.445,1.445,0,0,0,99.823,396.414Z" fill="#0d2380"/>
              <path id="Trazado_201073" data-name="Trazado 201073" d="M107.605,385.586c-.338.169-.508.169-.846.338a2.387,2.387,0,0,0-1.354,2.03l3.045,6.091-2.03,1.015-4.4-8.8,1.861-1.015.508,1.015a2.8,2.8,0,0,1,1.354-2.2,1.279,1.279,0,0,1,.677-.169Z" fill="#0d2380"/>
              <path id="Trazado_201074" data-name="Trazado 201074" d="M109.636,387.616a6.076,6.076,0,0,1-.677-3.722,3.253,3.253,0,0,1,1.861-2.538,3.088,3.088,0,0,1,2.707-.169l-2.2-4.568,2.03-1.015,6.26,12.52-1.861.846-.508-.846a3.02,3.02,0,0,1-1.861,2.2,3.236,3.236,0,0,1-3.045,0C111.158,390.154,110.312,389.139,109.636,387.616Zm2.03-.677a5.969,5.969,0,0,0,1.523,1.861,1.833,1.833,0,0,0,1.861,0,1.916,1.916,0,0,0,1.184-2.03l-1.861-3.722a2.081,2.081,0,0,0-2.2-.169,1.626,1.626,0,0,0-1.015,1.523A3.787,3.787,0,0,0,111.666,386.939Z" fill="#0d2380"/>
            </g>
          </g>
          <path id="Trazado_201075" data-name="Trazado 201075" d="M313.68,224.516l43.313,66.83,155.317-75.459Z" fill="#b0c0d2"/>
          <g id="Grupo_138855" data-name="Grupo 138855">
            <g id="Grupo_138854" data-name="Grupo 138854">
              <path id="Trazado_201076" data-name="Trazado 201076" d="M362.914,264.445l-4.907,2.369,1.861,3.722,5.752-2.876.846,1.692-7.783,3.891L352.763,261.4l7.614-3.891.846,1.692-5.583,2.876,1.692,3.215,4.907-2.369Z" fill="#0d2380"/>
              <path id="Trazado_201077" data-name="Trazado 201077" d="M371.543,263.6a.93.93,0,0,0-.846-.508,7.007,7.007,0,0,0-1.692.169,8.492,8.492,0,0,1-2.03.338,2.783,2.783,0,0,1-2.538-1.354,2.883,2.883,0,0,1,0-2.369,3.949,3.949,0,0,1,2.03-2.03,4.56,4.56,0,0,1,2.876-.508,3.019,3.019,0,0,1,2.03,1.523l-2.03,1.015a1.124,1.124,0,0,0-.846-.677,2,2,0,0,0-1.354.169,1.39,1.39,0,0,0-.846.846,1.078,1.078,0,0,0,0,1.015c.169.338.338.508.677.508a4.733,4.733,0,0,0,1.861-.338,11.641,11.641,0,0,1,2.2-.338,3.187,3.187,0,0,1,1.354.338,1.733,1.733,0,0,1,.846,1.015,2.89,2.89,0,0,1,0,2.369,4.335,4.335,0,0,1-2.2,2.03,4.684,4.684,0,0,1-2.2.508,6.083,6.083,0,0,1-1.861-.338,2.666,2.666,0,0,1-1.184-1.184l1.861-1.015a2.255,2.255,0,0,0,1.015.846,1.726,1.726,0,0,0,1.523-.338c.508-.338.846-.508,1.015-.846C371.712,264.276,371.712,263.938,371.543,263.6Z" fill="#0d2380"/>
              <path id="Trazado_201078" data-name="Trazado 201078" d="M373.4,252.094l1.015,2.2,1.523-.846.677,1.523-1.523.846,2.369,4.907a2.335,2.335,0,0,0,.508.677,1.84,1.84,0,0,0,.846-.169c.169-.169.508-.338.677-.508l.846,1.523a5.143,5.143,0,0,1-1.184.846c-1.523.677-2.707.338-3.553-1.354l-2.538-4.907-1.523.677-.677-1.523,1.523-.677-1.015-2.2Z" fill="#0d2380"/>
              <path id="Trazado_201079" data-name="Trazado 201079" d="M387.108,258.862l-.677-.677a3.434,3.434,0,0,1-1.861,2.2,3.381,3.381,0,0,1-2.538.338,2.207,2.207,0,0,1-1.692-1.523,2.592,2.592,0,0,1,0-2.707,6.64,6.64,0,0,1,2.538-2.2l1.184-.677-.338-.508a1.39,1.39,0,0,0-.846-.846,1.357,1.357,0,0,0-1.354.169,1.733,1.733,0,0,0-1.015.846,1.078,1.078,0,0,0,0,1.015l-2.03,1.015a2.389,2.389,0,0,1-.169-1.523,3.984,3.984,0,0,1,.846-1.692,6.625,6.625,0,0,1,1.692-1.354,4.56,4.56,0,0,1,2.876-.508,3.292,3.292,0,0,1,2.03,1.692l2.03,3.891a3.534,3.534,0,0,0,1.354,1.692v.169Zm-7.275-12.013,2.2-1.184-1.015,3.553-1.523.846Zm4.4,11.674a4.487,4.487,0,0,0,1.015-.846,2.445,2.445,0,0,0,.338-1.184l-.846-1.692-1.015.508a5.946,5.946,0,0,0-1.523,1.184c-.338.338-.169.846,0,1.354a1.124,1.124,0,0,0,.846.677A1.008,1.008,0,0,0,384.232,258.523Z" fill="#0d2380"/>
              <path id="Trazado_201080" data-name="Trazado 201080" d="M388.462,247.188l.508,1.015a3.782,3.782,0,0,1,2.03-2.538c1.861-.846,3.215-.338,4.4,1.692l2.876,5.752-2.03,1.015-2.876-5.752a2.873,2.873,0,0,0-1.015-1.015,1.358,1.358,0,0,0-1.354.169,1.916,1.916,0,0,0-1.184,2.03l3.045,6.26-2.03,1.015-4.4-8.8Z" fill="#0d2380"/>
              <path id="Trazado_201081" data-name="Trazado 201081" d="M397.6,248.034a6.076,6.076,0,0,1-.677-3.722,3.253,3.253,0,0,1,1.861-2.538,3.088,3.088,0,0,1,2.707-.169l-2.2-4.568,2.03-1.015,6.26,12.52-1.861.846-.508-.846a3.02,3.02,0,0,1-1.861,2.2,3.236,3.236,0,0,1-3.045,0A4.276,4.276,0,0,1,397.6,248.034Zm2.03-.846a5.969,5.969,0,0,0,1.523,1.861,1.826,1.826,0,0,0,1.861,0,1.916,1.916,0,0,0,1.184-2.03l-1.861-3.722a2.081,2.081,0,0,0-2.2-.169,2.152,2.152,0,0,0-1.184,1.523A4.085,4.085,0,0,0,399.628,247.188Z" fill="#0d2380"/>
              <path id="Trazado_201082" data-name="Trazado 201082" d="M414.856,244.988l-.677-.677a3.435,3.435,0,0,1-1.861,2.2,3.381,3.381,0,0,1-2.538.338,2.207,2.207,0,0,1-1.692-1.523,2.592,2.592,0,0,1,0-2.707,6.639,6.639,0,0,1,2.538-2.2l1.184-.677-.338-.508a1.39,1.39,0,0,0-.846-.846,1.357,1.357,0,0,0-1.354.169,1.733,1.733,0,0,0-1.015.846,1.079,1.079,0,0,0,0,1.015l-2.03,1.015a2.389,2.389,0,0,1-.169-1.523,3.984,3.984,0,0,1,.846-1.692,6.624,6.624,0,0,1,1.692-1.354,4.56,4.56,0,0,1,2.876-.508,3.292,3.292,0,0,1,2.03,1.692l2.03,3.891a3.534,3.534,0,0,0,1.354,1.692v.169Zm-2.876-.338a4.486,4.486,0,0,0,1.015-.846,2.445,2.445,0,0,0,.338-1.184l-.846-1.692-1.015.508a5.946,5.946,0,0,0-1.523,1.184c-.338.338-.169.846,0,1.354a1.124,1.124,0,0,0,.846.677C411.133,244.988,411.472,244.988,411.979,244.65Z" fill="#0d2380"/>
              <path id="Trazado_201083" data-name="Trazado 201083" d="M419.762,233.822c-.338.169-.508.169-.846.338a2.387,2.387,0,0,0-1.354,2.03l3.045,6.091-2.03,1.015-4.4-8.8,1.861-1.015.508,1.015a2.8,2.8,0,0,1,1.354-2.2,1.279,1.279,0,0,1,.677-.169Z" fill="#0d2380"/>
              <path id="Trazado_201084" data-name="Trazado 201084" d="M421.623,236.021a6.076,6.076,0,0,1-.677-3.722,3.253,3.253,0,0,1,1.861-2.538,3.088,3.088,0,0,1,2.707-.169l-2.2-4.568,2.03-1.015,6.26,12.52-1.861.846-.508-.846a3.02,3.02,0,0,1-1.861,2.2,3.236,3.236,0,0,1-3.045,0A5.915,5.915,0,0,1,421.623,236.021Zm2.2-.846a5.969,5.969,0,0,0,1.523,1.861,1.833,1.833,0,0,0,1.861,0,1.916,1.916,0,0,0,1.184-2.03l-1.861-3.722a2.081,2.081,0,0,0-2.2-.169,1.626,1.626,0,0,0-1.015,1.523C422.977,233.314,423.315,234.16,423.823,235.175Z" fill="#0d2380"/>
            </g>
          </g>
          <path id="Trazado_201085" data-name="Trazado 201085" d="M610.1,465.105l-12.182,5.414V459.691Z" fill="#12263f"/>
          <line id="Línea_512" data-name="Línea 512" y1="281.364" transform="translate(615.177 183.741)" fill="none" stroke="#12263f" stroke-miterlimit="10" stroke-width="2.39"/>
          <path id="Trazado_201086" data-name="Trazado 201086" d="M615.177,171.729l5.414,12.013H609.763Z" fill="#12263f"/>
          <g id="Grupo_138856" data-name="Grupo 138856">
            <circle id="Elipse_5765" data-name="Elipse 5765" cx="89.504" cy="89.504" r="89.504" transform="translate(65.981 214.296) rotate(-22.5)" fill="#b0c0d2"/>
            <path id="Trazado_201087" data-name="Trazado 201087" d="M182.9,175.62a87.133,87.133,0,1,1-87.133,87.133A87.226,87.226,0,0,1,182.9,175.62m0-4.907a92.04,92.04,0,1,0,92.04,92.04,92.027,92.027,0,0,0-92.04-92.04Z" fill="#88afd1"/>
          </g>
          <circle id="Elipse_5766" data-name="Elipse 5766" cx="100.668" cy="100.668" r="100.668" transform="translate(82.227 162.085)" fill="none" stroke="#0d2380" stroke-miterlimit="10" stroke-width="4.759"/>
          <g id="Grupo_138857" data-name="Grupo 138857">
            <path id="Trazado_201088" data-name="Trazado 201088" d="M124.355,231.96h-4.907l-1.015,3.045h-2.369l4.907-12.859H123l4.907,12.859H125.54Zm-4.4-1.692h3.722l-1.861-5.245Z" fill="#0d2380"/>
            <path id="Trazado_201089" data-name="Trazado 201089" d="M132.815,233.483a1.921,1.921,0,0,0,1.354-.508,1.536,1.536,0,0,0,.508-1.184h2.03a2.858,2.858,0,0,1-.508,1.692,4.561,4.561,0,0,1-1.354,1.184,3.857,3.857,0,0,1-1.861.508,4.332,4.332,0,0,1-3.215-1.354,4.766,4.766,0,0,1-1.184-3.553V230.1a5.027,5.027,0,0,1,1.184-3.553,4.332,4.332,0,0,1,3.215-1.354,3.572,3.572,0,0,1,2.707,1.015,4.446,4.446,0,0,1,1.184,2.538h-2.03a1.747,1.747,0,0,0-1.861-1.861,1.649,1.649,0,0,0-1.523.677,3.839,3.839,0,0,0-.508,2.2v.338a4.481,4.481,0,0,0,.508,2.369A1.287,1.287,0,0,0,132.815,233.483Z" fill="#0d2380"/>
            <path id="Trazado_201090" data-name="Trazado 201090" d="M141.105,223.163v2.369H142.8v1.523h-1.692V232.3a1.268,1.268,0,0,0,.169.846c.169.169.338.169.846.169a1.017,1.017,0,0,0,.677-.169v1.692a4.2,4.2,0,0,1-1.354.169c-1.692,0-2.538-.846-2.538-2.707v-5.414h-1.523v-1.523h1.523v-2.369h2.2Z" fill="#0d2380"/>
            <path id="Trazado_201091" data-name="Trazado 201091" d="M150.072,233.991a3.681,3.681,0,0,1-2.707,1.184,3.347,3.347,0,0,1-2.369-.846,4.156,4.156,0,0,1-.846-2.538V225.7h2.2v6.091c0,1.184.508,1.861,1.523,1.861a1.916,1.916,0,0,0,2.03-1.184V225.7h2.369v9.475h-2.03Z" fill="#0d2380"/>
            <path id="Trazado_201092" data-name="Trazado 201092" d="M160.054,235.006a1.268,1.268,0,0,1-.169-.846,3.443,3.443,0,0,1-2.538,1.015,3.668,3.668,0,0,1-2.369-.846,2.277,2.277,0,0,1-.846-2.03,2.56,2.56,0,0,1,1.184-2.369,5.6,5.6,0,0,1,3.215-.846h1.354v-.677a2.445,2.445,0,0,0-.338-1.184,1.536,1.536,0,0,0-1.184-.508,2.445,2.445,0,0,0-1.184.338.93.93,0,0,0-.508.846h-2.2a2.729,2.729,0,0,1,.508-1.523,2.631,2.631,0,0,1,1.354-1.015,3.967,3.967,0,0,1,2.03-.338,4.305,4.305,0,0,1,2.707.846,2.839,2.839,0,0,1,1.015,2.369v4.23a6.31,6.31,0,0,0,.338,2.03v.169h-2.369Zm-2.369-1.523a3.137,3.137,0,0,0,1.184-.338,2.039,2.039,0,0,0,.846-.846v-1.861h-1.184a5.223,5.223,0,0,0-1.861.338,1.713,1.713,0,0,0-.677,1.184,2.4,2.4,0,0,0,.338,1.015A2.25,2.25,0,0,0,157.686,233.483Z" fill="#0d2380"/>
            <path id="Trazado_201093" data-name="Trazado 201093" d="M169.191,227.392h-.846a1.916,1.916,0,0,0-2.03,1.184v6.429h-2.2v-9.475h2.03v1.015a2.3,2.3,0,0,1,2.2-1.184c.338,0,.508,0,.677.169Z" fill="#0d2380"/>
          </g>
          <g id="Grupo_138859" data-name="Grupo 138859">
            <g id="Grupo_138858" data-name="Grupo 138858">
              <path id="Trazado_201094" data-name="Trazado 201094" d="M189.663,230.269v4.737h-2.2V222.147h4.907a4.608,4.608,0,0,1,3.384,1.184,4.085,4.085,0,0,1,0,5.752,5.369,5.369,0,0,1-3.384,1.015h-2.707Zm0-1.861h2.707a3.039,3.039,0,0,0,1.861-.508,1.782,1.782,0,0,0,.677-1.692,2.172,2.172,0,0,0-.677-1.692,2.585,2.585,0,0,0-1.692-.677h-2.707v4.568Z" fill="#0d2380"/>
              <path id="Trazado_201095" data-name="Trazado 201095" d="M201,235.006h-2.2V221.471H201Z" fill="#0d2380"/>
              <path id="Trazado_201096" data-name="Trazado 201096" d="M208.951,235.006a1.268,1.268,0,0,1-.169-.846,3.443,3.443,0,0,1-2.538,1.015,3.668,3.668,0,0,1-2.369-.846,2.277,2.277,0,0,1-.846-2.03,2.56,2.56,0,0,1,1.184-2.369,5.6,5.6,0,0,1,3.215-.846h1.354v-.677a2.445,2.445,0,0,0-.338-1.184,1.536,1.536,0,0,0-1.184-.508,2.445,2.445,0,0,0-1.184.338.93.93,0,0,0-.508.846h-2.2a2.729,2.729,0,0,1,.508-1.523,2.631,2.631,0,0,1,1.354-1.015,3.967,3.967,0,0,1,2.03-.338,4.305,4.305,0,0,1,2.707.846,2.839,2.839,0,0,1,1.015,2.369v4.23a6.31,6.31,0,0,0,.338,2.03v.169h-2.369Zm-2.2-1.523a3.137,3.137,0,0,0,1.184-.338,2.039,2.039,0,0,0,.846-.846v-1.861H207.6a5.223,5.223,0,0,0-1.861.338,1.713,1.713,0,0,0-.677,1.184,2.4,2.4,0,0,0,.338,1.015A2.25,2.25,0,0,0,206.751,233.483Z" fill="#0d2380"/>
              <path id="Trazado_201097" data-name="Trazado 201097" d="M215.041,225.531v1.015a3.532,3.532,0,0,1,2.707-1.354c2.03,0,3.045,1.184,3.045,3.384v6.26h-2.2v-6.091a2.621,2.621,0,0,0-.338-1.354,1.665,1.665,0,0,0-1.354-.508,1.83,1.83,0,0,0-1.861,1.184v6.768h-2.2v-9.475h2.2Z" fill="#0d2380"/>
              <path id="Trazado_201098" data-name="Trazado 201098" d="M223.163,222.993a1.184,1.184,0,1,1,2.369,0c0,.338-.169.508-.338.846a1.227,1.227,0,0,1-1.692,0C223.163,223.67,223.163,223.332,223.163,222.993Zm2.2,12.013h-2.03v-9.475h2.2v9.475Z" fill="#0d2380"/>
              <path id="Trazado_201099" data-name="Trazado 201099" d="M228.407,235.006v-7.952h-1.523v-1.523h1.523v-.846a3.347,3.347,0,0,1,.846-2.369,3.5,3.5,0,0,1,2.538-.846,2.879,2.879,0,0,1,1.184.169v1.692h-.846a1.346,1.346,0,0,0-1.523,1.523v.846h1.861v1.523h-1.861v7.952h-2.2Z" fill="#0d2380"/>
              <path id="Trazado_201100" data-name="Trazado 201100" d="M234.16,222.993a1.184,1.184,0,1,1,2.369,0c0,.338-.169.508-.338.846a1.227,1.227,0,0,1-1.692,0C234.16,223.67,234.16,223.332,234.16,222.993Zm2.2,12.013h-2.2v-9.475h2.2Z" fill="#0d2380"/>
              <path id="Trazado_201101" data-name="Trazado 201101" d="M242.619,233.483a1.921,1.921,0,0,0,1.354-.508,1.536,1.536,0,0,0,.508-1.184h2.03a2.858,2.858,0,0,1-.508,1.692,4.561,4.561,0,0,1-1.354,1.184,3.857,3.857,0,0,1-1.861.508,4.332,4.332,0,0,1-3.215-1.354,4.766,4.766,0,0,1-1.184-3.553V230.1a5.027,5.027,0,0,1,1.184-3.553,4.332,4.332,0,0,1,3.215-1.354,3.572,3.572,0,0,1,2.707,1.015,4.446,4.446,0,0,1,1.184,2.538h-2.03a1.747,1.747,0,0,0-1.861-1.861,1.649,1.649,0,0,0-1.523.677,3.839,3.839,0,0,0-.508,2.2v.338a4.481,4.481,0,0,0,.508,2.369A1.287,1.287,0,0,0,242.619,233.483Z" fill="#0d2380"/>
              <path id="Trazado_201102" data-name="Trazado 201102" d="M253.786,235.006a1.268,1.268,0,0,1-.169-.846,3.443,3.443,0,0,1-2.538,1.015,3.668,3.668,0,0,1-2.369-.846,2.277,2.277,0,0,1-.846-2.03,2.56,2.56,0,0,1,1.184-2.369,5.6,5.6,0,0,1,3.215-.846h1.354v-.677a2.445,2.445,0,0,0-.338-1.184,1.536,1.536,0,0,0-1.184-.508,2.445,2.445,0,0,0-1.184.338.93.93,0,0,0-.508.846h-2.2a2.729,2.729,0,0,1,.508-1.523,2.631,2.631,0,0,1,1.354-1.015,3.967,3.967,0,0,1,2.03-.338,4.305,4.305,0,0,1,2.707.846,2.839,2.839,0,0,1,1.015,2.369v4.23a6.311,6.311,0,0,0,.338,2.03v.169h-2.369Zm-2.369-1.523a3.137,3.137,0,0,0,1.184-.338,2.039,2.039,0,0,0,.846-.846v-1.861h-1.184a5.223,5.223,0,0,0-1.861.338,1.713,1.713,0,0,0-.677,1.184,2.4,2.4,0,0,0,.338,1.015A2.7,2.7,0,0,0,251.417,233.483Z" fill="#0d2380"/>
              <path id="Trazado_201103" data-name="Trazado 201103" d="M262.922,227.392h-.846a1.916,1.916,0,0,0-2.03,1.184v6.429h-2.2v-9.475h2.03v1.015a2.3,2.3,0,0,1,2.2-1.184c.338,0,.508,0,.677.169Z" fill="#0d2380"/>
            </g>
          </g>
          <g id="Grupo_138861" data-name="Grupo 138861">
            <g id="Grupo_138860" data-name="Grupo 138860">
              <path id="Trazado_201104" data-name="Trazado 201104" d="M115.219,299.129l3.215-9.982H120.8l-4.568,12.859h-2.2l-4.568-12.859h2.369Z" fill="#0d2380"/>
              <path id="Trazado_201105" data-name="Trazado 201105" d="M126.047,302.175a4.072,4.072,0,0,1-3.215-1.354,4.608,4.608,0,0,1-1.184-3.384V297.1a5.65,5.65,0,0,1,.508-2.538,3.7,3.7,0,0,1,1.523-1.692,4.8,4.8,0,0,1,2.2-.677,3.62,3.62,0,0,1,3.045,1.184,5.551,5.551,0,0,1,1.015,3.553v.846h-6.429a2.424,2.424,0,0,0,.846,1.861,2.172,2.172,0,0,0,1.692.677,2.56,2.56,0,0,0,2.369-1.184l1.184,1.015a3.994,3.994,0,0,1-1.523,1.354A2.954,2.954,0,0,1,126.047,302.175Zm-.338-8.29a1.539,1.539,0,0,0-1.354.677,3.927,3.927,0,0,0-.677,1.692h4.061v-.169a2.858,2.858,0,0,0-.508-1.692A2.362,2.362,0,0,0,125.709,293.884Z" fill="#0d2380"/>
              <path id="Trazado_201106" data-name="Trazado 201106" d="M136.368,294.392h-.846a1.916,1.916,0,0,0-2.03,1.184v6.429h-2.2v-9.475h2.03v1.015a2.3,2.3,0,0,1,2.2-1.184c.338,0,.508,0,.677.169Z" fill="#0d2380"/>
              <path id="Trazado_201107" data-name="Trazado 201107" d="M137.721,289.993a1.184,1.184,0,1,1,2.369,0c0,.338-.169.508-.338.846a1.227,1.227,0,0,1-1.692,0C137.89,290.5,137.721,290.331,137.721,289.993Zm2.369,11.843h-2.2v-9.475h2.2Z" fill="#0d2380"/>
              <path id="Trazado_201108" data-name="Trazado 201108" d="M143.135,301.836v-7.952h-1.523v-1.523h1.523v-.846a3.347,3.347,0,0,1,.846-2.369,3.5,3.5,0,0,1,2.538-.846,2.879,2.879,0,0,1,1.184.169v1.692h-.846a1.346,1.346,0,0,0-1.523,1.523v.846H147.2v1.523h-1.861v7.952h-2.2Z" fill="#0d2380"/>
              <path id="Trazado_201109" data-name="Trazado 201109" d="M148.719,289.993a1.184,1.184,0,1,1,2.369,0c0,.338-.169.508-.338.846a1.227,1.227,0,0,1-1.692,0C148.888,290.5,148.719,290.331,148.719,289.993Zm2.369,11.843h-2.2v-9.475h2.2Z" fill="#0d2380"/>
              <path id="Trazado_201110" data-name="Trazado 201110" d="M157.347,300.314a1.921,1.921,0,0,0,1.354-.508,1.536,1.536,0,0,0,.508-1.184h2.03a3.264,3.264,0,0,1-.508,1.692,4.561,4.561,0,0,1-1.354,1.184,3.857,3.857,0,0,1-1.861.508,4.332,4.332,0,0,1-3.215-1.354,4.766,4.766,0,0,1-1.184-3.553v-.169a5.027,5.027,0,0,1,1.184-3.553,4.332,4.332,0,0,1,3.215-1.354,3.572,3.572,0,0,1,2.707,1.015,4.446,4.446,0,0,1,1.184,2.538h-2.03a1.747,1.747,0,0,0-1.861-1.861,1.649,1.649,0,0,0-1.523.677,3.839,3.839,0,0,0-.508,2.2v.338a4.481,4.481,0,0,0,.508,2.369C155.994,300.144,156.671,300.314,157.347,300.314Z" fill="#0d2380"/>
              <path id="Trazado_201111" data-name="Trazado 201111" d="M168.514,301.836a1.268,1.268,0,0,1-.169-.846,3.443,3.443,0,0,1-2.538,1.015,3.668,3.668,0,0,1-2.369-.846,2.277,2.277,0,0,1-.846-2.03,2.56,2.56,0,0,1,1.184-2.369,5.6,5.6,0,0,1,3.215-.846h1.354v-.677a2.445,2.445,0,0,0-.338-1.184,1.317,1.317,0,0,0-1.184-.508,2.445,2.445,0,0,0-1.184.338.93.93,0,0,0-.508.846h-2.2a2.729,2.729,0,0,1,.508-1.523,2.631,2.631,0,0,1,1.354-1.015,6.31,6.31,0,0,1,2.03-.338,4.305,4.305,0,0,1,2.707.846,2.839,2.839,0,0,1,1.015,2.369v4.23a6.31,6.31,0,0,0,.338,2.03v.169h-2.369Zm-2.369-1.523a3.137,3.137,0,0,0,1.184-.338,2.039,2.039,0,0,0,.846-.846v-1.861h-1.184a5.223,5.223,0,0,0-1.861.338,1.713,1.713,0,0,0-.677,1.184,2.4,2.4,0,0,0,.338,1.015C164.961,300.144,165.638,300.314,166.145,300.314Z" fill="#0d2380"/>
              <path id="Trazado_201112" data-name="Trazado 201112" d="M177.481,294.392h-.846a1.916,1.916,0,0,0-2.03,1.184v6.429h-2.03v-9.475h2.03v1.015a2.3,2.3,0,0,1,2.2-1.184c.338,0,.508,0,.677.169Z" fill="#0d2380"/>
            </g>
          </g>
          <g id="Grupo_138863" data-name="Grupo 138863">
            <g id="Grupo_138862" data-name="Grupo 138862">
              <path id="Trazado_201113" data-name="Trazado 201113" d="M207.428,301.836h-2.2v-5.753h-5.752v5.753h-2.2V288.978h2.2v5.414h5.752v-5.414h2.2Z" fill="#0d2380"/>
              <path id="Trazado_201114" data-name="Trazado 201114" d="M215.549,301.836a1.268,1.268,0,0,1-.169-.846,3.443,3.443,0,0,1-2.538,1.015,3.668,3.668,0,0,1-2.369-.846,2.277,2.277,0,0,1-.846-2.03,2.56,2.56,0,0,1,1.184-2.369,5.6,5.6,0,0,1,3.215-.846h1.354v-.677a2.445,2.445,0,0,0-.338-1.184,1.317,1.317,0,0,0-1.184-.508,2.445,2.445,0,0,0-1.184.338.93.93,0,0,0-.508.846H209.8a2.729,2.729,0,0,1,.508-1.523,2.631,2.631,0,0,1,1.354-1.015,6.31,6.31,0,0,1,2.03-.338,4.305,4.305,0,0,1,2.707.846,2.839,2.839,0,0,1,1.015,2.369v4.23a6.311,6.311,0,0,0,.338,2.03v.169h-2.2Zm-2.369-1.523a3.137,3.137,0,0,0,1.184-.338,2.039,2.039,0,0,0,.846-.846v-1.861h-1.184a5.223,5.223,0,0,0-1.861.338,1.713,1.713,0,0,0-.677,1.184,2.4,2.4,0,0,0,.338,1.015C212,300.144,212.673,300.314,213.18,300.314Z" fill="#0d2380"/>
              <path id="Trazado_201115" data-name="Trazado 201115" d="M223.5,300.314a1.921,1.921,0,0,0,1.354-.508,1.536,1.536,0,0,0,.508-1.184h2.03a3.264,3.264,0,0,1-.508,1.692,4.561,4.561,0,0,1-1.354,1.184,3.857,3.857,0,0,1-1.861.508,4.332,4.332,0,0,1-3.215-1.354,4.766,4.766,0,0,1-1.184-3.553v-.169a5.027,5.027,0,0,1,1.184-3.553,4.332,4.332,0,0,1,3.215-1.354,3.572,3.572,0,0,1,2.707,1.015,4.446,4.446,0,0,1,1.184,2.538h-2.03a1.747,1.747,0,0,0-1.861-1.861,1.649,1.649,0,0,0-1.523.677,3.839,3.839,0,0,0-.508,2.2v.338a4.481,4.481,0,0,0,.508,2.369C222.317,300.144,222.824,300.314,223.5,300.314Z" fill="#0d2380"/>
              <path id="Trazado_201116" data-name="Trazado 201116" d="M233.145,302.175a4.072,4.072,0,0,1-3.215-1.354,4.608,4.608,0,0,1-1.184-3.384V297.1a5.65,5.65,0,0,1,.508-2.538,3.7,3.7,0,0,1,1.523-1.692,4.8,4.8,0,0,1,2.2-.677,3.62,3.62,0,0,1,3.045,1.184,5.551,5.551,0,0,1,1.015,3.553v.846h-6.26a2.424,2.424,0,0,0,.846,1.861,2.172,2.172,0,0,0,1.692.677,2.56,2.56,0,0,0,2.369-1.184l1.184,1.015a4,4,0,0,1-1.523,1.354A3.4,3.4,0,0,1,233.145,302.175Zm-.169-8.29a1.539,1.539,0,0,0-1.354.677,3.926,3.926,0,0,0-.677,1.692h4.061v-.169a2.858,2.858,0,0,0-.508-1.692A2.729,2.729,0,0,0,232.976,293.884Z" fill="#0d2380"/>
              <path id="Trazado_201117" data-name="Trazado 201117" d="M243.635,294.392h-.846a1.916,1.916,0,0,0-2.03,1.184v6.429h-2.2v-9.475h2.03v1.015a2.3,2.3,0,0,1,2.2-1.184c.338,0,.508,0,.677.169Z" fill="#0d2380"/>
            </g>
          </g>
          <line id="Línea_513" data-name="Línea 513" y2="183.91" transform="translate(182.895 170.713)" fill="#b0c0d2" stroke="#88afd1" stroke-miterlimit="10" stroke-width="4.914"/>
          <line id="Línea_514" data-name="Línea 514" x2="183.91" transform="translate(90.855 262.753)" fill="#b0c0d2" stroke="#88afd1" stroke-miterlimit="10" stroke-width="4.914"/>
          <g id="Grupo_138868" data-name="Grupo 138868">
            <g id="Grupo_138864" data-name="Grupo 138864">
              <path id="Trazado_201118" data-name="Trazado 201118" d="M153.118,158.87l14.55,4.061L156.5,173.082Z" fill="#0d2380"/>
              <path id="Trazado_201119" data-name="Trazado 201119" d="M153.625,159.378l13.028,3.553-9.982,9.305-3.045-12.858m-1.184-1.184.338,1.354,3.045,12.859.338,1.354,1.015-1.015,9.982-9.305,1.015-1.015-1.523-.338L153.964,158.7l-1.523-.508Z" fill="#fff"/>
            </g>
            <g id="Grupo_138865" data-name="Grupo 138865">
              <path id="Trazado_201120" data-name="Trazado 201120" d="M200.322,362.068l11-10.321L214.7,365.96Z" fill="#0d2380"/>
              <path id="Trazado_201121" data-name="Trazado 201121" d="M211.15,352.593l3.045,12.858L201.168,361.9l9.982-9.305m.338-1.523-1.015,1.015-9.982,9.305-1.015,1.015,1.523.338,13.028,3.553,1.354.338-.338-1.354L212,352.424l-.508-1.354Z" fill="#fff"/>
            </g>
            <g id="Grupo_138866" data-name="Grupo 138866">
              <path id="Trazado_201122" data-name="Trazado 201122" d="M83.073,277.98l10.151,11-14.212,3.553Z" fill="#0d2380"/>
              <path id="Trazado_201123" data-name="Trazado 201123" d="M83.242,278.826l9.305,9.982-12.858,3.045,3.553-13.028m-.508-1.692-.338,1.523-3.553,13.028-.338,1.354,1.354-.338,12.858-3.045,1.354-.338L93.055,288.3l-9.305-9.982-1.015-1.184Z" fill="#fff"/>
            </g>
            <g id="Grupo_138867" data-name="Grupo 138867">
              <path id="Trazado_201124" data-name="Trazado 201124" d="M271.551,232.468l14.212-3.384-4.061,14.55Z" fill="#0d2380"/>
              <path id="Trazado_201125" data-name="Trazado 201125" d="M285.256,229.592,281.7,242.619l-9.305-9.982,12.858-3.045m1.015-1.015-1.354.338-12.858,3.045-1.354.338,1.015,1.015,9.305,9.982,1.015,1.015.338-1.523,3.553-13.028.338-1.184Z" fill="#fff"/>
            </g>
          </g>
          <g id="Grupo_138871" data-name="Grupo 138871">
            <path id="Trazado_201126" data-name="Trazado 201126" d="M196.261,148.38c-21.656-43.313,1.523-98.638,51.6-123.678S355.977,14.72,377.634,58.032" fill="none" stroke="#88afd1" stroke-miterlimit="10" stroke-width="4.914"/>
            <g id="Grupo_138870" data-name="Grupo 138870">
              <g id="Grupo_138869" data-name="Grupo 138869">
                <path id="Trazado_201127" data-name="Trazado 201127" d="M367.313,54.818,380.848,47.2l-.677,14.381Z" fill="#88afd1"/>
                <path id="Trazado_201128" data-name="Trazado 201128" d="M380.172,48.389l-.677,12.182-11-5.752,11.674-6.429m1.523-2.2-2.03,1.184L367.99,53.8l-2.03,1.184L367.99,56l11,5.752,1.692.846.169-2.03.677-12.182.169-2.2Z" fill="#fff"/>
              </g>
            </g>
          </g>
          <g id="Grupo_138874" data-name="Grupo 138874">
            <path id="Trazado_201129" data-name="Trazado 201129" d="M169.867,405.212c28.932,38.745,139.752,30.454,193.554,0,48.727-27.578,82.565-86.964,53.633-125.878" fill="none" stroke="#fff" stroke-miterlimit="10" stroke-width="4.457"/>
            <g id="Grupo_138873" data-name="Grupo 138873">
              <g id="Grupo_138872" data-name="Grupo 138872">
                <path id="Trazado_201130" data-name="Trazado 201130" d="M415.025,275.781l13.2,5.583-13.028,8.967Z" fill="#fff"/>
                <path id="Trazado_201131" data-name="Trazado 201131" d="M415.7,276.627l11.167,4.907-11,7.444-.169-12.351m-1.354-1.861v2.03l.169,12.351v2.369l1.861-1.354,11-7.444,1.861-1.354-2.03-.846-11.167-4.907-1.692-.846Z" fill="#485b96"/>
              </g>
            </g>
          </g>
          <g id="Grupo_138887" data-name="Grupo 138887">
            <g id="Grupo_138875" data-name="Grupo 138875">
              <circle id="Elipse_5767" data-name="Elipse 5767" cx="89.502" cy="89.502" r="89.502" transform="translate(401.828 21.149)" fill="#b0c0d2"/>
              <path id="Trazado_201132" data-name="Trazado 201132" d="M491.33,23.687A87.133,87.133,0,1,1,404.2,110.82,87.226,87.226,0,0,1,491.33,23.687m0-4.907a92.04,92.04,0,1,0,92.04,92.04,92.027,92.027,0,0,0-92.04-92.04Z" fill="#88afd1"/>
            </g>
            <circle id="Elipse_5768" data-name="Elipse 5768" cx="100.668" cy="100.668" r="100.668" transform="translate(390.661 9.982)" fill="none" stroke="#0d2380" stroke-miterlimit="10" stroke-width="4.759"/>
            <g id="Grupo_138876" data-name="Grupo 138876">
              <path id="Trazado_201133" data-name="Trazado 201133" d="M432.79,80.027h-4.907l-1.015,3.045H424.5l4.907-12.858h2.03l4.906,12.858h-2.369Zm-4.4-1.861h3.722l-1.861-5.245Z" fill="#0d2380"/>
              <path id="Trazado_201134" data-name="Trazado 201134" d="M441.249,81.55a1.921,1.921,0,0,0,1.354-.508,1.536,1.536,0,0,0,.508-1.184h2.03a2.859,2.859,0,0,1-.508,1.692,4.561,4.561,0,0,1-1.354,1.184,3.856,3.856,0,0,1-1.861.508,4.332,4.332,0,0,1-3.215-1.354,4.766,4.766,0,0,1-1.184-3.553v-.169a5.027,5.027,0,0,1,1.184-3.553,4.332,4.332,0,0,1,3.215-1.354,3.572,3.572,0,0,1,2.707,1.015,4.446,4.446,0,0,1,1.184,2.538h-2.03a1.747,1.747,0,0,0-1.861-1.861,1.649,1.649,0,0,0-1.523.677,3.839,3.839,0,0,0-.508,2.2v.338a4.481,4.481,0,0,0,.508,2.369A1.286,1.286,0,0,0,441.249,81.55Z" fill="#0d2380"/>
              <path id="Trazado_201135" data-name="Trazado 201135" d="M449.54,71.229V73.6h1.692v1.523H449.54v5.245a1.268,1.268,0,0,0,.169.846c.169.169.338.169.846.169a1.017,1.017,0,0,0,.677-.169V82.9a4.2,4.2,0,0,1-1.354.169c-1.692,0-2.538-.846-2.538-2.707V74.951h-1.523V73.429h1.523V71.06h2.2Z" fill="#0d2380"/>
              <path id="Trazado_201136" data-name="Trazado 201136" d="M458.507,82.057a3.681,3.681,0,0,1-2.707,1.184,3.347,3.347,0,0,1-2.369-.846,4.156,4.156,0,0,1-.846-2.538V73.767h2.2v6.091c0,1.184.508,1.861,1.523,1.861a1.916,1.916,0,0,0,2.03-1.184V73.767h2.2v9.475h-2.03Z" fill="#0d2380"/>
              <path id="Trazado_201137" data-name="Trazado 201137" d="M468.489,83.073a1.268,1.268,0,0,1-.169-.846,3.443,3.443,0,0,1-2.538,1.015,3.668,3.668,0,0,1-2.369-.846,2.277,2.277,0,0,1-.846-2.03A2.56,2.56,0,0,1,463.752,78a5.6,5.6,0,0,1,3.215-.846h1.354v-.677a2.445,2.445,0,0,0-.338-1.184,1.536,1.536,0,0,0-1.184-.508,2.446,2.446,0,0,0-1.184.338.93.93,0,0,0-.508.846h-2.2a2.729,2.729,0,0,1,.508-1.523,2.631,2.631,0,0,1,1.354-1.015,3.967,3.967,0,0,1,2.03-.338,4.305,4.305,0,0,1,2.707.846,2.839,2.839,0,0,1,1.015,2.369v4.23a6.309,6.309,0,0,0,.338,2.03v.169h-2.369ZM466.12,81.55a3.137,3.137,0,0,0,1.184-.338,2.039,2.039,0,0,0,.846-.846V78.5h-1.184a5.223,5.223,0,0,0-1.861.338,1.713,1.713,0,0,0-.677,1.184,2.4,2.4,0,0,0,.338,1.015A2.25,2.25,0,0,0,466.12,81.55Z" fill="#0d2380"/>
              <path id="Trazado_201138" data-name="Trazado 201138" d="M477.456,75.459h-.846a1.916,1.916,0,0,0-2.03,1.184v6.429h-2.2V73.6h2.03v1.015a2.3,2.3,0,0,1,2.2-1.184c.338,0,.508,0,.677.169Z" fill="#0d2380"/>
            </g>
            <g id="Grupo_138878" data-name="Grupo 138878">
              <g id="Grupo_138877" data-name="Grupo 138877">
                <path id="Trazado_201139" data-name="Trazado 201139" d="M498.1,78.335v4.737h-2.2V70.214H500.8a4.608,4.608,0,0,1,3.384,1.184,4.085,4.085,0,0,1,0,5.752,5.369,5.369,0,0,1-3.384,1.015H498.1Zm0-1.861H500.8a3.039,3.039,0,0,0,1.861-.508,1.782,1.782,0,0,0,.677-1.692,2.172,2.172,0,0,0-.677-1.692,2.585,2.585,0,0,0-1.692-.677h-2.707v4.568Z" fill="#0d2380"/>
                <path id="Trazado_201140" data-name="Trazado 201140" d="M509.433,83.073h-2.2V69.537h2.2Z" fill="#0d2380"/>
                <path id="Trazado_201141" data-name="Trazado 201141" d="M517.385,83.073a1.268,1.268,0,0,1-.169-.846,3.443,3.443,0,0,1-2.538,1.015,3.668,3.668,0,0,1-2.369-.846,2.277,2.277,0,0,1-.846-2.03A2.56,2.56,0,0,1,512.648,78a5.6,5.6,0,0,1,3.215-.846h1.354v-.677a2.445,2.445,0,0,0-.338-1.184,1.536,1.536,0,0,0-1.184-.508,2.446,2.446,0,0,0-1.184.338.93.93,0,0,0-.508.846h-2.2a2.729,2.729,0,0,1,.508-1.523,2.631,2.631,0,0,1,1.353-1.015,3.967,3.967,0,0,1,2.03-.338,4.3,4.3,0,0,1,2.707.846,2.839,2.839,0,0,1,1.015,2.369v4.23a6.31,6.31,0,0,0,.338,2.03v.169h-2.369Zm-2.369-1.523a3.137,3.137,0,0,0,1.184-.338,2.038,2.038,0,0,0,.846-.846V78.5h-1.015a5.222,5.222,0,0,0-1.861.338,1.712,1.712,0,0,0-.677,1.184,2.4,2.4,0,0,0,.338,1.015A2.249,2.249,0,0,0,515.017,81.55Z" fill="#0d2380"/>
                <path id="Trazado_201142" data-name="Trazado 201142" d="M523.476,73.429v1.015a3.532,3.532,0,0,1,2.707-1.354c2.03,0,3.045,1.184,3.045,3.384v6.26h-2.2V76.643a2.621,2.621,0,0,0-.338-1.354,1.665,1.665,0,0,0-1.354-.508,1.83,1.83,0,0,0-1.861,1.184v6.768h-2.2V73.26h2.2Z" fill="#0d2380"/>
                <path id="Trazado_201143" data-name="Trazado 201143" d="M531.6,71.06a1.184,1.184,0,1,1,2.369,0c0,.338-.169.508-.338.846a1.227,1.227,0,0,1-1.692,0A.931.931,0,0,1,531.6,71.06Zm2.2,12.013h-2.2V73.6h2.2Z" fill="#0d2380"/>
                <path id="Trazado_201144" data-name="Trazado 201144" d="M536.842,83.073V75.121h-1.523V73.6h1.523v-.846a3.347,3.347,0,0,1,.846-2.369,3.5,3.5,0,0,1,2.538-.846,2.879,2.879,0,0,1,1.184.169V71.4h-.846a1.346,1.346,0,0,0-1.523,1.523v.846H540.9V75.29h-1.861v7.952h-2.2Z" fill="#0d2380"/>
                <path id="Trazado_201145" data-name="Trazado 201145" d="M542.595,71.06a1.184,1.184,0,1,1,2.369,0c0,.338-.169.508-.338.846a1.227,1.227,0,0,1-1.692,0A.931.931,0,0,1,542.595,71.06Zm2.2,12.013h-2.2V73.6h2.2Z" fill="#0d2380"/>
                <path id="Trazado_201146" data-name="Trazado 201146" d="M551.054,81.55a1.921,1.921,0,0,0,1.354-.508,1.536,1.536,0,0,0,.508-1.184h2.03a2.858,2.858,0,0,1-.508,1.692,4.561,4.561,0,0,1-1.354,1.184,3.856,3.856,0,0,1-1.861.508,4.332,4.332,0,0,1-3.215-1.354,4.766,4.766,0,0,1-1.184-3.553v-.169a5.027,5.027,0,0,1,1.184-3.553,4.332,4.332,0,0,1,3.215-1.354,3.572,3.572,0,0,1,2.707,1.015,4.446,4.446,0,0,1,1.184,2.538h-2.03a1.747,1.747,0,0,0-1.861-1.861,1.649,1.649,0,0,0-1.523.677,3.839,3.839,0,0,0-.508,2.2v.338a4.481,4.481,0,0,0,.508,2.369C549.7,81.212,550.377,81.55,551.054,81.55Z" fill="#0d2380"/>
                <path id="Trazado_201147" data-name="Trazado 201147" d="M562.221,83.073a1.268,1.268,0,0,1-.169-.846,3.443,3.443,0,0,1-2.538,1.015,3.668,3.668,0,0,1-2.369-.846,2.277,2.277,0,0,1-.846-2.03A2.56,2.56,0,0,1,557.483,78a5.6,5.6,0,0,1,3.215-.846h1.354v-.677a2.445,2.445,0,0,0-.338-1.184,1.536,1.536,0,0,0-1.184-.508,2.446,2.446,0,0,0-1.184.338.93.93,0,0,0-.508.846h-2.2a2.729,2.729,0,0,1,.508-1.523,2.631,2.631,0,0,1,1.354-1.015,3.967,3.967,0,0,1,2.03-.338,4.305,4.305,0,0,1,2.707.846,2.839,2.839,0,0,1,1.015,2.369v4.23a6.309,6.309,0,0,0,.338,2.03v.169h-2.369Zm-2.369-1.523a3.137,3.137,0,0,0,1.184-.338,2.039,2.039,0,0,0,.846-.846V78.5H560.7a5.223,5.223,0,0,0-1.861.338,1.713,1.713,0,0,0-.677,1.184,2.4,2.4,0,0,0,.338,1.015A2.25,2.25,0,0,0,559.852,81.55Z" fill="#0d2380"/>
                <path id="Trazado_201148" data-name="Trazado 201148" d="M571.357,75.459h-.846a1.916,1.916,0,0,0-2.03,1.184v6.429h-2.2V73.6h2.03v1.015a2.3,2.3,0,0,1,2.2-1.184c.338,0,.508,0,.677.169Z" fill="#0d2380"/>
              </g>
            </g>
            <g id="Grupo_138880" data-name="Grupo 138880">
              <g id="Grupo_138879" data-name="Grupo 138879">
                <path id="Trazado_201149" data-name="Trazado 201149" d="M423.654,147.2l3.215-9.982h2.369l-4.568,12.858h-2.2L417.9,137.214h2.369Z" fill="#0d2380"/>
                <path id="Trazado_201150" data-name="Trazado 201150" d="M434.313,150.072a4.072,4.072,0,0,1-3.215-1.354,5.449,5.449,0,0,1-1.184-3.384V145a5.65,5.65,0,0,1,.508-2.538,3.7,3.7,0,0,1,1.523-1.692,4.8,4.8,0,0,1,2.2-.677,3.62,3.62,0,0,1,3.045,1.184,5.552,5.552,0,0,1,1.015,3.553v.846h-6.26a2.424,2.424,0,0,0,.846,1.861,2.172,2.172,0,0,0,1.692.677,2.56,2.56,0,0,0,2.369-1.184l1.184,1.015a4,4,0,0,1-1.523,1.354A4.8,4.8,0,0,1,434.313,150.072Zm-.169-8.121a1.539,1.539,0,0,0-1.354.677,5.067,5.067,0,0,0-.677,1.692h4.061v-.169a2.859,2.859,0,0,0-.508-1.692A2.729,2.729,0,0,0,434.143,141.951Z" fill="#0d2380"/>
                <path id="Trazado_201151" data-name="Trazado 201151" d="M444.8,142.459h-.846a1.916,1.916,0,0,0-2.03,1.184v6.429H439.9v-9.644h2.03v1.015a2.3,2.3,0,0,1,2.2-1.184c.338,0,.508,0,.677.169Z" fill="#0d2380"/>
                <path id="Trazado_201152" data-name="Trazado 201152" d="M446.156,137.89a1.184,1.184,0,1,1,2.369,0c0,.338-.169.508-.338.846a1.184,1.184,0,0,1-2.03-.846Zm2.369,12.013h-2.2v-9.475h2.2Z" fill="#0d2380"/>
                <path id="Trazado_201153" data-name="Trazado 201153" d="M451.57,149.9v-7.952h-1.523v-1.523h1.523v-.846a3.347,3.347,0,0,1,.846-2.369,3.5,3.5,0,0,1,2.538-.846,2.88,2.88,0,0,1,1.184.169v1.692h-.846a1.346,1.346,0,0,0-1.523,1.523v.677h1.861v1.523H453.77V149.9Z" fill="#0d2380"/>
                <path id="Trazado_201154" data-name="Trazado 201154" d="M457.153,137.89a1.184,1.184,0,1,1,2.369,0c0,.338-.169.508-.338.846a1.184,1.184,0,0,1-2.03-.846Zm2.369,12.013h-2.2v-9.475h2.2Z" fill="#0d2380"/>
                <path id="Trazado_201155" data-name="Trazado 201155" d="M465.782,148.38a1.921,1.921,0,0,0,1.354-.508,1.536,1.536,0,0,0,.508-1.184h2.03a2.858,2.858,0,0,1-.508,1.692,4.561,4.561,0,0,1-1.354,1.184,3.857,3.857,0,0,1-1.861.508,4.332,4.332,0,0,1-3.215-1.354,4.766,4.766,0,0,1-1.184-3.553V145a5.027,5.027,0,0,1,1.184-3.553,4.332,4.332,0,0,1,3.215-1.354,3.572,3.572,0,0,1,2.707,1.015,4.446,4.446,0,0,1,1.184,2.538h-2.03a1.747,1.747,0,0,0-1.861-1.861,1.649,1.649,0,0,0-1.523.677,3.839,3.839,0,0,0-.508,2.2V145a4.481,4.481,0,0,0,.508,2.369C464.429,148.211,464.936,148.38,465.782,148.38Z" fill="#0d2380"/>
                <path id="Trazado_201156" data-name="Trazado 201156" d="M476.949,149.9a1.268,1.268,0,0,1-.169-.846,3.443,3.443,0,0,1-2.538,1.015,3.668,3.668,0,0,1-2.369-.846,2.277,2.277,0,0,1-.846-2.03,2.56,2.56,0,0,1,1.184-2.369,5.6,5.6,0,0,1,3.215-.846h1.354V143.3a2.445,2.445,0,0,0-.338-1.184,1.536,1.536,0,0,0-1.184-.508,2.446,2.446,0,0,0-1.184.338.93.93,0,0,0-.508.846h-2.2a2.729,2.729,0,0,1,.508-1.523,2.631,2.631,0,0,1,1.354-1.015,3.967,3.967,0,0,1,2.03-.338,4.3,4.3,0,0,1,2.707.846,2.839,2.839,0,0,1,1.015,2.369v4.23a6.309,6.309,0,0,0,.338,2.03v.169h-2.369Zm-2.369-1.523a3.137,3.137,0,0,0,1.184-.338,2.039,2.039,0,0,0,.846-.846V145.5h-1.184a5.223,5.223,0,0,0-1.861.338,1.712,1.712,0,0,0-.677,1.184,2.4,2.4,0,0,0,.338,1.015A3.982,3.982,0,0,0,474.58,148.38Z" fill="#0d2380"/>
                <path id="Trazado_201157" data-name="Trazado 201157" d="M485.916,142.459h-.846a1.916,1.916,0,0,0-2.03,1.184v6.429h-2.2v-9.644h2.03v1.015a2.3,2.3,0,0,1,2.2-1.184c.338,0,.508,0,.677.169Z" fill="#0d2380"/>
              </g>
            </g>
            <g id="Grupo_138882" data-name="Grupo 138882">
              <g id="Grupo_138881" data-name="Grupo 138881">
                <path id="Trazado_201158" data-name="Trazado 201158" d="M515.862,149.9h-2.2V144.15h-5.752V149.9h-2.2V137.044h2.2v5.414h5.752v-5.414h2.2Z" fill="#0d2380"/>
                <path id="Trazado_201159" data-name="Trazado 201159" d="M523.984,149.9a1.268,1.268,0,0,1-.169-.846,3.443,3.443,0,0,1-2.538,1.015,3.668,3.668,0,0,1-2.369-.846,2.277,2.277,0,0,1-.846-2.03,2.56,2.56,0,0,1,1.184-2.369,5.6,5.6,0,0,1,3.215-.846h1.354V143.3a2.445,2.445,0,0,0-.338-1.184,1.536,1.536,0,0,0-1.184-.508,2.446,2.446,0,0,0-1.184.338.93.93,0,0,0-.508.846h-2.2a2.729,2.729,0,0,1,.508-1.523,2.631,2.631,0,0,1,1.354-1.015,3.967,3.967,0,0,1,2.03-.338,4.3,4.3,0,0,1,2.707.846,2.839,2.839,0,0,1,1.015,2.369v4.23a6.308,6.308,0,0,0,.338,2.03v.169h-2.369Zm-2.369-1.523a3.137,3.137,0,0,0,1.184-.338,2.039,2.039,0,0,0,.846-.846V145.5h-1.184a5.223,5.223,0,0,0-1.861.338,1.713,1.713,0,0,0-.677,1.184,2.4,2.4,0,0,0,.338,1.015A3.982,3.982,0,0,0,521.615,148.38Z" fill="#0d2380"/>
                <path id="Trazado_201160" data-name="Trazado 201160" d="M531.936,148.38a1.921,1.921,0,0,0,1.354-.508,1.536,1.536,0,0,0,.508-1.184h2.03a2.858,2.858,0,0,1-.508,1.692,4.561,4.561,0,0,1-1.353,1.184,3.857,3.857,0,0,1-1.861.508,4.332,4.332,0,0,1-3.215-1.354,4.766,4.766,0,0,1-1.184-3.553V145a5.027,5.027,0,0,1,1.184-3.553,4.332,4.332,0,0,1,3.215-1.354,3.572,3.572,0,0,1,2.707,1.015A4.446,4.446,0,0,1,536,143.643h-2.03a1.747,1.747,0,0,0-1.861-1.861,1.649,1.649,0,0,0-1.523.677,3.839,3.839,0,0,0-.508,2.2V145a4.481,4.481,0,0,0,.508,2.369C530.751,148.211,531.259,148.38,531.936,148.38Z" fill="#0d2380"/>
                <path id="Trazado_201161" data-name="Trazado 201161" d="M541.579,150.072a4.072,4.072,0,0,1-3.215-1.354,5.449,5.449,0,0,1-1.184-3.384V145a5.651,5.651,0,0,1,.508-2.538,3.7,3.7,0,0,1,1.523-1.692,4.8,4.8,0,0,1,2.2-.677,3.62,3.62,0,0,1,3.045,1.184,5.551,5.551,0,0,1,1.015,3.553v.846h-6.26a2.424,2.424,0,0,0,.846,1.861,2.172,2.172,0,0,0,1.692.677,2.56,2.56,0,0,0,2.369-1.184l1.184,1.015a4,4,0,0,1-1.523,1.354A4.8,4.8,0,0,1,541.579,150.072Zm-.169-8.121a1.539,1.539,0,0,0-1.354.677,5.068,5.068,0,0,0-.677,1.692h4.061v-.169a2.858,2.858,0,0,0-.508-1.692A2.729,2.729,0,0,0,541.41,141.951Z" fill="#0d2380"/>
                <path id="Trazado_201162" data-name="Trazado 201162" d="M552.069,142.459h-.846a1.916,1.916,0,0,0-2.03,1.184v6.429h-2.2v-9.644h2.03v1.015a2.3,2.3,0,0,1,2.2-1.184c.338,0,.508,0,.677.169Z" fill="#0d2380"/>
              </g>
            </g>
            <line id="Línea_515" data-name="Línea 515" y2="183.91" transform="translate(491.33 18.78)" fill="#b0c0d2" stroke="#88afd1" stroke-miterlimit="10" stroke-width="4.914"/>
            <line id="Línea_516" data-name="Línea 516" x2="183.91" transform="translate(399.29 110.651)" fill="#b0c0d2" stroke="#88afd1" stroke-miterlimit="10" stroke-width="4.914"/>
            <g id="Grupo_138883" data-name="Grupo 138883">
              <path id="Trazado_201163" data-name="Trazado 201163" d="M461.552,6.937l14.381,3.891-11,10.321Z" fill="#0d2380"/>
              <path id="Trazado_201164" data-name="Trazado 201164" d="M462.06,7.444,475.088,11,465.274,20.3,462.06,7.444M460.875,6.26l.338,1.354,3.045,12.858.338,1.354,1.015-1.015L475.6,11.5l1.015-1.015-1.184-.169L462.4,6.768l-1.523-.508Z" fill="#fff"/>
            </g>
            <g id="Grupo_138884" data-name="Grupo 138884">
              <path id="Trazado_201165" data-name="Trazado 201165" d="M508.757,209.966l11-10.151,3.384,14.212Z" fill="#0d2380"/>
              <path id="Trazado_201166" data-name="Trazado 201166" d="M519.416,200.66l3.045,12.858-13.028-3.553,9.982-9.305m.508-1.692-1.015,1.015-9.982,9.305L507.91,210.3l1.523.338,13.028,3.553,1.353.338-.338-1.354-3.045-12.858-.508-1.354Z" fill="#fff"/>
            </g>
            <g id="Grupo_138885" data-name="Grupo 138885">
              <path id="Trazado_201167" data-name="Trazado 201167" d="M391.507,126.047l10.151,11-14.212,3.384Z" fill="#0d2380"/>
              <path id="Trazado_201168" data-name="Trazado 201168" d="M391.677,126.893l9.305,9.982-12.858,3.045,3.553-13.028m-.508-1.692-.338,1.523-3.553,13.028-.338,1.354,1.354-.338,12.859-3.045,1.354-.338-1.015-1.015-9.305-9.982-1.015-1.184Z" fill="#fff"/>
            </g>
            <g id="Grupo_138886" data-name="Grupo 138886">
              <path id="Trazado_201169" data-name="Trazado 201169" d="M579.986,80.535,594.2,77.151l-4.061,14.381Z" fill="#0d2380"/>
              <path id="Trazado_201170" data-name="Trazado 201170" d="M593.521,77.659l-3.553,13.028L580.663,80.7l12.858-3.045m1.184-1.184-1.354.338-12.859,3.045-1.354.338,1.015,1.015,9.305,9.982,1.015,1.015.338-1.523,3.553-13.028.338-1.184Z" fill="#fff"/>
            </g>
          </g>
        </g>
      </g>
      <path id="c" d="M19.16,21.8q-.743,1.1-2.7,2.058-2.283,1.113-4.37.419T8.94,21.393q-1.231-2.525-.428-4.719t3.338-3.43q1.751-.854,2.761-.772l1.264,2.593q-1.307-.249-2.487.327-1.316.642-1.71,1.786t.267,2.5q.642,1.316,1.743,1.707t2.387-.236q1.141-.557,1.885-1.806Z" transform="translate(-9308.31 -5282.094)" fill="#12263f"/>
    </g>
  </g>
</svg>
