<svg xmlns="http://www.w3.org/2000/svg" xmlns:xlink="http://www.w3.org/1999/xlink" width="135" height="136" viewBox="0 0 135 136">
  <defs>
    <clipPath id="clip-path">
      <rect id="Rectángulo_85352" data-name="Rectángulo 85352" width="135" height="136" transform="translate(-1406 -8497)" fill="#fff"/>
    </clipPath>
  </defs>
  <g id="Enmascarar_grupo_146" data-name="Enmascarar grupo 146" transform="translate(1406 8497)" clip-path="url(#clip-path)">
    <g id="_6Recurso_6" data-name="6Recurso 6" transform="translate(-1403.354 -8497)">
      <g id="Capa_2" data-name="Capa 2">
        <g id="Layer_1" data-name="Layer 1">
          <path id="Trazado_199574" data-name="Trazado 199574" d="M128.969,58.388l.738-.668L64.865,0V98.127Z" fill="#d1d2d3"/>
          <path id="Trazado_199575" data-name="Trazado 199575" d="M64.865,0h0L0,57.719l.738.668,64.127,39.74Z" fill="#d1d2d3"/>
          <path id="Trazado_199576" data-name="Trazado 199576" d="M.484,57.7l-.092.484L64.865,98.127l64.45-39.947-.438-.715Z" fill="#c6c6c6"/>
          <rect id="Rectángulo_85382" data-name="Rectángulo 85382" width="114.494" height="51.403" transform="translate(8.321 53.824)" fill="#fff"/>
          <rect id="Rectángulo_85383" data-name="Rectángulo 85383" width="84.735" height="2.19" transform="translate(23.028 63.159)" fill="#eceeec"/>
          <rect id="Rectángulo_85384" data-name="Rectángulo 85384" width="84.735" height="2.19" transform="translate(23.028 68.3)" fill="#eceeec"/>
          <rect id="Rectángulo_85385" data-name="Rectángulo 85385" width="84.735" height="2.19" transform="translate(23.028 73.44)" fill="#eceeec"/>
          <rect id="Rectángulo_85386" data-name="Rectángulo 85386" width="84.735" height="2.19" transform="translate(23.028 78.58)" fill="#eceeec"/>
          <rect id="Rectángulo_85387" data-name="Rectángulo 85387" width="84.735" height="2.19" transform="translate(23.028 83.721)" fill="#eceeec"/>
          <rect id="Rectángulo_85388" data-name="Rectángulo 85388" width="84.735" height="2.19" transform="translate(23.028 88.861)" fill="#eceeec"/>
          <path id="Trazado_199577" data-name="Trazado 199577" d="M59.241,68.415a.83.83,0,0,1-.784-.622,22.8,22.8,0,0,0-1.222-3.481A3.227,3.227,0,0,0,53.5,62.629a.83.83,0,0,1-.484-1.544,4.887,4.887,0,0,1,5.671,2.305,21.092,21.092,0,0,1,1.429,3.965.807.807,0,0,1-.576.991Z" fill="#a1a0a0"/>
          <path id="Trazado_199578" data-name="Trazado 199578" d="M71.458,76.068a1.383,1.383,0,0,1-.415-2.7c3.319-1.037,9.082-3.25,10.35-4.61a21.6,21.6,0,0,0,1.936-6.523,1.406,1.406,0,0,1,1.59-1.129A1.383,1.383,0,0,1,86.026,62.7a21.437,21.437,0,0,1-2.513,7.814c-2.121,2.443-10.027,5.025-11.525,5.532a1.176,1.176,0,0,1-.53.023Z"/>
          <path id="Trazado_199579" data-name="Trazado 199579" d="M59.241,76.068a1.314,1.314,0,0,1-.415,0c-1.544-.507-9.451-3.089-11.525-5.532a21.967,21.967,0,0,1-2.536-7.814,1.383,1.383,0,0,1,2.72-.461,21.6,21.6,0,0,0,1.867,6.477c1.268,1.452,7.031,3.665,10.35,4.61a1.383,1.383,0,0,1-.461,2.72Z" fill="#a1a0a0"/>
          <path id="Trazado_199580" data-name="Trazado 199580" d="M73.763,84.643a1.337,1.337,0,0,1-1.083-.53,1.383,1.383,0,0,1,.254-1.936c1.106-.83,6.685-4.956,9.428-5.256a17.611,17.611,0,0,1,6.2,1.775,1.383,1.383,0,1,1-1.129,2.513,16.527,16.527,0,0,0-4.772-1.567,29.62,29.62,0,0,0-8.068,4.725A1.383,1.383,0,0,1,73.763,84.643Z"/>
          <path id="Trazado_199581" data-name="Trazado 199581" d="M57.028,84.643a1.383,1.383,0,0,1-.83-.277,29.966,29.966,0,0,0-8.068-4.725,17.818,17.818,0,0,0-4.772,1.567A1.383,1.383,0,1,1,42.229,78.7a17.472,17.472,0,0,1,6.178-1.775c2.743.3,8.321,4.426,9.428,5.256a1.383,1.383,0,0,1,.254,1.936,1.337,1.337,0,0,1-1.06.53Z" fill="#a1a0a0"/>
          <path id="Trazado_199582" data-name="Trazado 199582" d="M80.678,99.119h-.231a1.337,1.337,0,0,1-1.129-1.567,14.683,14.683,0,0,0,.161-4.933c-.692-1.129-5.048-3.181-8.69-4.4a1.383,1.383,0,1,1,.876-2.6c1.429.484,8.621,3.02,10.165,5.6a13.254,13.254,0,0,1,.184,6.777A1.383,1.383,0,0,1,80.678,99.119Z"/>
          <path id="Trazado_199583" data-name="Trazado 199583" d="M48.729,99.119a1.383,1.383,0,0,1-1.337-1.153,13.254,13.254,0,0,1,.184-6.777c1.544-2.582,8.736-5.117,10.165-5.6a1.383,1.383,0,0,1,.876,2.6c-3.642,1.222-8.022,3.273-8.69,4.4a14.683,14.683,0,0,0,.161,4.933A1.337,1.337,0,0,1,48.96,99.1Z" fill="#a1a0a0"/>
          <path id="Trazado_199584" data-name="Trazado 199584" d="M54.907,71.642a24.111,24.111,0,0,0-1.5,8.46c0,9.7,5.417,14.822,12.079,14.822V71.873C61.868,71.873,58.342,71.78,54.907,71.642Z" fill="#fdf0bd"/>
          <path id="Trazado_199585" data-name="Trazado 199585" d="M76.068,71.642c-3.435.138-6.915.231-10.58.231V94.923c6.662,0,12.056-5.117,12.056-14.822a24.111,24.111,0,0,0-1.475-8.46Z" fill="#fdf1bf"/>
          <path id="Trazado_199586" data-name="Trazado 199586" d="M54.907,71.642a24.111,24.111,0,0,0-1.5,8.46c0,9.7,5.417,14.822,12.079,14.822V71.873C61.868,71.873,58.342,71.78,54.907,71.642Z" fill="#fdf0bd"/>
          <path id="Trazado_199587" data-name="Trazado 199587" d="M76.068,71.642c-3.435.138-6.915.231-10.58.231V94.923c6.662,0,12.056-5.117,12.056-14.822a24.111,24.111,0,0,0-1.475-8.46Z" fill="#e0dfdf"/>
          <path id="Trazado_199588" data-name="Trazado 199588" d="M76.852,74.2a25.63,25.63,0,0,0-.784-2.559c-3.435.138-6.915.231-10.58.231s-7.146,0-10.58-.231a24.111,24.111,0,0,0-1.5,8.46,18.948,18.948,0,0,0,1.66,8.16,33.124,33.124,0,0,0,8.575-2.6A28.26,28.26,0,0,0,76.852,74.2Z" fill="#a1a0a0"/>
          <path id="Trazado_199589" data-name="Trazado 199589" d="M56.175,71.665c3,.138,6.062.184,9.22.207V63.666C61.407,63.736,57.973,66.847,56.175,71.665Z" fill="#a1a0a0"/>
          <path id="Trazado_199590" data-name="Trazado 199590" d="M74.8,71.665c-1.821-4.772-5.3-8-9.22-8h-.115v8.206h.115C68.668,71.873,71.78,71.8,74.8,71.665Z"/>
          <path id="Trazado_199591" data-name="Trazado 199591" d="M64.542,71.873,63.367,94.716a9.427,9.427,0,0,0,1.383.161h.784V71.826Z" fill="#a1a0a0"/>
          <path id="Trazado_199592" data-name="Trazado 199592" d="M67.424,94.762,66.271,71.873h-.784V94.923h.784Z"/>
          <path id="Trazado_199593" data-name="Trazado 199593" d="M71.458,68.415h-.231a.807.807,0,0,1-.576-.991,20.377,20.377,0,0,1,1.429-3.942,4.887,4.887,0,0,1,5.671-2.305.83.83,0,0,1-.576,1.544A3.2,3.2,0,0,0,73.463,64.4a20.539,20.539,0,0,0-1.222,3.481.83.83,0,0,1-.784.53Z"/>
          <path id="Trazado_199594" data-name="Trazado 199594" d="M67.769,65.372c1.106.346,2.121.254,2.305-.184a8.045,8.045,0,0,0-3.919-1.5s0,.115,0,.184C65.879,64.335,66.663,65,67.769,65.372Z" fill="#fdf0bd"/>
          <path id="Trazado_199595" data-name="Trazado 199595" d="M63,65.372c-1.106.346-2.121.254-2.305-.184a8.045,8.045,0,0,1,3.919-1.5.691.691,0,0,1,0,.184C64.888,64.335,64.1,65,63,65.372Z" fill="#fdf0bd"/>
          <rect id="Rectángulo_85389" data-name="Rectángulo 85389" width="84.735" height="2.19" transform="translate(23.028 94.001)" fill="#9e9d9d"/>
          <path id="Trazado_199596" data-name="Trazado 199596" d="M128.969,58.388l-64.1,39.74v37.757l61.523.115,2.927-77.82Z" fill="#d1d2d3"/>
          <path id="Trazado_199597" data-name="Trazado 199597" d="M.738,58.388.392,58.18l2.835,77.589,61.638.115V98.127Z" fill="#d1d2d3"/>
          <path id="Trazado_199598" data-name="Trazado 199598" d="M129.315,58.18c-11.272,5.947-22.29,12.217-33.216,18.6Q80.378,86,64.865,95.5,49.375,86,33.608,76.782C22.682,70.4,11.664,64.127.392,58.18c10.235,7.284,20.746,14.268,31.257,21.115Q46.1,88.769,60.993,97.9a41.17,41.17,0,0,0,3.873,2.305c.507-.231,2.443-1.567,3.849-2.305q14.8-9.22,29.367-18.6C108.639,72.449,119.1,65.464,129.315,58.18Z" fill="#fdf1bf"/>
          <path id="Trazado_199599" data-name="Trazado 199599" d="M37.412,111.589a1.844,1.844,0,0,1-.438.484.968.968,0,0,1-.6.184,1.314,1.314,0,0,1-.668-.207l-.83-.461a9.223,9.223,0,0,0-1.06-.438,4.1,4.1,0,0,0-1.36-.207,2.974,2.974,0,0,0-1.959.553,2.005,2.005,0,0,0-.53,1.452,1.429,1.429,0,0,0,.392,1.014,3.02,3.02,0,0,0,1.014.692,12.54,12.54,0,0,0,1.429.53l1.66.53a15.005,15.005,0,0,1,1.66.715,5.21,5.21,0,0,1,1.429,1.014,4.748,4.748,0,0,1,1.014,1.521,5.094,5.094,0,0,1,.392,2.144,7.1,7.1,0,0,1-.484,2.628,6.2,6.2,0,0,1-1.406,2.121,6.385,6.385,0,0,1-2.305,1.406,8.46,8.46,0,0,1-3.066.53,10.974,10.974,0,0,1-1.913-.184,12.771,12.771,0,0,1-1.89-.553,10.626,10.626,0,0,1-1.706-.83,6.915,6.915,0,0,1-1.406-1.083l1.383-2.305a1.314,1.314,0,0,1,1.014-.553,1.8,1.8,0,0,1,.853.254l.945.6a8.668,8.668,0,0,0,1.222.576,4.979,4.979,0,0,0,1.637.254,3.158,3.158,0,0,0,1.982-.553,2.144,2.144,0,0,0,.692-1.775,1.683,1.683,0,0,0-.369-1.153,3.388,3.388,0,0,0-1.014-.738,9.658,9.658,0,0,0-1.452-.507l-1.706-.3a14.335,14.335,0,0,1-1.637-.668,5.417,5.417,0,0,1-1.429-1.037,4.979,4.979,0,0,1-1.037-1.614,6.5,6.5,0,0,1-.369-2.305,5.486,5.486,0,0,1,1.8-4.126,6.915,6.915,0,0,1,2.167-1.36,8.344,8.344,0,0,1,2.951-.484,11.525,11.525,0,0,1,1.8.138,8.644,8.644,0,0,1,3.135,1.106,5.394,5.394,0,0,1,1.222.9Z" fill="#fff"/>
          <path id="Trazado_199600" data-name="Trazado 199600" d="M45.848,120.9v6.731h-4.61V107.486h7.1a11.525,11.525,0,0,1,3.665.507,7.261,7.261,0,0,1,2.513,1.383,5.532,5.532,0,0,1,1.475,2.1,7.353,7.353,0,0,1,.461,2.6,7.745,7.745,0,0,1-.484,2.766,5.509,5.509,0,0,1-1.475,2.144,6.915,6.915,0,0,1-2.536,1.406,11.249,11.249,0,0,1-3.619.507Zm0-3.527h2.42a2.974,2.974,0,0,0,3.435-3.3,3.757,3.757,0,0,0-.207-1.268,2.559,2.559,0,0,0-1.683-1.59,4.449,4.449,0,0,0-1.544-.231h-2.42Z" fill="#fff"/>
          <path id="Trazado_199601" data-name="Trazado 199601" d="M75.215,127.633H71.6a1.752,1.752,0,0,1-1.014-.277,1.475,1.475,0,0,1-.53-.715l-1.2-3.527H61.2l-1.268,3.527a1.636,1.636,0,0,1-.53.692,1.59,1.59,0,0,1-.991.3H54.838l7.791-20.146h4.795Zm-12.978-7.768h5.532l-1.844-5.509-.415-1.245c-.161-.484-.323-.991-.484-1.544-.138.576-.3,1.083-.461,1.567s-.3.9-.438,1.245Z" fill="#fff"/>
          <path id="Trazado_199602" data-name="Trazado 199602" d="M87.593,119.519c.161.392.346.761.484,1.176.161-.415.323-.807.507-1.2s.346-.761.53-1.106L94.508,108.2a1.614,1.614,0,0,1,.277-.415.968.968,0,0,1,.323-.207,1.107,1.107,0,0,1,.415,0h4.1V127.7H95.384V116.176a17.609,17.609,0,0,1,0-1.844l-5.348,10.373a1.683,1.683,0,0,1-1.637.968h-.622a1.683,1.683,0,0,1-1.637-.968L80.77,114.332V127.7H76.852V107.509h4.1a1.314,1.314,0,0,1,.415,0,1.268,1.268,0,0,1,.323.207,1.613,1.613,0,0,1,.277.415l5.186,10.235A3.263,3.263,0,0,1,87.593,119.519Z" fill="#fff"/>
        </g>
      </g>
    </g>
  </g>
</svg>
