<svg xmlns="http://www.w3.org/2000/svg" width="611" height="539" viewBox="0 0 611 539">
  <g id="Grupo_138915" data-name="Grupo 138915" transform="translate(-495 -1240)">
    <circle id="Elipse_5729" data-name="Elipse 5729" cx="31" cy="31" r="31" transform="translate(926 1240)" fill="#b0c0d2"/>
    <circle id="Elipse_5730" data-name="Elipse 5730" cx="31" cy="31" r="31" transform="translate(631 1240)" fill="#b0c0d2"/>
    <circle id="Elipse_5731" data-name="Elipse 5731" cx="31" cy="31" r="31" transform="translate(1044 1479)" fill="#b0c0d2"/>
    <circle id="Elipse_5734" data-name="Elipse 5734" cx="31" cy="31" r="31" transform="translate(495 1479)" fill="#b0c0d2"/>
    <circle id="Elipse_5732" data-name="Elipse 5732" cx="31" cy="31" r="31" transform="translate(926 1717)" fill="#b0c0d2"/>
    <circle id="Elipse_5733" data-name="Elipse 5733" cx="31" cy="31" r="31" transform="translate(631 1717)" fill="#b0c0d2"/>
    <g id="Capa_2" data-name="Capa 2" transform="translate(550.49 1260.5)">
      <g id="OBJECTS" transform="translate(2.51 2.5)">
        <path id="Trazado_199367" data-name="Trazado 199367" d="M311.82,63q2.5,2.867,4.922,5.831Q314.309,65.909,311.82,63Z" transform="translate(120.697 21.599)" fill="#00406c" stroke="#fff" stroke-linecap="round" stroke-linejoin="bevel" stroke-width="5"/>
        <path id="Trazado_199368" data-name="Trazado 199368" d="M308.31,59.12q2.307,2.517,4.573,5.076Q310.673,61.637,308.31,59.12Z" transform="translate(119.299 20.053)" fill="#00406c" stroke="#fff" stroke-linecap="round" stroke-linejoin="bevel" stroke-width="5"/>
        <path id="Trazado_199369" data-name="Trazado 199369" d="M304.28,54.91c1.566,1.58,3.118,3.2,4.642,4.824C307.4,58.112,305.846,56.434,304.28,54.91Z" transform="translate(117.694 18.376)" fill="#00406c" stroke="#fff" stroke-linecap="round" stroke-linejoin="bevel" stroke-width="5"/>
        <path id="Trazado_199370" data-name="Trazado 199370" d="M54.764,304.2q-2.377-2.405-4.684-4.894Q52.387,301.785,54.764,304.2Z" transform="translate(16.439 115.728)" fill="#00406c" stroke="#fff" stroke-linecap="round" stroke-linejoin="bevel" stroke-width="5"/>
        <path id="Trazado_199371" data-name="Trazado 199371" d="M59.166,308.424c-1.832-1.748-3.65-3.51-5.426-5.314C55.5,304.914,57.334,306.676,59.166,308.424Z" transform="translate(17.896 117.242)" fill="#00406c" stroke="#fff" stroke-linecap="round" stroke-linejoin="bevel" stroke-width="5"/>
        <path id="Trazado_199372" data-name="Trazado 199372" d="M105.61,293.115q-2.475-2.2-4.88-4.475Q103.135,290.905,105.61,293.115Z" transform="translate(36.614 111.478)" fill="#00406c" stroke="#fff" stroke-linecap="round" stroke-linejoin="bevel" stroke-width="5"/>
        <path id="Trazado_199373" data-name="Trazado 199373" d="M47.3,296.349c-1.692-1.93-3.342-3.873-4.964-5.859C43.962,292.476,45.612,294.419,47.3,296.349Z" transform="translate(13.355 112.215)" fill="#00406c" stroke="#fff" stroke-linecap="round" stroke-linejoin="bevel" stroke-width="5"/>
        <path id="Trazado_199374" data-name="Trazado 199374" d="M50.722,300.046c-1.566-1.692-3.118-3.4-4.642-5.146C47.6,296.648,49.156,298.354,50.722,300.046Z" transform="translate(14.845 113.972)" fill="#00406c" stroke="#fff" stroke-linecap="round" stroke-linejoin="bevel" stroke-width="5"/>
        <path id="Trazado_199375" data-name="Trazado 199375" d="M105.75,293.043c-1.72-1.4-3.426-2.895-5.09-4.363C102.324,290.148,104.03,291.616,105.75,293.043Z" transform="translate(36.586 111.494)" fill="#00406c" stroke="#fff" stroke-linecap="round" stroke-linejoin="bevel" stroke-width="5"/>
        <path id="Trazado_199376" data-name="Trazado 199376" d="M106.473,292.863c-2.1-1.328-4.195-2.7-6.223-4.083C102.306,290.164,104.375,291.535,106.473,292.863Z" transform="translate(36.423 111.534)" fill="#00406c" stroke="#fff" stroke-linecap="round" stroke-linejoin="bevel" stroke-width="5"/>
        <path id="Trazado_199377" data-name="Trazado 199377" d="M106.239,293.262q-2.95-2.307-5.859-4.712Q103.275,290.955,106.239,293.262Z" transform="translate(36.474 111.442)" fill="#00406c" stroke="#fff" stroke-linecap="round" stroke-linejoin="bevel" stroke-width="5"/>
        <path id="Trazado_199378" data-name="Trazado 199378" d="M106.688,292.45q-3.314-1.678-6.558-3.44Q103.388,290.772,106.688,292.45Z" transform="translate(36.375 111.625)" fill="#00406c" stroke="#fff" stroke-linecap="round" stroke-linejoin="bevel" stroke-width="5"/>
        <path id="Trazado_199379" data-name="Trazado 199379" d="M106.167,292.342q-2.895-1.594-5.747-3.272Q103.273,290.748,106.167,292.342Z" transform="translate(36.49 111.649)" fill="#00406c" stroke="#fff" stroke-linecap="round" stroke-linejoin="bevel" stroke-width="5"/>
        <path id="Trazado_199380" data-name="Trazado 199380" d="M105.822,292.288q-2.615-1.566-5.2-3.188Q103.193,290.722,105.822,292.288Z" transform="translate(36.57 111.661)" fill="#00406c" stroke="#fff" stroke-linecap="round" stroke-linejoin="bevel" stroke-width="5"/>
        <path id="Trazado_199381" data-name="Trazado 199381" d="M105.969,292.7c-1.832-1.258-3.636-2.531-5.439-3.831C102.334,290.17,104.138,291.443,105.969,292.7Z" transform="translate(36.534 111.57)" fill="#00406c" stroke="#fff" stroke-linecap="round" stroke-linejoin="bevel" stroke-width="5"/>
        <path id="Trazado_199382" data-name="Trazado 199382" d="M105.736,292.687q-2.559-1.874-5.076-3.817Q103.177,290.828,105.736,292.687Z" transform="translate(36.586 111.57)" fill="#00406c" stroke="#fff" stroke-linecap="round" stroke-linejoin="bevel" stroke-width="5"/>
        <path id="Trazado_199383" data-name="Trazado 199383" d="M296.21,47.24c1.636,1.4,3.258,2.936,4.838,4.433C299.468,50.176,297.846,48.708,296.21,47.24Z" transform="translate(114.479 15.321)" fill="#00406c" stroke="#fff" stroke-linecap="round" stroke-linejoin="bevel" stroke-width="5"/>
        <path id="Trazado_199384" data-name="Trazado 199384" d="M291.77,43.41c1.706,1.4,3.384,2.867,5.048,4.321C295.154,46.277,293.49,44.822,291.77,43.41Z" transform="translate(112.711 13.796)" fill="#00406c" stroke="#fff" stroke-linecap="round" stroke-linejoin="bevel" stroke-width="5"/>
        <path id="Trazado_199385" data-name="Trazado 199385" d="M287.22,39.73c1.972,1.538,3.929,3.1,5.845,4.7C291.107,42.9,289.192,41.268,287.22,39.73Z" transform="translate(110.898 12.33)" fill="#00406c" stroke="#fff" stroke-linecap="round" stroke-linejoin="bevel" stroke-width="5"/>
        <path id="Trazado_199386" data-name="Trazado 199386" d="M328.86,275.29c2.643-4.279,5.174-8.628,7.551-13.06-1.217,2.251-2.461,4.5-3.747,6.712S330.16,273.193,328.86,275.29Z" transform="translate(127.485 100.958)" fill="#00406c" stroke="#fff" stroke-linecap="round" stroke-linejoin="bevel" stroke-width="5"/>
        <path id="Trazado_199387" data-name="Trazado 199387" d="M300.08,50.79q2.8,2.6,5.412,5.286Q302.765,53.391,300.08,50.79Z" transform="translate(116.021 16.735)" fill="#00406c" stroke="#fff" stroke-linecap="round" stroke-linejoin="bevel" stroke-width="5"/>
        <path id="Trazado_199388" data-name="Trazado 199388" d="M283,36.57q2.545,1.874,5.034,3.789Q285.587,38.43,283,36.57Z" transform="translate(109.217 11.071)" fill="#00406c" stroke="#fff" stroke-linecap="round" stroke-linejoin="bevel" stroke-width="5"/>
        <path id="Trazado_199389" data-name="Trazado 199389" d="M258.52,21.49c2.2,1.119,4.377,2.251,6.53,3.44C262.9,23.741,260.715,22.609,258.52,21.49Z" transform="translate(99.466 5.064)" fill="#00406c" stroke="#fff" stroke-linecap="round" stroke-linejoin="bevel" stroke-width="5"/>
        <path id="Trazado_199390" data-name="Trazado 199390" d="M253.77,19.17c1.762.839,3.51,1.692,5.258,2.559C257.28,20.862,255.49,20.009,253.77,19.17Z" transform="translate(97.574 4.14)" fill="#00406c" stroke="#fff" stroke-linecap="round" stroke-linejoin="bevel" stroke-width="5"/>
        <path id="Trazado_199391" data-name="Trazado 199391" d="M278.21,33.15c1.818,1.231,3.608,2.5,5.384,3.789C281.818,35.653,280.028,34.339,278.21,33.15Z" transform="translate(107.309 9.709)" fill="#00406c" stroke="#fff" stroke-linecap="round" stroke-linejoin="bevel" stroke-width="5"/>
        <path id="Trazado_199392" data-name="Trazado 199392" d="M315.64,67.57q2.139,2.6,4.195,5.272Q317.765,70.171,315.64,67.57Z" transform="translate(122.219 23.419)" fill="#00406c" stroke="#fff" stroke-linecap="round" stroke-linejoin="bevel" stroke-width="5"/>
        <path id="Trazado_199393" data-name="Trazado 199393" d="M268.86,27.19c1.734,1.021,3.454,2.07,5.146,3.146C272.314,29.26,270.594,28.211,268.86,27.19Z" transform="translate(103.585 7.335)" fill="#00406c" stroke="#fff" stroke-linecap="round" stroke-linejoin="bevel" stroke-width="5"/>
        <path id="Trazado_199394" data-name="Trazado 199394" d="M273.35,29.94q3.118,2,6.195,4.069Q276.482,31.94,273.35,29.94Z" transform="translate(105.374 8.43)" fill="#00406c" stroke="#fff" stroke-linecap="round" stroke-linejoin="bevel" stroke-width="5"/>
        <path id="Trazado_199395" data-name="Trazado 199395" d="M50.1,59.716c1.51-1.608,3.048-3.216,4.614-4.8C53.148,56.5,51.61,58.108,50.1,59.716Z" transform="translate(16.446 18.38)" fill="#00406c" stroke="#fff" stroke-linecap="round" stroke-linejoin="bevel" stroke-width="5"/>
        <path id="Trazado_199396" data-name="Trazado 199396" d="M53.75,56.062q2.643-2.671,5.4-5.272Q56.407,53.391,53.75,56.062Z" transform="translate(17.9 16.735)" fill="#00406c" stroke="#fff" stroke-linecap="round" stroke-linejoin="bevel" stroke-width="5"/>
        <path id="Trazado_199397" data-name="Trazado 199397" d="M46.13,64.178c1.482-1.706,3.006-3.384,4.545-5.048C49.136,60.794,47.612,62.472,46.13,64.178Z" transform="translate(14.865 20.057)" fill="#00406c" stroke="#fff" stroke-linecap="round" stroke-linejoin="bevel" stroke-width="5"/>
        <path id="Trazado_199398" data-name="Trazado 199398" d="M42.36,68.837q2.405-2.937,4.908-5.817Q44.779,65.9,42.36,68.837Z" transform="translate(13.363 21.607)" fill="#00406c" stroke="#fff" stroke-linecap="round" stroke-linejoin="bevel" stroke-width="5"/>
        <path id="Trazado_199399" data-name="Trazado 199399" d="M62.32,47.731q2.475-2.181,5.02-4.321Q64.809,45.549,62.32,47.731Z" transform="translate(21.314 13.796)" fill="#00406c" stroke="#fff" stroke-linecap="round" stroke-linejoin="bevel" stroke-width="5"/>
        <path id="Trazado_199400" data-name="Trazado 199400" d="M58,51.655q2.363-2.223,4.81-4.4Q60.419,49.431,58,51.655Z" transform="translate(19.593 15.325)" fill="#00406c" stroke="#fff" stroke-linecap="round" stroke-linejoin="bevel" stroke-width="5"/>
        <path id="Trazado_199401" data-name="Trazado 199401" d="M71.06,40.359q2.489-1.93,5.034-3.789Q73.563,38.444,71.06,40.359Z" transform="translate(24.795 11.071)" fill="#00406c" stroke="#fff" stroke-linecap="round" stroke-linejoin="bevel" stroke-width="5"/>
        <path id="Trazado_199402" data-name="Trazado 199402" d="M66.29,44.428q2.895-2.391,5.831-4.7Q69.185,42.037,66.29,44.428Z" transform="translate(22.895 12.33)" fill="#00406c" stroke="#fff" stroke-linecap="round" stroke-linejoin="bevel" stroke-width="5"/>
        <path id="Trazado_199403" data-name="Trazado 199403" d="M94.5,24.98q3.23-1.762,6.53-3.44Q97.744,23.148,94.5,24.98Z" transform="translate(34.132 5.084)" fill="#00406c" stroke="#fff" stroke-linecap="round" stroke-linejoin="bevel" stroke-width="5"/>
        <path id="Trazado_199404" data-name="Trazado 199404" d="M90,27.444q2.8-1.65,5.593-3.244Q92.8,25.794,90,27.444Z" transform="translate(32.34 6.144)" fill="#00406c" stroke="#fff" stroke-linecap="round" stroke-linejoin="bevel" stroke-width="5"/>
        <path id="Trazado_199405" data-name="Trazado 199405" d="M79.91,34.009q3.062-2.084,6.195-4.069Q82.972,31.94,79.91,34.009Z" transform="translate(28.321 8.43)" fill="#00406c" stroke="#fff" stroke-linecap="round" stroke-linejoin="bevel" stroke-width="5"/>
        <path id="Trazado_199406" data-name="Trazado 199406" d="M85.14,30.34c1.706-1.077,3.426-2.125,5.16-3.16C88.566,28.215,86.846,29.264,85.14,30.34Z" transform="translate(30.404 7.331)" fill="#00406c" stroke="#fff" stroke-linecap="round" stroke-linejoin="bevel" stroke-width="5"/>
        <path id="Trazado_199407" data-name="Trazado 199407" d="M100.16,21.729c1.748-.867,3.5-1.72,5.272-2.559C103.656,20.009,101.908,20.862,100.16,21.729Z" transform="translate(36.387 4.14)" fill="#00406c" stroke="#fff" stroke-linecap="round" stroke-linejoin="bevel" stroke-width="5"/>
        <path id="Trazado_199408" data-name="Trazado 199408" d="M75.63,36.939c1.776-1.286,3.566-2.559,5.384-3.789C79.2,34.339,77.406,35.653,75.63,36.939Z" transform="translate(26.616 9.709)" fill="#00406c" stroke="#fff" stroke-linecap="round" stroke-linejoin="bevel" stroke-width="5"/>
        <path id="Trazado_199409" data-name="Trazado 199409" d="M263.66,24.21q2.867,1.58,5.691,3.23Q266.541,25.79,263.66,24.21Z" transform="translate(101.514 6.148)" fill="#00406c" stroke="#fff" stroke-linecap="round" stroke-linejoin="bevel" stroke-width="5"/>
        <path id="Trazado_199410" data-name="Trazado 199410" d="M265.068,333.74q-3.244,1.762-6.558,3.44Q261.824,335.5,265.068,333.74Z" transform="translate(99.462 129.443)" fill="#00406c" stroke="#fff" stroke-linecap="round" stroke-linejoin="bevel" stroke-width="5"/>
        <path id="Trazado_199411" data-name="Trazado 199411" d="M307.316,176.14c0,2.531,0,5.048-.126,7.565C307.274,181.188,307.316,178.741,307.316,176.14Z" transform="translate(118.853 66.666)" fill="#00406c" stroke="#fff" stroke-linecap="round" stroke-linejoin="bevel" stroke-width="5"/>
        <path id="Trazado_199412" data-name="Trazado 199412" d="M269.4,331.16q-2.8,1.678-5.775,3.286Q266.542,332.838,269.4,331.16Z" transform="translate(101.498 128.415)" fill="#00406c" stroke="#fff" stroke-linecap="round" stroke-linejoin="bevel" stroke-width="5"/>
        <path id="Trazado_199413" data-name="Trazado 199413" d="M307.19,176.14c.084,2.517.126,5.034.126,7.565C307.316,181.174,307.274,178.657,307.19,176.14Z" transform="translate(118.853 66.666)" fill="#00406c" stroke="#fff" stroke-linecap="round" stroke-linejoin="bevel" stroke-width="5"/>
        <path id="Trazado_199414" data-name="Trazado 199414" d="M307.14,176.87c.112,1.832.2,3.678.28,5.523C307.336,180.548,307.252,178.7,307.14,176.87Z" transform="translate(118.833 66.957)" fill="#00406c" stroke="#fff" stroke-linecap="round" stroke-linejoin="bevel" stroke-width="5"/>
        <path id="Trazado_199415" data-name="Trazado 199415" d="M283.645,321.81c-1.8,1.314-3.636,2.615-5.5,3.873C280.01,324.425,281.842,323.124,283.645,321.81Z" transform="translate(107.286 124.691)" fill="#00406c" stroke="#fff" stroke-linecap="round" stroke-linejoin="bevel" stroke-width="5"/>
        <path id="Trazado_199416" data-name="Trazado 199416" d="M351.75,144c.433,2.2.839,4.391,1.217,6.614C352.589,148.447,352.183,146.251,351.75,144Z" transform="translate(136.603 53.864)" fill="#00406c" stroke="#fff" stroke-linecap="round" stroke-linejoin="bevel" stroke-width="5"/>
        <path id="Trazado_199417" data-name="Trazado 199417" d="M274.074,328.23q-2.6,1.636-5.244,3.2Q271.473,329.866,274.074,328.23Z" transform="translate(103.573 127.248)" fill="#00406c" stroke="#fff" stroke-linecap="round" stroke-linejoin="bevel" stroke-width="5"/>
        <path id="Trazado_199418" data-name="Trazado 199418" d="M307,176.38c.224,2.293.419,4.587.573,6.894C307.461,180.967,307.266,178.645,307,176.38Z" transform="translate(118.777 66.762)" fill="#00406c" stroke="#fff" stroke-linecap="round" stroke-linejoin="bevel" stroke-width="5"/>
        <path id="Trazado_199419" data-name="Trazado 199419" d="M306.93,176.18c.322,2.475.615,4.95.867,7.453C307.545,181.13,307.252,178.725,306.93,176.18Z" transform="translate(118.749 66.682)" fill="#00406c" stroke="#fff" stroke-linecap="round" stroke-linejoin="bevel" stroke-width="5"/>
        <path id="Trazado_199420" data-name="Trazado 199420" d="M279.581,324.83c-2.07,1.4-4.195,2.8-6.251,4.1C275.427,327.585,277.511,326.228,279.581,324.83Z" transform="translate(105.366 125.894)" fill="#00406c" stroke="#fff" stroke-linecap="round" stroke-linejoin="bevel" stroke-width="5"/>
        <path id="Trazado_199421" data-name="Trazado 199421" d="M352.967,208.93c-.378,2.209-.783,4.4-1.217,6.6C352.183,213.335,352.589,211.139,352.967,208.93Z" transform="translate(136.603 79.727)" fill="#00406c" stroke="#fff" stroke-linecap="round" stroke-linejoin="bevel" stroke-width="5"/>
        <path id="Trazado_199422" data-name="Trazado 199422" d="M350.672,220.4c-.475,1.958-.965,3.915-1.482,5.859C349.707,224.315,350.2,222.358,350.672,220.4Z" transform="translate(135.583 84.296)" fill="#00406c" stroke="#fff" stroke-linecap="round" stroke-linejoin="bevel" stroke-width="5"/>
        <path id="Trazado_199423" data-name="Trazado 199423" d="M288.142,318.38c-1.692,1.3-3.412,2.587-5.132,3.859C284.73,320.967,286.45,319.68,288.142,318.38Z" transform="translate(109.221 123.324)" fill="#00406c" stroke="#fff" stroke-linecap="round" stroke-linejoin="bevel" stroke-width="5"/>
        <path id="Trazado_199424" data-name="Trazado 199424" d="M352.118,214.11q-.755,3.692-1.608,7.341Q351.377,217.8,352.118,214.11Z" transform="translate(136.109 81.79)" fill="#00406c" stroke="#fff" stroke-linecap="round" stroke-linejoin="bevel" stroke-width="5"/>
        <path id="Trazado_199425" data-name="Trazado 199425" d="M307.8,176.19c-.252,2.489-.545,4.964-.867,7.425C307.252,181.154,307.545,178.721,307.8,176.19Z" transform="translate(118.749 66.686)" fill="#00406c" stroke="#fff" stroke-linecap="round" stroke-linejoin="bevel" stroke-width="5"/>
        <path id="Trazado_199426" data-name="Trazado 199426" d="M307.6,176.39c-.154,2.293-.35,4.587-.573,6.866C307.254,180.977,307.449,178.641,307.6,176.39Z" transform="translate(118.789 66.766)" fill="#00406c" stroke="#fff" stroke-linecap="round" stroke-linejoin="bevel" stroke-width="5"/>
        <path id="Trazado_199427" data-name="Trazado 199427" d="M307.42,176.87c-.084,1.846-.168,3.692-.28,5.523C307.252,180.562,307.336,178.716,307.42,176.87Z" transform="translate(118.833 66.957)" fill="#00406c" stroke="#fff" stroke-linecap="round" stroke-linejoin="bevel" stroke-width="5"/>
        <path id="Trazado_199428" data-name="Trazado 199428" d="M331.59,90.67c1.273,2.2,2.517,4.433,3.72,6.67C334.107,95.1,332.862,92.865,331.59,90.67Z" transform="translate(128.572 32.621)" fill="#00406c" stroke="#fff" stroke-linecap="round" stroke-linejoin="bevel" stroke-width="5"/>
        <path id="Trazado_199429" data-name="Trazado 199429" d="M323.535,281.42c-1.4,1.972-2.867,3.915-4.335,5.845C320.668,285.335,322.123,283.392,323.535,281.42Z" transform="translate(123.637 108.602)" fill="#00406c" stroke="#fff" stroke-linecap="round" stroke-linejoin="bevel" stroke-width="5"/>
        <path id="Trazado_199430" data-name="Trazado 199430" d="M346.123,236.65c-.727,2.056-1.4,4.1-2.223,6.139C344.669,240.747,345.438,238.706,346.123,236.65Z" transform="translate(133.476 90.769)" fill="#00406c" stroke="#fff" stroke-linecap="round" stroke-linejoin="bevel" stroke-width="5"/>
        <path id="Trazado_199431" data-name="Trazado 199431" d="M326.749,276.81q-2.167,3.23-4.419,6.376Q324.665,280.04,326.749,276.81Z" transform="translate(124.884 106.766)" fill="#00406c" stroke="#fff" stroke-linecap="round" stroke-linejoin="bevel" stroke-width="5"/>
        <path id="Trazado_199432" data-name="Trazado 199432" d="M319.869,286.32q-2.1,2.727-4.279,5.412Q317.771,289.047,319.869,286.32Z" transform="translate(122.199 110.554)" fill="#00406c" stroke="#fff" stroke-linecap="round" stroke-linejoin="bevel" stroke-width="5"/>
        <path id="Trazado_199433" data-name="Trazado 199433" d="M325.77,81.31c1.245,1.86,2.447,3.734,3.636,5.593C328.217,85.072,327.015,83.17,325.77,81.31Z" transform="translate(126.254 28.892)" fill="#00406c" stroke="#fff" stroke-linecap="round" stroke-linejoin="bevel" stroke-width="5"/>
        <path id="Trazado_199434" data-name="Trazado 199434" d="M316.778,290.48c-1.636,1.986-3.3,3.957-4.978,5.887C313.478,294.437,315.142,292.466,316.778,290.48Z" transform="translate(120.689 112.211)" fill="#00406c" stroke="#fff" stroke-linecap="round" stroke-linejoin="bevel" stroke-width="5"/>
        <path id="Trazado_199435" data-name="Trazado 199435" d="M348.063,230.85c-.741,2.433-1.538,4.838-2.363,7.243C346.525,235.688,347.322,233.283,348.063,230.85Z" transform="translate(134.193 88.459)" fill="#00406c" stroke="#fff" stroke-linecap="round" stroke-linejoin="bevel" stroke-width="5"/>
        <path id="Trazado_199436" data-name="Trazado 199436" d="M312.978,294.87c-1.538,1.762-3.118,3.5-4.7,5.216C309.86,298.366,311.44,296.632,312.978,294.87Z" transform="translate(119.287 113.96)" fill="#00406c" stroke="#fff" stroke-linecap="round" stroke-linejoin="bevel" stroke-width="5"/>
        <path id="Trazado_199437" data-name="Trazado 199437" d="M328.88,86.16q1.93,3.076,3.761,6.251Q330.824,89.25,328.88,86.16Z" transform="translate(127.493 30.824)" fill="#00406c" stroke="#fff" stroke-linecap="round" stroke-linejoin="bevel" stroke-width="5"/>
        <path id="Trazado_199438" data-name="Trazado 199438" d="M340.106,252.19c-.965,2.125-1.972,4.2-3.006,6.32C338.135,256.413,339.142,254.315,340.106,252.19Z" transform="translate(130.767 96.959)" fill="#00406c" stroke="#fff" stroke-linecap="round" stroke-linejoin="bevel" stroke-width="5"/>
        <path id="Trazado_199439" data-name="Trazado 199439" d="M342.45,246.91q-1.482,3.566-3.09,7.062Q340.954,250.476,342.45,246.91Z" transform="translate(131.667 94.856)" fill="#00406c" stroke="#fff" stroke-linecap="round" stroke-linejoin="bevel" stroke-width="5"/>
        <path id="Trazado_199440" data-name="Trazado 199440" d="M319.23,72.12c1.4,1.888,2.8,3.775,4.195,5.705C322.069,75.9,320.656,74.008,319.23,72.12Z" transform="translate(123.649 25.232)" fill="#00406c" stroke="#fff" stroke-linecap="round" stroke-linejoin="bevel" stroke-width="5"/>
        <path id="Trazado_199441" data-name="Trazado 199441" d="M329.45,272.32c-1.217,1.944-2.447,3.859-3.72,5.761C327,276.179,328.233,274.264,329.45,272.32Z" transform="translate(126.238 104.977)" fill="#00406c" stroke="#fff" stroke-linecap="round" stroke-linejoin="bevel" stroke-width="5"/>
        <path id="Trazado_199442" data-name="Trazado 199442" d="M337.556,257.54c-.993,2.014-2.028,4.013-3.076,5.985C335.529,261.553,336.605,259.582,337.556,257.54Z" transform="translate(129.723 99.09)" fill="#00406c" stroke="#fff" stroke-linecap="round" stroke-linejoin="bevel" stroke-width="5"/>
        <path id="Trazado_199443" data-name="Trazado 199443" d="M344.241,242c-.811,2.111-1.65,4.195-2.531,6.306C342.591,246.279,343.43,244.167,344.241,242Z" transform="translate(132.603 92.9)" fill="#00406c" stroke="#fff" stroke-linecap="round" stroke-linejoin="bevel" stroke-width="5"/>
        <path id="Trazado_199444" data-name="Trazado 199444" d="M322.35,76.34c1.482,2.084,2.95,4.195,4.377,6.32C325.3,80.535,323.832,78.424,322.35,76.34Z" transform="translate(124.892 26.913)" fill="#00406c" stroke="#fff" stroke-linecap="round" stroke-linejoin="bevel" stroke-width="5"/>
        <path id="Trazado_199445" data-name="Trazado 199445" d="M343.9,116.66c.769,2.028,1.51,4.069,2.209,6.125C345.438,120.729,344.669,118.688,343.9,116.66Z" transform="translate(133.476 42.973)" fill="#00406c" stroke="#fff" stroke-linecap="round" stroke-linejoin="bevel" stroke-width="5"/>
        <path id="Trazado_199446" data-name="Trazado 199446" d="M350.51,138.33q.867,3.65,1.608,7.341Q351.363,141.98,350.51,138.33Z" transform="translate(136.109 51.605)" fill="#00406c" stroke="#fff" stroke-linecap="round" stroke-linejoin="bevel" stroke-width="5"/>
        <path id="Trazado_199447" data-name="Trazado 199447" d="M296.884,311.16q-2.559,2.237-5.174,4.433Q294.325,313.411,296.884,311.16Z" transform="translate(112.687 120.448)" fill="#00406c" stroke="#fff" stroke-linecap="round" stroke-linejoin="bevel" stroke-width="5"/>
        <path id="Trazado_199448" data-name="Trazado 199448" d="M341.72,111.16q1.3,3.1,2.517,6.279Q343.02,114.278,341.72,111.16Z" transform="translate(132.607 40.782)" fill="#00406c" stroke="#fff" stroke-linecap="round" stroke-linejoin="bevel" stroke-width="5"/>
        <path id="Trazado_199449" data-name="Trazado 199449" d="M349.384,225.81c-.587,2.181-1.217,4.335-1.874,6.488C348.2,230.145,348.8,227.991,349.384,225.81Z" transform="translate(134.914 86.451)" fill="#00406c" stroke="#fff" stroke-linecap="round" stroke-linejoin="bevel" stroke-width="5"/>
        <path id="Trazado_199450" data-name="Trazado 199450" d="M293.1,314.58q-2.923,2.419-5.887,4.74Q290.188,317,293.1,314.58Z" transform="translate(110.894 121.811)" fill="#00406c" stroke="#fff" stroke-linecap="round" stroke-linejoin="bevel" stroke-width="5"/>
        <path id="Trazado_199451" data-name="Trazado 199451" d="M301.144,307.22q-2.447,2.307-4.964,4.545Q298.725,309.513,301.144,307.22Z" transform="translate(114.467 118.879)" fill="#00406c" stroke="#fff" stroke-linecap="round" stroke-linejoin="bevel" stroke-width="5"/>
        <path id="Trazado_199452" data-name="Trazado 199452" d="M347.51,127.24c.657,2.153,1.286,4.307,1.874,6.488C348.8,131.547,348.2,129.393,347.51,127.24Z" transform="translate(134.914 47.188)" fill="#00406c" stroke="#fff" stroke-linecap="round" stroke-linejoin="bevel" stroke-width="5"/>
        <path id="Trazado_199453" data-name="Trazado 199453" d="M345.71,121.66c.811,2.405,1.608,4.81,2.349,7.243C347.318,126.47,346.521,124.065,345.71,121.66Z" transform="translate(134.197 44.965)" fill="#00406c" stroke="#fff" stroke-linecap="round" stroke-linejoin="bevel" stroke-width="5"/>
        <path id="Trazado_199454" data-name="Trazado 199454" d="M349.19,133.11c.517,1.944,1.007,3.887,1.482,5.845C350.2,137,349.707,135.054,349.19,133.11Z" transform="translate(135.583 49.526)" fill="#00406c" stroke="#fff" stroke-linecap="round" stroke-linejoin="bevel" stroke-width="5"/>
        <path id="Trazado_199455" data-name="Trazado 199455" d="M305.557,303.1c-1.8,1.8-3.622,3.594-5.467,5.342C301.894,306.694,303.712,304.9,305.557,303.1Z" transform="translate(116.025 117.238)" fill="#00406c" stroke="#fff" stroke-linecap="round" stroke-linejoin="bevel" stroke-width="5"/>
        <path id="Trazado_199456" data-name="Trazado 199456" d="M308.988,299.3c-1.566,1.664-3.16,3.328-4.768,4.95C305.828,302.628,307.422,300.964,308.988,299.3Z" transform="translate(117.67 115.724)" fill="#00406c" stroke="#fff" stroke-linecap="round" stroke-linejoin="bevel" stroke-width="5"/>
        <path id="Trazado_199457" data-name="Trazado 199457" d="M337.11,101q1.524,3.1,2.978,6.251Q338.648,104.1,337.11,101Z" transform="translate(130.771 36.735)" fill="#00406c" stroke="#fff" stroke-linecap="round" stroke-linejoin="bevel" stroke-width="5"/>
        <path id="Trazado_199458" data-name="Trazado 199458" d="M334.5,95.91c1.035,1.958,2.056,3.915,3.048,5.9C336.6,99.825,335.535,97.868,334.5,95.91Z" transform="translate(129.731 34.708)" fill="#00406c" stroke="#fff" stroke-linecap="round" stroke-linejoin="bevel" stroke-width="5"/>
        <path id="Trazado_199459" data-name="Trazado 199459" d="M339.37,105.74c1.049,2.335,2.083,4.67,3.062,6.992C341.453,110.41,340.419,108.075,339.37,105.74Z" transform="translate(131.671 38.624)" fill="#00406c" stroke="#fff" stroke-linecap="round" stroke-linejoin="bevel" stroke-width="5"/>
        <path id="Trazado_199460" data-name="Trazado 199460" d="M259.29,149V278.889h0l101.085,58.324c1.286-2.209,2.531-4.461,3.747-6.712l.308-.573c1.049-1.972,2.083-3.971,3.076-5.985l.587-1.161c1.035-2.1,2.042-4.195,3.006-6.32l.154-.322q1.594-3.51,3.09-7.062l.2-.5c.881-2.084,1.72-4.195,2.531-6.306.168-.475.35-.937.531-1.4.769-2.042,1.5-4.083,2.223-6.139l.294-.867c.825-2.405,1.622-4.81,2.363-7.243l.168-.559c.657-2.153,1.286-4.307,1.874-6.488.168-.573.322-1.133.475-1.706.517-1.944,1.007-3.9,1.482-5.859l.364-1.4q.867-3.65,1.608-7.341l.126-.643c.434-2.2.839-4.391,1.217-6.6.126-.685.238-1.4.35-2.042.294-1.874.587-3.748.839-5.593.1-.643.2-1.286.28-1.93.322-2.475.615-4.95.867-7.439v-.559c.224-2.293.406-4.587.573-6.88,0-.755.1-1.51.14-2.251.112-1.846.21-3.692.28-5.593l.084-2.237c0-2.517.126-5.034.126-7.579s0-5.048-.126-7.565l-.084-2.237c-.07-1.846-.168-3.692-.28-5.593,0-.741-.084-1.5-.14-2.251-.168-2.307-.35-4.6-.573-6.88v-.559c-.252-2.489-.545-4.964-.867-7.439-.084-.643-.182-1.272-.28-1.916-.252-1.888-.545-3.762-.839-5.593-.112-.685-.224-1.4-.35-2.028-.378-2.223-.783-4.419-1.217-6.614l-.126-.643q-.755-3.692-1.608-7.341l-.364-1.4c-.475-1.958-.965-3.9-1.482-5.845-.154-.573-.308-1.161-.475-1.72-.587-2.181-1.217-4.335-1.874-6.488l-.168-.559c-.741-2.433-1.538-4.838-2.349-7.243l-.322-.867c-.7-2.056-1.4-4.1-2.209-6.125-.182-.475-.364-.951-.531-1.4q-1.217-3.174-2.517-6.278c-.07-.182-.14-.364-.224-.545-.979-2.363-2.014-4.7-3.062-6.992-.07-.126-.126-.252-.182-.378q-1.4-3.146-2.978-6.251l-.6-1.217c-.993-1.986-2.014-3.943-3.048-5.9l-.35-.657c-1.2-2.237-2.447-4.475-3.72-6.67h0Z" transform="translate(99.773 32.645)" fill="#fff2bf" stroke="#fff" stroke-linecap="round" stroke-linejoin="bevel" stroke-width="5"/>
        <path id="Trazado_199461" data-name="Trazado 199461" d="M127.229,184.143h0L239.7,119.26V2.5c-2.559,0-5.118,0-7.663.126L229.8,2.71c-1.9.084-3.789.182-5.677.294l-2.181.14c-2.517.182-5.034.392-7.523.643h-.364c-2.391.238-4.754.531-7.117.839l-2.181.308c-1.846.266-3.706.545-5.593.853l-2.042.336c-2.447.433-4.894.881-7.313,1.4l-.559.112c-2.237.475-4.461.979-6.684,1.5l-2.084.517c-1.818.447-3.636.909-5.439,1.4l-1.832.545c-2.377.671-4.726,1.4-7.076,2.084l-.657.224q-3.188,1.007-6.32,2.1l-1.944.671c-1.79.643-3.58,1.3-5.356,1.972l-1.636.629q-3.44,1.4-6.824,2.8l-.671.294q-3.034,1.3-6.013,2.671l-1.762.825c-1.776.839-3.524,1.692-5.272,2.559l-1.4.685q-3.272,1.636-6.516,3.468l-.7.28q-2.8,1.594-5.593,3.244l-1.566.923c-1.734,1.035-3.454,2.084-5.16,3.16l-1.119.7q-3.132,2-6.195,4.069l-.6.419c-1.818,1.231-3.608,2.5-5.384,3.789-.461.322-.909.657-1.4.993q-2.531,1.874-5.034,3.789l-.839.629q-2.936,2.307-5.831,4.7l-.531.447q-2.531,2.139-5.02,4.321L75.6,65.075q-2.461,2.181-4.88,4.4l-.587.545q-2.8,2.6-5.4,5.272l-.489.5c-1.566,1.58-3.1,3.188-4.614,4.8l-1.007,1.091c-1.538,1.664-3.062,3.342-4.545,5.048l-.364.392q-2.489,2.867-4.908,5.817l-.461.573q-2.1,2.573-4.195,5.23L43.3,99.866c-1.4,1.874-2.8,3.748-4.195,5.663l-.168.238c-1.5,2.07-2.936,4.195-4.363,6.292l-.433.657q-1.846,2.79-3.608,5.593c-.252.378-.489.769-.727,1.161-1.286,2.07-2.531,4.195-3.748,6.237h0Z" transform="translate(6.871 -2.5)" fill="#d3d3d3" stroke="#fff" stroke-linecap="round" stroke-linejoin="bevel" stroke-width="5"/>
        <path id="Trazado_199462" data-name="Trazado 199462" d="M127.209,225.29,26.11,283.614q1.846,3.216,3.8,6.334l.657,1.063q1.832,2.895,3.706,5.747c.126.168.238.35.35.531q2.153,3.23,4.4,6.362l.084.112c1.4,1.958,2.8,3.887,4.293,5.8l.8,1.035q2.07,2.713,4.195,5.356l.364.461c1.622,1.986,3.272,3.929,4.964,5.859.084.112.182.21.266.308,1.524,1.748,3.076,3.454,4.642,5.146.308.35.629.685.951,1.021q2.307,2.475,4.684,4.894l.433.419c1.776,1.8,3.594,3.566,5.426,5.314l.517.475c1.608,1.524,3.244,3.006,4.894,4.489l1.133,1.007c1.678,1.468,3.37,2.936,5.09,4.363l.475.406q2.895,2.419,5.859,4.712l.8.615q2.517,1.93,5.076,3.817l1.4.965c1.79,1.3,3.608,2.573,5.426,3.831l.559.378c2.056,1.4,4.195,2.8,6.223,4.1l1.091.671c1.72,1.077,3.454,2.139,5.2,3.174l1.538.909c1.9,1.119,3.8,2.209,5.747,3.272l.6.336q3.258,1.762,6.544,3.44l1.4.685c1.748.867,3.524,1.72,5.3,2.559l1.734.811q2.992,1.4,6.055,2.7l.629.28q3.4,1.4,6.838,2.8l1.622.615c1.79.685,3.58,1.4,5.384,1.986l1.916.671c2.111.727,4.195,1.4,6.348,2.111l.643.2c2.335.741,4.7,1.4,7.076,2.1l1.874.5c1.8.489,3.622.951,5.439,1.4l2.084.517c2.209.517,4.447,1.021,6.684,1.482l.559.126c2.419.5,4.866.951,7.313,1.4l2.042.336c1.846.308,3.692.587,5.593.853l2.181.308c2.363.308,4.74.6,7.117.839h.364c2.489.252,5.006.461,7.523.643l2.181.14c1.888.112,3.775.21,5.677.294l2.237.084c2.545,0,5.1.126,7.663.126V290.228Z" transform="translate(6.891 86.244)" fill="#636363" stroke="#fff" stroke-linecap="round" stroke-linejoin="bevel" stroke-width="5"/>
        <path id="Trazado_199463" data-name="Trazado 199463" d="M347.8,69.494c-1.58-1.5-3.2-2.964-4.838-4.433L341.8,64.026c-1.664-1.4-3.342-2.909-5.048-4.321l-.517-.447c-1.916-1.594-3.873-3.16-5.845-4.7l-.825-.629q-2.489-1.93-5.034-3.789c-.447-.336-.895-.671-1.4-.993-1.776-1.286-3.566-2.559-5.384-3.789l-.6-.419q-3.062-2.084-6.195-4.069l-1.133-.7c-1.692-1.077-3.412-2.125-5.146-3.146l-1.58-.937q-2.8-1.65-5.691-3.23l-.657-.364c-2.153-1.189-4.335-2.321-6.53-3.44l-1.4-.685c-1.748-.867-3.5-1.72-5.258-2.559l-1.776-.825c-1.986-.909-3.971-1.8-5.985-2.657l-.7-.308c-2.251-.951-4.531-1.874-6.81-2.8l-1.608-.643c-1.762-.671-3.552-1.328-5.342-1.972l-1.944-.685c-2.084-.713-4.195-1.4-6.292-2.084l-.685-.224q-3.524-1.049-7.062-2.028l-1.888-.517c-1.8-.489-3.622-.951-5.44-1.4l-2.083-.517c-2.209-.517-4.433-1.021-6.67-1.482l-.573-.126c-2.419-.5-4.852-.951-7.3-1.4l-2.07-.336c-1.832-.308-3.692-.587-5.593-.853l-2.181-.308c-2.363-.308-4.726-.6-7.1-.839h-.378c-2.489-.252-5.006-.461-7.523-.643L194.441,3c-1.888-.112-3.775-.21-5.677-.294l-2.237-.084c-2.545,0-5.1-.126-7.677-.126V119.26h0L291.332,184.2h0l101.1-58.366h0q-1.832-3.16-3.762-6.251l-.713-1.161c-1.189-1.888-2.391-3.762-3.636-5.593l-.406-.629c-1.4-2.125-2.895-4.195-4.377-6.32a2.4,2.4,0,0,0-.154-.2c-1.4-1.93-2.8-3.817-4.195-5.705l-.853-1.091q-2.042-2.671-4.195-5.272l-.419-.531q-2.433-2.95-4.922-5.831l-.336-.378q-2.265-2.559-4.573-5.076l-.993-1.063c-1.524-1.622-3.076-3.244-4.642-4.824l-.461-.475q-2.657-2.685-5.412-5.286Z" transform="translate(67.731 -2.5)" fill="#0d2380" stroke="#fff" stroke-linecap="round" stroke-linejoin="bevel" stroke-width="5"/>
        <path id="Trazado_199464" data-name="Trazado 199464" d="M136.61,278.917h0V149.026L35.5,90.66h0c-1.272,2.2-2.5,4.419-3.72,6.656l-.364.713q-1.552,2.895-3.048,5.845l-.629,1.272q-1.51,3.062-2.936,6.167l-.21.461c-1.063,2.307-2.07,4.642-3.062,6.992l-.252.643Q20,122.472,18.8,125.576c-.182.5-.378.993-.559,1.482-.755,2-1.4,4-2.167,6.013-.126.336-.238.657-.35.979-.825,2.377-1.594,4.782-2.349,7.187-.07.224-.126.447-.2.671q-.965,3.174-1.846,6.376c-.168.587-.322,1.175-.475,1.776-.517,1.916-1.007,3.845-1.482,5.775-.112.5-.238,1.007-.364,1.51q-.825,3.706-1.622,7.3a3.217,3.217,0,0,1-.14.713c-.433,2.167-.825,4.349-1.2,6.53-.126.7-.238,1.4-.35,2.07-.294,1.86-.573,3.72-.839,5.593-.1.657-.2,1.3-.28,1.958-.322,2.461-.615,4.936-.867,7.425v.573c-.224,2.279-.406,4.573-.573,6.866,0,.755-.1,1.51-.14,2.251-.112,1.846-.21,3.692-.28,5.593l-.084,2.237c0,2.517-.126,5.034-.126,7.565s0,5.062.126,7.579l.084,2.237c.07,1.846.168,3.692.28,5.523,0,.755.084,1.51.14,2.265.168,2.293.35,4.573.573,6.852v.587c.252,2.489.545,4.964.867,7.425.084.657.182,1.314.28,1.958q.406,2.8.839,5.593c.112.7.224,1.4.35,2.084.378,2.181.769,4.349,1.2,6.516a4.443,4.443,0,0,0,.14.727q.755,3.678,1.608,7.3l.378,1.524c.461,1.93.951,3.859,1.4,5.775.154.587.308,1.189.475,1.79.587,2.125,1.2,4.195,1.846,6.362.07.224.126.447.2.671.755,2.405,1.538,4.81,2.349,7.187.112.322.224.643.35.979.7,2.014,1.4,4.013,2.167,6.013.2.489.378.979.559,1.482.811,2.07,1.622,4.195,2.475,6.195l.252.6c.993,2.349,2.014,4.7,3.062,6.992l.2.405q1.4,3.146,2.964,6.237c.21.406.406.811.6,1.217q1.51,3.006,3.076,5.943l.308.587q1.818,3.4,3.748,6.712Z" transform="translate(-2.51 32.617)" fill="#fc502d" stroke="#fff" stroke-linecap="round" stroke-linejoin="bevel" stroke-width="5"/>
        <path id="Trazado_199465" data-name="Trazado 199465" d="M291.318,225.29,178.85,290.228h0v116.7c2.573,0,5.132,0,7.677-.126l2.237-.084c1.9-.084,3.789-.182,5.677-.294l2.181-.14c2.517-.182,5.034-.392,7.523-.643h.364c2.377-.238,4.754-.531,7.117-.839l2.181-.308c1.846-.266,3.706-.545,5.593-.853l2.042-.336c2.447-.433,4.894-.881,7.313-1.4l.559-.126c2.237-.461,4.475-.965,6.684-1.482l2.084-.517c1.818-.447,3.636-.909,5.453-1.4l1.86-.5c2.377-.671,4.74-1.4,7.076-2.1l.643-.2c2.125-.671,4.195-1.4,6.348-2.111l1.916-.671c1.8-.643,3.594-1.3,5.384-1.986l1.622-.615q3.44-1.4,6.838-2.8l.629-.28c2.028-.867,4.055-1.776,6.055-2.7l1.734-.811c1.79-.839,3.552-1.692,5.328-2.573l1.328-.671q3.314-1.678,6.558-3.44l.587-.322q2.909-1.608,5.775-3.286l1.51-.895q2.643-1.566,5.244-3.2l1.049-.657c2.1-1.4,4.195-2.7,6.251-4.1l.489-.35c1.86-1.258,3.692-2.559,5.5-3.873l1.3-.937c1.72-1.272,3.44-2.559,5.132-3.859l.741-.573q2.978-2.335,5.887-4.74l.406-.35q2.629-2.181,5.174-4.433l1.077-.965q2.517-2.251,4.964-4.545l.461-.419c1.846-1.748,3.664-3.538,5.467-5.342l.35-.364c1.608-1.622,3.2-3.286,4.768-4.95.294-.336.6-.657.909-.979,1.58-1.72,3.16-3.454,4.7-5.216l.224-.252c1.678-1.93,3.342-3.9,4.978-5.887a4.565,4.565,0,0,1,.322-.405q2.181-2.685,4.279-5.412l.769-1.007c1.468-1.93,2.923-3.873,4.335-5.845v-.07q2.265-3.146,4.419-6.376l.336-.517c1.272-1.9,2.5-3.817,3.72-5.761.224-.35.447-.7.657-1.049q1.944-3.146,3.8-6.348Z" transform="translate(67.731 86.244)" fill="#727997" stroke="#fff" stroke-linecap="round" stroke-linejoin="bevel" stroke-width="5"/>
        <path id="Trazado_199466" data-name="Trazado 199466" d="M65.78,176.352c0,9.019-6.446,16.332-11.9,16.332-4.628,0-11.9-7.313-11.9-16.332s5.328-13.522,11.9-13.522S65.78,167.263,65.78,176.352Z" transform="translate(13.212 61.364)" fill="none" stroke="#fff" stroke-linecap="round" stroke-linejoin="round" stroke-width="1.3"/>
        <path id="Trazado_199467" data-name="Trazado 199467" d="M62.97,183.66a37.559,37.559,0,0,1-6.852,6.992,37.754,37.754,0,0,1-6.838-6.992c-7.621,3.678-13.06,12.082-13.06,12.082a59.248,59.248,0,0,0,19.9,3.58,59.247,59.247,0,0,0,19.9-3.58S70.591,187.338,62.97,183.66Z" transform="translate(10.918 69.661)" fill="none" stroke="#fff" stroke-linecap="round" stroke-linejoin="round" stroke-width="1.3"/>
        <path id="Trazado_199468" data-name="Trazado 199468" d="M75.785,177.39c0,5.523-3.957,10-7.285,10-2.8,0-7.3-4.475-7.3-10S64.472,169,68.5,169,75.785,171.8,75.785,177.39Z" transform="translate(20.868 63.822)" fill="none" stroke="#fff" stroke-linecap="round" stroke-linejoin="round" stroke-width="1.3"/>
        <path id="Trazado_199469" data-name="Trazado 199469" d="M60,185.384a18.487,18.487,0,0,1,4.838-3.594,23.225,23.225,0,0,0,4.195,4.279,23.225,23.225,0,0,0,4.195-4.279,23.548,23.548,0,0,1,7.984,7.411,35.027,35.027,0,0,1-16,1.972S62.1,187.509,60,185.384Z" transform="translate(20.39 68.916)" fill="none" stroke="#fff" stroke-linecap="round" stroke-linejoin="round" stroke-width="1.3"/>
        <path id="Trazado_199470" data-name="Trazado 199470" d="M29.28,177.39c0,5.523,3.943,10,7.285,10,2.8,0,7.285-4.475,7.285-10S40.592,169,36.565,169,29.28,171.8,29.28,177.39Z" transform="translate(8.153 63.822)" fill="none" stroke="#fff" stroke-linecap="round" stroke-linejoin="round" stroke-width="1.3"/>
        <path id="Trazado_199471" data-name="Trazado 199471" d="M47.047,185.384a18.487,18.487,0,0,0-4.838-3.594,23.226,23.226,0,0,1-4.195,4.279,23.226,23.226,0,0,1-4.2-4.279,23.506,23.506,0,0,0-8,7.411,35.027,35.027,0,0,0,16,1.972S44.809,187.509,47.047,185.384Z" transform="translate(6.775 68.916)" fill="none" stroke="#fff" stroke-linecap="round" stroke-linejoin="round" stroke-width="1.3"/>
        <path id="Trazado_199472" data-name="Trazado 199472" d="M118.986,328.657c4.642-7.439,23.226-13.032,23.226-34.2V281.645c-15.689,0-23.226-12.795-23.226-12.795s-7.509,12.795-23.226,12.795v12.795C95.76,315.624,114.274,321.217,118.986,328.657Z" transform="translate(34.634 103.595)" fill="none" stroke="#fff" stroke-linecap="round" stroke-linejoin="round" stroke-width="1.23"/>
        <path id="Trazado_199473" data-name="Trazado 199473" d="M117.62,319.636c-1.231-1.063-2.559-2.1-3.915-3.174-6.81-5.328-14.515-11.368-14.515-24.135v-8.614a32.483,32.483,0,0,0,18.43-9.523,32.385,32.385,0,0,0,18.416,9.523v8.642c0,12.767-7.7,18.807-14.515,24.135C120.165,317.538,118.837,318.573,117.62,319.636Z" transform="translate(36.001 105.722)" fill="none" stroke="#fff" stroke-linecap="round" stroke-linejoin="round" stroke-width="1.23"/>
        <path id="Trazado_199474" data-name="Trazado 199474" d="M279.67,72.17a16.878,16.878,0,0,1,0,23.911" transform="translate(107.891 25.252)" fill="none" stroke="#fff" stroke-linecap="round" stroke-linejoin="round" stroke-width="1.04"/>
        <path id="Trazado_199475" data-name="Trazado 199475" d="M248.534,96.081a16.878,16.878,0,0,1,0-23.911" transform="translate(93.511 25.252)" fill="none" stroke="#fff" stroke-linecap="round" stroke-linejoin="round" stroke-width="1.04"/>
        <path id="Trazado_199476" data-name="Trazado 199476" d="M277.6,74.23a12.795,12.795,0,0,1,0,18.178" transform="translate(107.066 26.072)" fill="none" stroke="#fff" stroke-linecap="round" stroke-linejoin="round" stroke-width="1.04"/>
        <path id="Trazado_199477" data-name="Trazado 199477" d="M250.266,92.388a12.823,12.823,0,0,1,0-18.178" transform="translate(94.674 26.064)" fill="none" stroke="#fff" stroke-linecap="round" stroke-linejoin="round" stroke-width="1.04"/>
        <path id="Trazado_199478" data-name="Trazado 199478" d="M275.54,76.29a8.754,8.754,0,0,1,0,12.375" transform="translate(106.246 26.893)" fill="none" stroke="#fff" stroke-linecap="round" stroke-linejoin="round" stroke-width="1.04"/>
        <path id="Trazado_199479" data-name="Trazado 199479" d="M251.98,88.665a8.753,8.753,0,0,1,0-12.375" transform="translate(95.841 26.893)" fill="none" stroke="#fff" stroke-linecap="round" stroke-linejoin="round" stroke-width="1.04"/>
        <rect id="Rectángulo_85319" data-name="Rectángulo 85319" width="28.54" height="50.214" rx="2.26" transform="translate(350.533 84.753)" fill="none" stroke="#fff" stroke-linecap="round" stroke-linejoin="round" stroke-width="1.04"/>
        <rect id="Rectángulo_85320" data-name="Rectángulo 85320" width="21.115" height="38.943" transform="translate(354.253 88.696)" fill="none" stroke="#fff" stroke-linecap="round" stroke-linejoin="round" stroke-width="1.04"/>
        <circle id="Elipse_5715" data-name="Elipse 5715" cx="1.888" cy="1.888" r="1.888" transform="translate(363.817 129.919)" fill="none" stroke="#fff" stroke-linecap="round" stroke-linejoin="round" stroke-width="1.04"/>
        <rect id="Rectángulo_85321" data-name="Rectángulo 85321" width="52.521" height="33.574" transform="translate(289.049 56.087)" fill="none" stroke="#fff" stroke-linecap="round" stroke-linejoin="round" stroke-width="1.04"/>
        <rect id="Rectángulo_85322" data-name="Rectángulo 85322" width="27.841" height="46.774" transform="translate(338.703 58.968) rotate(90)" fill="none" stroke="#fff" stroke-linecap="round" stroke-linejoin="round" stroke-width="1.04"/>
        <line id="Línea_433" data-name="Línea 433" y2="7.649" transform="translate(315.309 89.633)" fill="none" stroke="#fff" stroke-linecap="round" stroke-linejoin="round" stroke-width="1.04"/>
        <path id="Trazado_199480" data-name="Trazado 199480" d="M219.99,74.741l11.2-2.671,11.2,2.671Z" transform="translate(84.119 25.212)" fill="none" stroke="#fff" stroke-linecap="round" stroke-linejoin="round" stroke-width="1.04"/>
        <path id="Trazado_199481" data-name="Trazado 199481" d="M120.054,53.37l11.452,11.2H116.67V53.37" transform="translate(42.963 17.763)" fill="none" stroke="#12263f" stroke-linecap="round" stroke-linejoin="round" stroke-width="1.27"/>
        <path id="Trazado_199482" data-name="Trazado 199482" d="M105.79,51H98.8a1.4,1.4,0,0,0-1.4,1.4v52.913a1.4,1.4,0,0,0,1.4,1.4h39.013a1.4,1.4,0,0,0,1.4-1.4v-39.8L127.758,54.328" transform="translate(35.287 16.819)" fill="none" stroke="#12263f" stroke-linecap="round" stroke-linejoin="round" stroke-width="1.27"/>
        <line id="Línea_434" data-name="Línea 434" x1="20.737" transform="translate(147.817 115.39)" fill="none" stroke="#12263f" stroke-linecap="round" stroke-linejoin="round" stroke-width="1.27"/>
        <line id="Línea_435" data-name="Línea 435" x1="20.737" transform="translate(147.817 103.099)" fill="none" stroke="#12263f" stroke-linecap="round" stroke-linejoin="round" stroke-width="1.27"/>
        <line id="Línea_436" data-name="Línea 436" x1="20.737" transform="translate(147.817 90.808)" fill="none" stroke="#12263f" stroke-linecap="round" stroke-linejoin="round" stroke-width="1.27"/>
        <line id="Línea_437" data-name="Línea 437" x1="7.649" transform="translate(147.817 78.516)" fill="none" stroke="#12263f" stroke-linecap="round" stroke-linejoin="round" stroke-width="1.27"/>
        <rect id="Rectángulo_85323" data-name="Rectángulo 85323" width="6.488" height="6.488" transform="translate(138.533 112.146)" fill="none" stroke="#12263f" stroke-linecap="round" stroke-linejoin="round" stroke-width="1.27"/>
        <path id="Trazado_199483" data-name="Trazado 199483" d="M108.082,65.41v6.083h-6.5v-3.3" transform="translate(36.953 22.559)" fill="none" stroke="#12263f" stroke-linecap="round" stroke-linejoin="round" stroke-width="1.27"/>
        <line id="Línea_438" data-name="Línea 438" x2="3.775" transform="translate(140.952 87.563)" fill="none" stroke="#12263f" stroke-linecap="round" stroke-linejoin="round" stroke-width="1.27"/>
        <path id="Trazado_199484" data-name="Trazado 199484" d="M101.65,65.472l3.09,4.824,4.153-6.446" transform="translate(36.98 21.938)" fill="none" stroke="#12263f" stroke-linecap="round" stroke-linejoin="round" stroke-width="1.27"/>
        <path id="Trazado_199485" data-name="Trazado 199485" d="M108.082,74.18v6.083h-6.5v-3.3" transform="translate(36.953 26.052)" fill="none" stroke="#12263f" stroke-linecap="round" stroke-linejoin="round" stroke-width="1.27"/>
        <line id="Línea_439" data-name="Línea 439" x2="3.775" transform="translate(140.952 99.827)" fill="none" stroke="#12263f" stroke-linecap="round" stroke-linejoin="round" stroke-width="1.27"/>
        <path id="Trazado_199486" data-name="Trazado 199486" d="M101.65,74.242l3.09,4.824,4.153-6.446" transform="translate(36.98 25.431)" fill="none" stroke="#12263f" stroke-linecap="round" stroke-linejoin="round" stroke-width="1.27"/>
        <path id="Trazado_199487" data-name="Trazado 199487" d="M108.082,56.52V62.6h-6.5V59.3" transform="translate(36.953 19.018)" fill="none" stroke="#12263f" stroke-linecap="round" stroke-linejoin="round" stroke-width="1.27"/>
        <line id="Línea_440" data-name="Línea 440" x2="3.775" transform="translate(140.952 75.132)" fill="none" stroke="#12263f" stroke-linecap="round" stroke-linejoin="round" stroke-width="1.27"/>
        <path id="Trazado_199488" data-name="Trazado 199488" d="M101.65,56.582l3.09,4.81,4.153-6.432" transform="translate(36.98 18.396)" fill="none" stroke="#12263f" stroke-linecap="round" stroke-linejoin="round" stroke-width="1.27"/>
        <path id="Trazado_199489" data-name="Trazado 199489" d="M131.76,49.22h11.578v61H95.11v-61H106.7" transform="translate(34.375 16.11)" fill="none" stroke="#12263f" stroke-linecap="round" stroke-linejoin="round" stroke-width="1.27"/>
        <rect id="Rectángulo_85324" data-name="Rectángulo 85324" width="25.058" height="10.208" transform="translate(141.077 60.925)" fill="none" stroke="#12263f" stroke-linecap="round" stroke-linejoin="round" stroke-width="1.27"/>
        <path id="Trazado_199490" data-name="Trazado 199490" d="M248.44,285.892V268.86l17.423,17.032Z" transform="translate(95.451 103.599)" fill="none" stroke="#12263f" stroke-linecap="round" stroke-linejoin="round" stroke-width="1.27"/>
        <path id="Trazado_199491" data-name="Trazado 199491" d="M274.865,293.319v-7.467L257.442,268.82h-29.98a1.594,1.594,0,0,0-1.622,1.58v62.226a1.608,1.608,0,0,0,1.622,1.58h45.8a1.608,1.608,0,0,0,1.622-1.58v-7.313" transform="translate(86.449 103.583)" fill="none" stroke="#12263f" stroke-linecap="round" stroke-linejoin="round" stroke-width="1.27"/>
        <line id="Línea_441" data-name="Línea 441" x1="25.24" transform="translate(319.225 426.812)" fill="none" stroke="#12263f" stroke-linecap="round" stroke-linejoin="round" stroke-width="1.27"/>
        <line id="Línea_442" data-name="Línea 442" x1="19.353" transform="translate(319.225 419.597)" fill="none" stroke="#12263f" stroke-linecap="round" stroke-linejoin="round" stroke-width="1.27"/>
        <line id="Línea_443" data-name="Línea 443" x1="18.262" transform="translate(319.225 412.367)" fill="none" stroke="#12263f" stroke-linecap="round" stroke-linejoin="round" stroke-width="1.27"/>
        <line id="Línea_444" data-name="Línea 444" x1="20.094" transform="translate(319.225 405.152)" fill="none" stroke="#12263f" stroke-linecap="round" stroke-linejoin="round" stroke-width="1.27"/>
        <line id="Línea_445" data-name="Línea 445" x1="26.932" transform="translate(319.225 397.923)" fill="none" stroke="#12263f" stroke-linecap="round" stroke-linejoin="round" stroke-width="1.27"/>
        <line id="Línea_446" data-name="Línea 446" x1="20.569" transform="translate(319.225 390.707)" fill="none" stroke="#12263f" stroke-linecap="round" stroke-linejoin="round" stroke-width="1.27"/>
        <line id="Línea_447" data-name="Línea 447" x1="19.758" transform="translate(319.225 383.492)" fill="none" stroke="#12263f" stroke-linecap="round" stroke-linejoin="round" stroke-width="1.27"/>
        <circle id="Elipse_5716" data-name="Elipse 5716" cx="17.297" cy="17.297" r="17.297" transform="translate(334.95 427.253) rotate(-80.78)" fill="none" stroke="#12263f" stroke-linecap="round" stroke-linejoin="round" stroke-width="1.27"/>
        <path id="Trazado_199492" data-name="Trazado 199492" d="M272.147,295.58l-4.027-4.6-10.278,11.732-5.831-6.656-4.041,4.6,9.872,11.271,4.027-4.614h0Z" transform="translate(95.264 112.41)" fill="none" stroke="#12263f" stroke-linecap="round" stroke-linejoin="round" stroke-width="1.27"/>
        <path id="Trazado_199493" data-name="Trazado 199493" d="M316.9,167.952V155.87l12.361,12.082Z" transform="translate(122.721 58.592)" fill="none" stroke="#12263f" stroke-linecap="round" stroke-linejoin="round" stroke-width="1.27"/>
        <path id="Trazado_199494" data-name="Trazado 199494" d="M318.685,202.2h15.8a1.147,1.147,0,0,0,1.161-1.133V167.952L323.285,155.87H302.017a1.133,1.133,0,0,0-1.147,1.119v15.843" transform="translate(116.336 58.592)" fill="none" stroke="#12263f" stroke-linecap="round" stroke-linejoin="round" stroke-width="1.27"/>
        <path id="Trazado_199495" data-name="Trazado 199495" d="M304.77,180.072V167.99l12.361,12.082Z" transform="translate(117.889 63.42)" fill="none" stroke="#12263f" stroke-linecap="round" stroke-linejoin="round" stroke-width="1.27"/>
        <path id="Trazado_199496" data-name="Trazado 199496" d="M311.155,168H289.887a1.147,1.147,0,0,0-1.147,1.133V213.25a1.133,1.133,0,0,0,1.147,1.119H322.37a1.133,1.133,0,0,0,1.147-1.119V180.082Z" transform="translate(111.504 63.424)" fill="none" stroke="#12263f" stroke-linecap="round" stroke-linejoin="round" stroke-width="1.27"/>
        <line id="Línea_448" data-name="Línea 448" x1="24.932" transform="translate(405.166 269.961)" fill="none" stroke="#12263f" stroke-linecap="round" stroke-linejoin="round" stroke-width="1.27"/>
        <line id="Línea_449" data-name="Línea 449" x1="24.932" transform="translate(405.166 264.844)" fill="none" stroke="#12263f" stroke-linecap="round" stroke-linejoin="round" stroke-width="1.27"/>
        <line id="Línea_450" data-name="Línea 450" x1="24.932" transform="translate(405.166 259.726)" fill="none" stroke="#12263f" stroke-linecap="round" stroke-linejoin="round" stroke-width="1.27"/>
        <line id="Línea_451" data-name="Línea 451" x1="24.932" transform="translate(405.166 254.594)" fill="none" stroke="#12263f" stroke-linecap="round" stroke-linejoin="round" stroke-width="1.27"/>
        <line id="Línea_452" data-name="Línea 452" x1="24.932" transform="translate(405.166 249.476)" fill="none" stroke="#12263f" stroke-linecap="round" stroke-linejoin="round" stroke-width="1.27"/>
        <line id="Línea_453" data-name="Línea 453" x1="14.599" transform="translate(405.166 244.358)" fill="none" stroke="#12263f" stroke-linecap="round" stroke-linejoin="round" stroke-width="1.27"/>
        <line id="Línea_454" data-name="Línea 454" x1="14.011" transform="translate(405.166 239.24)" fill="none" stroke="#12263f" stroke-linecap="round" stroke-linejoin="round" stroke-width="1.27"/>
        <path id="Trazado_199497" data-name="Trazado 199497" d="M328.286,191.74a11.536,11.536,0,0,1-11.536,11.522" transform="translate(122.661 72.88)" fill="none" stroke="#12263f" stroke-linecap="round" stroke-linejoin="round" stroke-width="1.27"/>
        <path id="Trazado_199498" data-name="Trazado 199498" d="M318.812,204.09l-3.272-3.258,3.272-3.272" transform="translate(122.179 75.198)" fill="none" stroke="#12263f" stroke-linecap="round" stroke-linejoin="round" stroke-width="1.27"/>
        <path id="Trazado_199499" data-name="Trazado 199499" d="M289.11,169.282a11.522,11.522,0,0,1,11.522-11.522" transform="translate(111.651 59.345)" fill="none" stroke="#12263f" stroke-linecap="round" stroke-linejoin="round" stroke-width="1.27"/>
        <path id="Trazado_199500" data-name="Trazado 199500" d="M296.19,155.46l3.258,3.258-3.258,3.272" transform="translate(114.471 58.428)" fill="none" stroke="#12263f" stroke-linecap="round" stroke-linejoin="round" stroke-width="1.27"/>
      </g>
    </g>
  </g>
</svg>
