<svg xmlns="http://www.w3.org/2000/svg" xmlns:xlink="http://www.w3.org/1999/xlink" width="238.207" height="235.791" viewBox="0 0 238.207 235.791">
  <defs>
    <linearGradient id="linear-gradient" y1="0.5" x2="1" y2="0.5" gradientUnits="objectBoundingBox">
      <stop offset="0" stop-color="#eefeff"/>
      <stop offset="1" stop-color="#525263"/>
    </linearGradient>
    <linearGradient id="linear-gradient-2" x1="0.001" y1="0.045" x2="1.261" y2="1.194" xlink:href="#linear-gradient"/>
    <linearGradient id="linear-gradient-3" x1="1.049" y1="-0.631" x2="0.369" y2="0.822" xlink:href="#linear-gradient"/>
    <linearGradient id="linear-gradient-4" x1="0.006" y1="-0.262" x2="0.825" y2="1.2" xlink:href="#linear-gradient"/>
    <linearGradient id="linear-gradient-5" x1="0.102" y1="0.024" x2="1.001" y2="1.099" xlink:href="#linear-gradient"/>
    <linearGradient id="linear-gradient-6" x1="0.5" y1="-0.2" x2="0.5" y2="0.798" xlink:href="#linear-gradient"/>
    <linearGradient id="linear-gradient-8" y1="0.5" x2="1" y2="0.5" gradientUnits="objectBoundingBox">
      <stop offset="0" stop-color="#525563"/>
      <stop offset="1" stop-color="#072380"/>
    </linearGradient>
    <linearGradient id="linear-gradient-9" x1="0.5" y1="0.112" x2="0.5" y2="0.905" xlink:href="#linear-gradient-8"/>
    <radialGradient id="radial-gradient" cx="-0.495" cy="1.288" r="1.805" gradientTransform="translate(-0.697) scale(2.394 1)" gradientUnits="objectBoundingBox">
      <stop offset="0" stop-color="#525363"/>
      <stop offset="0.526" stop-color="#072380"/>
      <stop offset="1" stop-color="#072380"/>
    </radialGradient>
    <linearGradient id="linear-gradient-12" x1="0.5" y1="-0.013" x2="0.5" y2="1.112" xlink:href="#linear-gradient"/>
    <radialGradient id="radial-gradient-2" cx="0.5" cy="0.5" r="0.5" gradientTransform="translate(0.5 -0.207) rotate(45)" gradientUnits="objectBoundingBox">
      <stop offset="0" stop-color="#525263"/>
      <stop offset="0.26" stop-color="#353540" stop-opacity="0.655"/>
      <stop offset="0.575" stop-color="#18181d" stop-opacity="0.298"/>
      <stop offset="0.833" stop-color="#060607" stop-opacity="0.078"/>
      <stop offset="1" stop-opacity="0"/>
    </radialGradient>
    <radialGradient id="radial-gradient-3" cx="0.5" cy="0.5" r="0.5" gradientTransform="matrix(0.707, 0.707, -0.707, 0.707, 0.5, -0.207)" gradientUnits="objectBoundingBox">
      <stop offset="0" stop-color="#fff"/>
      <stop offset="0.022" stop-color="#eee" stop-opacity="0.933"/>
      <stop offset="0.094" stop-color="#bcbcbc" stop-opacity="0.741"/>
      <stop offset="0.171" stop-color="#8f8f8f" stop-opacity="0.565"/>
      <stop offset="0.251" stop-color="#696969" stop-opacity="0.412"/>
      <stop offset="0.337" stop-color="#484848" stop-opacity="0.282"/>
      <stop offset="0.429" stop-color="#2d2d2d" stop-opacity="0.18"/>
      <stop offset="0.529" stop-color="#191919" stop-opacity="0.098"/>
      <stop offset="0.642" stop-color="#0b0b0b" stop-opacity="0.043"/>
      <stop offset="0.778" stop-color="#020202" stop-opacity="0.012"/>
      <stop offset="1" stop-opacity="0"/>
    </radialGradient>
    <radialGradient id="radial-gradient-4" cx="0.5" cy="0.5" r="0.5" gradientUnits="objectBoundingBox">
      <stop offset="0" stop-color="#fff"/>
      <stop offset="0.038" stop-color="#e9e9e9" stop-opacity="0.918"/>
      <stop offset="0.146" stop-color="#b3b3b3" stop-opacity="0.706"/>
      <stop offset="0.258" stop-color="#838383" stop-opacity="0.518"/>
      <stop offset="0.372" stop-color="#5b5b5b" stop-opacity="0.357"/>
      <stop offset="0.488" stop-color="#3a3a3a" stop-opacity="0.227"/>
      <stop offset="0.606" stop-color="#202020" stop-opacity="0.129"/>
      <stop offset="0.728" stop-color="#0e0e0e" stop-opacity="0.055"/>
      <stop offset="0.856" stop-color="#030303" stop-opacity="0.016"/>
      <stop offset="1" stop-opacity="0"/>
    </radialGradient>
  </defs>
  <g id="Grupo_138917" data-name="Grupo 138917" transform="translate(13458.333 12242.622)">
    <g id="Grupo_138516" data-name="Grupo 138516" transform="translate(-13431.753 -12181.683)">
      <g id="Grupo_138515" data-name="Grupo 138515" transform="translate(0 0)">
        <path id="Trazado_195558" data-name="Trazado 195558" d="M451.484,177.225l12.6-7.322a13.4,13.4,0,0,1-1.284.647c-.137.06-.278.113-.418.169-.275.111-.557.212-.841.305-.407.134-.825.244-1.25.341-.186.043-.365.1-.555.132-.238.044-.486.072-.731.105-.3.042-.6.086-.914.11-.178.014-.359.018-.539.026-.365.016-.734.024-1.11.016-.162,0-.323-.007-.486-.016-.495-.024-.994-.062-1.5-.128-.03,0-.059,0-.089-.01-.546-.073-1.1-.178-1.665-.3-.117-.025-.235-.05-.352-.078-.581-.137-1.168-.291-1.766-.479h0l-12.6,7.322.3.093q.57.172,1.13.311c.114.029.225.049.338.075s.232.053.349.078c.157.034.315.074.471.1q.593.115,1.173.193l.023,0c.031,0,.06.006.091.01.379.049.756.09,1.126.116.127.008.25.006.376.012.163.008.325.013.486.016s.3.016.453.016c.223,0,.438-.022.659-.031.178-.008.359-.012.537-.025.072-.006.147,0,.218-.011.238-.022.465-.068.7-.1s.492-.061.731-.105c.053-.01.108-.013.159-.023.137-.028.261-.078.4-.109.425-.1.843-.207,1.249-.341.089-.029.184-.043.272-.074.2-.068.381-.155.573-.231.138-.056.278-.108.414-.169A13.289,13.289,0,0,0,451.484,177.225Z" transform="translate(-437.979 -144.913)" fill="url(#linear-gradient)"/>
        <path id="Trazado_195559" data-name="Trazado 195559" d="M468.043,149.04l-12.6,7.322L494.15,161.5l12.6-7.322Z" transform="translate(-434.525 -149.04)" fill="url(#linear-gradient-2)"/>
        <path id="Trazado_195560" data-name="Trazado 195560" d="M554.789,235.23c.2-1.011.392-2.042.577-3.084.031-.181.068-.353.1-.535l.007-.044q.309-1.788.587-3.635l-12.6,7.322q-.277,1.849-.587,3.635c-.035.2-.073.388-.109.586-.183,1.041-.374,2.07-.575,3.078-.084.424-.175.834-.262,1.252-.159.768-.32,1.533-.489,2.283-.095.42-.2.831-.292,1.246-.188.8-.378,1.587-.576,2.363q-.167.656-.34,1.3c-.2.743-.4,1.473-.606,2.2-.113.4-.225.792-.34,1.181-.339,1.144-.686,2.269-1.047,3.363-.017.054-.033.109-.05.162-.381,1.147-.775,2.26-1.177,3.356q-.309.841-.625,1.661c-.083.212-.162.429-.245.638q-.473,1.2-.962,2.358c-.069.164-.141.322-.212.485q-.392.913-.794,1.8c-.115.253-.231.5-.346.749-.21.452-.423.9-.636,1.337-.206.425-.413.843-.623,1.259q-.278.555-.563,1.1-.316.609-.641,1.2c-.192.355-.383.708-.578,1.055-.218.389-.438.773-.66,1.153-.2.339-.393.677-.593,1.007-.224.375-.452.74-.678,1.106-.2.323-.4.647-.6.963-.224.347-.449.686-.674,1.025-.207.311-.414.625-.624.931-.229.333-.459.656-.69.981-.21.3-.42.6-.632.885-.234.319-.468.629-.7.94-.213.281-.426.565-.641.84-.237.3-.475.6-.714.895-.217.268-.432.539-.65.8-.241.29-.484.573-.727.855-.217.253-.434.508-.652.755-.246.278-.493.547-.74.818-.219.24-.437.482-.655.715-.249.264-.5.519-.749.776-.219.225-.437.454-.656.674-.253.253-.505.5-.759.741-.219.212-.438.429-.658.635-.255.241-.51.471-.765.7-.218.2-.436.4-.655.6-.259.23-.519.45-.779.672-.216.186-.431.376-.647.557-.261.217-.521.424-.781.635-.217.175-.432.353-.648.523-.262.206-.525.4-.787.6-.212.162-.425.329-.638.487-.27.2-.539.389-.807.582-.2.146-.41.3-.615.44-.285.2-.57.389-.854.58-.187.126-.374.256-.561.379-.328.217-.656.422-.982.628-.141.089-.283.182-.423.268q-.7.435-1.4.838l12.6-7.322q.7-.4,1.4-.838c.14-.086.281-.18.423-.268.327-.206.654-.411.982-.628.187-.122.374-.253.56-.379.285-.192.569-.38.855-.58.2-.143.408-.293.613-.44.269-.193.538-.383.807-.583.213-.157.426-.325.64-.486.262-.2.523-.4.786-.6.216-.17.432-.349.648-.523.26-.211.52-.418.781-.636.217-.181.435-.373.652-.559.258-.22.515-.44.773-.667.22-.2.441-.4.662-.6.253-.232.507-.46.759-.7.219-.207.438-.423.659-.635.253-.246.505-.489.758-.741.22-.22.44-.45.659-.677.249-.256.5-.51.745-.774.22-.235.441-.479.661-.721.246-.268.49-.534.734-.811.22-.248.438-.505.656-.761.242-.281.483-.561.722-.849.219-.264.436-.535.654-.8.237-.295.475-.589.711-.891.216-.277.429-.561.642-.843.235-.309.469-.619.7-.937.213-.292.425-.592.637-.89.229-.322.459-.646.685-.976.211-.307.419-.622.628-.935.225-.338.449-.676.671-1.021.071-.11.144-.214.214-.326.132-.208.261-.429.393-.64.226-.365.453-.731.678-1.1.2-.332.4-.67.592-1.009.222-.38.442-.762.66-1.151.2-.349.388-.7.581-1.059q.322-.593.638-1.2.284-.546.564-1.1c.21-.414.416-.831.622-1.254.089-.186.182-.362.271-.549.123-.26.244-.529.367-.793.115-.247.23-.493.344-.744.269-.591.533-1.192.8-1.8.069-.164.142-.323.212-.49q.49-1.155.962-2.355c.084-.211.164-.429.247-.642.168-.434.337-.864.5-1.307.043-.114.081-.237.125-.352.4-1.1.8-2.209,1.176-3.356.017-.053.033-.109.051-.162.359-1.095.707-2.22,1.046-3.362.042-.144.09-.278.132-.423.072-.248.138-.509.21-.759q.309-1.085.606-2.2c.115-.429.228-.859.339-1.294.2-.779.389-1.57.577-2.369.068-.292.144-.573.211-.867.028-.122.053-.253.08-.375.169-.751.329-1.518.49-2.285C554.614,236.063,554.7,235.653,554.789,235.23Z" transform="translate(-424.529 -133.436)" fill="url(#linear-gradient-3)"/>
        <path id="Trazado_195561" data-name="Trazado 195561" d="M551.29,234.279c-.081-.077-.163-.151-.244-.229q-.994-.943-1.95-1.951c-.086-.091-.175-.182-.261-.274q-.941-1-1.845-2.059l-.258-.3q-.877-1.038-1.714-2.125c-.122-.158-.243-.319-.364-.478-.4-.529-.789-1.072-1.175-1.616-.246-.345-.494-.687-.732-1.038s-.448-.682-.672-1.024q-.742-1.128-1.44-2.289c-.258-.43-.515-.86-.764-1.3-.192-.337-.382-.676-.568-1.016-.426-.777-.846-1.557-1.24-2.348l-.006-.013q-.7-1.409-1.328-2.841l-.064-.147q-.589-1.351-1.112-2.718l-.108-.285q-.494-1.313-.923-2.633c-.037-.114-.073-.228-.11-.341q-.415-1.3-.763-2.61c-.032-.12-.063-.24-.095-.359q-.338-1.3-.606-2.6c-.023-.115-.047-.229-.069-.343q-.259-1.306-.443-2.6l-.043-.3q-.178-1.321-.274-2.621c-.006-.075-.013-.151-.018-.226-.063-.928-.1-1.849-.095-2.758,0-.531.018-1.052.043-1.566.007-.151.018-.3.028-.449q.034-.546.086-1.08c.017-.17.034-.34.053-.509.039-.346.087-.688.138-1.026.024-.158.044-.32.071-.476.081-.485.171-.962.276-1.429l-12.6,7.322q-.142.631-.254,1.282c-.008.048-.013.1-.022.147-.026.157-.047.317-.071.476-.036.236-.076.468-.105.708-.013.1-.02.213-.032.319-.02.169-.037.339-.053.51s-.036.31-.049.47c-.016.2-.025.407-.037.611-.01.149-.02.3-.028.446,0,.075-.011.147-.013.223-.018.418-.029.842-.03,1.271v.074c0,.408,0,.819.017,1.233q.02.658.061,1.322c0,.067.012.135.017.2s.012.151.018.226c.022.3.043.6.072.9q.063.674.15,1.35c.016.123.036.247.053.37l.043.3c.032.232.062.464.1.7q.11.7.242,1.4c.031.166.068.333.1.5.023.114.046.228.069.343.04.194.076.387.117.581q.16.728.34,1.457c.047.187.1.375.147.562.031.121.063.241.1.362.047.178.091.358.14.538.135.487.279.976.428,1.464.062.2.131.4.2.607.036.114.072.228.109.341.053.16.1.321.154.48q.237.706.491,1.411c.09.247.186.493.279.74.036.1.071.192.108.287s.081.22.125.331q.26.67.539,1.339c.144.349.295.7.447,1.044.023.05.043.1.066.152s.034.08.051.121q.3.683.62,1.362t.653,1.351l.01.019,0,.008q.422.848.87,1.686c.117.219.246.434.364.652q.28.51.569,1.016c.137.241.266.486.406.726.114.194.243.377.358.57q.7,1.162,1.441,2.293c.14.214.266.437.408.649.084.126.175.246.26.37.241.352.489.7.735,1.043.229.322.448.65.682.967.162.219.328.43.492.646.121.159.241.319.363.477s.225.3.341.448q.534.677,1.082,1.337c.1.115.2.226.292.341l.258.3c.166.194.331.392.5.583q.534.609,1.082,1.2c.086.093.175.183.261.275l.265.277c.2.207.392.416.591.618q.58.593,1.176,1.163c.06.057.121.111.181.169.081.078.165.153.248.23.259.243.516.489.779.725q.611.55,1.234,1.076l.1.084,12.6-7.322C552.688,235.563,551.984,234.93,551.29,234.279Z" transform="translate(-421.873 -141.669)" fill="url(#linear-gradient-4)"/>
        <path id="Trazado_195562" data-name="Trazado 195562" d="M487.759,160.655l12.6-7.322,38.6,39.492-12.6,7.322Z" transform="translate(-428.133 -148.191)" fill="url(#linear-gradient-5)"/>
      </g>
      <path id="Trazado_195563" data-name="Trazado 195563" d="M497.6,160.3l38.6,39.491a30.274,30.274,0,0,0-.694,6.535c-.043,14.971,9.059,32.97,21.4,43.326-9.731,65-50.626,72.23-59.766,73.035a270.937,270.937,0,0,1-25.582-39.056c-12.488-22.922-28.22-59.028-33.582-102.643,12.356,3.9,21.531-3.545,21.573-18.518a42.328,42.328,0,0,0-.654-7.312Z" transform="translate(-437.979 -147.831)" fill="url(#linear-gradient-6)"/>
      <path id="Trazado_195564" data-name="Trazado 195564" d="M496.435,315.526a271.02,271.02,0,0,1-22.151-34.439c-11.32-20.773-26-53.959-31.765-94.232,12.512,1.756,20.925-7.291,20.97-22.612,0-1.158-.046-2.363-.139-3.577l33.52,4.45,33.435,34.206c-.1,1.1-.156,2.247-.158,3.405-.044,15.321,8.291,34.038,20.772,46.711-9.785,54.967-43.863,64.464-54.484,66.087m.437-151.448-34.424-4.572.029.392c.115,1.312.17,2.606.167,3.858-.042,15.056-8.382,23.882-20.743,21.973l-.334-.048.057.435c5.757,40.712,20.6,74.282,32.037,95.277a271.424,271.424,0,0,0,22.551,34.984l.222.291.23-.03c10.449-1.525,45.322-10.871,55.153-66.9l.067-.362-.333-.337c-12.34-12.354-20.6-30.764-20.559-45.82a36.482,36.482,0,0,1,.188-3.653l.031-.358-34.182-34.969-.156-.158" transform="translate(-437.27 -146.97)" fill="url(#linear-gradient)"/>
    </g>
    <g id="Grupo_138518" data-name="Grupo 138518" transform="translate(-13414.446 -12147.503)">
      <path id="Trazado_195565" data-name="Trazado 195565" d="M520.787,235.349q0-.111-.011-.223c0-.074-.011-.149-.018-.224s-.016-.15-.025-.225-.02-.155-.032-.231v-.012c-.012-.073-.024-.147-.038-.22s-.031-.16-.048-.241-.037-.16-.056-.241-.042-.163-.065-.244c-.018-.063-.036-.127-.055-.19l0-.014-.011-.038c-.025-.079-.05-.158-.077-.238s-.054-.156-.081-.234-.055-.151-.085-.226-.059-.149-.09-.223c-.024-.057-.048-.114-.073-.17l0-.013-.016-.036c-.034-.074-.067-.149-.1-.223s-.077-.162-.117-.243-.093-.184-.143-.275-.108-.2-.164-.292l-.029-.051c-.011-.019-.022-.041-.034-.061q-.164-.277-.341-.544c-.095-.14-.192-.279-.291-.414h0c-.066-.091-.134-.181-.2-.268s-.117-.147-.177-.22-.119-.139-.178-.207-.119-.133-.178-.2l-.036-.037-.014-.014c-.046-.049-.091-.1-.138-.145-.065-.066-.129-.129-.194-.193s-.134-.126-.2-.188-.137-.12-.2-.178l-.1-.085-.023-.018c-.026-.022-.051-.043-.078-.063-.067-.054-.134-.1-.2-.155s-.133-.1-.2-.143-.131-.087-.2-.129-.129-.08-.2-.119l-.046-.026-46.684-26.954q-.074-.043-.147-.083c-.063-.034-.127-.067-.189-.1s-.126-.06-.188-.087-.123-.055-.184-.079-.126-.048-.187-.071l-.036-.011-.012,0c-.046-.014-.092-.031-.138-.044-.063-.019-.127-.037-.19-.053s-.127-.03-.189-.042-.135-.024-.2-.034c-.046-.006-.09-.01-.135-.013l-.02,0-.05,0c-.073-.006-.145-.007-.216-.007s-.162,0-.24.011-.178.022-.266.038h0l-.008,0a2.591,2.591,0,0,0-.308.085,2.243,2.243,0,0,0-.372.172l-12.6,7.322a2.273,2.273,0,0,1,.68-.258h.007a2.681,2.681,0,0,1,.777-.04l.02,0a3.772,3.772,0,0,1,.853.186l.014,0a5.4,5.4,0,0,1,.931.429L503.6,234.934a7.1,7.1,0,0,1,.916.635l.023.019a8.925,8.925,0,0,1,.843.787l.014.016a10.771,10.771,0,0,1,1.441,1.952l.029.049a11.474,11.474,0,0,1,.54,1.07l.006.016a10.156,10.156,0,0,1,.417,1.127l0,.017a8.771,8.771,0,0,1,.262,1.137v0a7.029,7.029,0,0,1,.09,1.118l-.1,36.39a5.21,5.21,0,0,1-.095.992l0,.028a3.668,3.668,0,0,1-.261.812l0,.013a2.725,2.725,0,0,1-.346.535c-.043.053-.083.109-.128.158a2.249,2.249,0,0,1-.5.413h0l12.6-7.322a2.267,2.267,0,0,0,.5-.414c.045-.049.086-.105.128-.158a2.571,2.571,0,0,0,.167-.206,2.932,2.932,0,0,0,.174-.315l.006-.014.006-.013c.035-.075.068-.153.1-.234s.056-.159.08-.243.043-.155.061-.235c.007-.032.013-.067.02-.1l.006-.028c.006-.032.013-.063.019-.1.012-.072.024-.145.032-.22s.017-.146.024-.222.01-.144.013-.217,0-.147,0-.223v-.013l.1-36.39C520.789,235.488,520.789,235.419,520.787,235.349Z" transform="translate(-452.189 -173.135)" fill="url(#linear-gradient-8)"/>
      <path id="Trazado_195566" data-name="Trazado 195566" d="M503.841,233.725a10.11,10.11,0,0,1,4.588,7.945l-.1,36.39c-.008,2.921-2.076,4.1-4.617,2.632l-46.685-26.953a10.114,10.114,0,0,1-4.595-7.951l.1-36.39c.008-2.92,2.076-4.1,4.626-2.627Z" transform="translate(-452.428 -171.926)" fill="url(#linear-gradient-9)"/>
      <path id="Trazado_195567" data-name="Trazado 195567" d="M476.093,225.45a13.6,13.6,0,0,1,6.169,10.675c-.007,2.18-.879,3.6-2.224,4.134l-.032,11.148c-.007,2.52-1.791,3.537-3.992,2.266a8.725,8.725,0,0,1-3.96-6.859l.031-11.148a12.838,12.838,0,0,1-2.193-6.682C469.9,225.065,472.683,223.482,476.093,225.45Z" transform="translate(-448.974 -168.273)" fill="url(#radial-gradient)"/>
      <g id="Grupo_138517" data-name="Grupo 138517" transform="translate(11.444)">
        <path id="Trazado_195568" data-name="Trazado 195568" d="M473.741,191.461c.011-.052.02-.1.031-.156q.118-.564.281-1.084c.02-.065.042-.128.063-.193a9.563,9.563,0,0,1,.368-.939c.013-.03.024-.062.038-.092a8.307,8.307,0,0,1,.526-.951c.028-.042.059-.079.087-.121a7,7,0,0,1,.5-.661c.066-.077.134-.15.2-.222a6.312,6.312,0,0,1,.491-.474c.071-.062.139-.126.212-.183a6.272,6.272,0,0,1,.756-.527l-5.419,3.15a6.146,6.146,0,0,0-.757.526c-.072.059-.141.122-.212.183a6.755,6.755,0,0,0-.49.474c-.068.073-.137.145-.2.222a7.165,7.165,0,0,0-.5.661c-.028.042-.06.079-.086.121l-.02.029a8,8,0,0,0-.494.895l-.012.028c-.014.03-.026.063-.04.095-.092.2-.182.4-.262.619-.038.1-.069.213-.105.319-.02.063-.043.127-.063.192s-.041.116-.059.177c-.063.216-.121.438-.174.666-.018.079-.031.162-.048.241-.011.053-.022.1-.031.156-.016.081-.035.159-.049.242-.035.2-.066.411-.092.623-.016.115-.025.235-.037.352,0,.042-.01.083-.013.125s-.011.1-.016.151c-.016.2-.029.4-.037.613s-.014.416-.016.629v.038l-.043,15.384a4.009,4.009,0,0,1-.072.756l0,.022a2.8,2.8,0,0,1-.2.619l0,.011a2.172,2.172,0,0,1-.263.408c-.032.04-.064.083-.1.12a1.715,1.715,0,0,1-.383.316l5.419-3.149a1.723,1.723,0,0,0,.384-.316c.035-.037.065-.08.1-.121a1.81,1.81,0,0,0,.127-.157,2.088,2.088,0,0,0,.132-.24l.006-.012,0-.01c.026-.057.052-.116.075-.178s.042-.121.061-.184.032-.119.047-.18c.006-.025.011-.052.016-.078l0-.02c0-.025.011-.049.016-.074.01-.054.018-.11.025-.168s.012-.111.017-.169.008-.11.011-.165,0-.113,0-.17v-.011l.044-15.384c0-.495.025-.971.068-1.43,0-.042.008-.083.012-.125Q473.627,192.046,473.741,191.461Z" transform="translate(-460.99 -175.937)" fill="url(#linear-gradient-8)"/>
        <path id="Trazado_195569" data-name="Trazado 195569" d="M506.649,214.116q-.014-.482-.046-.969c-.01-.149-.024-.3-.036-.449,0-.063-.01-.127-.016-.19-.008-.111-.016-.223-.026-.334q-.047-.489-.109-.981t-.144-1.007l-.006-.038-.008-.046c-.049-.31-.1-.619-.16-.931-.065-.347-.137-.7-.212-1.047-.029-.127-.061-.255-.09-.383-.017-.074-.034-.147-.052-.22-.035-.15-.067-.3-.1-.448-.087-.355-.181-.71-.28-1.065-.073-.265-.152-.531-.232-.8-.013-.047-.026-.093-.041-.14s-.024-.084-.037-.127c-.105-.346-.217-.694-.333-1.04s-.234-.684-.358-1.027c-.023-.066-.049-.132-.074-.2s-.04-.107-.06-.161c-.078-.208-.155-.417-.235-.625q-.191-.49-.393-.977c-.1-.24-.2-.477-.307-.715l-.05-.117-.056-.129q-.216-.489-.443-.974c-.166-.356-.339-.71-.514-1.062-.028-.055-.057-.109-.085-.164s-.072-.138-.107-.207c-.143-.28-.285-.559-.432-.836-.187-.35-.387-.692-.582-1.037-.1-.174-.193-.35-.293-.523-.04-.068-.076-.139-.116-.207-.175-.3-.37-.585-.551-.879-.268-.434-.532-.87-.813-1.295-.044-.067-.084-.138-.128-.2q-.6-.9-1.242-1.769c-.012-.016-.022-.031-.032-.047l0-.006q-.44-.6-.9-1.176-.361-.458-.732-.9l-.026-.032-.017-.02q-.383-.46-.775-.908t-.782-.866l-.123-.129c-.044-.048-.09-.093-.134-.14-.187-.2-.374-.4-.564-.592q-.42-.428-.847-.838c-.085-.081-.172-.158-.258-.238l-.2-.186c-.143-.132-.284-.267-.426-.4q-.442-.4-.892-.779c-.128-.108-.259-.211-.388-.316l-.2-.165c-.1-.081-.2-.167-.3-.247q-.435-.345-.879-.671c-.211-.156-.424-.3-.636-.453l-.121-.086-.114-.08q-.422-.291-.85-.562t-.847-.519c-.065-.04-.131-.078-.2-.115q-.32-.185-.636-.356c-.081-.044-.163-.084-.243-.127-.109-.056-.217-.113-.326-.168-.083-.043-.168-.089-.252-.131-.137-.067-.271-.128-.406-.192l-.29-.137c-.038-.017-.077-.037-.115-.054q-.4-.18-.8-.34h0l-.041-.014q-.385-.155-.765-.289c-.036-.013-.072-.023-.109-.036-.1-.034-.2-.063-.293-.1-.133-.043-.268-.091-.4-.131-.071-.022-.138-.037-.207-.058-.12-.035-.238-.067-.357-.1-.089-.024-.178-.051-.266-.073s-.192-.042-.289-.065c-.119-.028-.236-.054-.353-.078-.06-.013-.121-.029-.181-.041-.113-.022-.224-.036-.335-.055-.135-.024-.271-.048-.4-.067-.047-.007-.093-.017-.139-.023-.115-.016-.226-.023-.339-.035-.145-.016-.29-.032-.434-.044-.04,0-.081-.01-.122-.012-.1-.007-.193,0-.291-.01-.173-.008-.345-.016-.515-.017-.046,0-.093,0-.139,0-.074,0-.145.008-.219.01-.214,0-.425.014-.635.031-.062,0-.127,0-.189.008-.047,0-.091.016-.139.02-.316.032-.628.077-.933.135-.029.006-.059.007-.087.013l-.017,0a10.237,10.237,0,0,0-1.277.352c-.037.012-.077.018-.114.031s-.059.025-.089.036c-.181.066-.358.141-.534.218-.085.036-.171.069-.255.108-.258.121-.509.25-.753.393l-5.419,3.149c.244-.143.5-.272.752-.392.084-.04.171-.072.256-.109.176-.077.352-.151.533-.218.067-.024.137-.044.2-.067a10.176,10.176,0,0,1,1.277-.351c.034-.007.069-.011.1-.018.305-.059.617-.1.934-.135.108-.011.218-.02.327-.029.21-.016.422-.025.635-.03.12,0,.238-.007.359-.006.169,0,.34.008.513.017.139.006.277.011.417.023s.286.028.43.043c.159.018.319.035.479.057.134.02.27.044.406.067.171.03.343.06.515.1.117.024.236.051.354.079.183.042.369.087.553.137.119.031.237.063.357.1.2.059.4.122.608.189.1.031.2.061.293.1q.437.149.878.325l.036.013c.3.122.612.256.921.4.095.043.19.09.286.135q.331.154.662.323c.108.054.214.11.323.168.292.153.585.311.88.482.677.392,1.346.819,2.006,1.277.041.028.081.057.121.085.616.43,1.222.889,1.819,1.37l.2.165q.868.711,1.708,1.492l.2.184q.852.8,1.671,1.67c.043.047.087.092.132.139q.87.931,1.7,1.924l.026.032q.839,1.015,1.631,2.087l.038.055c.471.641.925,1.3,1.365,1.967.281.425.545.861.813,1.3.223.361.453.717.666,1.084.1.174.2.351.3.526.349.618.691,1.241,1.012,1.872.036.068.073.138.108.206.387.77.755,1.548,1.1,2.331l.05.116q.5,1.153.935,2.32c.02.053.039.1.059.157q.44,1.193.8,2.394c.014.046.026.091.041.135q.345,1.155.617,2.311c.017.074.034.147.052.22.181.791.337,1.579.462,2.361l.008.047c.126.792.219,1.58.285,2.36.006.063.011.127.016.19.061.782.1,1.557.093,2.321l-.044,15.384a4,4,0,0,1-.071.756l0,.022a2.811,2.811,0,0,1-.2.62l0,.01a2.081,2.081,0,0,1-.265.408c-.032.041-.062.083-.1.12a1.717,1.717,0,0,1-.383.317l5.419-3.15a1.718,1.718,0,0,0,.383-.316c.036-.037.066-.079.1-.12a1.987,1.987,0,0,0,.126-.157,2.31,2.31,0,0,0,.133-.241l0-.011,0-.011c.026-.057.052-.116.074-.178s.043-.121.061-.184.034-.117.047-.18c.006-.025.011-.052.016-.077l0-.022c0-.025.011-.048.014-.073.01-.055.018-.111.025-.168s.013-.113.018-.17.007-.109.01-.165,0-.113,0-.17v-.01l.043-15.384C506.662,214.72,506.657,214.418,506.649,214.116Z" transform="translate(-461.006 -177.575)" fill="url(#linear-gradient-8)"/>
        <path id="Trazado_195570" data-name="Trazado 195570" d="M482.188,182.953c11.08,6.4,20.067,21.955,20.031,34.7l-.044,15.384c-.006,2.229-1.582,3.127-3.523,2.007a7.715,7.715,0,0,1-3.506-6.066l.044-15.384c.023-8.282-5.819-18.4-13.026-22.56s-13.086-.81-13.11,7.472l-.043,15.384c-.007,2.229-1.582,3.127-3.523,2.006a7.708,7.708,0,0,1-3.506-6.066l.043-15.383C462.061,181.7,471.107,176.557,482.188,182.953Z" transform="translate(-461.982 -177.055)" fill="url(#linear-gradient-12)"/>
      </g>
    </g>
    <g id="Grupo_138524" data-name="Grupo 138524" transform="translate(-13458.333 -12242.622)">
      <circle id="Elipse_5687" data-name="Elipse 5687" cx="80.676" cy="80.676" r="80.676" transform="translate(10.019 114.094) rotate(-45)" fill="url(#radial-gradient-2)" style="mix-blend-mode: screen;isolation: isolate"/>
      <circle id="Elipse_5688" data-name="Elipse 5688" cx="15.367" cy="15.367" r="15.367" transform="translate(30.525 70.357) rotate(-45)" fill="url(#radial-gradient-3)" style="mix-blend-mode: screen;isolation: isolate"/>
      <circle id="Elipse_5689" data-name="Elipse 5689" cx="18.886" cy="18.886" r="18.886" transform="translate(0 171.06)" fill="url(#radial-gradient-4)" style="mix-blend-mode: screen;isolation: isolate"/>
    </g>
  </g>
</svg>
