<svg id="Grupo_138529" data-name="Grupo 138529" xmlns="http://www.w3.org/2000/svg" xmlns:xlink="http://www.w3.org/1999/xlink" width="101.98" height="66.467" viewBox="0 0 101.98 66.467">
  <defs>
    <linearGradient id="linear-gradient" x1="0.5" y1="-0.083" x2="0.5" y2="3.349" gradientUnits="objectBoundingBox">
      <stop offset="0" stop-color="#faf9ff"/>
      <stop offset="1" stop-color="#072380"/>
    </linearGradient>
    <linearGradient id="linear-gradient-2" x1="0.5" y1="-0.084" x2="0.5" y2="3.354" xlink:href="#linear-gradient"/>
    <linearGradient id="linear-gradient-3" x1="0.5" y1="0.216" x2="0.5" y2="1.899" xlink:href="#linear-gradient"/>
    <linearGradient id="linear-gradient-4" x1="0.5" y1="-0.337" x2="0.5" y2="1.161" xlink:href="#linear-gradient"/>
    <linearGradient id="linear-gradient-5" x1="0.06" y1="-0.353" x2="0.977" y2="1.423" xlink:href="#linear-gradient"/>
    <linearGradient id="linear-gradient-6" x1="0.5" y1="-0.083" x2="0.5" y2="3.349" xlink:href="#linear-gradient"/>
    <linearGradient id="linear-gradient-7" x1="0.5" y1="-0.084" x2="0.5" y2="3.354" xlink:href="#linear-gradient"/>
    <linearGradient id="linear-gradient-9" x1="0.5" y1="-0.337" x2="0.5" y2="1.161" xlink:href="#linear-gradient"/>
  </defs>
  <g id="Grupo_138526" data-name="Grupo 138526">
    <g id="Grupo_138525" data-name="Grupo 138525" transform="translate(0 1.065)">
      <path id="Trazado_195582" data-name="Trazado 195582" d="M359.309,339.336l4.567,2.638a.917.917,0,0,1,.537.751l.022-7.869a.913.913,0,0,0-.535-.751l-4.568-2.638a.915.915,0,0,1-.539-.757l-.023,7.869A.915.915,0,0,0,359.309,339.336Z" transform="translate(-352.894 -324.438)" fill="url(#linear-gradient)"/>
      <path id="Trazado_195583" data-name="Trazado 195583" d="M395.2,342.31a1.214,1.214,0,0,1,.386-.338l4.538-2.638.023-.013a1.467,1.467,0,0,0,.23-.17,1.2,1.2,0,0,0,.114-.122c.008-.012.016-.025.024-.037l.011-.014c.013-.02.028-.038.038-.059a.7.7,0,0,0,.079-.208.632.632,0,0,0,.012-.107v-.016l.023-7.869a.689.689,0,0,1-.131.388l-.01.016a1.222,1.222,0,0,1-.391.343l-4.538,2.638-.023.013a1.44,1.44,0,0,0-.228.169.974.974,0,0,0-.113.122c-.01.011-.014.022-.023.032l-.01.014a.707.707,0,0,0-.042.062.744.744,0,0,0-.049.1.626.626,0,0,0-.029.1.618.618,0,0,0-.012.1v.016l-.022,7.871a.691.691,0,0,1,.132-.39Z" transform="translate(-345.715 -324.437)" fill="url(#linear-gradient-2)"/>
      <path id="Trazado_195584" data-name="Trazado 195584" d="M368.171,348.628a5.084,5.084,0,0,1,.28-.757c.041-.089.078-.178.125-.266a6.269,6.269,0,0,1,.553-.871c.022-.028.036-.057.057-.085a8,8,0,0,1,.891-.951c.046-.041.1-.08.146-.121a10.109,10.109,0,0,1,.92-.71c.1-.071.208-.141.316-.211.24-.155.509-.3.774-.443s.525-.286.81-.42c.265-.125.552-.24.838-.355.308-.125.618-.248.95-.361.522-.178,1.055-.352,1.639-.5a19.261,19.261,0,0,1,2.19-.4c.145-.019.286-.043.431-.06a21.641,21.641,0,0,1,2.235-.132c.1,0,.207,0,.31,0a21.45,21.45,0,0,1,2.259.135c.089.01.177.018.266.03a19.446,19.446,0,0,1,2.356.437c.3.077.583.164.87.248.576.171,1.133.352,1.645.553.17.067.323.141.486.211.2.086.411.17.6.261q.517.246.981.515c2.672,1.543,4.007,3.567,4,5.59l.022-7.871c.006-2.022-1.328-4.046-4-5.589q-.464-.268-.981-.515c-.147-.071-.31-.134-.464-.2-.206-.091-.4-.184-.622-.271h0c-.51-.2-1.066-.381-1.642-.552-.073-.022-.135-.049-.21-.071q-.323-.092-.661-.177-.408-.1-.829-.192-.6-.124-1.223-.212c-.1-.014-.2-.022-.3-.034s-.177-.02-.266-.03c-.213-.024-.425-.054-.64-.072q-.611-.05-1.228-.066c-.131,0-.26,0-.39,0-.105,0-.208,0-.314,0-.194,0-.387,0-.58,0q-.7.023-1.387.092c-.089.008-.175.028-.265.037-.147.017-.289.041-.435.06-.3.041-.607.073-.9.126q-.652.119-1.284.278c-.114.029-.217.063-.328.095l.016-5.607-.02-3.722-.023,7.869.008,1.464c-.328.09-.658.178-.967.278-.116.037-.211.084-.325.123-.333.113-.642.236-.951.361-.285.115-.57.23-.835.353-.286.134-.549.278-.811.422-.163.089-.351.169-.505.261-.1.059-.177.122-.269.182-.108.069-.212.139-.315.211a10.084,10.084,0,0,0-.919.709c-.048.041-.1.08-.149.122-.014.014-.034.026-.048.041a7.781,7.781,0,0,0-.832.895l-.01.016c-.022.028-.036.057-.058.085a6.3,6.3,0,0,0-.478.709c-.03.053-.048.108-.077.162-.046.087-.084.177-.125.266-.053.115-.119.229-.162.346-.052.135-.08.273-.119.411-.022.078-.049.156-.067.234-.01.041-.026.08-.035.121a4.657,4.657,0,0,0-.089.78c0,.04,0,.078,0,.117h0l-.022,7.871a4.608,4.608,0,0,1,.125-1.019C368.121,348.784,368.148,348.706,368.171,348.628Z" transform="translate(-351.072 -325.474)" fill="url(#linear-gradient-3)"/>
      <path id="Trazado_195585" data-name="Trazado 195585" d="M414.682,342.063l-.008.012a1.251,1.251,0,0,1-.378.327c-.019.011-.045.018-.066.03a2.306,2.306,0,0,1-.482.188c-.029.007-.059.016-.09.022a2.965,2.965,0,0,1-.67.079h-6.534c-.069,0-.138.007-.206.014s-.159.018-.236.032l-.013,0a.429.429,0,0,0-.043.011,2.519,2.519,0,0,0-.284.071c-.034.011-.059.028-.092.041a2.072,2.072,0,0,0-.2.09c-.042.022-.093.036-.133.059s-.073.055-.11.083-.047.032-.067.05-.034.023-.048.035a1.038,1.038,0,0,0-.111.12.844.844,0,0,0-.076.114l0,.01c-.047.085-.109.166-.158.252a10.46,10.46,0,0,1-.666.985c-.163.216-.323.432-.507.643l-.031.037a.957.957,0,0,0-.073.108.749.749,0,0,0-.036.077l-.006.014-.006.012a.68.68,0,0,0-.03.1.616.616,0,0,0-.011.1v.016l-.022,7.831a2.294,2.294,0,0,1-.332.128l-.087.022a3.1,3.1,0,0,1-.636.071H402.2a3.083,3.083,0,0,1-.668-.074l-.024-.006a2.221,2.221,0,0,1-.6-.229l-4.567-2.636a1.951,1.951,0,0,0-.261-.126q-.093-.036-.194-.065l-.016,0-.01,0c-.063-.018-.127-.035-.193-.048s-.12-.023-.181-.031l-.135-.016h-.018l-.025,0c-.059,0-.119-.007-.178-.01s-.125,0-.187,0-.1.006-.151.01l-.022,0h-.028c-.078.008-.156.019-.232.032-.1.018-.189.04-.28.066a30.6,30.6,0,0,1-3.24.777,2.648,2.648,0,0,0-.333.083c-.035.011-.059.029-.092.041a1.96,1.96,0,0,0-.2.087c-.042.022-.095.036-.133.06s-.074.055-.113.083c-.023.018-.047.034-.068.052s-.034.022-.048.035a1.177,1.177,0,0,0-.113.122.942.942,0,0,0-.074.11v0a.678.678,0,0,0-.046.1.521.521,0,0,0-.03.1.634.634,0,0,0-.013.107v.022l-.011,3.814a.7.7,0,0,1-.108.315l-.008.012a1.236,1.236,0,0,1-.379.327c-.019.011-.044.018-.063.029a2.237,2.237,0,0,1-.484.189l-.089.023a3.052,3.052,0,0,1-.67.078h-6.944a2.975,2.975,0,0,1-.7-.083l-.028-.006a2.274,2.274,0,0,1-.573-.223.929.929,0,0,1-.543-.753l-.022-3.722a.925.925,0,0,0-.538-.752,1.861,1.861,0,0,0-.26-.123,2.188,2.188,0,0,0-.217-.073c-.061-.018-.125-.034-.189-.047l-.067-.013a33.307,33.307,0,0,1-3.248-.776l-.017-.006q-.1-.027-.194-.047c-.059-.012-.119-.023-.178-.031s-.1-.013-.154-.018h-.022c-.06,0-.119-.007-.178-.01s-.125,0-.186,0-.116.007-.174.012h-.029c-.079.008-.158.019-.235.034s-.145.035-.217.054c-.029.007-.057.012-.085.02s-.028.006-.041.011a1.972,1.972,0,0,0-.4.175l-4.538,2.638a2.216,2.216,0,0,1-.562.216l-.086.022a3.029,3.029,0,0,1-.636.071h-.023a3.019,3.019,0,0,1-.67-.074l-.024-.006a2.241,2.241,0,0,1-.5-.19l.022-7.77a.725.725,0,0,0-.2-.48,10.437,10.437,0,0,1-1.351-1.879,1.16,1.16,0,0,0-.447-.424,1.957,1.957,0,0,0-.261-.126c-.069-.028-.144-.051-.22-.074-.03-.008-.062-.014-.092-.023l-.029-.006c-.024-.006-.047-.013-.072-.018-.06-.012-.12-.023-.182-.031s-.119-.016-.178-.02-.121-.008-.183-.01h-6.505a3.04,3.04,0,0,1-.7-.081l-.028-.007a2.272,2.272,0,0,1-.573-.223.929.929,0,0,1-.543-.753l-.023-4.022-.023,7.87.023,4.022a.932.932,0,0,0,.543.753,1.971,1.971,0,0,0,.267.127,2.089,2.089,0,0,0,.222.075l.084.02.028.007c.028.006.054.014.081.019.059.012.12.023.181.032s.117.014.177.019.121.008.182.01h4.225l-.02,7.218a.915.915,0,0,0,.539.757l4.937,2.851a2.209,2.209,0,0,0,.262.126c.072.028.146.053.222.074.037.011.075.019.113.028l.024.006.055.013q.09.02.183.032c.059.008.119.016.178.02s.122.008.182.01c.024,0,.047,0,.069,0h.023c.032,0,.065,0,.1,0,.069,0,.138-.007.206-.013s.157-.019.235-.034c.034-.006.065-.017.1-.024s.057-.014.086-.022c.054-.014.111-.024.163-.041a2.039,2.039,0,0,0,.4-.175l4.538-2.638a2.093,2.093,0,0,1,.441-.186l.084-.02a2.928,2.928,0,0,1,.467-.087h.013a3.013,3.013,0,0,1,.55,0h.01a2.812,2.812,0,0,1,.544.1l.229.066q1.162.331,2.378.585c.213.044.428.086.642.126a2.292,2.292,0,0,1,.734.258.924.924,0,0,1,.538.751l.02,3.722a.927.927,0,0,0,.543.753,2.13,2.13,0,0,0,.267.128c.071.028.145.053.222.074v-.012h0v.012l.084.02.026.007c.028.006.054.014.083.019.059.012.12.023.181.032s.117.014.177.019.12.008.182.01h7.134c.069,0,.138-.007.2-.014s.159-.019.236-.032c.042-.008.079-.02.12-.03l.089-.023c.046-.012.095-.02.138-.034a2.081,2.081,0,0,0,.346-.155c.02-.012.046-.018.065-.03l.014-.006a1.476,1.476,0,0,0,.234-.172,1.067,1.067,0,0,0,.113-.122l.017-.025.01-.013a.829.829,0,0,0,.048-.072.814.814,0,0,0,.049-.1.627.627,0,0,0,.042-.21v-.022l.011-3.84a.706.706,0,0,1,.057-.213v0a1,1,0,0,1,.235-.27c.022-.018.047-.034.069-.051a1.7,1.7,0,0,1,.244-.143,1.818,1.818,0,0,1,.2-.086,2.413,2.413,0,0,1,.425-.125,30.921,30.921,0,0,0,3.24-.776,2.794,2.794,0,0,1,.54-.1h.022a3.045,3.045,0,0,1,.543,0l.017,0a2.8,2.8,0,0,1,.52.1l.014,0a2.08,2.08,0,0,1,.455.19l4.568,2.638a2.126,2.126,0,0,0,.262.126c.071.028.145.053.222.074.037.011.074.019.111.028l.024.006.056.013c.06.013.121.024.182.032s.12.014.18.019.121.008.182.011h.092c.032,0,.065,0,.1,0,.068,0,.138-.007.2-.013s.158-.019.236-.034c.034-.006.065-.017.1-.024l.086-.022c.054-.014.11-.024.163-.041a2.072,2.072,0,0,0,.4-.175l4.9-2.851.022-.013a1.362,1.362,0,0,0,.23-.17.976.976,0,0,0,.114-.122c.01-.012.017-.025.025-.037l.01-.016a.59.59,0,0,0,.04-.057.762.762,0,0,0,.049-.105.627.627,0,0,0,.03-.1.647.647,0,0,0,.012-.107v-.016l.02-7.229h4.022l.11,0c.069,0,.137-.007.2-.013s.159-.019.236-.034c.042-.007.079-.02.12-.029l.09-.023c.044-.012.093-.02.136-.035a2.038,2.038,0,0,0,.346-.155c.019-.011.044-.017.065-.029l.014-.006a1.414,1.414,0,0,0,.232-.174.84.84,0,0,0,.114-.122l.018-.025.007-.012a.557.557,0,0,0,.049-.073.728.728,0,0,0,.049-.1.775.775,0,0,0,.03-.1.79.79,0,0,0,.012-.107v-.022l.023-7.869A.7.7,0,0,1,414.682,342.063ZM360.417,350.7a1.174,1.174,0,0,1-.121-.105h1.86a3.022,3.022,0,0,1,.7.08l.028.007a2.22,2.22,0,0,1,.575.222,1.156,1.156,0,0,1,.446.424,10.39,10.39,0,0,0,1.351,1.879.728.728,0,0,1,.177.373c-.023-.012-.054-.017-.075-.029Zm43.093,2.85a2,2,0,0,1-.22.085.642.642,0,0,1,.038-.192l.007-.014a.811.811,0,0,1,.139-.222c.139-.16.273-.322.4-.484.041-.053.068-.107.107-.158a10.227,10.227,0,0,0,.665-.985c.031-.053.075-.1.105-.156.019-.032.036-.065.054-.1a1,1,0,0,1,.24-.278c.02-.018.044-.034.067-.05a1.769,1.769,0,0,1,.244-.141,1.951,1.951,0,0,1,.2-.09,2.421,2.421,0,0,1,.376-.111c.014,0,.028-.008.042-.011a3.087,3.087,0,0,1,.567-.051h1.993a1.168,1.168,0,0,1-.121.105Z" transform="translate(-353.864 -323.069)" fill="url(#linear-gradient-4)"/>
    </g>
    <path id="Trazado_195586" data-name="Trazado 195586" d="M408.4,351.772a.8.8,0,0,1,.008,1.5l-4.9,2.85a2.865,2.865,0,0,1-2.6,0l-4.567-2.636a2.885,2.885,0,0,0-2.11-.2,30.585,30.585,0,0,1-3.24.777c-.757.138-1.262.545-1.26,1.009l.022,3.722c0,.588-.817,1.065-1.833,1.065h-6.944a2.653,2.653,0,0,1-1.3-.311.928.928,0,0,1-.541-.753l-.022-3.722a.925.925,0,0,0-.538-.752,2.3,2.3,0,0,0-.733-.256,33.29,33.29,0,0,1-3.248-.776,2.869,2.869,0,0,0-2.108.194l-4.538,2.638a2.872,2.872,0,0,1-2.6,0l-4.937-2.851a.8.8,0,0,1-.008-1.5l4.538-2.638c.55-.32.688-.814.328-1.222a10.432,10.432,0,0,1-1.351-1.879,1.152,1.152,0,0,0-.447-.424,2.649,2.649,0,0,0-1.3-.309H355.75a2.661,2.661,0,0,1-1.3-.311.927.927,0,0,1-.543-.753l-.023-4.022c0-.589.816-1.065,1.833-1.065h6.425a1.985,1.985,0,0,0,1.737-.733,10.151,10.151,0,0,1,1.331-1.879c.355-.407.211-.9-.343-1.222l-4.568-2.638a.8.8,0,0,1-.008-1.5l4.9-2.851a2.872,2.872,0,0,1,2.6,0l4.568,2.638a2.879,2.879,0,0,0,2.111.194,32.711,32.711,0,0,1,3.24-.776c.756-.138,1.263-.545,1.259-1.009l-.02-3.721c0-.589.816-1.065,1.833-1.065h6.944a2.648,2.648,0,0,1,1.3.311.93.93,0,0,1,.543.753l.02,3.72a.926.926,0,0,0,.538.752,2.326,2.326,0,0,0,.733.258,30.843,30.843,0,0,1,3.25.776,2.869,2.869,0,0,0,2.108-.194l4.538-2.638a2.872,2.872,0,0,1,2.6,0l4.937,2.851a.8.8,0,0,1,.008,1.5l-4.538,2.638c-.55.32-.687.815-.328,1.222a11.02,11.02,0,0,1,1.351,1.879,1.156,1.156,0,0,0,.446.424,2.665,2.665,0,0,0,1.3.309h6.425a2.651,2.651,0,0,1,1.3.311.932.932,0,0,1,.543.753l.022,4.022c0,.588-.816,1.065-1.831,1.065h-6.425a1.984,1.984,0,0,0-1.737.733,10.9,10.9,0,0,1-1.331,1.879c-.355.407-.211.9.343,1.222Zm-18.983-2.205c9.554-2.433,11.039-9.109,4.491-12.889a18.019,18.019,0,0,0-4.583-1.788,21.041,21.041,0,0,0-10.048-.006c-9.557,2.435-11.04,9.116-4.487,12.9a18.007,18.007,0,0,0,4.57,1.784,21.156,21.156,0,0,0,10.058,0" transform="translate(-353.86 -324.585)" fill="url(#linear-gradient-5)"/>
  </g>
  <g id="Grupo_138528" data-name="Grupo 138528" transform="translate(62.285 38.368)">
    <g id="Grupo_138527" data-name="Grupo 138527" transform="translate(0 0.694)">
      <path id="Trazado_195587" data-name="Trazado 195587" d="M409.41,366.224l2.974,1.716a.6.6,0,0,1,.349.49l.014-5.125a.592.592,0,0,0-.349-.489l-2.974-1.718a.6.6,0,0,1-.352-.493l-.014,5.125A.6.6,0,0,0,409.41,366.224Z" transform="translate(-405.232 -356.522)" fill="url(#linear-gradient-6)"/>
      <path id="Trazado_195588" data-name="Trazado 195588" d="M432.785,368.159a.788.788,0,0,1,.25-.22l2.956-1.716.014-.01a.938.938,0,0,0,.15-.11.758.758,0,0,0,.074-.08l.016-.024.007-.01c.008-.012.018-.025.025-.037s.023-.046.032-.068a.493.493,0,0,0,.019-.068.335.335,0,0,0,.007-.069v-.01l.016-5.125a.463.463,0,0,1-.085.254l-.007.01a.811.811,0,0,1-.254.223l-2.956,1.718-.014.008a.911.911,0,0,0-.147.11.656.656,0,0,0-.074.079l-.014.022-.006.01a.4.4,0,0,0-.028.039.6.6,0,0,0-.032.068.7.7,0,0,0-.019.067.44.44,0,0,0-.007.068v.011l-.014,5.124a.446.446,0,0,1,.086-.254Z" transform="translate(-400.558 -356.521)" fill="url(#linear-gradient-7)"/>
      <path id="Trazado_195589" data-name="Trazado 195589" d="M415.181,372.274a3.257,3.257,0,0,1,.182-.492c.026-.059.051-.116.081-.174a3.937,3.937,0,0,1,.361-.567c.014-.019.023-.037.037-.056a5.155,5.155,0,0,1,.581-.618c.029-.028.065-.053.095-.079a6.809,6.809,0,0,1,.6-.464c.067-.046.135-.092.206-.138.156-.1.332-.193.5-.287s.341-.187.527-.274.359-.156.546-.231.4-.16.618-.235c.34-.115.688-.229,1.067-.325a12.464,12.464,0,0,1,1.427-.264c.093-.013.186-.029.28-.039a14,14,0,0,1,1.455-.085h.2a13.969,13.969,0,0,1,1.471.089l.172.019a12.445,12.445,0,0,1,1.534.285c.2.049.381.105.567.16.375.111.738.23,1.071.361.111.043.211.092.317.138.131.056.267.11.392.17.224.107.437.219.638.335,1.74,1,2.609,2.323,2.605,3.64l.014-5.125c0-1.316-.865-2.635-2.605-3.64q-.3-.174-.638-.335c-.1-.046-.2-.086-.3-.131-.134-.059-.264-.12-.4-.176h0c-.333-.131-.7-.248-1.071-.359-.047-.014-.087-.032-.135-.046-.141-.041-.284-.079-.431-.116-.177-.046-.357-.086-.54-.125-.261-.054-.527-.1-.8-.138-.066-.01-.133-.014-.2-.023l-.174-.019c-.139-.016-.277-.035-.416-.047q-.4-.032-.8-.043c-.085,0-.17,0-.254,0h-.2c-.126,0-.252,0-.377,0q-.455.014-.9.06c-.059.006-.115.017-.172.024-.1.011-.188.026-.284.04-.2.026-.4.047-.588.081q-.426.077-.836.181c-.074.019-.141.042-.214.061l.011-3.651-.013-2.423-.014,5.124,0,.953c-.214.059-.429.116-.63.181-.075.024-.137.055-.211.08-.217.074-.418.155-.619.235-.186.075-.371.15-.544.23s-.357.181-.528.274c-.105.059-.229.11-.328.171-.063.037-.116.079-.176.117s-.138.091-.2.138a6.4,6.4,0,0,0-.6.461c-.031.028-.067.053-.1.08-.01.01-.022.017-.031.026a5.081,5.081,0,0,0-.541.583l-.007.01c-.014.018-.023.037-.037.055a4.216,4.216,0,0,0-.311.462c-.019.035-.031.069-.049.105-.03.056-.055.115-.081.172-.035.076-.077.15-.105.225s-.052.178-.077.268c-.014.05-.032.1-.044.152-.006.026-.017.051-.023.078a3.057,3.057,0,0,0-.057.508v.077h0l-.014,5.125a2.983,2.983,0,0,1,.081-.664C415.148,372.376,415.166,372.325,415.181,372.274Z" transform="translate(-404.046 -357.196)" fill="url(#linear-gradient-3)"/>
      <path id="Trazado_195590" data-name="Trazado 195590" d="M445.469,368l-.006.008a.816.816,0,0,1-.246.213c-.013.007-.03.012-.044.019a1.476,1.476,0,0,1-.313.122l-.059.014a1.941,1.941,0,0,1-.436.052h-4.255c-.046,0-.091,0-.134.008s-.1.013-.155.022l-.008,0-.028.007a1.51,1.51,0,0,0-.186.046c-.022.007-.038.019-.06.026-.047.018-.089.037-.132.059-.028.014-.061.024-.086.038a.859.859,0,0,0-.072.054l-.044.032a.285.285,0,0,0-.03.024.562.562,0,0,0-.073.078.489.489,0,0,0-.049.073l0,.006c-.03.056-.071.109-.1.164a6.639,6.639,0,0,1-.434.642c-.107.14-.211.28-.329.418l-.02.024a.738.738,0,0,0-.048.071.472.472,0,0,0-.023.05l0,.01,0,.007a.461.461,0,0,0-.019.067.309.309,0,0,0-.007.067v.011l-.014,5.1a1.4,1.4,0,0,1-.216.083.482.482,0,0,1-.056.014,1.98,1.98,0,0,1-.414.047h-.014a1.946,1.946,0,0,1-.436-.049l-.016,0a1.444,1.444,0,0,1-.388-.149l-2.974-1.718a1.306,1.306,0,0,0-.17-.08c-.041-.017-.083-.03-.126-.043l-.011,0-.007,0c-.041-.012-.083-.022-.125-.03s-.078-.016-.119-.02-.057-.007-.087-.011h-.028c-.039,0-.078-.006-.117-.006s-.08,0-.121,0l-.1.006h-.032c-.05,0-.1.012-.151.022a1.565,1.565,0,0,0-.183.043,20.2,20.2,0,0,1-2.109.505,1.852,1.852,0,0,0-.217.054c-.023.007-.038.019-.06.026a1.393,1.393,0,0,0-.127.057.826.826,0,0,0-.087.038c-.028.017-.048.036-.073.054s-.031.022-.044.034-.022.014-.031.023a.74.74,0,0,0-.073.079.646.646,0,0,0-.049.072v0h0a.446.446,0,0,0-.03.065.426.426,0,0,0-.019.067.48.48,0,0,0-.008.069v.014l-.007,2.484a.464.464,0,0,1-.069.2l-.006.008a.822.822,0,0,1-.247.213c-.012.006-.029.011-.042.018a1.427,1.427,0,0,1-.314.123l-.059.014a1.941,1.941,0,0,1-.436.052h-4.522a1.986,1.986,0,0,1-.458-.054l-.018,0a1.473,1.473,0,0,1-.373-.145.606.606,0,0,1-.353-.491l-.013-2.422a.6.6,0,0,0-.351-.49,1.226,1.226,0,0,0-.169-.081c-.044-.018-.092-.034-.141-.048s-.081-.02-.123-.03l-.043-.008a21.479,21.479,0,0,1-2.116-.505l-.011,0c-.041-.012-.083-.022-.126-.031l-.116-.02c-.034,0-.067-.007-.1-.011H419c-.038,0-.077-.006-.116-.006s-.08,0-.121,0-.076,0-.113.007h-.019c-.052.006-.1.013-.152.022s-.095.023-.141.035c-.019.006-.037.008-.055.014l-.028.006a1.422,1.422,0,0,0-.26.114l-2.955,1.718a1.448,1.448,0,0,1-.365.141l-.056.013a1.9,1.9,0,0,1-.414.047h-.016a1.935,1.935,0,0,1-.435-.049l-.016,0a1.459,1.459,0,0,1-.325-.123l.014-5.061a.473.473,0,0,0-.129-.313,6.73,6.73,0,0,1-.88-1.224.75.75,0,0,0-.29-.275,1.312,1.312,0,0,0-.17-.081,1.342,1.342,0,0,0-.144-.048l-.061-.016-.018,0-.047-.012c-.038-.008-.078-.016-.119-.02s-.077-.01-.116-.013-.079-.006-.12-.007H407.1a1.915,1.915,0,0,1-.458-.054l-.018,0a1.4,1.4,0,0,1-.372-.146.6.6,0,0,1-.353-.49l-.016-2.62-.014,5.125.016,2.618a.606.606,0,0,0,.352.491,1.183,1.183,0,0,0,.175.083,1.264,1.264,0,0,0,.144.049l.055.013.018,0,.053.013.117.02.116.013.117.006h2.751l-.013,4.7a.6.6,0,0,0,.352.492l3.215,1.857a1.4,1.4,0,0,0,.17.081,1.484,1.484,0,0,0,.145.049l.073.018.016,0,.036.008q.059.013.119.022l.117.013.119.006h.123c.044,0,.089,0,.133-.008s.1-.012.153-.022c.022,0,.042-.011.065-.016l.056-.014c.035-.008.072-.016.105-.026a1.344,1.344,0,0,0,.26-.114l2.955-1.718a1.357,1.357,0,0,1,.288-.121l.055-.013a1.888,1.888,0,0,1,.3-.057h.01a1.985,1.985,0,0,1,.358,0H419a1.9,1.9,0,0,1,.353.065l.15.043c.5.144,1.021.272,1.548.381.139.029.278.056.419.083a1.488,1.488,0,0,1,.477.167.6.6,0,0,1,.351.49l.013,2.423a.6.6,0,0,0,.353.491,1.293,1.293,0,0,0,.174.083c.046.018.095.035.145.049v-.008h0v.008l.055.013.017,0,.053.013c.038.008.078.016.119.02s.077.01.115.013.079.006.119.006H428.1c.044,0,.089,0,.133-.008s.1-.013.152-.022c.028,0,.053-.013.079-.02l.057-.014c.03-.007.061-.012.09-.022a1.4,1.4,0,0,0,.225-.1c.013-.007.03-.012.042-.019l.01,0a.942.942,0,0,0,.152-.111.918.918,0,0,0,.074-.08l.011-.017,0-.008a.409.409,0,0,0,.032-.047.485.485,0,0,0,.031-.067.355.355,0,0,0,.019-.067.465.465,0,0,0,.008-.069v-.014l.007-2.5a.442.442,0,0,1,.037-.139h0a.63.63,0,0,1,.153-.175c.013-.012.03-.023.044-.034a1.072,1.072,0,0,1,.159-.093,1.251,1.251,0,0,1,.128-.056,1.5,1.5,0,0,1,.277-.08,20.179,20.179,0,0,0,2.109-.507,1.884,1.884,0,0,1,.352-.065h.014a2.034,2.034,0,0,1,.352,0h.012a1.811,1.811,0,0,1,.338.064l.01,0a1.347,1.347,0,0,1,.3.125l2.975,1.718a1.4,1.4,0,0,0,.17.081c.047.018.1.035.145.049l.073.018.016,0,.036.008c.039.008.079.016.119.02s.078.011.117.013.079.006.119.007h.06c.022,0,.042,0,.063,0,.044,0,.089,0,.133-.008s.1-.012.153-.022c.023,0,.043-.011.065-.016l.056-.014c.035-.008.072-.016.105-.026a1.343,1.343,0,0,0,.26-.114l3.195-1.857.014-.008a.937.937,0,0,0,.15-.111.661.661,0,0,0,.074-.079l.016-.024.007-.01c.008-.013.018-.025.025-.038s.023-.046.032-.068a.469.469,0,0,0,.019-.067.344.344,0,0,0,.007-.069v-.011l.014-4.707h2.69c.046,0,.09,0,.133-.008s.1-.012.153-.022c.028,0,.052-.013.078-.019l.059-.014c.029-.008.061-.013.089-.023a1.292,1.292,0,0,0,.225-.1.438.438,0,0,0,.042-.019l.01,0a.948.948,0,0,0,.152-.113.777.777,0,0,0,.074-.08l.011-.016.006-.008a.409.409,0,0,0,.031-.048.374.374,0,0,0,.031-.067.432.432,0,0,0,.02-.067.439.439,0,0,0,.007-.069v-.014l.016-5.124A.459.459,0,0,1,445.469,368Zm-35.337,5.622a.743.743,0,0,1-.079-.069h1.211a1.975,1.975,0,0,1,.454.053l.018,0a1.472,1.472,0,0,1,.375.144.753.753,0,0,1,.29.277,6.771,6.771,0,0,0,.88,1.224.475.475,0,0,1,.115.242c-.014-.008-.035-.011-.049-.019Zm28.062,1.855a1.081,1.081,0,0,1-.144.055.419.419,0,0,1,.025-.125l0-.01a.524.524,0,0,1,.091-.144c.09-.1.177-.21.26-.316.026-.034.044-.068.069-.1a6.54,6.54,0,0,0,.432-.641c.02-.034.049-.067.069-.1l.035-.062a.664.664,0,0,1,.156-.181.425.425,0,0,1,.044-.032,1.118,1.118,0,0,1,.158-.092,1.1,1.1,0,0,1,.132-.059,1.681,1.681,0,0,1,.246-.073l.028-.007a2.029,2.029,0,0,1,.368-.034h1.3c-.03.023-.043.049-.078.069Z" transform="translate(-405.864 -355.63)" fill="url(#linear-gradient-9)"/>
    </g>
    <path id="Trazado_195591" data-name="Trazado 195591" d="M441.38,374.322a.518.518,0,0,1,.006.98l-3.195,1.855a1.868,1.868,0,0,1-1.69,0l-2.974-1.718a1.879,1.879,0,0,0-1.375-.126,20.2,20.2,0,0,1-2.109.505c-.492.09-.823.355-.82.656l.013,2.423c0,.384-.531.695-1.193.695h-4.522a1.723,1.723,0,0,1-.848-.2.606.606,0,0,1-.353-.49l-.013-2.423a.6.6,0,0,0-.351-.49,1.488,1.488,0,0,0-.477-.168,21.4,21.4,0,0,1-2.116-.505,1.872,1.872,0,0,0-1.373.126l-2.955,1.718a1.868,1.868,0,0,1-1.69,0l-3.215-1.855a.518.518,0,0,1-.006-.98l2.955-1.718c.358-.207.448-.529.214-.8a6.73,6.73,0,0,1-.88-1.224.75.75,0,0,0-.29-.275,1.735,1.735,0,0,0-.847-.2h-4.183a1.72,1.72,0,0,1-.848-.2.6.6,0,0,1-.353-.49l-.016-2.62c0-.383.532-.694,1.194-.694h4.183a1.293,1.293,0,0,0,1.132-.477,6.671,6.671,0,0,1,.866-1.224c.231-.265.138-.587-.223-.8l-2.974-1.718a.517.517,0,0,1-.006-.979l3.194-1.857a1.868,1.868,0,0,1,1.69,0l2.974,1.718a1.873,1.873,0,0,0,1.375.126,21.179,21.179,0,0,1,2.109-.505c.492-.09.823-.355.82-.656l-.013-2.423c0-.383.531-.694,1.193-.694h4.522a1.723,1.723,0,0,1,.848.2.606.606,0,0,1,.353.491l.013,2.423a.6.6,0,0,0,.351.49,1.487,1.487,0,0,0,.477.167,20.407,20.407,0,0,1,2.116.505,1.872,1.872,0,0,0,1.373-.126l2.955-1.718a1.867,1.867,0,0,1,1.69,0l3.215,1.857a.517.517,0,0,1,.006.979l-2.956,1.718c-.357.208-.447.531-.213.8a7.161,7.161,0,0,1,.88,1.224.751.751,0,0,0,.29.276,1.723,1.723,0,0,0,.847.2h4.183a1.72,1.72,0,0,1,.848.2.6.6,0,0,1,.353.49l.014,2.62c0,.383-.531.694-1.193.694h-4.183a1.293,1.293,0,0,0-1.132.477,7.057,7.057,0,0,1-.866,1.224c-.231.266-.138.587.223.8Zm-12.361-1.436c6.221-1.585,7.188-5.933,2.924-8.394a11.746,11.746,0,0,0-2.985-1.164,13.7,13.7,0,0,0-6.542,0c-6.224,1.586-7.189,5.936-2.921,8.4a11.686,11.686,0,0,0,2.975,1.162,13.763,13.763,0,0,0,6.549,0" transform="translate(-405.862 -356.617)" fill="url(#linear-gradient-5)"/>
  </g>
</svg>
