<svg xmlns="http://www.w3.org/2000/svg" xmlns:xlink="http://www.w3.org/1999/xlink" width="435.989" height="262.221" viewBox="0 0 435.989 262.221">
  <defs>
    <linearGradient id="linear-gradient" y1="0.5" x2="1" y2="0.5" gradientUnits="objectBoundingBox">
      <stop offset="0" stop-color="#faf9ff"/>
      <stop offset="0.369" stop-color="#de3923"/>
      <stop offset="0.559" stop-color="#faf9ff"/>
      <stop offset="1" stop-color="#de3923"/>
    </linearGradient>
    <linearGradient id="linear-gradient-2" x1="0.12" y1="0.116" x2="1.17" y2="1.178" gradientUnits="objectBoundingBox">
      <stop offset="0" stop-color="#faf9ff"/>
      <stop offset="1" stop-color="#072380"/>
    </linearGradient>
    <linearGradient id="linear-gradient-3" x1="0.519" y1="0.786" x2="0.469" y2="0.037" xlink:href="#linear-gradient-2"/>
    <linearGradient id="linear-gradient-4" x1="0.498" y1="-0.199" x2="0.503" y2="1.229" xlink:href="#linear-gradient-2"/>
    <linearGradient id="linear-gradient-5" y1="0.5" x2="1" y2="0.5" gradientUnits="objectBoundingBox">
      <stop offset="0" stop-color="#525563"/>
      <stop offset="0.395" stop-color="#072380"/>
      <stop offset="0.487" stop-color="#525563"/>
      <stop offset="1" stop-color="#072380"/>
    </linearGradient>
    <linearGradient id="linear-gradient-12" x1="0.536" y1="0.01" x2="0.432" y2="1.412" gradientUnits="objectBoundingBox">
      <stop offset="0" stop-color="#525563"/>
      <stop offset="1" stop-color="#072380"/>
    </linearGradient>
    <linearGradient id="linear-gradient-24" x1="0.536" y1="0.01" x2="0.432" y2="1.412" xlink:href="#linear-gradient-12"/>
    <linearGradient id="linear-gradient-25" y1="0.5" x2="1" y2="0.5" gradientUnits="objectBoundingBox">
      <stop offset="0" stop-color="#faf9ff"/>
      <stop offset="1" stop-color="#de3923"/>
    </linearGradient>
    <linearGradient id="linear-gradient-26" x1="0.131" y1="0.04" x2="1.181" y2="1.349" xlink:href="#linear-gradient-2"/>
    <linearGradient id="linear-gradient-28" x1="0.264" y1="0.16" x2="0.789" y2="0.916" xlink:href="#linear-gradient-2"/>
    <linearGradient id="linear-gradient-30" x1="0.497" y1="-0.134" x2="0.511" y2="2.828" xlink:href="#linear-gradient-25"/>
    <linearGradient id="linear-gradient-32" x1="0.5" y1="-0.04" x2="0.5" y2="1.596" xlink:href="#linear-gradient-12"/>
    <linearGradient id="linear-gradient-33" x1="0.5" y1="0.994" x2="0.5" y2="0.24" gradientUnits="objectBoundingBox">
      <stop offset="0" stop-color="#faf9ff"/>
      <stop offset="0.187" stop-color="#f9a491" stop-opacity="0.812"/>
      <stop offset="1" stop-opacity="0"/>
    </linearGradient>
    <radialGradient id="radial-gradient" cx="0.5" cy="0.5" r="0.5" gradientUnits="objectBoundingBox">
      <stop offset="0" stop-color="#fff"/>
      <stop offset="0.118" stop-color="#525363"/>
      <stop offset="0.149" stop-color="#454553" stop-opacity="0.843"/>
      <stop offset="0.222" stop-color="#2c2c35" stop-opacity="0.537"/>
      <stop offset="0.299" stop-color="#18181d" stop-opacity="0.302"/>
      <stop offset="0.381" stop-color="#0a0a0d" stop-opacity="0.133"/>
      <stop offset="0.471" stop-color="#020203" stop-opacity="0.031"/>
      <stop offset="0.585" stop-opacity="0"/>
    </radialGradient>
    <radialGradient id="radial-gradient-2" cx="0.5" cy="0.5" r="0.5" xlink:href="#radial-gradient"/>
    <radialGradient id="radial-gradient-3" cx="0.5" cy="0.5" r="0.5" gradientTransform="translate(0)" xlink:href="#radial-gradient"/>
    <radialGradient id="radial-gradient-4" cx="0.5" cy="0.5" r="0.5" gradientTransform="translate(0)" xlink:href="#radial-gradient"/>
    <radialGradient id="radial-gradient-5" cx="0.5" cy="0.5" r="0.5" xlink:href="#radial-gradient"/>
    <radialGradient id="radial-gradient-6" cx="0.5" cy="0.5" r="0.5" xlink:href="#radial-gradient"/>
    <radialGradient id="radial-gradient-7" cx="0.5" cy="0.5" r="0.5" gradientTransform="translate(0)" xlink:href="#radial-gradient"/>
    <linearGradient id="linear-gradient-34" x1="0.5" y1="0.975" x2="0.5" y2="0.227" gradientUnits="objectBoundingBox">
      <stop offset="0" stop-color="#faf9ff"/>
      <stop offset="1" stop-opacity="0"/>
    </linearGradient>
    <linearGradient id="linear-gradient-36" x1="0.132" y1="-0.005" x2="0.972" y2="1.148" xlink:href="#linear-gradient-2"/>
    <linearGradient id="linear-gradient-38" x1="0.226" y1="0.042" x2="1.051" y2="1.422" xlink:href="#linear-gradient-2"/>
    <linearGradient id="linear-gradient-40" x1="0.455" y1="-0.432" x2="0.587" y2="2.293" xlink:href="#linear-gradient-2"/>
    <linearGradient id="linear-gradient-42" x1="0.5" y1="0.02" x2="0.5" y2="1.548" xlink:href="#linear-gradient-12"/>
    <linearGradient id="linear-gradient-44" x1="0.152" y1="0.022" x2="1.001" y2="1.19" xlink:href="#linear-gradient-2"/>
    <linearGradient id="linear-gradient-46" x1="0.5" y1="0.33" x2="0.5" y2="1.459" xlink:href="#linear-gradient-12"/>
    <linearGradient id="linear-gradient-49" x1="0" y1="0.5" x2="1" y2="0.5" xlink:href="#linear-gradient-25"/>
    <linearGradient id="linear-gradient-50" x1="0.5" y1="-0.265" x2="0.5" y2="0.971" xlink:href="#linear-gradient-2"/>
    <linearGradient id="linear-gradient-52" x1="0.019" y1="-0.095" x2="1.168" y2="1.326" xlink:href="#linear-gradient-2"/>
    <linearGradient id="linear-gradient-54" x1="0.199" y1="0.013" x2="1.157" y2="1.561" xlink:href="#linear-gradient-2"/>
    <linearGradient id="linear-gradient-55" x1="0.519" y1="0.786" x2="0.469" y2="0.037" xlink:href="#linear-gradient-2"/>
    <linearGradient id="linear-gradient-56" x1="0.5" y1="-0.618" x2="0.5" y2="2.397" xlink:href="#linear-gradient-2"/>
    <linearGradient id="linear-gradient-57" x1="0" y1="0.5" x2="1" y2="0.5" xlink:href="#linear-gradient-25"/>
    <linearGradient id="linear-gradient-58" x1="0.5" y1="-0.069" x2="0.5" y2="1.87" xlink:href="#linear-gradient-12"/>
    <linearGradient id="linear-gradient-60" x1="0.656" y1="-0.088" x2="0.311" y2="1.215" xlink:href="#linear-gradient-2"/>
    <linearGradient id="linear-gradient-62" x1="0.29" y1="-0.223" x2="0.681" y2="1.121" xlink:href="#linear-gradient-25"/>
    <linearGradient id="linear-gradient-63" x1="0" y1="0.5" x2="1" y2="0.5" xlink:href="#linear-gradient-2"/>
    <linearGradient id="linear-gradient-64" x1="0.508" y1="-0.245" x2="0.489" y2="1.493" xlink:href="#linear-gradient-12"/>
    <linearGradient id="linear-gradient-65" x1="-0.207" y1="1.061" x2="1.573" y2="-0.352" xlink:href="#linear-gradient-25"/>
    <linearGradient id="linear-gradient-66" x1="0.271" y1="-0.198" x2="0.783" y2="1.35" xlink:href="#linear-gradient-25"/>
    <linearGradient id="linear-gradient-67" x1="0.027" y1="-0.045" x2="1.045" y2="1.125" xlink:href="#linear-gradient-25"/>
    <linearGradient id="linear-gradient-68" x1="0.32" y1="1.249" x2="0.691" y2="-0.294" xlink:href="#linear-gradient-12"/>
    <linearGradient id="linear-gradient-69" x1="0.39" y1="-0.129" x2="0.692" y2="1.575" xlink:href="#linear-gradient-12"/>
    <linearGradient id="linear-gradient-70" x1="-0.291" y1="-0.219" x2="1.29" y2="1.221" xlink:href="#linear-gradient-12"/>
    <linearGradient id="linear-gradient-71" x1="-1.034" y1="1.095" x2="2.827" y2="-0.403" xlink:href="#linear-gradient-25"/>
    <linearGradient id="linear-gradient-72" x1="0.022" y1="-0.208" x2="1.085" y2="1.362" xlink:href="#linear-gradient-25"/>
    <linearGradient id="linear-gradient-74" x1="0.565" y1="1.077" x2="0.422" y2="-0.16" xlink:href="#linear-gradient-12"/>
    <linearGradient id="linear-gradient-75" x1="0.362" y1="-0.147" x2="0.621" y2="1.054" xlink:href="#linear-gradient-12"/>
    <linearGradient id="linear-gradient-76" x1="0.098" y1="0.035" x2="1.713" y2="1.894" xlink:href="#linear-gradient-12"/>
    <linearGradient id="linear-gradient-77" x1="0.5" y1="1.037" x2="0.5" y2="0.134" gradientUnits="objectBoundingBox">
      <stop offset="0" stop-color="#616363"/>
      <stop offset="1" stop-opacity="0"/>
    </linearGradient>
    <linearGradient id="linear-gradient-83" x1="0.465" y1="-0.218" x2="0.56" y2="1.738" xlink:href="#linear-gradient-12"/>
  </defs>
  <g id="Grupo_138916" data-name="Grupo 138916" transform="translate(-975.985 -227.863)">
    <g id="Grupo_138463" data-name="Grupo 138463" transform="translate(1013.825 259.36)">
      <line id="Línea_407" data-name="Línea 407" x1="14.407" y2="8.354" transform="translate(93.567 29.377)" fill="none" stroke="#707070" stroke-linecap="round" stroke-linejoin="round" stroke-width="0.697"/>
      <path id="Trazado_195392" data-name="Trazado 195392" d="M636.134,383.174,679.5,358.138a5.563,5.563,0,0,0,.007-9.63L448.992,214.945a5.562,5.562,0,0,0-5.579,0l-15.729,9.121" transform="translate(-286.073 -214.195)" fill="none" stroke="#707070" stroke-linecap="round" stroke-linejoin="round" stroke-width="0.697"/>
      <path id="Trazado_195393" data-name="Trazado 195393" d="M435.751,376.329l49.719,28.717a55.625,55.625,0,0,0,55.632,0l32.468-18.745" transform="translate(-284.477 -182.127)" fill="none" stroke="#707070" stroke-linecap="round" stroke-linejoin="round" stroke-width="0.697"/>
      <line id="Línea_408" data-name="Línea 408" x2="19.041" y2="10.997" transform="translate(107.446 168.888)" fill="none" stroke="#707070" stroke-linecap="round" stroke-linejoin="round" stroke-width="0.697"/>
      <line id="Línea_409" data-name="Línea 409" x2="45.476" y2="26.266" transform="translate(13.612 114.691)" fill="none" stroke="#707070" stroke-linecap="round" stroke-linejoin="round" stroke-width="0.697"/>
      <line id="Línea_410" data-name="Línea 410" x1="64.603" y2="37.098" transform="translate(0 54.527)" fill="none" stroke="#707070" stroke-linecap="round" stroke-linejoin="round" stroke-width="0.697"/>
    </g>
    <g id="Grupo_138472" data-name="Grupo 138472" transform="translate(1319.579 308.58)">
      <g id="Grupo_138467" data-name="Grupo 138467">
        <g id="Grupo_138464" data-name="Grupo 138464" transform="translate(0 22.145)">
          <path id="Trazado_195394" data-name="Trazado 195394" d="M630.913,289.806v13.858c0,.043-.014.1-.014.143-.013.086-.013.157-.028.229a.053.053,0,0,1-.014.043c0,.043-.029.085-.029.143-.029.072-.043.143-.072.214a.053.053,0,0,1-.014.043c-.014.042-.042.085-.058.128a1.455,1.455,0,0,1-.1.229c-.014.014-.014.029-.029.057s-.043.056-.071.1l-.172.258a.33.33,0,0,0-.042.071.172.172,0,0,0-.072.072c-.085.1-.2.214-.3.328a.406.406,0,0,0-.085.072c0,.014-.029.029-.043.043a2.439,2.439,0,0,0-.214.186,2.048,2.048,0,0,0-.2.157c-.085.057-.171.115-.271.171l-.171.129c-.029.013-.072.028-.1.042L603,321.538a9.328,9.328,0,0,1-1.015.471,2.065,2.065,0,0,1-.271.1,2.8,2.8,0,0,1-.3.114c-.114.043-.256.057-.371.1a6.88,6.88,0,0,1-.728.171,1.712,1.712,0,0,1-.258.071c-.2.043-.4.058-.6.086-.085.014-.157.014-.229.029-.027,0-.056.014-.085.014-.272.029-.529.042-.8.056h-.728c-.243-.014-.472-.014-.715-.042a1.559,1.559,0,0,1-.256-.029c-.057,0-.115-.014-.172-.014-.085-.014-.186-.014-.271-.029-.229-.043-.472-.072-.7-.128-.071-.014-.128-.029-.186-.043s-.142-.029-.2-.043c-.128-.043-.243-.057-.371-.1a5.652,5.652,0,0,1-.629-.214.821.821,0,0,1-.171-.057c-.029,0-.043-.014-.072-.014a8.482,8.482,0,0,1-1.028-.5l-26-15.017a3.554,3.554,0,0,1-2.114-2.957v-13.8a3.575,3.575,0,0,0,2.129,2.957l26,15.016a6.381,6.381,0,0,0,1.085.515c.057.028.115.042.171.071.329.115.658.214,1,.3.072.014.143.029.2.042a10.841,10.841,0,0,0,1.157.2.886.886,0,0,0,.186.013,10.462,10.462,0,0,0,1.171.072h.214a11.2,11.2,0,0,0,1.2-.072,1.087,1.087,0,0,0,.214-.028,8.5,8.5,0,0,0,.872-.144c.243-.056.486-.114.714-.186.229-.056.458-.128.672-.2.1-.043.2-.071.285-.114a7.05,7.05,0,0,0,1-.472l25.831-15.016c.1-.057.186-.114.272-.171s.186-.114.256-.171a2.479,2.479,0,0,0,.2-.157c.086-.057.157-.129.229-.187l.114-.114c.115-.114.216-.214.315-.328a1,1,0,0,1,.114-.143l.172-.258c.028-.057.056-.1.085-.157.043-.072.072-.144.115-.229a.776.776,0,0,1,.071-.171,1.21,1.21,0,0,0,.057-.214.715.715,0,0,0,.043-.186,1.105,1.105,0,0,0,.028-.214A1.084,1.084,0,0,0,630.913,289.806Z" transform="translate(-564.722 -270.614)" fill="url(#linear-gradient)"/>
          <path id="Trazado_195395" data-name="Trazado 195395" d="M628.8,290.008c2.814,1.624,2.828,4.252.026,5.88L603,310.9a11.182,11.182,0,0,1-10.152,0l-26-15.013c-2.814-1.624-2.828-4.259-.034-5.884L592.639,275a11.185,11.185,0,0,1,10.157,0Z" transform="translate(-564.721 -273.776)" fill="url(#linear-gradient-2)"/>
          <path id="Trazado_195396" data-name="Trazado 195396" d="M620.48,293.072a4.185,4.185,0,0,1-.678.495L599.786,305.2a7.208,7.208,0,0,1-6.557,0l-20.147-11.635a3.648,3.648,0,0,1-.7-.513c-1.086-1.026-.861-2.391.669-3.278l20.026-11.634a7.231,7.231,0,0,1,6.556-.008l20.156,11.634C621.341,290.663,621.568,292.037,620.48,293.072Z" transform="translate(-563.339 -273.069)" fill="url(#linear-gradient-3)"/>
          <path id="Trazado_195397" data-name="Trazado 195397" d="M620.369,292.612a4.185,4.185,0,0,1-.678.495l-20.016,11.635a7.208,7.208,0,0,1-6.557,0l-20.147-11.635a3.648,3.648,0,0,1-.7-.513,3.829,3.829,0,0,1,.669-.5l20.026-11.634a7.231,7.231,0,0,1,6.556,0L619.682,292.1A3.269,3.269,0,0,1,620.369,292.612Z" transform="translate(-563.228 -272.608)" fill="url(#linear-gradient-4)"/>
        </g>
        <g id="Grupo_138465" data-name="Grupo 138465" transform="translate(7.628 16.37)">
          <path id="Trazado_195398" data-name="Trazado 195398" d="M622.027,281.29v10.665c0,.034-.011.077-.011.11-.011.066-.011.121-.022.176a.037.037,0,0,1-.012.032c0,.034-.022.066-.022.11-.021.055-.032.11-.055.165a.04.04,0,0,1-.011.032c-.011.034-.032.066-.044.1a1.136,1.136,0,0,1-.077.176c-.011.011-.011.022-.022.043s-.034.044-.055.078l-.132.2a.188.188,0,0,0-.034.055.129.129,0,0,0-.055.055c-.066.077-.153.164-.23.253a.27.27,0,0,0-.067.055c0,.011-.022.022-.032.032a1.941,1.941,0,0,0-.165.144,1.349,1.349,0,0,0-.153.121c-.066.043-.133.087-.21.132l-.132.1c-.022.011-.055.023-.077.034L600.544,305.71a7.308,7.308,0,0,1-.78.363,1.638,1.638,0,0,1-.21.077,2.023,2.023,0,0,1-.23.089c-.089.032-.2.043-.286.077a4.987,4.987,0,0,1-.56.132,1.361,1.361,0,0,1-.2.055c-.154.032-.309.044-.462.066-.066.011-.121.011-.176.022-.022,0-.044.011-.066.011-.208.023-.407.034-.616.044H596.4c-.187-.011-.363-.011-.55-.032a1.23,1.23,0,0,1-.2-.023c-.044,0-.089-.011-.132-.011-.066-.011-.144-.011-.21-.022-.176-.034-.363-.055-.539-.1-.054-.011-.1-.021-.143-.032s-.11-.023-.153-.034c-.1-.034-.187-.044-.286-.077a4.278,4.278,0,0,1-.484-.165.57.57,0,0,1-.132-.044c-.022,0-.034-.011-.055-.011a6.719,6.719,0,0,1-.792-.385l-20.01-11.555a2.739,2.739,0,0,1-1.627-2.276V281.258a2.752,2.752,0,0,0,1.639,2.276l20.009,11.555a4.93,4.93,0,0,0,.836.4c.044.022.087.032.132.054.253.089.505.165.77.231.054.011.109.022.153.034a8.255,8.255,0,0,0,.891.153.631.631,0,0,0,.142.011,7.988,7.988,0,0,0,.9.055h.164a8.536,8.536,0,0,0,.924-.055.866.866,0,0,0,.165-.022,6.352,6.352,0,0,0,.671-.11c.187-.044.374-.087.55-.143s.352-.1.516-.154c.078-.032.154-.054.22-.087a5.543,5.543,0,0,0,.769-.363l19.879-11.555c.077-.044.144-.089.21-.132s.143-.089.2-.132.11-.078.153-.121c.066-.044.121-.1.176-.144l.089-.087c.087-.089.164-.165.241-.253a.727.727,0,0,1,.089-.11l.132-.2c.022-.044.044-.077.066-.121s.055-.11.089-.176a.646.646,0,0,1,.054-.132.838.838,0,0,0,.044-.165.551.551,0,0,0,.034-.143.866.866,0,0,0,.022-.165A.85.85,0,0,0,622.027,281.29Z" transform="translate(-571.09 -266.521)" fill="url(#linear-gradient-5)"/>
          <path id="Trazado_195399" data-name="Trazado 195399" d="M620.4,281.447c2.166,1.249,2.176,3.272.022,4.525l-19.876,11.55a8.609,8.609,0,0,1-7.813,0l-20.01-11.554c-2.164-1.249-2.176-3.278-.025-4.528l19.875-11.551a8.611,8.611,0,0,1,7.818,0Z" transform="translate(-571.09 -268.955)" fill="url(#linear-gradient-2)"/>
          <path id="Trazado_195400" data-name="Trazado 195400" d="M614,283.8a3.346,3.346,0,0,1-.522.382l-15.4,8.953a5.552,5.552,0,0,1-5.046,0l-15.5-8.953a2.9,2.9,0,0,1-.535-.4c-.836-.789-.662-1.84.516-2.523l15.41-8.953a5.563,5.563,0,0,1,5.046-.006l15.51,8.952C614.662,281.951,614.835,283.007,614,283.8Z" transform="translate(-570.026 -268.41)" fill="url(#linear-gradient-3)"/>
          <path id="Trazado_195401" data-name="Trazado 195401" d="M613.914,283.449a3.346,3.346,0,0,1-.522.382l-15.4,8.953a5.552,5.552,0,0,1-5.046,0l-15.5-8.953a2.9,2.9,0,0,1-.535-.4,2.915,2.915,0,0,1,.516-.381l15.41-8.953a5.567,5.567,0,0,1,5.046,0l15.51,8.953A2.517,2.517,0,0,1,613.914,283.449Z" transform="translate(-569.94 -268.056)" fill="url(#linear-gradient-4)"/>
        </g>
        <g id="Grupo_138466" data-name="Grupo 138466">
          <path id="Trazado_195402" data-name="Trazado 195402" d="M630.913,271.318v13.858c0,.042-.014.1-.014.143-.013.085-.013.157-.028.229a.053.053,0,0,1-.014.043c0,.042-.029.085-.029.143-.029.071-.043.143-.072.214a.049.049,0,0,1-.014.042c-.014.043-.042.086-.058.129a1.455,1.455,0,0,1-.1.229c-.014.014-.014.029-.029.056s-.043.058-.071.1l-.172.258a.3.3,0,0,0-.042.071.172.172,0,0,0-.072.072c-.085.1-.2.214-.3.328a.406.406,0,0,0-.085.072c0,.014-.029.029-.043.043a2.439,2.439,0,0,0-.214.186,2.049,2.049,0,0,0-.2.157c-.085.057-.171.114-.271.171l-.171.128c-.029.014-.072.029-.1.043L603,303.049a9.337,9.337,0,0,1-1.015.472,1.9,1.9,0,0,1-.271.1,2.576,2.576,0,0,1-.3.115c-.114.043-.256.057-.371.1a6.605,6.605,0,0,1-.728.172,1.879,1.879,0,0,1-.258.071c-.2.043-.4.057-.6.086-.085.014-.157.014-.229.029-.027,0-.056.014-.085.014-.272.028-.529.042-.8.056h-.728c-.243-.014-.472-.014-.715-.042a1.555,1.555,0,0,1-.256-.029c-.057,0-.115-.014-.172-.014-.085-.014-.186-.014-.271-.029-.229-.043-.472-.072-.7-.129-.071-.013-.128-.028-.186-.042s-.142-.029-.2-.043c-.128-.043-.243-.057-.371-.1a5.2,5.2,0,0,1-.629-.214.752.752,0,0,1-.171-.056c-.029,0-.043-.014-.072-.014a8.484,8.484,0,0,1-1.028-.5l-26-15.015a3.556,3.556,0,0,1-2.114-2.957v-13.8a3.576,3.576,0,0,0,2.129,2.957l26,15.016a6.379,6.379,0,0,0,1.085.515c.057.028.115.042.171.071.329.114.658.214,1,.3.072.013.143.028.2.042a10.812,10.812,0,0,0,1.157.2.813.813,0,0,0,.186.014,10.469,10.469,0,0,0,1.171.072h.214a11.21,11.21,0,0,0,1.2-.072,1.087,1.087,0,0,0,.214-.029,8.479,8.479,0,0,0,.872-.143c.243-.057.486-.114.714-.186s.458-.128.672-.2c.1-.043.2-.071.285-.114a7.19,7.19,0,0,0,1-.472l25.831-15.016c.1-.057.186-.115.272-.171s.186-.115.256-.171a2.241,2.241,0,0,0,.2-.158,2.876,2.876,0,0,0,.229-.186l.114-.114c.115-.115.216-.214.315-.329a1.16,1.16,0,0,1,.114-.143l.172-.256c.028-.057.056-.1.085-.158s.072-.143.115-.228a.809.809,0,0,1,.071-.172,1.171,1.171,0,0,0,.057-.213.712.712,0,0,0,.043-.187,1.081,1.081,0,0,0,.028-.214A1.066,1.066,0,0,0,630.913,271.318Z" transform="translate(-564.722 -252.126)" fill="url(#linear-gradient)"/>
          <path id="Trazado_195403" data-name="Trazado 195403" d="M628.8,271.52c2.814,1.624,2.828,4.252.026,5.88L603,292.41a11.186,11.186,0,0,1-10.152,0l-26-15.013c-2.814-1.624-2.828-4.259-.034-5.884l25.829-15.009a11.185,11.185,0,0,1,10.157,0Z" transform="translate(-564.721 -255.288)" fill="url(#linear-gradient-2)"/>
          <path id="Trazado_195404" data-name="Trazado 195404" d="M620.48,274.583a4.12,4.12,0,0,1-.678.5l-20.016,11.635a7.207,7.207,0,0,1-6.557,0l-20.147-11.635a3.7,3.7,0,0,1-.7-.513c-1.086-1.026-.861-2.391.669-3.278l20.026-11.634a7.231,7.231,0,0,1,6.556-.008l20.156,11.634C621.341,272.175,621.568,273.549,620.48,274.583Z" transform="translate(-563.339 -254.581)" fill="url(#linear-gradient-3)"/>
          <path id="Trazado_195405" data-name="Trazado 195405" d="M620.369,274.122a4.12,4.12,0,0,1-.678.5l-20.016,11.635a7.207,7.207,0,0,1-6.557,0l-20.147-11.635a3.7,3.7,0,0,1-.7-.513,3.829,3.829,0,0,1,.669-.5l20.026-11.634a7.231,7.231,0,0,1,6.556,0l20.156,11.634A3.307,3.307,0,0,1,620.369,274.122Z" transform="translate(-563.228 -254.12)" fill="url(#linear-gradient-12)"/>
        </g>
      </g>
      <g id="Grupo_138471" data-name="Grupo 138471" transform="translate(41.834 37.805)">
        <g id="Grupo_138468" data-name="Grupo 138468" transform="translate(0 16.914)">
          <path id="Trazado_195406" data-name="Trazado 195406" d="M650.2,313.215V323.8c0,.034-.011.077-.011.109-.011.066-.011.12-.022.175a.037.037,0,0,1-.012.032c0,.034-.021.066-.021.11-.022.054-.032.109-.054.163a.043.043,0,0,1-.011.034c-.012.032-.034.065-.044.1a1.066,1.066,0,0,1-.077.175c-.011.011-.011.023-.022.044s-.032.043-.054.076l-.132.2a.244.244,0,0,0-.032.055.133.133,0,0,0-.055.054c-.065.077-.152.164-.229.252a.291.291,0,0,0-.066.055c0,.011-.022.022-.032.032a2.122,2.122,0,0,0-.164.141,1.512,1.512,0,0,0-.152.121c-.066.043-.13.087-.207.131l-.131.1c-.023.011-.055.022-.077.032l-19.719,11.469a7.012,7.012,0,0,1-.775.361,1.725,1.725,0,0,1-.207.077,1.9,1.9,0,0,1-.229.086c-.088.034-.2.044-.284.077a5.255,5.255,0,0,1-.556.132,1.343,1.343,0,0,1-.2.054c-.152.034-.305.044-.458.066-.066.011-.12.011-.175.022-.022,0-.043.011-.066.011-.207.022-.4.034-.611.044h-.556c-.186-.011-.361-.011-.546-.034a1.228,1.228,0,0,1-.2-.022c-.043,0-.087-.011-.131-.011-.066-.011-.143-.011-.207-.022-.175-.034-.361-.055-.535-.1-.054-.011-.1-.022-.141-.034s-.109-.022-.153-.032c-.1-.032-.186-.043-.283-.077a4.128,4.128,0,0,1-.48-.163.63.63,0,0,1-.132-.044c-.022,0-.032-.011-.054-.011a6.354,6.354,0,0,1-.786-.382l-19.861-11.469a2.715,2.715,0,0,1-1.615-2.259V313.183a2.733,2.733,0,0,0,1.625,2.259l19.861,11.469a4.937,4.937,0,0,0,.829.393c.044.022.087.032.132.054.25.087.5.164.763.229.055.012.109.023.153.034a8.418,8.418,0,0,0,.884.152.625.625,0,0,0,.141.011,7.86,7.86,0,0,0,.895.055h.164a8.4,8.4,0,0,0,.916-.055.854.854,0,0,0,.164-.022,6.324,6.324,0,0,0,.666-.109c.184-.043.37-.087.545-.141s.35-.1.513-.153c.077-.032.153-.054.218-.087a5.474,5.474,0,0,0,.764-.359l19.73-11.469c.077-.044.141-.087.207-.132s.141-.087.2-.131a1.851,1.851,0,0,0,.152-.12,2.214,2.214,0,0,0,.175-.143l.087-.087c.087-.086.164-.163.24-.25a.871.871,0,0,1,.087-.109l.132-.2c.022-.044.043-.077.065-.12s.055-.109.087-.175a.688.688,0,0,1,.055-.132.918.918,0,0,0,.043-.163.554.554,0,0,0,.033-.143,2.488,2.488,0,0,0,.032-.327Z" transform="translate(-599.648 -298.556)" fill="url(#linear-gradient)"/>
          <path id="Trazado_195407" data-name="Trazado 195407" d="M648.589,313.37c2.149,1.241,2.161,3.247.02,4.492l-19.726,11.464a8.542,8.542,0,0,1-7.755,0l-19.861-11.466c-2.149-1.241-2.161-3.254-.026-4.494L620.97,301.9a8.548,8.548,0,0,1,7.759,0Z" transform="translate(-599.648 -300.972)" fill="url(#linear-gradient-2)"/>
          <path id="Trazado_195408" data-name="Trazado 195408" d="M642.236,315.71a3.246,3.246,0,0,1-.519.379l-15.289,8.886a5.5,5.5,0,0,1-5.008,0l-15.388-8.886a2.8,2.8,0,0,1-.531-.392c-.83-.783-.658-1.827.511-2.5l15.294-8.886a5.524,5.524,0,0,1,5.008-.007l15.4,8.886C642.893,313.87,643.066,314.919,642.236,315.71Z" transform="translate(-598.592 -300.431)" fill="url(#linear-gradient-3)"/>
          <path id="Trazado_195409" data-name="Trazado 195409" d="M642.151,315.358a3.242,3.242,0,0,1-.519.378l-15.289,8.886a5.5,5.5,0,0,1-5.008,0l-15.388-8.886a2.8,2.8,0,0,1-.531-.392,2.877,2.877,0,0,1,.511-.378l15.294-8.886a5.524,5.524,0,0,1,5.008,0l15.4,8.886A2.519,2.519,0,0,1,642.151,315.358Z" transform="translate(-598.507 -300.08)" fill="url(#linear-gradient-4)"/>
        </g>
        <g id="Grupo_138469" data-name="Grupo 138469" transform="translate(5.826 12.504)">
          <path id="Trazado_195410" data-name="Trazado 195410" d="M643.417,306.712v8.145c0,.025-.008.059-.008.084-.008.05-.008.092-.017.134a.031.031,0,0,1-.008.025c0,.026-.017.052-.017.085-.017.042-.025.084-.042.126a.031.031,0,0,1-.008.025c-.008.025-.025.05-.034.076a.818.818,0,0,1-.06.134.179.179,0,0,0-.016.034c-.01.017-.026.034-.043.059l-.1.151a.183.183,0,0,0-.025.042.1.1,0,0,0-.042.042c-.05.06-.117.127-.176.194a.221.221,0,0,0-.05.042c0,.008-.017.017-.025.025a1.437,1.437,0,0,0-.126.109,1.114,1.114,0,0,0-.117.092c-.052.034-.1.067-.161.1l-.1.075c-.017.008-.042.017-.059.025l-15.175,8.827a5.578,5.578,0,0,1-.6.277,1.217,1.217,0,0,1-.159.059,1.53,1.53,0,0,1-.177.067c-.067.025-.151.034-.218.059a3.94,3.94,0,0,1-.428.1.926.926,0,0,1-.152.042c-.117.026-.235.035-.352.052-.05.008-.092.008-.134.017-.017,0-.034.008-.05.008-.16.017-.311.025-.471.034h-.429c-.143-.008-.277-.008-.419-.025a.926.926,0,0,1-.151-.017c-.034,0-.067-.008-.1-.008-.05-.008-.11-.008-.161-.018-.134-.024-.277-.042-.411-.075-.042-.008-.075-.017-.109-.025s-.084-.017-.117-.025c-.077-.025-.144-.034-.219-.059a3.2,3.2,0,0,1-.369-.126.472.472,0,0,1-.1-.034c-.017,0-.025-.008-.042-.008a4.944,4.944,0,0,1-.6-.293l-15.284-8.827a2.086,2.086,0,0,1-1.242-1.738v-8.111a2.1,2.1,0,0,0,1.25,1.738l15.284,8.825a3.693,3.693,0,0,0,.638.3c.034.017.067.025.1.042.193.067.386.126.588.176.042.008.084.017.117.025a6.357,6.357,0,0,0,.68.117.479.479,0,0,0,.109.008,6.175,6.175,0,0,0,.689.042h.126a6.65,6.65,0,0,0,.706-.042.646.646,0,0,0,.126-.017,5.085,5.085,0,0,0,.513-.084c.143-.034.285-.067.419-.109s.268-.075.4-.117c.059-.025.117-.042.168-.067a4.35,4.35,0,0,0,.587-.278l15.183-8.825c.059-.034.109-.067.159-.1s.109-.067.152-.1a1.231,1.231,0,0,0,.117-.093c.05-.034.092-.075.134-.109l.067-.067c.067-.067.126-.126.184-.193a.591.591,0,0,1,.067-.084l.1-.151c.018-.034.035-.059.05-.093s.043-.084.068-.134a.513.513,0,0,1,.042-.1.7.7,0,0,0,.034-.126.417.417,0,0,0,.025-.109.645.645,0,0,0,.017-.126A.636.636,0,0,0,643.417,306.712Z" transform="translate(-604.512 -295.431)" fill="url(#linear-gradient-5)"/>
          <path id="Trazado_195411" data-name="Trazado 195411" d="M642.175,306.83c1.653.955,1.661,2.5.016,3.457l-15.181,8.822a6.575,6.575,0,0,1-5.967,0l-15.284-8.824c-1.654-.955-1.662-2.5-.02-3.458l15.182-8.823a6.572,6.572,0,0,1,5.97,0Z" transform="translate(-604.512 -297.289)" fill="url(#linear-gradient-2)"/>
          <path id="Trazado_195412" data-name="Trazado 195412" d="M637.286,308.631a2.489,2.489,0,0,1-.4.292l-11.766,6.838a4.235,4.235,0,0,1-3.853,0l-11.843-6.838a2.174,2.174,0,0,1-.408-.3c-.638-.6-.505-1.4.394-1.927l11.769-6.838a4.253,4.253,0,0,1,3.854,0l11.847,6.838C637.791,307.216,637.924,308.023,637.286,308.631Z" transform="translate(-603.699 -296.874)" fill="url(#linear-gradient-3)"/>
          <path id="Trazado_195413" data-name="Trazado 195413" d="M637.22,308.36a2.489,2.489,0,0,1-.4.292l-11.766,6.838a4.235,4.235,0,0,1-3.853,0l-11.843-6.838a2.174,2.174,0,0,1-.408-.3,2.3,2.3,0,0,1,.394-.291l11.769-6.838a4.246,4.246,0,0,1,3.854,0l11.847,6.838A1.991,1.991,0,0,1,637.22,308.36Z" transform="translate(-603.634 -296.603)" fill="url(#linear-gradient-4)"/>
        </g>
        <g id="Grupo_138470" data-name="Grupo 138470">
          <path id="Trazado_195414" data-name="Trazado 195414" d="M650.2,299.094v10.585c0,.032-.011.077-.011.109-.011.066-.011.12-.022.175a.037.037,0,0,1-.012.032c0,.034-.021.066-.021.109-.022.055-.032.109-.054.164a.04.04,0,0,1-.011.032c-.012.034-.034.066-.044.1a1.066,1.066,0,0,1-.077.175c-.011.011-.011.022-.022.044s-.032.043-.054.076l-.132.2a.244.244,0,0,0-.032.055.133.133,0,0,0-.055.054c-.065.077-.152.164-.229.252a.318.318,0,0,0-.066.054c0,.012-.022.023-.032.034a2.129,2.129,0,0,0-.164.141,1.512,1.512,0,0,0-.152.121c-.066.043-.13.086-.207.131l-.131.1c-.023.011-.055.022-.077.032L628.881,323.33a7.007,7.007,0,0,1-.775.361,1.725,1.725,0,0,1-.207.077,1.9,1.9,0,0,1-.229.086c-.088.034-.2.044-.284.077a4.976,4.976,0,0,1-.556.131,1.219,1.219,0,0,1-.2.055c-.152.032-.305.044-.458.066-.066.011-.12.011-.175.022-.022,0-.043.011-.066.011-.207.022-.4.032-.611.043h-.556c-.186-.011-.361-.011-.546-.032a1.228,1.228,0,0,1-.2-.022c-.043,0-.087-.011-.131-.011-.066-.011-.143-.011-.207-.022-.175-.034-.361-.055-.535-.1l-.141-.034c-.055-.011-.109-.022-.153-.032-.1-.032-.186-.043-.283-.077a4.128,4.128,0,0,1-.48-.163.63.63,0,0,1-.132-.044c-.022,0-.032-.011-.054-.011a6.354,6.354,0,0,1-.786-.382l-19.861-11.469a2.715,2.715,0,0,1-1.615-2.259V299.062a2.733,2.733,0,0,0,1.625,2.259l19.861,11.468a4.849,4.849,0,0,0,.829.394c.044.022.087.032.132.054.25.087.5.164.763.229.055.011.109.023.153.034a8.418,8.418,0,0,0,.884.152.625.625,0,0,0,.141.011,7.86,7.86,0,0,0,.895.055h.164a8.4,8.4,0,0,0,.916-.055.854.854,0,0,0,.164-.022,6.324,6.324,0,0,0,.666-.109c.184-.043.37-.087.545-.141s.35-.1.513-.153c.077-.032.153-.054.218-.087a5.343,5.343,0,0,0,.764-.361l19.73-11.468c.077-.044.141-.087.207-.132s.141-.087.2-.131.109-.077.152-.12a2.214,2.214,0,0,0,.175-.143l.087-.087c.087-.087.164-.163.24-.25a.871.871,0,0,1,.087-.109l.132-.2c.022-.044.043-.077.065-.121s.055-.109.087-.174a.688.688,0,0,1,.055-.132.918.918,0,0,0,.043-.163.554.554,0,0,0,.033-.143,2.486,2.486,0,0,0,.032-.327Z" transform="translate(-599.648 -284.435)" fill="url(#linear-gradient)"/>
          <path id="Trazado_195415" data-name="Trazado 195415" d="M648.589,299.249c2.149,1.24,2.161,3.247.02,4.491l-19.726,11.465a8.546,8.546,0,0,1-7.755,0l-19.861-11.466c-2.149-1.241-2.161-3.254-.026-4.494l19.728-11.465a8.548,8.548,0,0,1,7.759,0Z" transform="translate(-599.648 -286.851)" fill="url(#linear-gradient-2)"/>
          <path id="Trazado_195416" data-name="Trazado 195416" d="M642.236,301.589a3.242,3.242,0,0,1-.519.378l-15.289,8.886a5.5,5.5,0,0,1-5.008,0l-15.388-8.886a2.846,2.846,0,0,1-.531-.392c-.83-.783-.658-1.827.511-2.5l15.294-8.886a5.524,5.524,0,0,1,5.008-.007l15.4,8.886C642.893,299.749,643.066,300.8,642.236,301.589Z" transform="translate(-598.592 -286.31)" fill="url(#linear-gradient-3)"/>
          <path id="Trazado_195417" data-name="Trazado 195417" d="M642.151,301.237a3.246,3.246,0,0,1-.519.379L626.344,310.5a5.5,5.5,0,0,1-5.008,0l-15.388-8.886a2.851,2.851,0,0,1-.531-.392,2.877,2.877,0,0,1,.511-.379l15.294-8.886a5.524,5.524,0,0,1,5.008,0l15.4,8.886A2.521,2.521,0,0,1,642.151,301.237Z" transform="translate(-598.507 -285.959)" fill="url(#linear-gradient-24)"/>
        </g>
      </g>
    </g>
    <g id="Grupo_138482" data-name="Grupo 138482" transform="translate(1104.401 227.863)">
      <path id="Trazado_195418" data-name="Trazado 195418" d="M445.359,229.2c2.648,1.53,2.667,4.005.036,5.535l-24.3,14.123a10.536,10.536,0,0,1-9.558,0l-24.462-14.123c-2.648-1.53-2.661-4.008-.031-5.537l24.3-14.123a10.529,10.529,0,0,1,9.555,0Z" transform="translate(-385.076 -182.752)" fill="none" stroke="#707070" stroke-linecap="round" stroke-linejoin="round" stroke-width="0.697"/>
      <g id="Grupo_138477" data-name="Grupo 138477" transform="translate(4.738 7.717)">
        <g id="Grupo_138473" data-name="Grupo 138473" transform="translate(0 22.913)">
          <path id="Trazado_195419" data-name="Trazado 195419" d="M441.816,226.426a1.738,1.738,0,0,1-.02.18c-.01.049-.024.1-.037.147a1.7,1.7,0,0,1-.049.17c-.017.047-.038.093-.059.14s-.052.119-.083.177c-.024.043-.052.086-.078.128-.041.067-.085.133-.134.2-.029.038-.06.077-.092.116a3.23,3.23,0,0,1-.242.26c-.032.031-.061.062-.095.093-.055.049-.116.1-.177.145s-.1.085-.159.126-.137.093-.206.139-.14.095-.217.139l-20.6,11.972a6.132,6.132,0,0,1-.8.379c-.073.03-.149.057-.223.085-.174.062-.356.113-.538.164s-.378.1-.574.143c-.229.047-.46.09-.7.12-.057.007-.113.018-.17.024-.319.034-.641.05-.964.053h-.152q-.478,0-.951-.053l-.143-.017a9.235,9.235,0,0,1-.921-.157l-.163-.041a7.571,7.571,0,0,1-.8-.242c-.046-.017-.095-.03-.141-.047a6.426,6.426,0,0,1-.873-.412L390.73,228.585a3.3,3.3,0,0,1-1.587-1.725,2,2,0,0,1-.105-.638l-.006,2.335a2.866,2.866,0,0,0,1.691,2.363l20.735,11.972a6.5,6.5,0,0,0,.826.4l.047.016c.046.017.095.03.141.047.167.061.333.122.508.172.093.026.19.047.286.069l.163.041c.05.011.1.025.148.036.187.038.376.072.568.1.068.01.137.016.2.024l.143.016c.071.007.139.017.21.023.187.016.376.026.564.031.06,0,.119,0,.177,0h.153c.085,0,.171,0,.256,0,.213-.007.425-.022.636-.042l.072-.01.169-.024c.164-.02.329-.04.49-.068.071-.013.137-.037.206-.051.2-.041.386-.09.574-.143.1-.029.207-.044.305-.075.08-.026.155-.061.234-.089s.149-.055.222-.085a6.214,6.214,0,0,0,.8-.378l20.6-11.972.071-.042c.053-.031.1-.066.147-.1.07-.046.141-.09.206-.137s.108-.085.16-.127.12-.1.175-.145c.011-.011.025-.019.036-.03s.037-.043.059-.063a3.284,3.284,0,0,0,.243-.261c.016-.019.037-.037.053-.056s.025-.04.04-.059c.049-.066.092-.132.134-.2.018-.028.041-.055.056-.083s.013-.03.02-.043c.031-.06.057-.119.084-.178.014-.035.035-.069.048-.1,0-.012.006-.024.011-.036.02-.056.034-.113.049-.17.01-.038.025-.077.032-.116a.243.243,0,0,0,0-.031c.012-.06.016-.12.022-.18,0-.038.012-.078.013-.117v-.05l.007-2.335C441.83,226.314,441.821,226.371,441.816,226.426Z" transform="translate(-389.032 -210.95)" fill="url(#linear-gradient-25)"/>
          <path id="Trazado_195420" data-name="Trazado 195420" d="M440.136,226.417c2.245,1.295,2.261,3.395.031,4.691l-20.6,11.972a8.927,8.927,0,0,1-8.1,0l-20.736-11.972c-2.245-1.3-2.255-3.4-.026-4.693l20.6-11.972a8.92,8.92,0,0,1,8.1,0Z" transform="translate(-389.031 -213.471)" fill="url(#linear-gradient-26)"/>
        </g>
        <g id="Grupo_138475" data-name="Grupo 138475" transform="translate(4.595 22.238)">
          <path id="Trazado_195421" data-name="Trazado 195421" d="M436.477,223.465c0,.047-.008.092-.012.139s-.008.1-.017.147-.02.081-.031.122-.024.093-.04.14-.032.077-.049.115-.043.1-.069.149-.042.069-.062.1c-.035.055-.072.111-.113.165-.024.032-.049.064-.075.095a2.59,2.59,0,0,1-.2.216c-.026.026-.05.053-.079.078-.045.041-.1.081-.146.121s-.086.071-.133.105-.113.075-.17.113-.116.079-.181.116l-17.013,9.888a5.076,5.076,0,0,1-.66.313c-.06.025-.122.048-.184.069-.143.053-.293.095-.443.137s-.313.085-.474.117c-.188.04-.379.074-.573.1-.047.006-.093.014-.141.019a7.626,7.626,0,0,1-.8.044h-.126c-.262,0-.525-.017-.785-.043l-.117-.013a7.457,7.457,0,0,1-.761-.131c-.046-.01-.09-.022-.134-.032a6.421,6.421,0,0,1-.656-.2c-.038-.013-.078-.024-.116-.038a5.17,5.17,0,0,1-.72-.34l-17.13-9.889a2.368,2.368,0,0,1-1.4-1.952l-.006,1.928a2.366,2.366,0,0,0,1.4,1.951l17.128,9.889a5.109,5.109,0,0,0,.682.327l.04.013c.037.014.078.025.116.04.137.05.274.1.418.141.078.022.158.038.238.059l.133.032.121.03c.153.031.31.059.468.081l.171.019.117.013c.056,0,.113.013.17.018.155.013.31.022.465.025.05,0,.1,0,.15,0h.127c.069,0,.139,0,.208,0,.175-.006.35-.018.523-.035l.062-.008c.048,0,.095-.014.143-.02.134-.017.268-.031.4-.055.059-.011.113-.031.171-.043.163-.034.319-.074.474-.117.081-.024.17-.037.25-.062s.128-.05.194-.074l.184-.069a5.229,5.229,0,0,0,.66-.314l17.013-9.887.057-.035c.043-.025.08-.054.121-.08.059-.038.119-.075.172-.115s.089-.069.132-.1.1-.08.147-.121l.03-.025c.018-.017.031-.035.048-.052.073-.072.14-.144.2-.217.013-.017.031-.031.044-.047s.02-.032.032-.048c.041-.055.077-.11.111-.167.014-.023.034-.046.047-.069s.01-.023.017-.035a1.62,1.62,0,0,0,.068-.147c.013-.029.03-.057.041-.086l.008-.029a1.477,1.477,0,0,0,.041-.143c.008-.031.02-.062.028-.095l0-.025a1.226,1.226,0,0,0,.017-.148c0-.032.011-.065.012-.1v-.041h0Z" transform="translate(-392.868 -210.824)" fill="url(#linear-gradient-25)"/>
          <path id="Trazado_195422" data-name="Trazado 195422" d="M435.08,223.6c1.854,1.071,1.864,2.8.018,3.874l-17.013,9.888a7.367,7.367,0,0,1-6.686,0l-17.13-9.889c-1.853-1.071-1.863-2.806-.022-3.876l17.013-9.888a7.369,7.369,0,0,1,6.691,0Z" transform="translate(-392.867 -212.908)" fill="url(#linear-gradient-28)"/>
          <path id="Trazado_195423" data-name="Trazado 195423" d="M429.6,225.618a2.853,2.853,0,0,1-.447.327l-13.185,7.663a4.751,4.751,0,0,1-4.319,0l-13.271-7.663a2.4,2.4,0,0,1-.458-.339c-.716-.676-.567-1.575.441-2.158l13.191-7.663a4.759,4.759,0,0,1,4.318-.006l13.277,7.663C430.167,224.031,430.316,224.936,429.6,225.618Z" transform="translate(-391.957 -212.442)" fill="url(#linear-gradient-3)"/>
          <path id="Trazado_195424" data-name="Trazado 195424" d="M429.527,225.315a2.852,2.852,0,0,1-.447.327L415.9,233.305a4.751,4.751,0,0,1-4.319,0L398.3,225.642a2.4,2.4,0,0,1-.458-.339,2.551,2.551,0,0,1,.441-.326l13.191-7.663a4.759,4.759,0,0,1,4.318,0l13.277,7.663A2.207,2.207,0,0,1,429.527,225.315Z" transform="translate(-391.883 -212.138)" fill="url(#linear-gradient-30)"/>
          <g id="Grupo_138474" data-name="Grupo 138474" transform="translate(14.208 7.387)">
            <path id="Trazado_195425" data-name="Trazado 195425" d="M419.906,223c-.007.08-.012.159-.026.238s-.032.131-.049.2-.038.151-.065.226-.052.125-.079.186c-.035.079-.068.158-.11.236-.031.057-.067.113-.1.169-.055.09-.114.177-.178.265-.038.052-.081.1-.123.155a4.272,4.272,0,0,1-.321.345c-.043.042-.081.084-.126.123-.073.066-.153.129-.232.193s-.139.114-.214.168-.18.122-.272.182-.187.126-.289.186a8.022,8.022,0,0,1-.716.363c-.072.032-.145.062-.217.092q-.291.122-.6.225c-.073.025-.145.053-.219.075-.128.041-.259.075-.389.111-.1.028-.2.056-.3.081-.137.032-.277.06-.416.089-.1.019-.193.042-.29.059-.284.05-.573.09-.862.12-.091.01-.182.016-.272.023-.17.014-.341.028-.513.035-.11,0-.219.007-.329.008-.139,0-.278,0-.416,0-.117,0-.234,0-.35-.01s-.256-.012-.383-.02-.236-.018-.353-.03-.252-.026-.377-.042-.228-.031-.341-.048c-.134-.022-.268-.046-.4-.071-.107-.02-.211-.041-.316-.063-.158-.035-.315-.074-.471-.115-.087-.024-.175-.046-.261-.071q-.419-.122-.815-.274c-.037-.016-.072-.032-.109-.047a8.3,8.3,0,0,1-1.028-.493,3.8,3.8,0,0,1-2.243-3.132l0,.933a3.8,3.8,0,0,0,2.243,3.133,8.242,8.242,0,0,0,1.029.493c.023.01.042.022.066.031s.028.01.041.014c.263.1.537.194.816.275.023.006.043.016.066.022.063.018.131.031.2.048.156.042.311.08.471.116.043.008.084.022.127.03.061.013.126.022.188.034.134.025.268.049.4.069.054.008.107.02.162.029s.119.012.177.019c.126.017.252.03.378.043l.183.02c.056,0,.113,0,.17.008.127.01.255.016.382.022.066,0,.131.008.2.01s.1,0,.155,0c.139,0,.278,0,.417,0,.069,0,.138,0,.207,0,.041,0,.081-.006.122-.007.171-.008.343-.02.514-.035.068-.006.139-.007.207-.014l.062-.008q.437-.045.864-.12l.043-.006c.083-.016.164-.036.247-.053.139-.029.279-.056.416-.09.1-.024.2-.053.3-.08.132-.036.262-.071.389-.111l.085-.024c.047-.016.089-.036.134-.052.2-.069.4-.145.6-.225.073-.031.146-.061.217-.093a7.7,7.7,0,0,0,.716-.362l.093-.055c.069-.042.129-.087.2-.131.093-.06.188-.12.274-.182s.141-.111.211-.168.162-.127.235-.193c.014-.013.032-.025.047-.038s.049-.057.078-.085a4.3,4.3,0,0,0,.322-.346c.022-.025.05-.05.071-.075s.032-.052.052-.078c.066-.087.125-.176.18-.265.023-.037.053-.073.074-.111.011-.019.017-.038.028-.058.042-.079.077-.158.11-.237.02-.046.047-.091.065-.137.006-.017.008-.032.013-.048.028-.075.046-.151.066-.228.013-.052.034-.1.043-.153,0-.013,0-.026,0-.041a2.335,2.335,0,0,0,.028-.24c0-.052.017-.1.018-.156v-.066l0-.934C419.925,222.848,419.913,222.923,419.906,223Z" transform="translate(-404.73 -218.352)" fill="url(#linear-gradient-25)"/>
            <path id="Trazado_195426" data-name="Trazado 195426" d="M417.682,220.364c2.974,1.716,2.993,4.5.036,6.223a11.835,11.835,0,0,1-10.743,0c-2.978-1.719-2.993-4.5-.035-6.223A11.833,11.833,0,0,1,417.682,220.364Z" transform="translate(-404.73 -219.075)" fill="url(#linear-gradient-32)"/>
          </g>
        </g>
        <path id="Trazado_195427" data-name="Trazado 195427" d="M419.923,194.342h-15.1v33.372c-.337,1.333.376,2.738,2.155,3.765a11.839,11.839,0,0,0,10.743,0,4.045,4.045,0,0,0,2.163-2.645h.043Z" transform="translate(-385.925 -194.342)" fill="url(#linear-gradient-33)" style="mix-blend-mode: screen;isolation: isolate"/>
        <g id="Grupo_138476" data-name="Grupo 138476" transform="translate(18.814 20.941)">
          <path id="Trazado_195428" data-name="Trazado 195428" d="M407.918,217.176a1.589,1.589,0,1,1-1.589-1.589A1.589,1.589,0,0,1,407.918,217.176Z" transform="translate(-404.739 -211.081)" fill="url(#radial-gradient)" style="mix-blend-mode: screen;isolation: isolate"/>
          <path id="Trazado_195429" data-name="Trazado 195429" d="M411.849,213.416a1.59,1.59,0,1,1-1.589-1.591A1.589,1.589,0,0,1,411.849,213.416Z" transform="translate(-403.962 -211.825)" fill="url(#radial-gradient-2)" style="mix-blend-mode: screen;isolation: isolate"/>
          <path id="Trazado_195430" data-name="Trazado 195430" d="M409.875,219.337a1.59,1.59,0,1,1-1.589-1.589A1.589,1.589,0,0,1,409.875,219.337Z" transform="translate(-404.352 -210.653)" fill="url(#radial-gradient-3)" style="mix-blend-mode: screen;isolation: isolate"/>
          <path id="Trazado_195431" data-name="Trazado 195431" d="M415.423,222.7a1.59,1.59,0,1,1-1.591-1.589A1.59,1.59,0,0,1,415.423,222.7Z" transform="translate(-403.255 -209.989)" fill="url(#radial-gradient-4)" style="mix-blend-mode: screen;isolation: isolate"/>
          <circle id="Elipse_5686" data-name="Elipse 5686" cx="0.775" cy="0.775" r="0.775" transform="translate(12.779 6.096)" fill="url(#radial-gradient-5)" style="mix-blend-mode: screen;isolation: isolate"/>
          <path id="Trazado_195432" data-name="Trazado 195432" d="M410.253,222.565a.775.775,0,1,1-.775-.775A.775.775,0,0,1,410.253,222.565Z" transform="translate(-403.955 -209.854)" fill="url(#radial-gradient-6)" style="mix-blend-mode: screen;isolation: isolate"/>
          <path id="Trazado_195433" data-name="Trazado 195433" d="M412.741,218.146a.774.774,0,1,1-.774-.775A.774.774,0,0,1,412.741,218.146Z" transform="translate(-403.463 -210.728)" fill="url(#radial-gradient-7)" style="mix-blend-mode: screen;isolation: isolate"/>
        </g>
      </g>
      <path id="Trazado_195434" data-name="Trazado 195434" d="M436.464,230.346V200.681a2.282,2.282,0,0,0-1.385-2.089L417.951,188.7a7.369,7.369,0,0,0-6.691,0l-17.013,9.887a2.211,2.211,0,0,0-1.351,2.2V230.21a1.573,1.573,0,0,0,0,.529h0a2.539,2.539,0,0,0,1.373,1.682L411.4,242.31a7.369,7.369,0,0,0,6.687,0l17.013-9.888a2.5,2.5,0,0,0,1.358-1.681h.008v-.1A1.652,1.652,0,0,0,436.464,230.346Z" transform="translate(-383.534 -187.9)" fill="url(#linear-gradient-34)" style="mix-blend-mode: screen;isolation: isolate"/>
      <g id="Grupo_138481" data-name="Grupo 138481" transform="translate(4.738 1.476)">
        <g id="Grupo_138478" data-name="Grupo 138478" transform="translate(0 0.676)">
          <path id="Trazado_195435" data-name="Trazado 195435" d="M441.816,202.65c0,.06-.01.12-.02.18s-.024.1-.037.147-.029.114-.049.17-.038.093-.059.14-.052.119-.083.177c-.024.043-.052.085-.078.128-.041.067-.085.133-.134.2-.029.038-.06.077-.092.115a3.247,3.247,0,0,1-.242.261c-.032.031-.061.062-.095.093-.055.049-.116.1-.177.145s-.1.085-.159.126-.137.092-.206.138-.14.095-.217.14l-20.6,11.971a6.133,6.133,0,0,1-.8.38c-.073.03-.149.057-.223.084-.174.063-.356.114-.538.165s-.378.1-.574.143c-.229.047-.46.09-.7.12-.057.007-.113.017-.17.023a9.543,9.543,0,0,1-.964.054h-.152q-.478,0-.951-.053l-.143-.017a8.906,8.906,0,0,1-.921-.158c-.055-.012-.109-.026-.163-.04a7.571,7.571,0,0,1-.8-.242c-.046-.017-.095-.03-.141-.048a6.283,6.283,0,0,1-.873-.412L390.73,204.809a3.307,3.307,0,0,1-1.587-1.725,2,2,0,0,1-.105-.638l-.006,2.335a2.868,2.868,0,0,0,1.691,2.363l20.735,11.972a6.335,6.335,0,0,0,.826.4c.014.006.031.011.047.016.046.018.095.031.141.048.167.061.333.122.508.171.093.028.19.047.286.071.055.013.108.028.163.04s.1.026.148.037c.187.038.376.072.568.1.068.01.137.014.2.023l.143.017c.071.007.139.017.21.023.187.016.376.025.564.03.06,0,.119,0,.177,0h.153c.085,0,.171,0,.256,0q.32-.011.636-.042c.024,0,.048-.008.072-.011.056-.006.111-.016.169-.023.164-.022.329-.04.49-.068.071-.013.137-.037.206-.052.2-.041.386-.09.574-.144.1-.028.207-.043.305-.075.08-.026.155-.06.234-.089s.149-.054.222-.084a6.219,6.219,0,0,0,.8-.38l20.6-11.971.071-.042c.053-.031.1-.066.147-.1.07-.046.141-.09.206-.138s.108-.084.16-.127.12-.095.175-.144c.011-.011.025-.019.036-.03s.037-.043.059-.063a3.284,3.284,0,0,0,.243-.261c.016-.019.037-.037.053-.056s.025-.04.04-.059c.049-.066.092-.133.134-.2.018-.028.041-.055.056-.084a.471.471,0,0,0,.02-.043c.031-.059.057-.119.084-.178.014-.035.035-.068.048-.1,0-.012.006-.024.011-.036.02-.056.034-.114.049-.17.01-.038.025-.077.032-.116a.243.243,0,0,0,0-.031c.012-.06.016-.12.022-.18,0-.04.012-.078.013-.117v-.05l.007-2.335C441.83,202.538,441.821,202.595,441.816,202.65Z" transform="translate(-389.032 -187.174)" fill="url(#linear-gradient-25)"/>
          <path id="Trazado_195436" data-name="Trazado 195436" d="M440.136,202.639c2.245,1.3,2.261,3.4.031,4.692l-20.6,11.971a8.927,8.927,0,0,1-8.1,0l-20.736-11.971c-2.245-1.3-2.255-3.4-.026-4.693l20.6-11.972a8.92,8.92,0,0,1,8.1,0Z" transform="translate(-389.031 -189.695)" fill="url(#linear-gradient-36)"/>
        </g>
        <g id="Grupo_138480" data-name="Grupo 138480" transform="translate(4.595)">
          <path id="Trazado_195437" data-name="Trazado 195437" d="M436.477,199.689c0,.047-.008.092-.012.139s-.008.1-.017.147-.02.081-.031.121-.024.095-.04.141-.032.077-.049.115-.043.1-.069.147-.042.069-.062.1c-.035.056-.072.111-.113.166-.024.032-.049.064-.075.095a2.8,2.8,0,0,1-.2.216c-.026.026-.05.053-.079.078-.045.041-.1.08-.146.121s-.086.071-.133.1-.113.077-.17.114-.116.079-.181.116L418.085,211.5a5.076,5.076,0,0,1-.66.314c-.06.024-.122.047-.184.069-.143.053-.293.093-.443.137s-.313.084-.474.117c-.188.038-.379.074-.573.1-.047.007-.093.016-.141.02a7.957,7.957,0,0,1-.8.044h-.126c-.262,0-.525-.017-.785-.043l-.117-.013a7.457,7.457,0,0,1-.761-.131c-.046-.01-.09-.022-.134-.032a6.734,6.734,0,0,1-.656-.2c-.038-.014-.078-.025-.116-.04a5.035,5.035,0,0,1-.72-.34l-17.13-9.889a2.366,2.366,0,0,1-1.4-1.951l-.006,1.928a2.366,2.366,0,0,0,1.4,1.951l17.128,9.889a5.109,5.109,0,0,0,.682.327l.04.013c.037.014.078.025.116.04.137.049.274.1.418.14.078.023.158.04.238.059l.133.034c.041.008.08.02.121.029.153.032.31.06.468.081.056.008.115.013.171.019l.117.013c.056.006.113.014.17.019.155.013.31.022.465.025.05,0,.1,0,.15,0h.127c.069,0,.139,0,.208,0,.175-.006.35-.018.523-.035l.062-.008.143-.02c.134-.017.268-.032.4-.055.059-.011.113-.031.171-.043.163-.034.319-.074.474-.119.081-.023.17-.036.25-.062s.128-.049.194-.073l.184-.069a5.229,5.229,0,0,0,.66-.314l17.013-9.887.057-.035c.043-.026.08-.054.121-.08.059-.038.119-.075.172-.115s.089-.069.132-.1.1-.08.147-.122l.03-.024c.018-.017.031-.035.048-.053a2.773,2.773,0,0,0,.2-.216c.013-.017.031-.031.044-.048s.02-.031.032-.047c.041-.055.077-.11.111-.167.014-.024.034-.046.047-.069s.01-.023.017-.035a1.62,1.62,0,0,0,.068-.147c.013-.029.03-.057.041-.086l.008-.029a1.477,1.477,0,0,0,.041-.143c.008-.031.02-.062.028-.095l0-.025a1.226,1.226,0,0,0,.017-.149c0-.032.011-.065.012-.1v-.042h0Z" transform="translate(-392.868 -187.048)" fill="url(#linear-gradient-25)"/>
          <path id="Trazado_195438" data-name="Trazado 195438" d="M435.08,199.824c1.854,1.071,1.864,2.8.018,3.874l-17.013,9.887a7.359,7.359,0,0,1-6.686,0l-17.13-9.889c-1.853-1.07-1.863-2.805-.022-3.876l17.013-9.887a7.369,7.369,0,0,1,6.691,0Z" transform="translate(-392.867 -189.131)" fill="url(#linear-gradient-38)"/>
          <path id="Trazado_195439" data-name="Trazado 195439" d="M429.6,201.842a2.932,2.932,0,0,1-.447.326l-13.185,7.663a4.744,4.744,0,0,1-4.319,0l-13.271-7.663a2.4,2.4,0,0,1-.458-.338c-.716-.676-.567-1.575.441-2.16l13.191-7.663a4.767,4.767,0,0,1,4.318-.006l13.277,7.665C430.167,200.255,430.316,201.16,429.6,201.842Z" transform="translate(-391.957 -188.666)" fill="url(#linear-gradient-3)"/>
          <path id="Trazado_195440" data-name="Trazado 195440" d="M429.527,201.539a2.93,2.93,0,0,1-.447.326L415.9,209.528a4.743,4.743,0,0,1-4.319,0L398.3,201.865a2.4,2.4,0,0,1-.458-.338,2.491,2.491,0,0,1,.441-.326l13.191-7.665a4.767,4.767,0,0,1,4.318,0l13.277,7.665A2.164,2.164,0,0,1,429.527,201.539Z" transform="translate(-391.883 -188.363)" fill="url(#linear-gradient-40)"/>
          <g id="Grupo_138479" data-name="Grupo 138479" transform="translate(14.208 7.387)">
            <path id="Trazado_195441" data-name="Trazado 195441" d="M419.906,199.221c-.007.079-.012.159-.026.238s-.032.129-.049.2-.038.151-.065.226-.052.123-.079.186c-.035.079-.068.158-.11.236-.031.056-.067.113-.1.169-.055.089-.114.177-.178.265-.038.051-.081.1-.123.153a4.288,4.288,0,0,1-.321.346c-.043.041-.081.083-.126.123-.073.066-.153.128-.232.192s-.139.114-.214.169-.18.122-.272.182-.187.126-.289.186c-.228.132-.47.25-.716.363l-.217.092q-.291.122-.6.225c-.073.025-.145.053-.219.075-.128.041-.259.075-.389.111-.1.028-.2.056-.3.08-.137.034-.277.061-.416.09-.1.019-.193.041-.29.059-.284.05-.573.09-.862.12-.091.01-.182.016-.272.023-.17.014-.341.026-.513.035-.11,0-.219.007-.329.008-.139,0-.278,0-.416,0-.117,0-.234-.006-.35-.01s-.256-.012-.383-.02-.236-.019-.353-.03-.252-.026-.377-.042-.228-.031-.341-.049c-.134-.02-.268-.044-.4-.069-.107-.02-.211-.041-.316-.063-.158-.035-.315-.074-.471-.116-.087-.023-.175-.044-.261-.069-.279-.081-.551-.172-.815-.275-.037-.014-.072-.031-.109-.046a8.3,8.3,0,0,1-1.028-.493,3.8,3.8,0,0,1-2.243-3.133l0,.934a3.8,3.8,0,0,0,2.243,3.133,8.239,8.239,0,0,0,1.029.493c.023.008.042.022.066.031l.041.014c.263.1.537.193.816.274.023.007.043.017.066.023.063.018.131.031.2.048.156.041.311.08.471.115.043.01.084.023.127.031.061.013.126.022.188.034.134.025.268.049.4.069.054.008.107.02.162.029s.119.012.177.019c.126.017.252.03.378.043l.183.02.17.008c.127.01.255.016.382.02.066,0,.131.01.2.011s.1,0,.155,0c.139,0,.278,0,.417,0,.069,0,.138,0,.207,0,.041,0,.081-.006.122-.008.171-.007.343-.02.514-.035.068,0,.139-.006.207-.013l.062-.008c.291-.031.579-.071.864-.121l.043,0c.083-.016.164-.037.247-.054.139-.028.279-.055.416-.089.1-.024.2-.054.3-.08.132-.036.262-.072.389-.111.029-.01.057-.016.085-.024.047-.016.089-.036.134-.052.2-.069.4-.145.6-.226.073-.03.146-.06.217-.092a7.7,7.7,0,0,0,.716-.362l.093-.055c.069-.042.129-.087.2-.131.093-.061.188-.12.274-.183s.141-.11.211-.167.162-.127.235-.193c.014-.013.032-.026.047-.04s.049-.056.078-.084a4.309,4.309,0,0,0,.322-.346c.022-.026.05-.05.071-.075s.032-.053.052-.078c.066-.087.125-.176.18-.265.023-.038.053-.074.074-.111.011-.019.017-.038.028-.057.042-.079.077-.158.11-.237.02-.047.047-.091.065-.138.006-.016.008-.031.013-.047.028-.075.046-.152.066-.228.013-.051.034-.1.043-.153,0-.013,0-.028,0-.041a2.374,2.374,0,0,0,.028-.24c0-.053.017-.1.018-.156v-.067l0-.933C419.925,199.073,419.913,199.147,419.906,199.221Z" transform="translate(-404.73 -194.576)" fill="url(#linear-gradient-25)"/>
            <path id="Trazado_195442" data-name="Trazado 195442" d="M417.682,196.588c2.974,1.716,2.993,4.5.036,6.223a11.843,11.843,0,0,1-10.743,0c-2.978-1.719-2.993-4.5-.035-6.223A11.833,11.833,0,0,1,417.682,196.588Z" transform="translate(-404.73 -195.299)" fill="url(#linear-gradient-42)"/>
          </g>
        </g>
      </g>
    </g>
    <g id="Grupo_138491" data-name="Grupo 138491" transform="translate(1064.479 278.101)">
      <path id="Trazado_195443" data-name="Trazado 195443" d="M405.194,251.986c2.348,1.356,2.364,3.551.032,4.906l-21.548,12.523a9.336,9.336,0,0,1-8.474,0l-21.688-12.522c-2.349-1.356-2.361-3.554-.028-4.91l21.547-12.522a9.328,9.328,0,0,1,8.471,0Z" transform="translate(-351.746 -228.139)" fill="none" stroke="#707070" stroke-linecap="round" stroke-linejoin="round" stroke-width="0.697"/>
      <g id="Grupo_138486" data-name="Grupo 138486" transform="translate(4.201 9.224)">
        <g id="Grupo_138483" data-name="Grupo 138483" transform="translate(0 0.599)">
          <path id="Trazado_195444" data-name="Trazado 195444" d="M402.053,249.528c0,.054-.01.107-.019.159a1.224,1.224,0,0,1-.032.131c-.013.05-.025.1-.043.151s-.035.083-.053.125-.046.105-.073.157-.046.075-.069.114c-.036.059-.074.117-.119.176-.025.035-.054.068-.081.1q-.1.117-.216.23c-.028.028-.054.056-.084.083-.048.044-.1.086-.156.129s-.092.075-.141.111-.122.083-.183.122-.125.084-.193.123l-18.264,10.615a5.441,5.441,0,0,1-.709.337c-.065.026-.131.05-.2.074-.153.056-.315.1-.477.146s-.335.091-.509.126c-.2.042-.407.08-.617.107-.05.006-.1.016-.151.022-.281.03-.568.044-.854.047h-.135q-.424,0-.843-.047l-.127-.014a8.208,8.208,0,0,1-.816-.14c-.049-.011-.1-.024-.145-.036a6.779,6.779,0,0,1-.7-.214c-.042-.014-.085-.026-.126-.042a5.6,5.6,0,0,1-.774-.365l-18.384-10.614a2.934,2.934,0,0,1-1.407-1.53,1.748,1.748,0,0,1-.092-.567l-.006,2.071a2.541,2.541,0,0,0,1.5,2.095l18.384,10.614a5.377,5.377,0,0,0,.733.351c.013.006.028.01.041.014.041.016.084.028.126.042.147.054.295.109.45.152.083.024.169.042.254.062.048.012.1.025.145.036s.086.023.131.032c.165.034.334.063.5.087.061.008.122.013.182.02l.127.014c.062.006.123.016.186.02.167.013.333.023.5.026.052,0,.1,0,.157,0h.135c.076,0,.152,0,.228,0,.189-.006.377-.019.563-.037l.065-.01c.05,0,.1-.014.15-.02.145-.018.291-.035.434-.06.063-.012.121-.034.183-.047.175-.035.341-.079.509-.126.089-.025.183-.039.27-.067s.138-.054.207-.079.132-.048.2-.074a5.522,5.522,0,0,0,.709-.337l18.264-10.614.062-.037c.047-.029.087-.059.132-.087.061-.041.125-.08.182-.121s.095-.075.143-.114.107-.084.155-.128l.032-.025c.019-.019.034-.038.053-.058a2.742,2.742,0,0,0,.214-.231c.014-.017.034-.032.047-.05s.023-.035.035-.052c.044-.059.083-.117.12-.177.016-.025.036-.049.05-.074s.011-.025.018-.038c.028-.052.05-.1.073-.158a.9.9,0,0,0,.043-.091.333.333,0,0,0,.01-.032c.018-.05.03-.1.043-.151.01-.034.023-.068.03-.1l0-.028a1.412,1.412,0,0,0,.019-.159c0-.035.011-.069.012-.1v-.044l.006-2.07C402.065,249.43,402.057,249.479,402.053,249.528Z" transform="translate(-355.253 -235.807)" fill="url(#linear-gradient-25)"/>
          <path id="Trazado_195445" data-name="Trazado 195445" d="M400.563,249.519c1.99,1.149,2,3.01.026,4.159l-18.264,10.615a7.92,7.92,0,0,1-7.184,0l-18.385-10.614c-1.99-1.15-2-3.012-.023-4.161L375,238.9a7.91,7.91,0,0,1,7.18,0Z" transform="translate(-355.252 -238.043)" fill="url(#linear-gradient-44)"/>
        </g>
        <g id="Grupo_138485" data-name="Grupo 138485" transform="translate(4.074)">
          <path id="Trazado_195446" data-name="Trazado 195446" d="M397.319,246.9c0,.042-.007.083-.011.123a1.227,1.227,0,0,1-.016.132c-.006.036-.017.071-.026.107s-.022.084-.036.126-.029.067-.043.1-.038.087-.061.131-.037.061-.056.092a1.6,1.6,0,0,1-.1.147c-.02.029-.044.056-.067.084-.054.065-.114.129-.177.192-.024.023-.046.047-.071.068-.041.037-.085.072-.129.108s-.077.062-.117.092-.1.068-.152.1-.1.069-.159.1l-15.085,8.767a4.689,4.689,0,0,1-.585.278c-.054.022-.109.042-.164.061-.127.047-.26.084-.393.121s-.278.075-.42.1c-.168.035-.335.066-.508.087-.042.006-.084.013-.126.018-.232.025-.468.037-.7.04-.037,0-.074,0-.113,0-.232,0-.465-.014-.7-.038l-.1-.011a6.467,6.467,0,0,1-.673-.116c-.041-.008-.079-.019-.119-.029a5.661,5.661,0,0,1-.582-.177c-.035-.012-.069-.022-.1-.035a4.616,4.616,0,0,1-.64-.3L359.9,248.61a2.1,2.1,0,0,1-1.238-1.73l0,1.709a2.1,2.1,0,0,0,1.237,1.731l15.187,8.768a4.544,4.544,0,0,0,.6.29l.035.012c.034.012.068.022.1.035.121.043.243.089.37.125.069.02.141.035.212.052l.119.03c.036.007.069.018.107.025.137.029.274.053.414.073.05.007.1.011.153.017l.1.012.151.017q.2.016.413.022c.043,0,.087,0,.132,0h.113c.061,0,.123,0,.184,0,.156,0,.31-.016.465-.03l.055-.008c.042,0,.084-.012.126-.018.119-.014.238-.028.355-.049.053-.01.1-.028.153-.038.143-.029.281-.065.419-.1.073-.02.151-.032.223-.055s.114-.044.171-.066.11-.04.164-.061a4.693,4.693,0,0,0,.585-.278l15.085-8.765.052-.031c.038-.023.071-.048.107-.072.053-.034.105-.067.153-.1s.078-.061.116-.092.09-.071.131-.108l.026-.022c.017-.014.028-.031.043-.047a2.213,2.213,0,0,0,.178-.192c.012-.014.028-.028.04-.042s.018-.028.028-.042a1.44,1.44,0,0,0,.1-.147c.013-.02.03-.04.042-.061l.014-.031c.023-.043.042-.086.061-.131.011-.025.026-.05.036-.077l.007-.025c.014-.042.025-.084.036-.126s.019-.056.024-.085l0-.022a1.218,1.218,0,0,0,.016-.132c0-.029.01-.057.01-.086v-.037h0Z" transform="translate(-358.654 -235.695)" fill="url(#linear-gradient-25)"/>
          <path id="Trazado_195447" data-name="Trazado 195447" d="M396.08,247.022c1.642.949,1.652,2.484.016,3.434l-15.085,8.767a6.532,6.532,0,0,1-5.929,0L359.9,250.457c-1.643-.947-1.652-2.487-.02-3.435l15.085-8.767a6.532,6.532,0,0,1,5.933,0Z" transform="translate(-358.653 -237.542)" fill="url(#linear-gradient-46)"/>
          <path id="Trazado_195448" data-name="Trazado 195448" d="M391.221,248.812a2.517,2.517,0,0,1-.4.289l-11.69,6.8a4.208,4.208,0,0,1-3.829,0l-11.767-6.8a2.188,2.188,0,0,1-.406-.3c-.635-.6-.5-1.4.392-1.914l11.7-6.8a4.222,4.222,0,0,1,3.829,0l11.771,6.8C391.724,247.4,391.856,248.207,391.221,248.812Z" transform="translate(-357.846 -237.129)" fill="url(#linear-gradient-3)"/>
          <path id="Trazado_195449" data-name="Trazado 195449" d="M391.156,248.543a2.517,2.517,0,0,1-.4.289l-11.69,6.8a4.208,4.208,0,0,1-3.829,0l-11.767-6.8a2.188,2.188,0,0,1-.406-.3,2.232,2.232,0,0,1,.392-.29l11.7-6.794a4.222,4.222,0,0,1,3.829,0l11.771,6.794A1.9,1.9,0,0,1,391.156,248.543Z" transform="translate(-357.781 -236.86)" fill="url(#linear-gradient-30)"/>
          <g id="Grupo_138484" data-name="Grupo 138484" transform="translate(12.597 6.55)">
            <path id="Trazado_195450" data-name="Trazado 195450" d="M382.627,246.488c-.007.071-.012.141-.024.212s-.029.115-.043.172-.035.134-.059.2-.046.109-.069.164-.06.14-.1.21c-.026.05-.059.1-.09.15-.049.079-.1.157-.158.235-.035.046-.072.091-.109.137a3.959,3.959,0,0,1-.285.305c-.037.037-.072.074-.111.11-.065.057-.137.114-.206.17s-.122.1-.189.15-.16.108-.242.161-.165.113-.256.165a6.988,6.988,0,0,1-.635.321c-.063.029-.128.055-.193.083-.171.072-.347.138-.528.2-.065.022-.128.046-.194.066-.114.036-.23.067-.345.1-.09.024-.177.049-.267.072-.122.029-.246.054-.369.078-.086.018-.171.037-.258.053-.252.044-.507.079-.764.107-.08.008-.16.013-.242.02-.151.012-.3.023-.454.03l-.292.008c-.122,0-.246,0-.369,0-.1,0-.206,0-.31-.008s-.226-.011-.339-.018-.208-.017-.313-.026-.224-.024-.335-.037-.2-.028-.3-.043c-.12-.019-.238-.04-.357-.062-.093-.018-.187-.036-.279-.056-.141-.031-.28-.066-.418-.1-.077-.02-.156-.04-.231-.062-.248-.072-.489-.152-.722-.243l-.1-.041a7.443,7.443,0,0,1-.911-.437,3.368,3.368,0,0,1-1.988-2.778l0,.828a3.368,3.368,0,0,0,1.988,2.778,7.29,7.29,0,0,0,.913.437c.02.008.038.02.059.029l.037.012c.234.091.474.171.722.244l.059.019c.056.017.115.028.172.043.138.036.277.071.418.1l.111.028c.055.011.113.019.168.029.119.023.237.044.358.062.048.008.095.018.143.025s.105.011.157.018c.113.014.224.026.337.037.054,0,.108.013.162.018s.1,0,.151.008c.113.007.226.013.34.018.057,0,.115.008.173.01s.091,0,.137,0c.123,0,.246,0,.369,0,.062,0,.123,0,.184,0,.036,0,.072-.006.108-.007.152-.006.3-.018.456-.03.061-.006.122-.006.183-.013.019,0,.037,0,.055-.007.258-.026.514-.062.765-.107l.038,0c.074-.014.146-.032.219-.047.123-.025.247-.05.369-.079.09-.023.177-.048.267-.072.115-.032.231-.064.345-.1.024-.008.05-.014.074-.022.042-.014.079-.031.12-.046q.271-.092.528-.2c.065-.028.129-.054.193-.083a6.68,6.68,0,0,0,.635-.321l.083-.049c.062-.037.115-.077.174-.115.081-.054.166-.107.242-.162s.126-.1.188-.149.143-.113.207-.171c.013-.012.029-.023.042-.035s.044-.05.069-.074a3.771,3.771,0,0,0,.285-.308c.019-.023.044-.043.062-.067s.03-.046.047-.068c.057-.078.109-.156.158-.235.02-.034.048-.066.067-.1.008-.017.014-.035.023-.052.038-.069.068-.14.1-.21.017-.041.041-.081.056-.122.006-.014.007-.028.012-.042.024-.067.041-.134.059-.2.012-.046.03-.091.038-.137,0-.012,0-.024,0-.036a2.1,2.1,0,0,0,.024-.213c0-.046.014-.091.016-.137v-.06l0-.828C382.644,246.356,382.633,246.422,382.627,246.488Z" transform="translate(-369.171 -242.369)" fill="url(#linear-gradient-49)"/>
            <path id="Trazado_195451" data-name="Trazado 195451" d="M380.655,244.154c2.636,1.521,2.654,3.992.031,5.517a10.5,10.5,0,0,1-9.525,0c-2.64-1.525-2.653-3.993-.031-5.517A10.488,10.488,0,0,1,380.655,244.154Z" transform="translate(-369.171 -243.01)" fill="url(#linear-gradient-50)"/>
          </g>
        </g>
      </g>
      <g id="Grupo_138490" data-name="Grupo 138490" transform="translate(4.201)">
        <g id="Grupo_138487" data-name="Grupo 138487" transform="translate(0 0.599)">
          <path id="Trazado_195452" data-name="Trazado 195452" d="M402.053,241.827c0,.053-.01.107-.019.159a1.3,1.3,0,0,1-.032.131c-.013.05-.025.1-.043.151s-.035.083-.053.123-.046.105-.073.158c-.022.037-.046.075-.069.113a1.815,1.815,0,0,1-.119.176c-.025.035-.054.069-.081.1a2.973,2.973,0,0,1-.216.231c-.028.028-.054.055-.084.083-.048.043-.1.086-.156.129s-.092.074-.141.111-.122.081-.183.122-.125.084-.193.123l-18.264,10.614a5.44,5.44,0,0,1-.709.337q-.1.04-.2.075c-.153.055-.315.1-.477.145s-.335.091-.509.127c-.2.042-.407.08-.617.105-.05.007-.1.017-.151.022-.281.03-.568.046-.854.048h-.135q-.424,0-.843-.047l-.127-.014a7.885,7.885,0,0,1-.816-.14l-.145-.035a6.786,6.786,0,0,1-.7-.214c-.042-.016-.085-.026-.126-.043a5.462,5.462,0,0,1-.774-.364l-18.384-10.615a2.934,2.934,0,0,1-1.407-1.53,1.746,1.746,0,0,1-.092-.565l-.006,2.07a2.538,2.538,0,0,0,1.5,2.095l18.384,10.615a5.521,5.521,0,0,0,.733.351c.013,0,.028.008.041.014.041.016.084.026.126.042.147.054.295.108.45.152.083.024.169.041.254.062l.145.035c.044.011.086.023.131.032.165.035.334.064.5.087.061.008.122.013.182.02.043.006.085.01.127.014.062.006.123.016.186.02.167.014.333.023.5.028.052,0,.1,0,.157,0h.135c.076,0,.152,0,.228,0,.189-.007.377-.019.563-.038.022,0,.043-.006.065-.008l.15-.02c.145-.019.291-.035.434-.061.063-.011.121-.032.183-.046.175-.036.341-.079.509-.127.089-.024.183-.038.27-.067s.138-.053.207-.078.132-.049.2-.075a5.517,5.517,0,0,0,.709-.335l18.264-10.615.062-.037c.047-.028.087-.059.132-.087.061-.04.125-.079.182-.121s.095-.075.143-.113.107-.085.155-.128c.011-.01.023-.017.032-.026s.034-.038.053-.056a2.944,2.944,0,0,0,.214-.231c.014-.017.034-.034.047-.05s.023-.035.035-.052c.044-.059.083-.119.12-.177.016-.025.036-.049.05-.074s.011-.025.018-.038c.028-.053.05-.105.073-.158.014-.031.032-.061.043-.092a.314.314,0,0,0,.01-.031c.018-.05.03-.1.043-.151.01-.035.023-.068.03-.1l0-.028a1.446,1.446,0,0,0,.019-.159c0-.035.011-.069.012-.1v-.044l.006-2.07C402.065,241.727,402.057,241.778,402.053,241.827Z" transform="translate(-355.253 -228.105)" fill="url(#linear-gradient-25)"/>
          <path id="Trazado_195453" data-name="Trazado 195453" d="M400.563,241.818c1.99,1.149,2,3.01.026,4.159l-18.264,10.614a7.916,7.916,0,0,1-7.184,0l-18.385-10.615c-1.99-1.149-2-3.012-.023-4.161L375,231.2a7.906,7.906,0,0,1,7.18,0Z" transform="translate(-355.252 -230.341)" fill="url(#linear-gradient-52)"/>
        </g>
        <g id="Grupo_138489" data-name="Grupo 138489" transform="translate(4.074)">
          <path id="Trazado_195454" data-name="Trazado 195454" d="M397.319,239.2c0,.041-.007.081-.011.123a1.2,1.2,0,0,1-.016.131c-.006.036-.017.072-.026.108s-.022.084-.036.125-.029.068-.043.1-.038.087-.061.131-.037.062-.056.093a1.774,1.774,0,0,1-.1.147c-.02.028-.044.055-.067.084-.054.065-.114.128-.177.192-.024.023-.046.046-.071.068-.041.036-.085.072-.129.107s-.077.062-.117.093-.1.067-.152.1-.1.069-.159.1l-15.085,8.765a4.374,4.374,0,0,1-.585.278c-.054.022-.109.042-.164.062-.127.046-.26.083-.393.12s-.278.075-.42.105c-.168.034-.335.066-.508.087-.042,0-.084.013-.126.017a6.89,6.89,0,0,1-.7.04H378q-.349,0-.7-.038l-.1-.012a6.8,6.8,0,0,1-.673-.115l-.119-.029a5.973,5.973,0,0,1-.582-.177c-.035-.012-.069-.022-.1-.035a4.621,4.621,0,0,1-.64-.3L359.9,240.909a2.1,2.1,0,0,1-1.238-1.73l0,1.709a2.1,2.1,0,0,0,1.237,1.73l15.187,8.768a4.4,4.4,0,0,0,.6.29l.035.012c.034.013.068.023.1.035.121.044.243.089.37.126.069.019.141.034.212.052l.119.029c.036.008.069.019.107.026.137.028.274.053.414.072.05.007.1.011.153.017l.1.012c.05.006.1.013.151.017.137.012.274.019.413.023h.244c.061,0,.123,0,.184,0,.156-.006.31-.016.465-.031.018,0,.036-.006.055-.007.042,0,.084-.013.126-.018.119-.016.238-.029.355-.049.053-.01.1-.028.153-.038.143-.03.281-.066.419-.1.073-.02.151-.032.223-.055s.114-.044.171-.066.11-.04.164-.061a4.531,4.531,0,0,0,.585-.279l15.085-8.765.052-.03c.038-.024.071-.048.107-.072.053-.034.105-.067.153-.1s.078-.061.116-.092.09-.071.131-.108l.026-.022c.017-.016.028-.031.043-.047a2.406,2.406,0,0,0,.178-.192c.012-.014.028-.028.04-.042s.018-.029.028-.042a1.759,1.759,0,0,0,.1-.147c.013-.02.03-.041.042-.061l.014-.031c.023-.043.042-.087.061-.132.011-.025.026-.05.036-.075l.007-.025c.014-.042.025-.084.036-.127.007-.028.019-.055.024-.084l0-.023a1.2,1.2,0,0,0,.016-.131c0-.029.01-.057.01-.087v-.036h0Z" transform="translate(-358.654 -227.994)" fill="url(#linear-gradient-25)"/>
          <path id="Trazado_195455" data-name="Trazado 195455" d="M396.08,239.321c1.642.949,1.652,2.483.016,3.434l-15.085,8.765a6.532,6.532,0,0,1-5.929,0L359.9,242.756c-1.643-.949-1.652-2.488-.02-3.436l15.085-8.765a6.536,6.536,0,0,1,5.933,0Z" transform="translate(-358.653 -229.841)" fill="url(#linear-gradient-54)"/>
          <path id="Trazado_195456" data-name="Trazado 195456" d="M391.221,241.11a2.52,2.52,0,0,1-.4.29l-11.69,6.794a4.208,4.208,0,0,1-3.829,0L363.539,241.4a2.245,2.245,0,0,1-.406-.3c-.635-.6-.5-1.4.392-1.915l11.7-6.794a4.219,4.219,0,0,1,3.829-.006l11.771,6.8C391.724,239.7,391.856,240.506,391.221,241.11Z" transform="translate(-357.846 -229.428)" fill="url(#linear-gradient-55)"/>
          <path id="Trazado_195457" data-name="Trazado 195457" d="M391.156,240.841a2.52,2.52,0,0,1-.4.29l-11.69,6.794a4.208,4.208,0,0,1-3.829,0l-11.767-6.794a2.245,2.245,0,0,1-.406-.3,2.174,2.174,0,0,1,.392-.29l11.7-6.8a4.222,4.222,0,0,1,3.829,0l11.771,6.8A1.9,1.9,0,0,1,391.156,240.841Z" transform="translate(-357.781 -229.159)" fill="url(#linear-gradient-56)"/>
          <g id="Grupo_138488" data-name="Grupo 138488" transform="translate(12.597 6.549)">
            <path id="Trazado_195458" data-name="Trazado 195458" d="M382.627,238.786c-.007.071-.012.141-.024.212s-.029.115-.043.172-.035.135-.059.2-.046.11-.069.164a2.209,2.209,0,0,1-.1.21c-.026.05-.059.1-.09.15-.049.079-.1.158-.158.235-.035.047-.072.091-.109.137a3.965,3.965,0,0,1-.285.307c-.037.036-.072.073-.111.109-.065.059-.137.115-.206.17s-.122.1-.189.15-.16.108-.242.162-.165.111-.256.164a6.7,6.7,0,0,1-.635.321c-.063.029-.128.056-.193.083q-.257.108-.528.2c-.065.023-.128.047-.194.067-.114.036-.23.067-.345.1-.09.024-.177.05-.267.072-.122.03-.246.054-.369.079-.086.017-.171.037-.258.051q-.377.067-.764.107c-.08.008-.16.013-.242.02-.151.013-.3.024-.454.03-.1,0-.2.007-.292.008-.122,0-.246,0-.369,0-.1,0-.206,0-.31-.01s-.226-.01-.339-.018-.208-.016-.313-.026-.224-.023-.335-.037-.2-.028-.3-.043c-.12-.018-.238-.04-.357-.061-.093-.018-.187-.037-.279-.057-.141-.03-.28-.066-.418-.1-.077-.02-.156-.04-.231-.062q-.372-.108-.722-.243c-.034-.013-.065-.029-.1-.042a7.106,7.106,0,0,1-.911-.437,3.368,3.368,0,0,1-1.988-2.778l0,.829a3.371,3.371,0,0,0,1.988,2.778,7.464,7.464,0,0,0,.913.437c.02.008.038.019.059.028l.037.012q.35.137.722.244c.019.006.038.014.059.02.056.016.115.026.172.042.138.037.277.072.418.1.037.007.074.019.111.028.055.011.113.018.168.029.119.023.237.043.358.062.048.007.095.018.143.025s.105.011.157.017c.113.014.224.026.337.038.054,0,.108.013.162.018s.1,0,.151.007c.113.008.226.014.34.019.057,0,.115.007.173.008s.091,0,.137,0c.123,0,.246,0,.369,0,.062,0,.123,0,.184,0,.036,0,.072-.006.108-.007.152-.007.3-.018.456-.031.061,0,.122-.006.183-.012.019,0,.037-.006.055-.007.258-.028.514-.062.765-.107l.038-.006c.074-.013.146-.031.219-.047.123-.025.247-.049.369-.079.09-.022.177-.047.267-.072.115-.031.231-.062.345-.1.024-.007.05-.013.074-.022.042-.013.079-.031.12-.046q.271-.092.528-.2c.065-.026.129-.053.193-.081a6.98,6.98,0,0,0,.635-.322l.083-.048c.062-.037.115-.078.174-.116.081-.053.166-.107.242-.162s.126-.1.188-.149.143-.113.207-.171c.013-.011.029-.022.042-.034s.044-.05.069-.075a3.964,3.964,0,0,0,.285-.307c.019-.023.044-.044.062-.067s.03-.046.047-.068c.057-.078.109-.156.158-.236.02-.032.048-.065.067-.1.008-.017.014-.034.023-.052.038-.069.068-.139.1-.21.017-.041.041-.08.056-.122a.431.431,0,0,0,.012-.042c.024-.066.041-.134.059-.2.012-.046.03-.09.038-.135,0-.012,0-.024,0-.037a2.114,2.114,0,0,0,.024-.212c0-.046.014-.092.016-.138v-.059l0-.828C382.644,238.654,382.633,238.72,382.627,238.786Z" transform="translate(-369.171 -234.668)" fill="url(#linear-gradient-57)"/>
            <path id="Trazado_195459" data-name="Trazado 195459" d="M380.655,236.452c2.636,1.522,2.654,3.993.031,5.517a10.5,10.5,0,0,1-9.525,0c-2.64-1.524-2.653-3.992-.031-5.517A10.5,10.5,0,0,1,380.655,236.452Z" transform="translate(-369.171 -235.309)" fill="url(#linear-gradient-58)"/>
          </g>
        </g>
      </g>
    </g>
    <g id="Grupo_138500" data-name="Grupo 138500" transform="translate(1291.17 379.422)">
      <g id="Grupo_138494" data-name="Grupo 138494" transform="translate(0 41.636)">
        <path id="Trazado_195460" data-name="Trazado 195460" d="M614.541,356.864c16.9,9.756,17,25.578.21,35.334s-44.113,9.757-61.011,0-17-25.578-.2-35.341S597.644,347.108,614.541,356.864Z" transform="translate(-541.004 -349.122)" fill="none" stroke="#707070" stroke-linecap="round" stroke-linejoin="round" stroke-width="0.697"/>
        <g id="Grupo_138493" data-name="Grupo 138493" transform="translate(8.958)">
          <path id="Trazado_195461" data-name="Trazado 195461" d="M616.8,366.429c-.01.172-.019.345-.037.517-.014.15-.035.3-.056.449-.024.17-.049.341-.08.511-.028.151-.06.3-.093.45-.038.168-.077.333-.122.5-.041.151-.085.3-.132.45-.052.165-.105.331-.164.5-.053.147-.108.293-.167.44-.068.174-.141.346-.218.517-.065.145-.131.289-.2.432-.084.171-.172.341-.263.511-.075.139-.151.277-.231.414-.117.2-.244.4-.374.6-.079.122-.156.246-.24.368-.151.22-.315.44-.48.659-.073.1-.14.193-.216.287q-.415.523-.886,1.034c-.08.087-.168.174-.252.261q-.37.388-.771.768c-.123.117-.247.234-.374.349-.159.143-.323.285-.489.426s-.314.265-.475.4-.351.278-.529.414-.338.258-.513.385-.38.269-.574.4-.361.248-.547.37-.408.261-.617.39c-.261.163-.52.326-.792.484-.741.431-1.518.829-2.307,1.212q-.311.149-.625.293c-.714.329-1.442.643-2.188.934-.1.038-.194.081-.292.12-.8.3-1.622.58-2.453.841-.576.181-1.167.34-1.756.5-.448.122-.891.252-1.346.362-.62.15-1.254.276-1.885.4-.461.092-.915.2-1.381.279-.192.034-.387.061-.58.093q-1.175.192-2.367.334c-.23.028-.458.057-.688.083-.456.049-.918.077-1.376.115-.767.063-1.534.12-2.306.153-.495.022-.988.032-1.484.041-.623.012-1.247.017-1.871.008-.521-.006-1.042-.023-1.563-.043q-.868-.034-1.734-.092-.791-.056-1.576-.132-.857-.083-1.706-.19-.769-.1-1.53-.217-.911-.142-1.809-.314c-.474-.091-.949-.184-1.418-.287-.715-.157-1.421-.334-2.12-.52-.455-.121-.914-.232-1.361-.365-.242-.072-.48-.148-.719-.224q-1.056-.331-2.078-.709c-.2-.073-.4-.141-.593-.217-.618-.24-1.215-.5-1.811-.769-.293-.131-.6-.25-.886-.387-.861-.408-1.7-.842-2.5-1.308-6.735-3.888-10.1-8.993-10.085-14.09l-.019,6.63c-.014,5.1,3.352,10.2,10.085,14.091.8.465,1.643.9,2.5,1.308.289.136.593.255.886.386.51.226,1.011.461,1.537.668.09.036.184.066.274.1.2.076.4.144.594.217q1.021.377,2.076.709c.24.076.478.152.721.224.163.049.32.1.484.151.286.081.587.138.876.214.7.186,1.405.363,2.121.52.192.042.375.1.568.139.279.059.568.095.849.148.6.114,1.2.22,1.81.315.244.037.483.091.728.126.264.037.533.055.8.09.568.072,1.135.135,1.708.19.272.026.54.068.814.091.253.022.508.023.761.041.579.041,1.155.069,1.734.093.291.011.58.038.87.046.231.006.462-.006.693,0,.625.008,1.249,0,1.875-.01.31,0,.622.007.931,0,.183-.006.364-.029.547-.037.775-.034,1.544-.09,2.313-.153.309-.026.622-.031.928-.062.149-.014.293-.036.441-.053.232-.025.462-.055.694-.083q1.189-.142,2.362-.334c.194-.031.388-.059.582-.092.092-.017.187-.029.279-.044.373-.068.732-.162,1.1-.236.632-.128,1.265-.253,1.885-.4.455-.11.9-.24,1.346-.362.591-.16,1.18-.32,1.756-.5.125-.038.255-.067.378-.108.7-.228,1.394-.473,2.075-.733.1-.037.194-.08.292-.119.747-.292,1.474-.6,2.188-.934.211-.1.418-.194.625-.295.791-.382,1.566-.781,2.307-1.211.14-.081.279-.164.417-.247s.247-.158.373-.236c.21-.13.419-.261.622-.394.184-.121.364-.244.544-.368.2-.134.389-.269.577-.406q.259-.189.508-.381c.181-.139.359-.277.533-.417s.317-.262.473-.394.331-.284.49-.428c.066-.06.138-.117.2-.177s.113-.114.171-.17c.269-.254.526-.51.774-.77.083-.086.169-.171.249-.259q.471-.512.886-1.035l.037-.043c.063-.079.115-.161.176-.241.168-.22.332-.441.484-.662.083-.122.159-.244.238-.367.129-.2.256-.4.374-.606.032-.055.071-.109.1-.164.047-.083.084-.167.129-.249.091-.17.181-.34.263-.511.071-.144.138-.289.2-.432.078-.172.15-.345.219-.519.03-.077.068-.153.1-.23s.044-.139.068-.208q.088-.248.165-.5c.046-.15.091-.3.131-.449.045-.166.085-.333.122-.5.02-.089.047-.177.065-.267.013-.061.018-.122.029-.182.031-.171.057-.341.081-.513.02-.15.041-.3.056-.448.017-.173.028-.345.036-.517.006-.1.019-.2.022-.3s0-.2,0-.3l.019-6.63C616.822,366.03,616.806,366.229,616.8,366.429Z" transform="translate(-548.483 -345.941)" fill="url(#linear-gradient-25)"/>
          <path id="Trazado_195462" data-name="Trazado 195462" d="M606.732,354.988c13.382,7.726,13.461,20.255.166,27.98s-34.933,7.727-48.314,0-13.461-20.256-.158-27.985S593.352,347.262,606.732,354.988Z" transform="translate(-548.48 -349.192)" fill="url(#linear-gradient-60)"/>
          <path id="Trazado_195463" data-name="Trazado 195463" d="M609.166,363.506c-.025.29-.046.581-.1.871-.043.237-.115.472-.177.708-.072.276-.139.551-.237.825-.08.226-.187.449-.284.673-.125.289-.25.577-.4.861a12.184,12.184,0,0,1-.706,1.169c-.043.062-.091.123-.135.186a14.168,14.168,0,0,1-.907,1.133c-.062.072-.12.144-.184.214-.356.389-.749.769-1.163,1.144-.265.238-.559.468-.848.7-.255.2-.5.412-.774.612-.313.226-.658.443-.994.662s-.677.458-1.05.676c-.6.349-1.228.67-1.866.98-.168.081-.338.161-.507.238-.578.267-1.169.521-1.774.757-.079.031-.154.066-.234.1-.648.247-1.314.47-1.988.682-.467.147-.945.277-1.424.407-.362.1-.718.2-1.085.292-.5.122-1.019.223-1.534.327-.346.071-.689.15-1.039.211-1.035.183-2.087.327-3.145.438-.326.035-.655.055-.983.083-.62.051-1.242.1-1.866.125-.4.017-.8.025-1.2.032-.505.01-1.011.014-1.518.007-.42,0-.842-.018-1.262-.035q-.7-.027-1.4-.075-.641-.043-1.277-.107-.694-.067-1.382-.155-.62-.079-1.235-.174c-.492-.077-.981-.163-1.467-.255-.383-.073-.767-.15-1.145-.232-.581-.127-1.151-.271-1.719-.422-.368-.1-.738-.188-1.1-.295-.2-.059-.391-.121-.586-.182q-.852-.268-1.678-.574c-.16-.059-.323-.115-.483-.176-.5-.194-.983-.408-1.466-.623-.238-.105-.484-.2-.717-.313-.7-.331-1.378-.683-2.029-1.059-5.455-3.149-8.179-7.281-8.167-11.408l0,1.073c-.012,4.126,2.712,8.259,8.165,11.408.653.376,1.332.728,2.029,1.059.235.111.482.207.72.314.412.183.818.374,1.243.541.072.029.147.053.22.08.159.062.322.117.484.177q.825.3,1.677.573c.2.061.389.123.587.182.131.04.259.084.391.122.231.066.474.111.708.172.568.151,1.138.295,1.719.422.154.035.3.08.459.113.225.047.459.077.686.12.487.092.975.178,1.467.255.2.03.389.074.588.1.214.031.432.046.647.073q.69.086,1.382.155c.22.02.438.055.659.073.2.017.413.019.618.034q.7.048,1.4.074c.235.01.467.032.7.038.187,0,.374-.006.56,0,.508.007,1.013,0,1.52-.006.251,0,.5,0,.751,0,.15-.006.3-.024.446-.03.625-.028,1.247-.073,1.87-.125.249-.02.5-.025.752-.05.077-.007.152-.024.229-.032q1.59-.165,3.147-.437c.049-.01.1-.013.152-.022.3-.054.589-.129.886-.189.514-.1,1.029-.206,1.534-.328.367-.089.724-.194,1.085-.292.478-.131.957-.26,1.424-.407.1-.031.206-.054.305-.086q.855-.279,1.682-.6c.08-.03.156-.065.235-.095.6-.237,1.194-.491,1.773-.757.17-.079.339-.158.507-.24.64-.309,1.267-.631,1.867-.98.114-.066.225-.133.337-.2.254-.152.471-.317.713-.474.338-.22.682-.437,1-.664.273-.2.517-.406.771-.611.29-.232.584-.462.849-.7.054-.048.119-.093.171-.141.355-.328.683-.662.993-1,.065-.071.121-.144.183-.214.183-.208.371-.416.538-.628.132-.168.249-.338.37-.507.044-.062.092-.122.134-.184.219-.317.425-.637.609-.961.038-.068.06-.14.1-.208.153-.285.278-.574.4-.862.072-.168.171-.332.234-.5.022-.056.03-.115.05-.171.1-.274.164-.551.237-.828.049-.186.122-.37.159-.557.011-.05.008-.1.018-.15.053-.29.073-.58.1-.871.017-.189.059-.377.065-.567,0-.08,0-.162,0-.242l0-1.074C609.234,362.967,609.191,363.236,609.166,363.506Z" transform="translate(-547.408 -346.553)" fill="url(#linear-gradient-25)"/>
          <path id="Trazado_195464" data-name="Trazado 195464" d="M601.067,353.919c10.839,6.257,10.9,16.4.135,22.653s-28.276,6.257-39.114,0-10.9-16.4-.128-22.657S590.229,347.662,601.067,353.919Z" transform="translate(-547.407 -349.185)" fill="url(#linear-gradient-62)"/>
          <g id="Grupo_138492" data-name="Grupo 138492" transform="translate(13.024 2.31)">
            <path id="Trazado_195465" data-name="Trazado 195465" d="M601.542,364.623c-.455,2.708-2.472,5.335-6.034,7.41-8.24,4.783-21.619,4.783-29.908,0-3.619-2.09-5.669-4.75-6.14-7.475-.6-3.513,1.406-7.157,6.043-9.849,8.231-4.783,21.619-4.783,29.9,0C600.1,357.417,602.145,361.084,601.542,364.623Z" transform="translate(-559.356 -351.12)" fill="url(#linear-gradient-63)"/>
            <path id="Trazado_195466" data-name="Trazado 195466" d="M601.525,364.22c-.455,2.708-2.472,5.335-6.034,7.41-8.24,4.783-21.619,4.783-29.908,0-3.619-2.09-5.669-4.75-6.14-7.475.455-2.708,2.472-5.335,6.043-7.41,8.231-4.782,21.619-4.782,29.9,0C599,358.834,601.054,361.495,601.525,364.22Z" transform="translate(-559.339 -350.717)" fill="url(#linear-gradient-64)"/>
          </g>
        </g>
      </g>
      <g id="Grupo_138499" data-name="Grupo 138499" transform="translate(28.691 26.347)">
        <g id="Grupo_138495" data-name="Grupo 138495" transform="translate(0 10.475)">
          <path id="Trazado_195467" data-name="Trazado 195467" d="M564.957,361.273l4.782,2.761-.015-13.793-4.767-2.77Z" transform="translate(-564.957 -344.719)" fill="url(#linear-gradient-65)"/>
          <path id="Trazado_195468" data-name="Trazado 195468" d="M568.937,350.241l4.8-2.77v13.811l-4.782,2.752Z" transform="translate(-564.17 -344.719)" fill="url(#linear-gradient-66)"/>
          <path id="Trazado_195469" data-name="Trazado 195469" d="M564.957,347.926l4.767-2.752,4.8,2.752-4.8,2.77Z" transform="translate(-564.957 -345.174)" fill="url(#linear-gradient-67)"/>
        </g>
        <g id="Grupo_138496" data-name="Grupo 138496" transform="translate(5.949 9.807)">
          <path id="Trazado_195470" data-name="Trazado 195470" d="M569.924,364.812l4.783,2.761-.016-17.89-4.767-2.77Z" transform="translate(-569.924 -344.161)" fill="url(#linear-gradient-68)"/>
          <path id="Trazado_195471" data-name="Trazado 195471" d="M573.9,349.684l4.8-2.77v17.908l-4.782,2.752Z" transform="translate(-569.136 -344.161)" fill="url(#linear-gradient-69)"/>
          <path id="Trazado_195472" data-name="Trazado 195472" d="M569.924,347.368l4.767-2.752,4.8,2.752-4.8,2.77Z" transform="translate(-569.924 -344.616)" fill="url(#linear-gradient-70)"/>
        </g>
        <g id="Grupo_138497" data-name="Grupo 138497" transform="translate(11.898)">
          <path id="Trazado_195473" data-name="Trazado 195473" d="M574.89,369.861l4.782,2.761-.016-31.126-4.767-2.77Z" transform="translate(-574.89 -335.974)" fill="url(#linear-gradient-71)"/>
          <path id="Trazado_195474" data-name="Trazado 195474" d="M578.87,341.5l4.8-2.77V369.87l-4.783,2.752Z" transform="translate(-574.103 -335.974)" fill="url(#linear-gradient-72)"/>
          <path id="Trazado_195475" data-name="Trazado 195475" d="M574.89,339.18l4.767-2.752,4.8,2.752-4.8,2.77Z" transform="translate(-574.89 -336.428)" fill="url(#linear-gradient-67)"/>
        </g>
        <g id="Grupo_138498" data-name="Grupo 138498" transform="translate(17.847 4.953)">
          <path id="Trazado_195476" data-name="Trazado 195476" d="M579.857,372.472l4.782,2.761-.016-29.6-4.767-2.77Z" transform="translate(-579.857 -340.109)" fill="url(#linear-gradient-74)"/>
          <path id="Trazado_195477" data-name="Trazado 195477" d="M583.837,345.631l4.8-2.77v29.621l-4.782,2.751Z" transform="translate(-579.07 -340.109)" fill="url(#linear-gradient-75)"/>
          <path id="Trazado_195478" data-name="Trazado 195478" d="M579.857,343.315l4.767-2.752,4.8,2.752-4.8,2.77Z" transform="translate(-579.857 -340.563)" fill="url(#linear-gradient-76)"/>
        </g>
      </g>
      <path id="Trazado_195479" data-name="Trazado 195479" d="M601.542,327.932c.6-3.538-1.447-7.206-6.14-9.914-8.28-4.783-21.668-4.783-29.9,0-4.116,2.39-6.149,5.529-6.136,8.662h-.011v43.946h.011a7.19,7.19,0,0,0,.093,1.187c.471,2.725,2.521,5.385,6.14,7.475,8.289,4.783,21.668,4.783,29.908,0,3.562-2.075,5.579-4.7,6.034-7.41a7.112,7.112,0,0,0,0-2.248Z" transform="translate(-537.374 -314.431)" fill="url(#linear-gradient-77)" style="mix-blend-mode: screen;isolation: isolate"/>
    </g>
    <g id="Grupo_138504" data-name="Grupo 138504" transform="translate(976.333 331.901)">
      <g id="Grupo_138503" data-name="Grupo 138503" transform="translate(0 14.078)">
        <path id="Trazado_195480" data-name="Trazado 195480" d="M327.652,291.676c11.373,6.566,11.44,17.216.14,23.782s-29.692,6.566-41.065,0-11.441-17.216-.134-23.787S316.278,285.108,327.652,291.676Z" transform="translate(-278.155 -286.464)" fill="none" stroke="#707070" stroke-linecap="round" stroke-linejoin="round" stroke-width="0.697"/>
        <g id="Grupo_138502" data-name="Grupo 138502" transform="translate(6.03)">
          <path id="Trazado_195481" data-name="Trazado 195481" d="M329.17,298.113c-.007.116-.014.232-.025.349-.011.1-.024.2-.038.3s-.034.23-.054.345-.041.2-.064.3-.051.224-.081.337-.057.2-.089.3-.072.223-.111.333-.072.2-.111.3c-.047.117-.095.234-.147.349-.043.1-.087.2-.135.291-.056.116-.116.23-.177.345-.05.093-.1.186-.156.278-.079.137-.164.272-.252.407-.053.083-.1.165-.16.248-.1.149-.212.3-.323.443-.049.065-.095.129-.146.194q-.279.352-.6.695c-.055.06-.114.117-.17.177-.165.174-.339.346-.519.516-.084.078-.167.157-.253.234-.107.1-.217.193-.328.287s-.211.178-.32.267-.236.186-.357.278-.228.174-.344.259-.256.182-.387.272-.243.167-.369.249-.274.176-.416.264c-.175.109-.349.219-.533.326-.5.29-1.02.557-1.552.814-.139.068-.279.133-.42.2-.48.222-.97.432-1.473.629-.066.025-.129.055-.2.08-.538.2-1.091.389-1.651.565-.388.122-.786.23-1.182.338-.3.083-.6.17-.907.244-.417.1-.843.184-1.268.271-.31.063-.616.134-.93.189l-.391.062q-.79.129-1.593.225c-.155.018-.308.038-.464.055-.307.032-.617.052-.926.077-.515.043-1.032.081-1.552.1-.332.014-.665.022-1,.028-.42.007-.84.011-1.26.006-.351,0-.7-.016-1.052-.03-.389-.016-.779-.035-1.168-.062q-.532-.036-1.061-.089c-.383-.037-.767-.079-1.147-.128-.345-.044-.688-.092-1.03-.146-.408-.063-.813-.134-1.217-.211-.32-.061-.638-.125-.953-.193-.483-.107-.957-.225-1.428-.351-.307-.08-.616-.156-.916-.246-.163-.048-.322-.1-.484-.15q-.71-.225-1.4-.478c-.132-.049-.267-.1-.4-.146-.416-.161-.817-.34-1.218-.519-.2-.087-.4-.167-.6-.259-.58-.275-1.144-.568-1.686-.88-4.532-2.617-6.8-6.054-6.788-9.484l-.013,4.462c-.01,3.432,2.255,6.868,6.788,9.485.543.313,1.107.6,1.686.879.194.092.4.172.6.26.343.152.68.311,1.035.45.06.024.123.044.184.068.132.05.267.1.4.146q.686.253,1.4.477c.162.05.322.1.485.151.109.032.216.069.326.1.193.054.4.092.589.144.472.125.945.244,1.428.35.129.029.253.067.382.093.188.04.382.064.571.1.4.078.81.149,1.219.212.164.026.325.062.489.085s.359.038.539.061q.571.072,1.149.128c.183.018.364.046.549.061s.341.016.513.028q.582.04,1.167.062c.2.007.391.026.586.031.156,0,.311,0,.467,0,.42.006.84,0,1.261,0,.208,0,.418,0,.626,0,.123,0,.246-.019.369-.024.521-.023,1.038-.061,1.556-.1.208-.017.418-.022.625-.042.1-.01.2-.024.3-.035.156-.017.31-.037.466-.056q.8-.1,1.589-.225c.131-.02.262-.04.393-.062.062-.011.125-.018.187-.03.252-.046.493-.108.741-.158.425-.086.852-.17,1.27-.272.307-.074.6-.162.906-.243.4-.109.794-.216,1.182-.338.084-.026.171-.046.255-.073.473-.153.938-.319,1.4-.492.067-.026.131-.055.2-.081.5-.2.992-.406,1.472-.628l.422-.2c.532-.258,1.053-.525,1.552-.816q.142-.081.28-.165c.086-.052.167-.107.252-.159.14-.087.281-.175.418-.265s.246-.164.365-.248.262-.181.389-.273.229-.17.341-.256.242-.186.359-.28.213-.177.319-.266.222-.19.329-.287c.044-.04.092-.079.137-.119s.075-.077.115-.115q.271-.257.52-.517c.056-.059.115-.116.169-.176.211-.229.411-.461.6-.7l.025-.029c.042-.054.078-.109.119-.163.113-.147.223-.3.325-.446.056-.081.108-.164.161-.247.087-.135.172-.271.253-.407.022-.037.047-.073.068-.11.031-.056.056-.113.086-.168.062-.115.122-.23.178-.345.047-.1.092-.194.135-.291q.077-.174.147-.349c.02-.052.046-.1.065-.155s.03-.095.047-.14c.04-.111.075-.224.11-.335s.061-.2.089-.3.056-.224.081-.337c.014-.061.032-.12.044-.181.008-.041.012-.081.019-.122.022-.115.038-.23.054-.345s.029-.2.038-.3c.012-.116.019-.232.025-.349,0-.067.012-.134.014-.2s0-.135,0-.2l.012-4.463C329.186,297.845,329.177,297.979,329.17,298.113Z" transform="translate(-283.189 -284.323)" fill="url(#linear-gradient-25)"/>
          <path id="Trazado_195482" data-name="Trazado 195482" d="M322.4,290.412c9.007,5.2,9.06,13.633.111,18.834s-23.513,5.2-32.519,0-9.06-13.633-.107-18.836S313.389,285.213,322.4,290.412Z" transform="translate(-283.187 -286.511)" fill="url(#linear-gradient-60)"/>
          <path id="Trazado_195483" data-name="Trazado 195483" d="M324.033,296.145c-.017.2-.031.392-.066.586-.03.161-.078.319-.12.477-.049.186-.095.371-.159.556-.054.152-.126.3-.192.454-.084.194-.169.388-.272.58a8.3,8.3,0,0,1-.474.786c-.029.042-.061.084-.091.126-.186.258-.389.513-.611.763-.042.048-.08.1-.123.144-.24.262-.5.517-.783.77-.178.16-.377.315-.571.471-.171.138-.337.278-.521.411-.21.153-.442.3-.668.447s-.455.308-.707.454c-.4.235-.826.452-1.257.66-.113.055-.228.108-.341.16-.389.18-.786.351-1.193.51-.054.02-.1.043-.158.064-.436.167-.884.316-1.338.459-.314.1-.637.187-.958.274-.243.066-.484.137-.731.2-.34.083-.686.151-1.033.22-.234.048-.464.1-.7.143q-1.046.185-2.118.295c-.219.023-.441.037-.661.055-.418.035-.836.066-1.257.084-.269.012-.538.018-.807.023-.34.006-.682.008-1.022,0-.284,0-.567-.013-.85-.024q-.473-.018-.945-.05-.429-.031-.859-.072-.467-.045-.931-.1-.417-.052-.831-.117-.5-.077-.987-.171c-.259-.049-.516-.1-.771-.157-.391-.085-.775-.182-1.157-.283-.247-.066-.5-.127-.739-.2-.133-.04-.263-.081-.394-.123q-.575-.18-1.13-.386c-.109-.04-.218-.077-.326-.119-.337-.131-.661-.274-.987-.419-.159-.071-.326-.135-.483-.21-.47-.224-.926-.46-1.365-.714-3.671-2.119-5.505-4.9-5.5-7.678l0,.722c-.007,2.778,1.825,5.559,5.5,7.679.44.253.9.49,1.365.713.158.074.325.139.485.211.277.123.55.252.836.364.049.019.1.036.149.054.108.042.218.079.326.12q.555.2,1.13.386c.131.041.261.083.394.122.089.026.175.056.264.081.156.044.319.075.477.117.382.1.765.2,1.157.284.1.023.2.054.308.076.152.031.309.051.462.08q.49.093.988.171c.132.022.261.05.4.069s.291.03.436.048c.309.04.618.074.929.1.149.014.295.037.443.05s.278.012.417.022q.471.032.945.05c.157.007.314.022.472.025.126,0,.252,0,.377,0,.341,0,.682,0,1.023,0,.169,0,.338,0,.505,0,.1,0,.2-.016.3-.02.422-.018.84-.049,1.259-.084.168-.013.339-.017.507-.034.051,0,.1-.016.155-.022q1.069-.111,2.116-.295c.034-.006.069-.008.1-.014.2-.036.4-.086.6-.127.346-.071.692-.139,1.033-.222.247-.06.487-.131.731-.2.322-.087.644-.175.958-.273.068-.022.139-.037.206-.059q.577-.187,1.132-.4c.054-.02.105-.043.158-.063.407-.159.8-.331,1.193-.509.115-.054.229-.107.341-.162.43-.208.853-.425,1.256-.659l.228-.135c.17-.1.316-.213.479-.32.226-.147.459-.293.67-.447.183-.133.349-.273.52-.41.194-.157.393-.311.571-.472.036-.032.08-.063.115-.1.24-.22.46-.446.668-.674.043-.047.081-.1.123-.144.123-.14.25-.279.362-.422.089-.113.168-.228.249-.343.03-.041.062-.081.091-.123.147-.213.286-.429.408-.647.026-.046.042-.093.067-.14.1-.192.187-.386.271-.58.049-.114.116-.224.158-.338.014-.038.02-.077.034-.115.066-.184.111-.371.159-.557.034-.126.083-.249.108-.375.007-.034.006-.067.012-.1.036-.2.049-.391.067-.587.011-.127.04-.254.043-.381,0-.054,0-.109,0-.163l0-.722C324.08,295.782,324.05,295.964,324.033,296.145Z" transform="translate(-282.465 -284.735)" fill="url(#linear-gradient-25)"/>
          <path id="Trazado_195484" data-name="Trazado 195484" d="M318.583,289.693c7.295,4.213,7.333,11.039.091,15.247s-19.033,4.213-26.327,0-7.334-11.038-.086-15.249S311.287,285.481,318.583,289.693Z" transform="translate(-282.465 -286.506)" fill="url(#linear-gradient-62)"/>
          <g id="Grupo_138501" data-name="Grupo 138501" transform="translate(8.766 1.555)">
            <path id="Trazado_195485" data-name="Trazado 195485" d="M318.9,296.9c-.307,1.823-1.665,3.592-4.063,4.988-5.545,3.22-14.551,3.22-20.129,0-2.436-1.406-3.816-3.2-4.134-5.031-.4-2.366.947-4.817,4.068-6.63,5.54-3.22,14.551-3.22,20.124,0C317.928,292.047,319.308,294.515,318.9,296.9Z" transform="translate(-290.508 -287.809)" fill="url(#linear-gradient-63)"/>
            <path id="Trazado_195486" data-name="Trazado 195486" d="M318.891,296.625c-.307,1.823-1.665,3.592-4.063,4.988-5.545,3.22-14.551,3.22-20.129,0-2.436-1.406-3.816-3.2-4.134-5.031.307-1.823,1.664-3.591,4.068-4.988,5.54-3.218,14.551-3.218,20.124,0C317.194,293,318.574,294.791,318.891,296.625Z" transform="translate(-290.496 -287.538)" fill="url(#linear-gradient-83)"/>
          </g>
        </g>
      </g>
      <path id="Trazado_195487" data-name="Trazado 195487" d="M318.9,283.846c.4-2.381-.975-4.85-4.134-6.674-5.573-3.218-14.584-3.218-20.124,0-2.771,1.609-4.14,3.723-4.13,5.831h-.008v15.632h.008a4.857,4.857,0,0,0,.062.8c.317,1.834,1.7,3.625,4.134,5.031,5.578,3.22,14.584,3.22,20.129,0,2.4-1.4,3.756-3.165,4.063-4.988a4.854,4.854,0,0,0,0-1.513Z" transform="translate(-275.712 -274.758)" fill="url(#linear-gradient-77)" style="mix-blend-mode: screen;isolation: isolate"/>
    </g>
  </g>
</svg>
