<svg id="Grupo_138523" data-name="Grupo 138523" xmlns="http://www.w3.org/2000/svg" xmlns:xlink="http://www.w3.org/1999/xlink" width="109.113" height="88.583" viewBox="0 0 109.113 88.583">
  <defs>
    <linearGradient id="linear-gradient" x1="0.061" y1="0.422" x2="1.377" y2="0.658" gradientUnits="objectBoundingBox">
      <stop offset="0" stop-color="#eefeff"/>
      <stop offset="1" stop-color="#525263"/>
    </linearGradient>
    <linearGradient id="linear-gradient-2" x1="0.211" y1="-0.099" x2="0.803" y2="1.278" xlink:href="#linear-gradient"/>
    <linearGradient id="linear-gradient-3" x1="0.296" y1="-0.297" x2="0.705" y2="1.126" xlink:href="#linear-gradient"/>
    <linearGradient id="linear-gradient-4" x1="0.11" y1="0.074" x2="0.849" y2="0.81" gradientUnits="objectBoundingBox">
      <stop offset="0" stop-color="#525563"/>
      <stop offset="1" stop-color="#072380"/>
    </linearGradient>
    <linearGradient id="linear-gradient-5" x1="0.547" y1="1.129" x2="0.456" y2="-0.087" gradientUnits="objectBoundingBox">
      <stop offset="0" stop-color="#faf9ff"/>
      <stop offset="1" stop-color="#072380"/>
    </linearGradient>
    <linearGradient id="linear-gradient-6" x1="0.597" y1="1.055" x2="-0.021" y2="-2.494" xlink:href="#linear-gradient-4"/>
    <linearGradient id="linear-gradient-7" x1="0.685" y1="1.563" x2="0.066" y2="-1.987" xlink:href="#linear-gradient-4"/>
    <linearGradient id="linear-gradient-8" x1="0.774" y1="2.07" x2="0.155" y2="-1.479" xlink:href="#linear-gradient-4"/>
    <linearGradient id="linear-gradient-9" x1="0.862" y1="2.576" x2="0.243" y2="-0.972" xlink:href="#linear-gradient-4"/>
    <linearGradient id="linear-gradient-10" x1="0.951" y1="3.084" x2="0.332" y2="-0.465" xlink:href="#linear-gradient-4"/>
    <linearGradient id="linear-gradient-11" x1="1.039" y1="3.592" x2="0.42" y2="0.042" xlink:href="#linear-gradient-4"/>
  </defs>
  <path id="Trazado_195571" data-name="Trazado 195571" d="M488.514,231.161a1.714,1.714,0,0,1,.35-.075l.031,0a1.32,1.32,0,0,1,.34.018l.018,0a1.047,1.047,0,0,1,.3.115l-4.892-2.842-.011-.006a.9.9,0,0,0-.108-.053.975.975,0,0,0-.113-.04c-.024-.007-.049-.012-.073-.017l-.018,0-.028-.006c-.042-.007-.085-.012-.128-.016s-.093,0-.141,0l-.043,0-.031,0c-.028,0-.055,0-.084.008-.061.01-.123.023-.188.04-.025.007-.053.019-.078.028l-.076.026c-.034.012-.066.02-.1.034a2.676,2.676,0,0,0-.3.15L426.912,261l4.892,2.842,56.237-32.468a2.426,2.426,0,0,1,.4-.183Z" transform="translate(-381.07 -228.234)" fill="url(#linear-gradient)"/>
  <path id="Trazado_195572" data-name="Trazado 195572" d="M429.367,271.8c-.013-4.522-1.616-7.707-4.2-9.206l-4.892-2.842c2.581,1.5,4.184,4.685,4.2,9.2,0,.521-.024,1.05-.063,1.583-.013.169-.034.338-.05.508q-.05.512-.125,1.028c-.054.38-.123.761-.2,1.143-.05.261-.095.522-.153.786-.055.244-.119.49-.181.735-.086.341-.174.683-.273,1.024-.058.2-.12.4-.181.593q-.182.575-.386,1.149c-.056.158-.111.317-.171.476-.2.528-.407,1.055-.635,1.577-.028.061-.057.122-.085.183-.206.467-.425.93-.653,1.388-.073.145-.146.29-.22.435q-.334.65-.7,1.288c-.048.084-.093.171-.141.255q-.435.747-.906,1.473c-.091.139-.186.275-.278.413q-.347.521-.713,1.028c-.132.183-.265.364-.4.544-.211.281-.429.557-.648.83-.183.229-.369.456-.558.679s-.367.419-.552.626q-.467.521-.952,1.015c-.2.2-.4.411-.607.607-.159.153-.321.3-.483.45-.267.244-.538.479-.811.709-.163.137-.325.274-.49.406-.3.236-.6.46-.9.679-.144.1-.286.214-.431.314-.45.309-.906.6-1.367.868-.443.256-.882.478-1.315.683-.113.053-.224.1-.335.153-.418.186-.832.357-1.24.5-.028.01-.054.016-.081.025-.353.117-.7.207-1.041.29-.2.048-.392.089-.585.125q-.388.074-.764.117c-.144.016-.287.034-.429.043-.317.022-.628.028-.933.018-.066,0-.134,0-.2,0a8.038,8.038,0,0,1-1.062-.134c-.086-.017-.171-.039-.256-.06a7.1,7.1,0,0,1-.788-.228c-.081-.029-.163-.054-.242-.085a6.89,6.89,0,0,1-.944-.449l4.892,2.844.079.044a6.851,6.851,0,0,0,.723.355c.046.019.095.031.14.049.08.031.162.057.243.085.126.044.248.1.377.134s.273.062.411.095c.085.019.169.042.256.059.048.01.092.024.141.032a7.858,7.858,0,0,0,.868.1c.018,0,.036,0,.053,0,.065,0,.133,0,.2,0,.231.007.462.016.7,0,.075,0,.156-.017.232-.023.141-.01.285-.026.429-.043s.27-.019.41-.041c.115-.018.237-.054.355-.075.193-.037.388-.078.585-.126.109-.026.213-.038.322-.068.237-.065.477-.14.719-.222.028-.01.054-.016.081-.025.293-.1.589-.211.889-.335.115-.048.234-.109.35-.16s.224-.1.338-.153c.434-.2.871-.426,1.314-.683.461-.266.916-.558,1.365-.867.146-.1.289-.211.434-.315.3-.219.6-.443.9-.679.165-.132.327-.268.49-.406q.41-.343.811-.709c.162-.147.323-.3.483-.45.1-.093.2-.18.3-.275s.206-.224.311-.331q.485-.494.953-1.016c.1-.111.2-.211.3-.323.085-.1.164-.2.249-.3.189-.223.374-.452.558-.68.119-.148.243-.287.359-.438.1-.127.192-.261.289-.391.137-.181.27-.362.4-.545.089-.122.182-.24.269-.364.152-.217.3-.442.443-.662.092-.139.187-.274.278-.414.036-.056.075-.11.111-.167q.385-.6.745-1.219c.017-.028.031-.057.048-.086.05-.086.1-.174.145-.26.164-.287.328-.575.483-.867.074-.138.14-.278.211-.416s.148-.29.222-.436c.061-.125.128-.248.189-.374.162-.335.314-.674.464-1.013.028-.062.057-.122.085-.184l.024-.051q.278-.643.527-1.292c.03-.078.055-.156.084-.234.06-.158.114-.316.171-.474.077-.217.16-.432.232-.65.055-.165.1-.332.152-.5.062-.2.125-.4.182-.594.036-.125.079-.248.114-.372.06-.217.1-.434.159-.65.061-.246.126-.491.181-.737.019-.086.044-.174.063-.26.037-.176.056-.35.09-.526.073-.382.141-.763.2-1.142.016-.107.041-.214.055-.32.03-.238.047-.473.069-.71.017-.169.037-.338.049-.505C429.344,272.85,429.369,272.321,429.367,271.8Z" transform="translate(-386.403 -222.001)" fill="url(#linear-gradient-2)"/>
  <path id="Trazado_195573" data-name="Trazado 195573" d="M433.742,253.2c.093.05.19.095.283.149l-4.892-2.842-.129-.074c-.05-.028-.1-.048-.153-.075q-.429-.234-.879-.429c-.055-.025-.107-.056-.163-.08s-.092-.03-.138-.048a11.465,11.465,0,0,0-1.088-.384l-.03-.01h-.006c-.386-.113-.783-.2-1.186-.274-.048-.008-.092-.024-.14-.032s-.127-.012-.189-.022q-.528-.084-1.074-.126c-.057,0-.11-.017-.168-.02-.019,0-.038,0-.057,0-.447-.026-.9-.029-1.368-.012-.046,0-.089,0-.134,0s-.121.014-.181.018c-.52.029-1.047.074-1.586.158h-.006c-.35.054-.7.12-1.061.2-.114.024-.23.056-.345.084-.224.052-.447.1-.673.163l-.065.019c-.42.116-.844.246-1.273.392-.08.028-.163.061-.243.09-.35.125-.7.256-1.055.4-.044.019-.087.032-.132.05-.084.035-.17.08-.254.116q-.568.243-1.144.521c-.141.068-.283.137-.425.208-.5.252-1,.516-1.507.809-.762.44-1.514.925-2.258,1.435-.241.165-.477.347-.716.521-.5.361-1,.729-1.489,1.121-.272.217-.539.444-.809.67q-.677.57-1.34,1.171c-.268.246-.535.492-.8.746-.162.156-.331.3-.491.459q-.667.658-1.315,1.348v0q-.647.69-1.273,1.41c-.14.159-.27.332-.407.495-.313.369-.618.745-.923,1.125-.2.244-.4.478-.6.726-.162.21-.313.429-.472.641q-.336.446-.664.9c-.147.2-.3.4-.447.606-.25.356-.485.723-.727,1.085-.153.23-.311.456-.461.689-.061.095-.127.186-.188.28q-.634.992-1.229,2.011c-.026.046-.05.092-.077.138-.081.14-.156.284-.236.424-.272.479-.546.957-.8,1.442-.12.225-.229.456-.346.684s-.243.476-.363.714c-.1.21-.214.414-.315.624-.266.551-.515,1.107-.762,1.663-.047.105-.1.207-.143.313-.013.03-.028.059-.041.087q-.46,1.062-.872,2.132c-.049.128-.09.258-.138.384-.1.26-.187.52-.279.78-.129.359-.267.717-.387,1.078-.091.274-.165.549-.252.823-.1.327-.2.653-.3.979-.06.206-.132.411-.188.616-.1.359-.174.716-.264,1.074-.1.406-.208.811-.3,1.216-.032.144-.075.287-.105.43-.141.662-.26,1.322-.367,1.98-.023.137-.041.271-.062.406-.046.3-.1.6-.134.895-.052.394-.077.782-.116,1.173-.026.279-.061.558-.081.835-.066.88-.108,1.755-.105,2.617.022,7.463,2.666,12.722,6.927,15.2l4.892,2.844c-4.26-2.476-6.905-7.735-6.927-15.2,0-.861.04-1.736.105-2.616.02-.277.055-.557.081-.836.068-.686.145-1.375.252-2.069.02-.134.038-.268.06-.4.131-.8.293-1.606.473-2.414.09-.4.2-.809.3-1.213.141-.563.286-1.126.45-1.689.1-.328.2-.655.3-.982.2-.634.411-1.266.637-1.9.093-.261.183-.521.28-.782.328-.871.674-1.74,1.049-2.6.047-.107.1-.212.146-.319.339-.765.7-1.526,1.074-2.279.119-.24.241-.479.363-.716q.553-1.076,1.151-2.128c.08-.14.155-.281.235-.42.477-.823.977-1.633,1.494-2.43.15-.232.307-.458.46-.688q.575-.859,1.175-1.692.327-.455.664-.9c.349-.464.707-.916,1.067-1.365.305-.38.612-.758.926-1.127.55-.648,1.1-1.291,1.679-1.9h0c.588-.628,1.2-1.222,1.807-1.807q.4-.379.8-.745.661-.6,1.339-1.171c.269-.226.538-.453.811-.671.49-.39.987-.759,1.488-1.121.24-.172.476-.355.716-.521.744-.51,1.5-.994,2.258-1.435.505-.292,1.007-.557,1.506-.809.143-.072.285-.14.426-.208q.577-.279,1.143-.521c.129-.055.259-.114.387-.165.353-.145.7-.275,1.052-.4.083-.03.165-.065.248-.092q.641-.219,1.272-.391c.248-.068.492-.126.738-.183.115-.026.231-.059.345-.084q.539-.115,1.067-.2c.539-.083,1.066-.129,1.586-.158.105-.006.211-.013.315-.017.464-.016.92-.014,1.367.012.077,0,.151.014.226.02q.546.041,1.074.126c.11.018.22.035.329.054.4.075.8.163,1.186.274l.036.012a11.452,11.452,0,0,1,1.088.383c.1.041.2.085.3.128Q433.311,252.963,433.742,253.2Z" transform="translate(-388.64 -224.146)" fill="url(#linear-gradient-3)"/>
  <path id="Trazado_195574" data-name="Trazado 195574" d="M494.8,230.9c1.446-.835,2.481.189,2.04,2.03l-2.663,11.133a4.736,4.736,0,0,1-2.027,2.867L476.19,256.15a4.69,4.69,0,0,0-2.127,3.684,4.69,4.69,0,0,1-2.127,3.686l-33.314,19.234c-3.373,12.217-12,24.518-22.1,30.35-13.081,7.553-23.751,1.464-23.794-13.559s10.559-33.392,23.64-40.945c10.1-5.832,18.772-3.518,22.2,4.771Zm-78.316,71.454c7.916-4.57,14.335-15.7,14.31-24.792s-6.487-12.786-14.4-8.217-14.342,15.7-14.316,24.8,6.487,12.785,14.409,8.211" transform="translate(-387.832 -227.765)" fill="url(#linear-gradient-4)"/>
  <g id="Grupo_138522" data-name="Grupo 138522" transform="translate(58.549 9.007)">
    <g id="Grupo_138521" data-name="Grupo 138521" style="isolation: isolate">
      <g id="Grupo_138520" data-name="Grupo 138520">
        <path id="Trazado_195575" data-name="Trazado 195575" d="M445.546,262.638c-1.03.594-1.877.12-1.881-1.072a4.127,4.127,0,0,1,1.869-3.238c1.037-.6,1.885-.125,1.889,1.068a4.125,4.125,0,0,1-1.877,3.241m5.648-3.26c-1.037.6-1.877.12-1.881-1.072a4.111,4.111,0,0,1,1.869-3.238c1.03-.594,1.878-.12,1.882,1.072a4.129,4.129,0,0,1-1.87,3.238m5.64-3.257c-1.037.6-1.878.121-1.882-1.072a4.116,4.116,0,0,1,1.87-3.236c1.037-.6,1.878-.121,1.881,1.072a4.111,4.111,0,0,1-1.869,3.236m5.64-3.256c-1.039.6-1.878.12-1.882-1.072a4.109,4.109,0,0,1,1.87-3.238c1.037-.6,1.877-.12,1.881,1.072a4.115,4.115,0,0,1-1.869,3.238m5.639-3.257c-1.037.6-1.877.121-1.88-1.072A4.111,4.111,0,0,1,468.1,245.3c1.038-.6,1.878-.121,1.882,1.071a4.109,4.109,0,0,1-1.87,3.238m5.64-3.257c-1.03.6-1.878.121-1.881-1.071a4.123,4.123,0,0,1,1.869-3.238c1.037-.6,1.878-.121,1.882,1.072a4.115,4.115,0,0,1-1.87,3.236M480.4,235.94l-41.526,23.975a2.979,2.979,0,0,0-1.351,2.333l.016,5.715c0,.86.612,1.207,1.361.775l41.526-23.975a2.966,2.966,0,0,0,1.345-2.337l-.017-5.715c0-.852-.6-1.2-1.354-.771" transform="translate(-437.521 -235.754)" fill="url(#linear-gradient-5)"/>
        <g id="Grupo_138519" data-name="Grupo 138519" transform="translate(6.145 6.031)">
          <path id="Trazado_195576" data-name="Trazado 195576" d="M444.52,254.644a4.127,4.127,0,0,0-1.869,3.238c0,1.192.85,1.666,1.881,1.072a4.125,4.125,0,0,0,1.877-3.241c0-1.193-.852-1.667-1.889-1.068" transform="translate(-442.651 -238.1)" fill="url(#linear-gradient-6)"/>
          <path id="Trazado_195577" data-name="Trazado 195577" d="M449.235,251.921a4.111,4.111,0,0,0-1.869,3.238c0,1.192.843,1.671,1.881,1.072a4.129,4.129,0,0,0,1.87-3.238c0-1.192-.852-1.666-1.882-1.072" transform="translate(-441.718 -238.638)" fill="url(#linear-gradient-7)"/>
          <path id="Trazado_195578" data-name="Trazado 195578" d="M453.944,249.2a4.116,4.116,0,0,0-1.87,3.236c0,1.193.844,1.671,1.882,1.072a4.111,4.111,0,0,0,1.869-3.236c0-1.193-.843-1.672-1.881-1.072" transform="translate(-440.787 -239.176)" fill="url(#linear-gradient-8)"/>
          <path id="Trazado_195579" data-name="Trazado 195579" d="M458.653,246.485a4.109,4.109,0,0,0-1.87,3.238c0,1.192.843,1.671,1.882,1.072a4.115,4.115,0,0,0,1.869-3.238c0-1.192-.843-1.671-1.881-1.072" transform="translate(-439.856 -239.714)" fill="url(#linear-gradient-9)"/>
          <path id="Trazado_195580" data-name="Trazado 195580" d="M463.361,243.767A4.111,4.111,0,0,0,461.492,247c0,1.193.843,1.671,1.88,1.072a4.109,4.109,0,0,0,1.87-3.238c0-1.192-.843-1.671-1.882-1.071" transform="translate(-438.924 -240.252)" fill="url(#linear-gradient-10)"/>
          <path id="Trazado_195581" data-name="Trazado 195581" d="M468.07,241.048a4.123,4.123,0,0,0-1.869,3.238c0,1.192.85,1.666,1.881,1.071a4.115,4.115,0,0,0,1.87-3.236c0-1.193-.844-1.671-1.882-1.072" transform="translate(-437.993 -240.789)" fill="url(#linear-gradient-11)"/>
        </g>
      </g>
    </g>
  </g>
</svg>
