<svg xmlns="http://www.w3.org/2000/svg" xmlns:xlink="http://www.w3.org/1999/xlink" width="135" height="136" viewBox="0 0 135 136">
  <defs>
    <clipPath id="clip-path">
      <rect id="Rectángulo_85364" data-name="Rectángulo 85364" width="135" height="136" transform="translate(-700.991 -8497)" fill="#fff"/>
    </clipPath>
  </defs>
  <g id="Enmascarar_grupo_148" data-name="Enmascarar grupo 148" transform="translate(700.991 8497)" clip-path="url(#clip-path)">
    <g id="_8Recurso_8" data-name="8Recurso 8" transform="translate(-700.991 -8488.649)">
      <g id="Capa_2" data-name="Capa 2">
        <g id="Layer_1" data-name="Layer 1">
          <path id="Trazado_199608" data-name="Trazado 199608" d="M92.129,119.3H0V0H79.288L92.129,10.191Z" fill="#afaeaf"/>
          <rect id="Rectángulo_85390" data-name="Rectángulo 85390" width="69.525" height="2.731" transform="translate(11.598 18.65)" fill="#fff"/>
          <rect id="Rectángulo_85391" data-name="Rectángulo 85391" width="69.525" height="2.711" transform="translate(11.598 29.432)" fill="#fff"/>
          <rect id="Rectángulo_85392" data-name="Rectángulo 85392" width="69.525" height="2.731" transform="translate(11.598 40.194)" fill="#fff"/>
          <rect id="Rectángulo_85393" data-name="Rectángulo 85393" width="69.525" height="2.731" transform="translate(11.598 50.956)" fill="#fff"/>
          <rect id="Rectángulo_85394" data-name="Rectángulo 85394" width="69.525" height="2.731" transform="translate(11.598 61.739)" fill="#fff"/>
          <rect id="Rectángulo_85395" data-name="Rectángulo 85395" width="69.525" height="2.731" transform="translate(11.598 72.501)" fill="#fff"/>
          <rect id="Rectángulo_85396" data-name="Rectángulo 85396" width="69.525" height="2.711" transform="translate(11.598 83.283)" fill="#fff"/>
          <rect id="Rectángulo_85397" data-name="Rectángulo 85397" width="69.525" height="2.711" transform="translate(11.598 94.065)" fill="#fff"/>
          <rect id="Rectángulo_85398" data-name="Rectángulo 85398" width="69.525" height="2.711" transform="translate(11.598 104.827)" fill="#fff"/>
          <path id="Trazado_199609" data-name="Trazado 199609" d="M78.187,0l4.077,11.292,9.865-1.1S90.947.754,78.187,0Z" fill="#838382"/>
          <path id="Trazado_199610" data-name="Trazado 199610" d="M81.143,44.842a1.508,1.508,0,0,1-1.427-1.1,37.89,37.89,0,0,0-2.262-6.2,5.707,5.707,0,0,0-6.665-3.017,1.488,1.488,0,0,1-1.9-.9,1.468,1.468,0,0,1,.876-1.875,8.764,8.764,0,0,1,10.191,4.077,38.726,38.726,0,0,1,2.568,7.073,1.508,1.508,0,0,1-1,1.936,1.284,1.284,0,0,1-.387,0Z" fill="#a1a0a0"/>
          <path id="Trazado_199611" data-name="Trazado 199611" d="M103.115,58.457a2.466,2.466,0,0,1-.734-4.81c5.972-1.875,16.306-5.829,18.548-8.438,1.06-1.223,2.568-6.971,3.363-11.6a2.449,2.449,0,1,1,4.831.815c-.428,2.589-2.038,11.19-4.484,14-3.832,4.4-17.977,9.029-20.77,9.906a2.426,2.426,0,0,1-.754.122Z"/>
          <path id="Trazado_199612" data-name="Trazado 199612" d="M81.143,58.457a2.3,2.3,0,0,1-.734-.122c-2.813-.876-16.958-5.5-20.77-9.906-2.466-2.813-4.077-11.414-4.5-14a2.466,2.466,0,0,1,4.851-.815c.775,4.627,2.283,10.375,3.343,11.6,2.262,2.609,12.576,6.563,18.548,8.438a2.466,2.466,0,0,1-.734,4.81Z" fill="#a1a0a0"/>
          <path id="Trazado_199613" data-name="Trazado 199613" d="M107.11,73.968a2.507,2.507,0,0,1-2.038-.978,2.466,2.466,0,0,1,.489-3.445c2.038-1.468,11.965-8.887,16.877-9.437,3.017-.326,9.274,2.364,11.108,3.2a2.487,2.487,0,0,1,1.243,3.261,2.446,2.446,0,0,1-3.261,1.223,28.963,28.963,0,0,0-8.54-2.813c-2.629.306-10.049,5.157-14.472,8.5A2.446,2.446,0,0,1,107.11,73.968Z"/>
          <path id="Trazado_199614" data-name="Trazado 199614" d="M77.148,73.968a2.487,2.487,0,0,1-1.468-.489c-4.341-3.343-11.842-8.255-14.533-8.5a28.964,28.964,0,0,0-8.54,2.813,2.466,2.466,0,0,1-2.038-4.484c1.855-.836,8.153-3.526,11.108-3.2,4.912.55,14.92,7.97,16.877,9.437a2.466,2.466,0,0,1,.489,3.445A2.507,2.507,0,0,1,77.148,73.968Z" fill="#a1a0a0"/>
          <path id="Trazado_199615" data-name="Trazado 199615" d="M119.5,99.732H119.1a2.466,2.466,0,0,1-2.038-2.813,25.763,25.763,0,0,0,.306-8.846c-1.223-2.038-9.05-5.687-15.572-7.888a2.514,2.514,0,0,1,1.59-4.77c2.548.856,15.43,5.381,18.222,10.028,1.651,2.711.775,9.4.326,12.23a2.466,2.466,0,0,1-2.426,2.059Z"/>
          <path id="Trazado_199616" data-name="Trazado 199616" d="M62.309,99.732A2.426,2.426,0,0,1,59.9,97.693c-.448-2.752-1.325-9.437.306-12.23C63,80.817,75.9,76.292,78.554,75.436a2.453,2.453,0,0,1,1.569,4.647c-6.543,2.2-14.268,5.85-15.593,7.908a25.3,25.3,0,0,0,.326,8.826,2.466,2.466,0,0,1-2.038,2.813Z" fill="#a1a0a0"/>
          <path id="Trazado_199617" data-name="Trazado 199617" d="M73.377,50.671a42.8,42.8,0,0,0-2.69,15.144c0,17.366,9.682,26.5,21.626,26.5V51.058C85.851,51.058,79.492,50.956,73.377,50.671Z" fill="#fdf0bd"/>
          <path id="Trazado_199618" data-name="Trazado 199618" d="M111.248,50.671c-6.115.245-12.474.387-18.935.387v41.3c11.944,0,21.626-9.172,21.626-26.5A42.8,42.8,0,0,0,111.248,50.671Z" fill="#fdf1bf"/>
          <path id="Trazado_199619" data-name="Trazado 199619" d="M73.377,50.671a42.8,42.8,0,0,0-2.69,15.144c0,17.366,9.682,26.5,21.626,26.5V51.058C85.851,51.058,79.492,50.956,73.377,50.671Z" fill="#fdf0bd"/>
          <path id="Trazado_199620" data-name="Trazado 199620" d="M111.248,50.671c-6.115.245-12.474.387-18.935.387v41.3c11.944,0,21.626-9.172,21.626-26.5A42.8,42.8,0,0,0,111.248,50.671Z" fill="#e0dfdf"/>
          <path id="Trazado_199621" data-name="Trazado 199621" d="M112.654,55.237a38.482,38.482,0,0,0-1.406-4.566c-6.115.245-12.474.387-18.935.387s-12.821-.1-18.935-.387a42.8,42.8,0,0,0-2.69,15.144A33.855,33.855,0,0,0,73.662,80.45a60.333,60.333,0,0,0,15.348-4.688C100.078,70.707,108.517,63.064,112.654,55.237Z" fill="#a1a0a0"/>
          <path id="Trazado_199622" data-name="Trazado 199622" d="M75.64,50.712q8.051.326,16.489.347V36.383C85.016,36.485,78.84,42.233,75.64,50.712Z" fill="#a1a0a0"/>
          <path id="Trazado_199623" data-name="Trazado 199623" d="M108.985,50.712c-3.241-8.54-9.478-14.268-16.673-14.268h-.183V51.119h.183Q100.832,51.058,108.985,50.712Z"/>
          <path id="Trazado_199624" data-name="Trazado 199624" d="M90.539,51.058,88.5,92.007a23.582,23.582,0,0,0,2.446.306h1.406V51.058Z" fill="#a1a0a0"/>
          <path id="Trazado_199625" data-name="Trazado 199625" d="M95.8,92.088,93.76,51.058H92.353V92.312H93.76C94.432,92.272,95.125,92.19,95.8,92.088Z"/>
          <path id="Trazado_199626" data-name="Trazado 199626" d="M103.115,44.842h-.387a1.468,1.468,0,0,1-1.019-1.814,38.442,38.442,0,0,1,2.548-7.073,8.764,8.764,0,0,1,10.191-4.077,1.468,1.468,0,0,1,.876,1.875,1.488,1.488,0,0,1-1.9.9,5.666,5.666,0,0,0-6.645,3.017,35.935,35.935,0,0,0-2.2,6.237,1.508,1.508,0,0,1-1.468.938Z"/>
          <path id="Trazado_199627" data-name="Trazado 199627" d="M96.43,39.42c2.038.632,3.771.489,4.077-.326a14.125,14.125,0,0,0-7.012-2.65.673.673,0,0,0-.2.285C93.026,37.585,94.432,38.727,96.43,39.42Z" fill="#fdf0bd"/>
          <path id="Trazado_199628" data-name="Trazado 199628" d="M87.849,39.42c-2.038.632-3.791.489-4.077-.326a14.268,14.268,0,0,1,7.012-2.65.673.673,0,0,1,.2.285C91.232,37.585,89.846,38.727,87.849,39.42Z" fill="#fdf0bd"/>
        </g>
      </g>
    </g>
  </g>
</svg>
