<svg xmlns="http://www.w3.org/2000/svg" width="73.977" height="71.776" viewBox="0 0 73.977 71.776">
  <path id="Trazado_159398" data-name="Trazado 159398" d="M259.864,320.189h5.255V275.18a3.154,3.154,0,0,1,.942-2.246,3.215,3.215,0,0,1,2.268-.933h41.51l.445.441,10.643,10.541.445.441v36.765h3.735a3.864,3.864,0,0,1,2.732,1.134,3.825,3.825,0,0,1,1.135,2.712v14.9a3.824,3.824,0,0,1-1.135,2.711,3.864,3.864,0,0,1-2.732,1.135H259.864a3.864,3.864,0,0,1-2.732-1.135A3.824,3.824,0,0,1,256,338.931v-14.9a3.825,3.825,0,0,1,1.135-2.712,3.864,3.864,0,0,1,2.732-1.134Zm8.3,0h50.172V284.671l-.068-.068h-9.735v-9.591h-40.2a.169.169,0,0,0-.118.05.166.166,0,0,0-.051.117v45.009Zm7.6-13.553H310.73v3.012H275.762Zm0-10.541H310.73v3.012H275.762Zm2.517,40.534V325.918h3.5a12.775,12.775,0,0,1,2.6.162,2.832,2.832,0,0,1,1.559,1.047,3.3,3.3,0,0,1,.627,2.085,3.451,3.451,0,0,1-.363,1.658,2.949,2.949,0,0,1-.919,1.057,3.182,3.182,0,0,1-1.13.506,12.582,12.582,0,0,1-2.266.155h-1.423v4.04Zm2.183-8.9v3.037h1.193a5.7,5.7,0,0,0,1.727-.167,1.4,1.4,0,0,0,.929-1.359,1.379,1.379,0,0,0-.347-.965,1.509,1.509,0,0,0-.876-.474,10.485,10.485,0,0,0-1.571-.072Zm7.886-1.813h3.991a7.831,7.831,0,0,1,2.057.2,3.593,3.593,0,0,1,1.629.987,4.663,4.663,0,0,1,1.035,1.733,7.9,7.9,0,0,1,.353,2.534,6.976,6.976,0,0,1-.332,2.279,4.676,4.676,0,0,1-1.158,1.89,3.818,3.818,0,0,1-1.533.855,6.619,6.619,0,0,1-1.934.227h-4.106Zm2.183,1.813v7.092h1.629a5.929,5.929,0,0,0,1.322-.1,2.026,2.026,0,0,0,.881-.444,2.276,2.276,0,0,0,.572-1.035,6.979,6.979,0,0,0,.222-1.963,6.377,6.377,0,0,0-.222-1.905,2.455,2.455,0,0,0-.619-1.037,2.085,2.085,0,0,0-1.012-.5,9.818,9.818,0,0,0-1.793-.1Zm8.747,8.9V325.918h7.415v1.813h-5.229v2.534h4.514v1.813h-4.514v4.551h-2.185Z" transform="translate(-255.497 -271.5)" fill="#fff" stroke="#000" stroke-width="1" fill-rule="evenodd"/>
</svg>
