<svg xmlns="http://www.w3.org/2000/svg" xmlns:xlink="http://www.w3.org/1999/xlink" width="135" height="136" viewBox="0 0 135 136">
  <defs>
    <clipPath id="clip-path">
      <rect id="Rectángulo_85359" data-name="Rectángulo 85359" width="135" height="136" transform="translate(-1052.235 -8497)" fill="#fff"/>
    </clipPath>
  </defs>
  <g id="Enmascarar_grupo_147" data-name="Enmascarar grupo 147" transform="translate(1052.235 8497)" clip-path="url(#clip-path)">
    <g id="Capa_2" data-name="Capa 2" transform="translate(-1042.119 -8497)">
      <g id="Layer_1" data-name="Layer 1">
        <path id="Trazado_199603" data-name="Trazado 199603" d="M22.09,92.3A102.6,102.6,0,0,1,8.706,37.068,163.629,163.629,0,0,0,35.39,26.747,96.352,96.352,0,0,0,57.375,10.132V0A112.337,112.337,0,0,1,31.467,19.509,189.681,189.681,0,0,1,.189,31.656,120.539,120.539,0,0,0,15.922,96.5c18.02,31.782,41.452,39.459,41.452,39.459v-10.09S37.425,119.26,22.09,92.3Z" fill="#574d55"/>
        <path id="Trazado_199604" data-name="Trazado 199604" d="M114.581,31.656A190.292,190.292,0,0,1,83.22,19.509,112.337,112.337,0,0,1,57.375,0V10.132A96.184,96.184,0,0,0,79.381,26.747a163.88,163.88,0,0,0,26.663,10.321A102.6,102.6,0,0,1,92.66,92.3c-15.335,27.062-35.285,33.565-35.285,33.565V136s23.453-7.762,41.473-39.5a120.77,120.77,0,0,0,15.733-64.843Z" fill="#312c2f"/>
        <path id="Trazado_199605" data-name="Trazado 199605" d="M92.66,92.3a102.6,102.6,0,0,0,13.384-55.13A163.88,163.88,0,0,1,79.381,26.852,96.184,96.184,0,0,1,57.375,10.132V125.868S77.325,119.26,92.66,92.3Z" fill="#fdf0bd"/>
        <path id="Trazado_199606" data-name="Trazado 199606" d="M35.39,26.747A163.627,163.627,0,0,1,8.706,37.068,102.6,102.6,0,0,0,22.09,92.3c15.335,27.062,35.285,33.565,35.285,33.565V10.132A96.352,96.352,0,0,1,35.39,26.747Z" fill="#fdf0bd"/>
        <path id="Trazado_199607" data-name="Trazado 199607" d="M49.319,92.177a7.825,7.825,0,0,1,2.308-5.538,8.2,8.2,0,0,1,2.559-1.678,8.6,8.6,0,0,1,6.293,0,8.2,8.2,0,0,1,2.559,1.678,7.3,7.3,0,0,1,1.72,2.475,7.489,7.489,0,0,1,.629,3.063,7.573,7.573,0,0,1-.629,3.084,7.2,7.2,0,0,1-1.72,2.5,7.8,7.8,0,0,1-2.559,1.657,8.9,8.9,0,0,1-6.293,0,7.8,7.8,0,0,1-2.559-1.657,7.384,7.384,0,0,1-1.678-2.5A7.573,7.573,0,0,1,49.319,92.177ZM64.172,32.621V58.738a69.5,69.5,0,0,1-.5,8.391c-.357,2.769-.8,5.58-1.343,8.391H52.718c-.566-2.874-1.007-5.685-1.343-8.391a69.5,69.5,0,0,1-.5-8.391V32.621Z" fill="#e0dfdf"/>
      </g>
    </g>
  </g>
</svg>
