<svg xmlns="http://www.w3.org/2000/svg" xmlns:xlink="http://www.w3.org/1999/xlink" width="135" height="136" viewBox="0 0 135 136">
  <defs>
    <clipPath id="clip-path">
      <rect id="Rectángulo_85362" data-name="Rectángulo 85362" width="135" height="136" transform="translate(-1757 -8497)" fill="#fff"/>
    </clipPath>
  </defs>
  <g id="Enmascarar_grupo_145" data-name="Enmascarar grupo 145" transform="translate(1757 8497)" clip-path="url(#clip-path)">
    <g id="Capa_2" data-name="Capa 2" transform="translate(-1731.522 -8497)">
      <g id="Layer_1" data-name="Layer 1">
        <rect id="Rectángulo_85371" data-name="Rectángulo 85371" width="67.151" height="5.9" transform="translate(16.894 124.348)"/>
        <path id="Trazado_199560" data-name="Trazado 199560" d="M82.772,120.38V10.866C82.772,0,79.439,0,71.417,0H29.5C21.478,0,18.146,0,18.146,10.866V120.38Z" fill="#312c2f"/>
        <path id="Trazado_199561" data-name="Trazado 199561" d="M77.635,18.167c0,6.218-.191,11.27-4.245,11.27H27.463c-4.245,0-4.8-5.051-4.8-11.27h0c0-6.218.637-11.27,4.8-11.27H73.306c4.245,0,4.245,5.051,4.245,11.27Z" fill="#574d55"/>
        <path id="Trazado_199562" data-name="Trazado 199562" d="M75.747,113.8a2.441,2.441,0,1,1-.722-1.733,2.462,2.462,0,0,1,.722,1.733Z" fill="#fdf0bd"/>
        <rect id="Rectángulo_85372" data-name="Rectángulo 85372" width="17.403" height="4.032" transform="translate(51.255 112.187)" fill="#eceeec"/>
        <rect id="Rectángulo_85373" data-name="Rectángulo 85373" width="17.637" height="1.21" transform="translate(30.647 113.8)" fill="#eceeec"/>
        <path id="Trazado_199563" data-name="Trazado 199563" d="M18.146,120.38l-1.252,3.969h67.13l-1.252-3.969Z" fill="#edede8"/>
        <rect id="Rectángulo_85374" data-name="Rectángulo 85374" width="45.843" height="14.368" transform="translate(27.463 10.866)" fill="#fdf0bd"/>
        <rect id="Rectángulo_85375" data-name="Rectángulo 85375" width="24.322" height="3.544" transform="translate(32.748 13.413)" fill="#fdf1bf"/>
        <path id="Trazado_199564" data-name="Trazado 199564" d="M77.635,46.522c0,6.24-.191,11.27-4.245,11.27H27.463c-4.245,0-4.8-5.03-4.8-11.27h0c0-6.218.637-11.248,4.8-11.248H73.306c4.245,0,4.245,5.03,4.245,11.248Z" fill="#574d55"/>
        <rect id="Rectángulo_85376" data-name="Rectángulo 85376" width="45.843" height="14.368" transform="translate(27.463 39.242)" fill="#fdf0bd"/>
        <rect id="Rectángulo_85377" data-name="Rectángulo 85377" width="24.322" height="3.544" transform="translate(32.748 41.789)" fill="#fdf1bf"/>
        <rect id="Rectángulo_85378" data-name="Rectángulo 85378" width="45.843" height="4.075" transform="translate(27.463 62.885)" fill="#574d55"/>
        <rect id="Rectángulo_85379" data-name="Rectángulo 85379" width="45.843" height="4.075" transform="translate(27.463 74.961)" fill="#574d55"/>
        <rect id="Rectángulo_85380" data-name="Rectángulo 85380" width="45.843" height="4.075" transform="translate(27.463 87.016)" fill="#574d55"/>
        <path id="Trazado_199565" data-name="Trazado 199565" d="M46.8,112.654A23.346,23.346,0,1,1,23.452,89.308,23.346,23.346,0,0,1,46.8,112.654Z" fill="#fdf0bd"/>
        <path id="Trazado_199566" data-name="Trazado 199566" d="M38.881,95.124a23.345,23.345,0,1,1-33.025,33,23.345,23.345,0,1,0,33.026-33Z" fill="#fdf1bf"/>
        <path id="Trazado_199567" data-name="Trazado 199567" d="M0,112.654a23.112,23.112,0,0,0,1.273,7.6A23.394,23.394,0,0,0,31.007,90.518,23.366,23.366,0,0,0,0,112.654Z" fill="#fdf0bd"/>
        <path id="Trazado_199568" data-name="Trazado 199568" d="M17.382,95.081c.87,1.082-.488,3.608-3.035,5.645s-5.306,2.823-6.176,1.74.488-3.629,3.035-5.645S16.512,94,17.382,95.081Z" fill="#fdf1bf"/>
        <path id="Trazado_199569" data-name="Trazado 199569" d="M24.407,102.127a3.1,3.1,0,0,1,3.184,3.077v5.157H30.18V105.2a5.688,5.688,0,0,0-5.773-5.667h-.722v2.589Z" fill="#312c2f"/>
        <path id="Trazado_199570" data-name="Trazado 199570" d="M19.865,105.2a3.1,3.1,0,0,1,3.1-3.077h.722V99.538h-.722a5.688,5.688,0,0,0-5.688,5.667v5.157h2.589Z" fill="#574d55"/>
        <path id="Trazado_199571" data-name="Trazado 199571" d="M32.111,110.362H23.685v12.522h8.426Z" fill="#d1d2d3"/>
        <path id="Trazado_199572" data-name="Trazado 199572" d="M19.865,110.362H15.238v12.522h8.447V110.362Z" fill="#d1d2d3"/>
        <rect id="Rectángulo_85381" data-name="Rectángulo 85381" width="2.589" height="1.082" transform="translate(17.276 109.28)" fill="#312c2f"/>
        <path id="Trazado_199573" data-name="Trazado 199573" d="M25.468,115.01a1.677,1.677,0,1,0-3.353,0,1.7,1.7,0,0,0,.785,1.422l-.615,3.523H25.3l-.615-3.523A1.7,1.7,0,0,0,25.468,115.01Z" fill="#312c2f"/>
      </g>
    </g>
  </g>
</svg>
