<svg xmlns="http://www.w3.org/2000/svg" xmlns:xlink="http://www.w3.org/1999/xlink" width="135" height="136" viewBox="0 0 135 136">
  <defs>
    <clipPath id="clip-path">
      <rect id="Rectángulo_85365" data-name="Rectángulo 85365" width="135" height="136" transform="translate(-350.721 -8497)" fill="#fff"/>
    </clipPath>
  </defs>
  <g id="Enmascarar_grupo_149" data-name="Enmascarar grupo 149" transform="translate(350.721 8497)" clip-path="url(#clip-path)">
    <g id="Capa_2" data-name="Capa 2" transform="translate(-350.721 -8469.816)">
      <g id="Layer_1" data-name="Layer 1">
        <rect id="Rectángulo_85399" data-name="Rectángulo 85399" width="49.617" height="62.498" transform="translate(67.508 7.127)" fill="#fdf0bd"/>
        <rect id="Rectángulo_85400" data-name="Rectángulo 85400" width="49.617" height="62.498" transform="translate(17.891 7.127)" fill="#fdf0bd"/>
        <path id="Trazado_199629" data-name="Trazado 199629" d="M67.508,69.625H17.891V7.127H67.508V0h-48a5.4,5.4,0,0,0-5.4,5.4V75.767H67.443Z" fill="#574d55"/>
        <path id="Trazado_199630" data-name="Trazado 199630" d="M117.108,7.127v62.5h-49.6v6.141h53.334V5.4a5.382,5.382,0,0,0-5.35-5.4H67.508V7.127Z" fill="#312c2f"/>
        <rect id="Rectángulo_85401" data-name="Rectángulo 85401" width="6.206" height="1.6" transform="translate(7.095 74.167)" fill="#312c2f"/>
        <rect id="Rectángulo_85402" data-name="Rectángulo 85402" width="7.806" height="1.6" transform="translate(16.113 74.167)" fill="#312c2f"/>
        <rect id="Rectángulo_85403" data-name="Rectángulo 85403" width="5.35" height="1.6" transform="translate(69.14 74.167)" fill="#574d55"/>
        <rect id="Rectángulo_85404" data-name="Rectángulo 85404" width="7.806" height="1.6" transform="translate(78.159 74.167)" fill="#574d55"/>
        <rect id="Rectángulo_85405" data-name="Rectángulo 85405" width="7.806" height="1.6" transform="translate(88.825 74.167)" fill="#574d55"/>
        <rect id="Rectángulo_85406" data-name="Rectángulo 85406" width="7.806" height="1.6" transform="translate(99.476 74.167)" fill="#574d55"/>
        <rect id="Rectángulo_85407" data-name="Rectángulo 85407" width="7.806" height="1.6" transform="translate(110.127 74.167)" fill="#574d55"/>
        <rect id="Rectángulo_85408" data-name="Rectángulo 85408" width="6.61" height="1.6" transform="translate(121.391 74.167)" fill="#574d55"/>
        <rect id="Rectángulo_85409" data-name="Rectángulo 85409" width="38.336" height="1.6" transform="translate(26.489 74.167)" fill="#312c2f"/>
        <path id="Trazado_199631" data-name="Trazado 199631" d="M0,75.767v.194a5.608,5.608,0,0,0,5.608,5.608h61.9v-5.8Z" fill="#574d55"/>
        <path id="Trazado_199632" data-name="Trazado 199632" d="M67.508,75.767v5.867h61.884A5.608,5.608,0,0,0,135,75.961V75.7Z" fill="#312c2f"/>
        <path id="Trazado_199633" data-name="Trazado 199633" d="M43.508,26.683a3.8,3.8,0,0,1,3.8,3.8v6.368h3.232V30.481a7,7,0,0,0-7-7h-.905v3.232Z" fill="#312c2f"/>
        <path id="Trazado_199634" data-name="Trazado 199634" d="M37.9,30.481a3.814,3.814,0,0,1,3.814-3.8H42.6V23.451h-.889a7,7,0,0,0-7,7v6.4h3.232Z" fill="#574d55"/>
        <path id="Trazado_199635" data-name="Trazado 199635" d="M53.027,36.849H42.6V52.3H53.027Z" fill="#312c2f"/>
        <path id="Trazado_199636" data-name="Trazado 199636" d="M37.9,36.849H32.194V52.3H42.6V36.849Z" fill="#574d55"/>
        <rect id="Rectángulo_85410" data-name="Rectángulo 85410" width="3.2" height="1.325" transform="translate(34.716 35.524)" fill="#312c2f"/>
        <path id="Trazado_199637" data-name="Trazado 199637" d="M65.94,3.62a1.616,1.616,0,1,1,1.616,1.616A1.616,1.616,0,0,1,65.94,3.62Z" fill="#fdf1bf"/>
        <path id="Trazado_199638" data-name="Trazado 199638" d="M59.556,3.62A1.147,1.147,0,1,1,60.7,4.768,1.147,1.147,0,0,1,59.556,3.62Z" fill="#312c2f"/>
        <rect id="Rectángulo_85411" data-name="Rectángulo 85411" width="40.162" height="14.061" transform="translate(71.823 21.059)" fill="#312c2f"/>
        <path id="Trazado_199639" data-name="Trazado 199639" d="M77.916,30.707h3.232v.84H76.914V24.243h1Z" fill="#fff"/>
        <path id="Trazado_199640" data-name="Trazado 199640" d="M88.712,27.879a4.251,4.251,0,0,1-.259,1.535,3.572,3.572,0,0,1-.743,1.2,3.232,3.232,0,0,1-1.164.776,3.992,3.992,0,0,1-2.99,0,3.345,3.345,0,0,1-1.891-1.972,4.251,4.251,0,0,1-.275-1.535,4.17,4.17,0,0,1,.275-1.519,3.313,3.313,0,0,1,.743-1.212,3.135,3.135,0,0,1,1.147-.776,3.992,3.992,0,0,1,2.99,0,3.232,3.232,0,0,1,1.164.776,3.814,3.814,0,0,1,.743,1.212,4.17,4.17,0,0,1,.259,1.519Zm-1.034,0a4.17,4.17,0,0,0-.178-1.228,2.634,2.634,0,0,0-.533-.905,2.133,2.133,0,0,0-.824-.582,2.667,2.667,0,0,0-1.1-.21,2.57,2.57,0,0,0-1.067.21,2.069,2.069,0,0,0-.84.582,2.634,2.634,0,0,0-.533.905,4.17,4.17,0,0,0-.178,1.228,4.024,4.024,0,0,0,.178,1.228,2.877,2.877,0,0,0,.533.921,2.214,2.214,0,0,0,.84.566,2.57,2.57,0,0,0,1.067.21,2.667,2.667,0,0,0,1.1-.21,2.279,2.279,0,0,0,.824-.566,2.877,2.877,0,0,0,.533-.921A4.024,4.024,0,0,0,87.678,27.879Z" fill="#fff"/>
        <path id="Trazado_199641" data-name="Trazado 199641" d="M93.4,30.869h1.018l.42-.145.4-.178V28.93H94.078a.194.194,0,0,1-.145,0,.162.162,0,0,1,0-.145v-.566h2.279v2.651a3.749,3.749,0,0,1-.582.356l-.646.259a5.043,5.043,0,0,1-.743.145,7,7,0,0,1-.857,0,3.911,3.911,0,0,1-1.471-.275,3.394,3.394,0,0,1-1.923-1.972,4.348,4.348,0,0,1-.275-1.616,4.186,4.186,0,0,1,.275-1.535,3.362,3.362,0,0,1,.76-1.212,3.637,3.637,0,0,1,1.2-.776,4.364,4.364,0,0,1,1.616-.275,6.562,6.562,0,0,1,.824,0,4.364,4.364,0,0,1,.695.194,3.427,3.427,0,0,1,.6.291,6.159,6.159,0,0,1,.517.388l-.291.469a.259.259,0,0,1-.226.129H95.5l-.291-.178-.388-.194a3.669,3.669,0,0,0-.549-.178,4.719,4.719,0,0,0-.743,0,3.135,3.135,0,0,0-1.131.21,2.3,2.3,0,0,0-.873.582,2.909,2.909,0,0,0-.549.921,4.137,4.137,0,0,0-.178,1.212,3.83,3.83,0,0,0,.194,1.261,2.6,2.6,0,0,0,.566.937,2.247,2.247,0,0,0,.857.582,2.958,2.958,0,0,0,.986.275Z" fill="#fff"/>
        <path id="Trazado_199642" data-name="Trazado 199642" d="M98.878,31.6h-1V24.243h1Z" fill="#fff"/>
        <path id="Trazado_199643" data-name="Trazado 199643" d="M101.593,24.243l.145.129,4.3,5.592V24.243h.889v7.418h-.517a.339.339,0,0,1-.194,0,.388.388,0,0,1-.162-.129l-4.331-5.673a1.309,1.309,0,0,1,0,.259,1.066,1.066,0,0,1,0,.226v5.285h-.889V24.243h.517a.388.388,0,0,1,.242,0Z" fill="#fff"/>
        <rect id="Rectángulo_85412" data-name="Rectángulo 85412" width="40.162" height="14.061" transform="translate(71.823 40.647)" fill="#312c2f"/>
        <path id="Trazado_199644" data-name="Trazado 199644" d="M78.029,48.485v2.78h-1V43.831h2.166a4.024,4.024,0,0,1,1.228.178,2.279,2.279,0,0,1,.857.453,2.02,2.02,0,0,1,.5.727,2.57,2.57,0,0,1,.178.954,2.489,2.489,0,0,1-.178.937,2.246,2.246,0,0,1-.533.743,2.537,2.537,0,0,1-.873.485,3.766,3.766,0,0,1-1.18.178Zm0-.792h1.164a2.78,2.78,0,0,0,.76-.113,1.826,1.826,0,0,0,.55-.323,1.616,1.616,0,0,0,.339-.485,1.988,1.988,0,0,0,.113-.63,1.438,1.438,0,0,0-.436-1.115,1.972,1.972,0,0,0-1.325-.4H78Z" fill="#fff"/>
        <path id="Trazado_199645" data-name="Trazado 199645" d="M88.648,51.184h-.776a.469.469,0,0,1-.226,0,.42.42,0,0,1-.113-.178l-.695-1.794H83.508l-.695,1.794a.4.4,0,0,1-.129.162.339.339,0,0,1-.21.081H81.7l2.958-7.434h1ZM83.8,48.421h2.764L85.4,45.4a6.208,6.208,0,0,1-.21-.695,1.363,1.363,0,0,1-.113.388l-.113.323Z" fill="#fff"/>
        <path id="Trazado_199646" data-name="Trazado 199646" d="M93.383,44.914a.356.356,0,0,1-.1.113.178.178,0,0,1-.129,0,.356.356,0,0,1-.21-.1l-.291-.194-.436-.194a2.133,2.133,0,0,0-.6-.081,1.616,1.616,0,0,0-.6.1.953.953,0,0,0-.436.242.921.921,0,0,0-.259.356,1.083,1.083,0,0,0-.1.453.857.857,0,0,0,.162.517,1.083,1.083,0,0,0,.4.356,2.586,2.586,0,0,0,.566.242l.646.226.663.259a2.23,2.23,0,0,1,.566.356,1.616,1.616,0,0,1,.4.533,1.842,1.842,0,0,1,.162.776,2.521,2.521,0,0,1-.178.921,2.279,2.279,0,0,1-.485.743,2.376,2.376,0,0,1-.776.5,3.038,3.038,0,0,1-1.051.178,3.524,3.524,0,0,1-1.326-.259,3.232,3.232,0,0,1-1-.711l.291-.485a.243.243,0,0,1,.1-.081.178.178,0,0,1,.129,0,.5.5,0,0,1,.259.113,3.651,3.651,0,0,0,.339.259,2.57,2.57,0,0,0,.517.259,1.907,1.907,0,0,0,.727.113,1.988,1.988,0,0,0,.63-.1,1.309,1.309,0,0,0,.776-.695,1.616,1.616,0,0,0,.1-.566.954.954,0,0,0-.145-.549,1.422,1.422,0,0,0-.4-.356,2.586,2.586,0,0,0-.566-.242l-.663-.21-.646-.242a2.279,2.279,0,0,1-.566-.372,1.616,1.616,0,0,1-.4-.55,2.085,2.085,0,0,1-.145-.824,2.134,2.134,0,0,1,.145-.776,2.166,2.166,0,0,1,.436-.646,2.214,2.214,0,0,1,.727-.453,2.683,2.683,0,0,1,.986-.178,2.877,2.877,0,0,1,1.131.21,2.457,2.457,0,0,1,.889.566Z" fill="#fff"/>
        <path id="Trazado_199647" data-name="Trazado 199647" d="M98.878,44.914a.356.356,0,0,1-.1.113.194.194,0,0,1-.145,0,.356.356,0,0,1-.194-.1l-.307-.194-.42-.194a2.182,2.182,0,0,0-.614-.081,1.713,1.713,0,0,0-.6.1.986.986,0,0,0-.42.242.97.97,0,0,0-.275.356,1.406,1.406,0,0,0-.081.453.857.857,0,0,0,.145.517,1.422,1.422,0,0,0,.4.356,3.135,3.135,0,0,0,.582.242l.646.226.646.259a2.344,2.344,0,0,1,.582.356,1.939,1.939,0,0,1,.4.533,1.842,1.842,0,0,1,.145.776,2.521,2.521,0,0,1-.162.921,2.149,2.149,0,0,1-1.277,1.244,2.974,2.974,0,0,1-1.051.178,3.135,3.135,0,0,1-2.327-.97l.291-.485a.291.291,0,0,1,.113-.081.178.178,0,0,1,.129,0,.533.533,0,0,1,.242.113l.356.259a2.408,2.408,0,0,0,.5.259,1.972,1.972,0,0,0,.727.113,2.02,2.02,0,0,0,.646-.1,1.487,1.487,0,0,0,.469-.226,1.1,1.1,0,0,0,.291-.42,1.309,1.309,0,0,0,.113-.566.857.857,0,0,0-.162-.55,1.083,1.083,0,0,0-.4-.356,2.3,2.3,0,0,0-.566-.242l-.646-.21-.646-.242a2.279,2.279,0,0,1-.566-.372,1.39,1.39,0,0,1-.4-.549,1.826,1.826,0,0,1-.162-.824,1.859,1.859,0,0,1,.162-.776,1.907,1.907,0,0,1,.436-.646,2.069,2.069,0,0,1,.727-.453,2.537,2.537,0,0,1,.97-.178,2.828,2.828,0,0,1,1.131.21,2.392,2.392,0,0,1,.905.566Z" fill="#fff"/>
      </g>
    </g>
  </g>
</svg>
