<svg xmlns="http://www.w3.org/2000/svg" width="566.999" height="538.358" viewBox="0 0 566.999 538.358">
  <g id="Grupo_138911" data-name="Grupo 138911" transform="translate(-532.001 -7131)">
    <g id="Capa_2" data-name="Capa 2" transform="translate(532.04 7130.979)">
      <g id="OBJECTS">
        <path id="Trazado_199124" data-name="Trazado 199124" d="M250.19,398.53q-9.1,10.41-18.26,20.85c-11,12.48-21.91,25.05-33.11,37.35-2.58,2.84-2.58,4.53-.2,7.4q28.44,34.46,56.59,69.14c1.2,1.46,3,2.67,3.1,5.11-53.62-6.49-104.38-21-149.33-51.86C56.13,450.18,23.73,399.75,8.09,338.06A266.609,266.609,0,0,1,0,280.86a7.43,7.43,0,0,1,3.43-7.05q36.32-26.43,72.4-53.18c2.76-2,4.4-2.19,7.13.14,16.43,14.07,33,27.95,49.64,41.8a6.87,6.87,0,0,1,2.63,5.52c3.09,67,47.81,117.82,114.18,129.74C249.53,397.85,249.62,398,250.19,398.53Z" fill="#0d2380"/>
        <path id="Trazado_199125" data-name="Trazado 199125" d="M290.54,131.15c5.15-6.13,10-12,14.94-17.76q16.125-19.035,32.35-37.99c2.08-2.4,1.42-3.76-.38-5.8Q310.78,39.23,284.26,8.72c-2.17-2.49-4.28-5-7-8.25,7.34-1,13.88-.09,20.31.44,43.86,3.62,84.19,17.5,120.31,42.77C467,78,499.51,124.57,517.71,181.36a283.749,283.749,0,0,1,13.26,83,8.11,8.11,0,0,1-3,6.88q-32.31,28.63-64.45,57.47c-2.48,2.23-4,1.7-6.2-.27Q431.8,305.69,406,283.22c-2.29-2-2.37-4.08-2.2-6.62,1.48-21.4-.83-42.32-9.29-62.14-18.77-44-51.67-71.21-98.37-81.68-1.3-.29-2.61-.55-3.9-.85a13.481,13.481,0,0,1-1.7-.78Z" fill="#fc502d"/>
        <path id="Trazado_199126" data-name="Trazado 199126" d="M535.81,283.87c.5,12.61-1.14,24.27-3.33,35.81-7.79,41.1-24.23,78.35-50.35,111.16-24.48,30.74-54.93,54-89.92,71.53-33.58,16.81-69.25,27.11-106,34-4.84.91-7.79-.22-10.95-4.12-18.19-22.5-36.68-44.77-55.17-67-1.72-2.08-1.78-3.39,0-5.45q24.45-28.68,48.72-57.51a8.83,8.83,0,0,1,6.85-3.35C315,397.13,347.38,380.81,373,351a129.7,129.7,0,0,0,27-52.32c.39-1.5.07-3.75,1.85-4.21,1.52-.41,2.33,1.55,3.36,2.59,15.6,15.72,31.32,31.31,46.71,47.23,3.46,3.59,5.46,3.92,9.46.58,23.74-19.84,47.76-39.35,71.69-59C533.69,285.38,534.37,284.92,535.81,283.87Z" fill="#727997"/>
        <path id="Trazado_199127" data-name="Trazado 199127" d="M0,259.87a220.508,220.508,0,0,1,3.37-35.08A280.84,280.84,0,0,1,31.79,140c21.13-39.9,50.87-71.66,89.8-94.7,39.09-23.13,81.75-34.87,126.56-39.72,3.81-.41,7.69-.38,11.41-1.17,4.68-1,7.59.58,10.58,4.24Q294.11,38,318.62,67c2.68,3.16,2.74,5.09,0,8.28-14.55,17.11-28.87,34.39-43.17,51.71a8.14,8.14,0,0,1-6.81,3.2c-32.44.62-61.41,11-86.1,32.1s-39.78,47.86-45.48,79.87c-.26,1.45.19,3.46-1.28,4.07s-2.58-1.09-3.69-2C115.72,230.6,99.3,217,83,203.34c-2.7-2.28-4.44-2.6-7.52-.25C51.85,221.19,28,239,4.27,257,3.22,257.75,2.1,258.45,0,259.87Z" fill="#fff3bf"/>
        <path id="Trazado_199128" data-name="Trazado 199128" d="M180,413.64c.51,2.62,3.19,5.19-.47,7.81-1.52,1.09-.65,3,.7,4.31,4.19,4.18,3.53,8.59-1.63,10.95-1.87.85-2.28,2.12-1.8,4,1.44,5.69-1.57,9-7.59,8.49-1.65-.15-3.43.22-3.26,2,.35,3.68-2,4.34-4.63,5.2s-5,1.29-6.59-1.87a2.24,2.24,0,0,0-2.68-.81c-3.09,5.49-4.84,5.82-10.12,1.92-2.31-3.45-3.62-8.25-9.79-6.3-.5.16-6.1-3.7-3.44-8.32,1-1.78.32-3.46-1.85-4.38-4.87-2.07-5.43-6.48-1.62-10.34,1.7-1.72,2.87-3.88-.29-5.56-2.33-.2-3-1.74-2-3.46,1.6-2.93,2.46-6.78,7-6.85,1.74,0,2.49-1,2.6-2.88.35-5.83,4.92-8.8,10.61-6.89,1.68.57,2.53.65,3.61-1.07,2.68-4.28,9.39-4.4,12.09-.27,1.24,1.89,2.16,2.44,4.37,1.17,3.89-2.24,9.87,1.5,9.86,6,0,2.4.82,3.71,3.37,3.94C178.24,410.66,180.23,411,180,413.64Z" fill="#c5d0e2"/>
        <path id="Trazado_199129" data-name="Trazado 199129" d="M180,413.64c-.41-.52-.77-1.44-1.24-1.5-4.37-.55-8.25-1-6.33-7.36.58-1.94-6.67-4.72-8.7-3.24-2.39,1.74-3.83,1-5.26-1.16a6.64,6.64,0,0,0-11.34.35c-1.25,2.32-2.41,2-4.34.91-3.71-2.14-9.58,1.41-9.5,5.77.06,2.9-.72,4.38-3.94,4.08-4.22-.39-3.59,4-5.55,5.93s.11,2.46,1.14,3.37c-4.37.86-3.42-3-2.62-4.11,2.13-3,2.11-8.68,8.13-7.64,1.48.25,1.37-.69,1.29-1.85a8,8,0,0,1,11.53-7.65c1.52.76,2.2,1.11,2.74-.94.87-3.33,2.43-4.74,6.43-3.26,2.87,1.07,6.71-.39,7.67,4.24a1.106,1.106,0,0,0,2,.22c3.31-4,6-1,8.32,1,1.92,1.6,6.18,2.08,3.77,6.64-.7,1.32,1.41,1.29,2.79,1.44C179.56,409.19,182.11,410.13,180,413.64Z" fill="#272f54"/>
        <path id="Trazado_199130" data-name="Trazado 199130" d="M141.93,455.69c3.83,1.77,7.27,1.5,10.12-1.92-.23,1.25,3.06,1.65.83,3.37-1.92,1.49-3.11,4.52-6.43,3.15-2.27-.92-4.52-1.87-6.92-2.86Z" fill="#555d80"/>
        <path id="Trazado_199131" data-name="Trazado 199131" d="M366.59,128.26c-5.17-7.44-10.16-15-15.6-22.26-2-2.68-1.43-3.92,1-5.42,3.47-2.19,6.89-4.48,10.34-6.73C369.9,90,376.47,84.49,384,80.46c1.3-.7,2.42-1.75,4.06-1.17,4.38,4.16,7.5,9.27,10.78,14.26,1.45,4.74,4.67,8.42,7.5,12.29,7.15,9.83,13.91,19.93,21.05,29.77,2.21,3,2.16,5-1.26,7.29-9.85,6.49-19.93,12.63-29.73,19.19-3.31,2.21-5.35.93-7.37-2C381.7,149.33,374.18,138.77,366.59,128.26Z" fill="#c5d0e2"/>
        <path id="Trazado_199132" data-name="Trazado 199132" d="M398.1,94,387.86,79.45c3.06-5.36,8.74-7.1,13.66-9.87a2.27,2.27,0,0,1,1.92.24c2.8,1.21,7.87,9.82,7.64,13.14-.05.71-.93,1.68.7,1.37,3-.57,4,1.78,5.31,3.64,4.88,6.91,9.61,13.92,14.65,20.72,3.05,4.12,3.12,5,1.41,8.89,5.17-.58,9.73,4.08,11,11.21-1.15,4.07-5.39,4.63-8,7.05-1.33,1.24-3.45,1.34-4.38,3.12-2.24.13-3.15-1.6-4.17-3.06C417.87,121.86,407.89,108,398.1,94Z" fill="#f9af29"/>
        <path id="Trazado_199133" data-name="Trazado 199133" d="M444.13,128.79c-1.55-2.35-3-4.74-4.65-7s-3.07-5.5-6.67-2.17a1.5,1.5,0,0,1-2.22-.29,1.55,1.55,0,0,1,.69-2.47c3.44-1.62,2.31-3.48.66-5.77-5.51-7.67-10.92-15.42-16.31-23.18-1.31-1.89-2.41-3.77-4.95-1.44-.72.65-1.86,1-2.57-.16a1.63,1.63,0,0,1,.74-2.49c3.19-1.56,1.52-3.26.3-5.09-6.28-9.4-6.27-9.42-15.6-3.21-1.92,1.28-3.79,2.64-5.69,4-7.09,4.42-14.17,8.88-21.29,13.26-1.27.77-2.37,2.61-4.29,1.14,2-3.56,5.84-4.72,8.9-6.8,9.35-6.33,19-12.19,28.41-18.43,2.78-1.85,4.65-2.05,6.37,1.14a54.484,54.484,0,0,0,3.61,5.35c2.07,2.92,3.8,6.76,8.37,3.08a1.43,1.43,0,0,1,2.13.59c.6,1.18-.28,2-1.16,2.37-3.91,1.62-2.52,3.65-.78,6.07,5.31,7.42,10.48,14.94,15.71,22.41,1.33,1.9,2.49,4.26,5.39,2,1-.8,2.17-1.11,3,.13,1,1.49-.31,2-1.28,2.58-2.29,1.4-2.05,2.91-.49,4.84a77.064,77.064,0,0,1,5.45,7.71C447.37,129.14,446.73,130,444.13,128.79Z" fill="#2d1f4e"/>
        <path id="Trazado_199134" data-name="Trazado 199134" d="M398.1,94c2.86.22,3.44,2.89,4.69,4.65,8.77,12.27,17.39,24.65,26.06,37,.85,1.21,1.47,2.63,2.92,3.31.24,1.89-1.21,2.59-2.44,3.38-11.57,7.42-23.18,14.77-34.7,22.27-1.94,1.27-3.15,1.33-4.5-.61q-11.52-16.5-23.1-33a2.56,2.56,0,0,1-.44-2.78c2.44-.25,2.91,2,3.88,3.32,6.65,9.33,13.26,18.69,19.68,28.17,1.74,2.56,3,3.19,5.79,1.3q14.69-9.83,29.74-19.12c2.76-1.7,2.72-2.82,1-5.26-9-12.55-17.82-25.2-26.64-37.87C399,97.4,397.2,96.2,398.1,94Z" fill="#2d224f"/>
        <path id="Trazado_199135" data-name="Trazado 199135" d="M444.66,424.1l-1.75.69c-4.87,6.83-8.43,7.6-14.18,2.5C417.83,417.6,407,407.81,396,398.21a2.64,2.64,0,0,1-1.24-2c-4.87-3-6.32-8-3.32-12.62a40.93,40.93,0,0,1,9.22-10.34c4.78-5.64,9.62-11.21,14.67-16.6,3.55-3.81,6.74-4,10.63-.77a52.251,52.251,0,0,0,5.67,4.73c9.23,8.33,18.5,16.62,27.69,25,8.37,7.62,8.61,11.07,1.57,19.68-8.05,1.68-11.32,8.91-16.31,14.12C443.2,420.82,445,422.5,444.66,424.1Z" fill="#c5d0e2"/>
        <path id="Trazado_199136" data-name="Trazado 199136" d="M444.66,424.1c-2.56-2.21-2.91-4.11-.09-6.73a107.449,107.449,0,0,0,9.49-10.59c2-2.4,4.14-3,6.87-1.56a1.29,1.29,0,0,0,.58.64c2.2,2.68,1.65,5.09-.71,7.34s-4.27,5-6.62,7.25C451.46,422.86,450,428.42,444.66,424.1Z" fill="#f5af2d"/>
        <path id="Trazado_199137" data-name="Trazado 199137" d="M394.8,396.16l31,27.1c8.41,7.3,8.44,7.26,17.09,1.53-1.85,6.75-7.42,9.13-12.65,4.76-10.32-8.63-20.35-17.61-30.26-26.71C398,401,394.18,400.18,394.8,396.16Z" fill="#263a66"/>
        <path id="Trazado_199138" data-name="Trazado 199138" d="M431.67,360.56c-3,.41-4.17-2.3-6-3.77-4-3.24-6.26-3.32-9.76.49-3.92,4.25-7.63,8.7-11.51,13-1.05,1.16-1.64,3-3.71,2.92.77-4.24,4.59-6.29,6.87-9.44,2.12-2.93,4.82-5.44,7.26-8.14,3.82-4.21,7.17-4.54,11.49-.79C428.28,356.54,430.67,357.93,431.67,360.56Z" fill="#243a65"/>
        <path id="Trazado_199139" data-name="Trazado 199139" d="M454.18,420.45c.31-3.06,2.79-4.71,4.71-6.47,2.57-2.36,3.52-4.84,2.62-8.12a3.1,3.1,0,0,1,1.91,5C460.83,414.43,458.66,418.61,454.18,420.45Z" fill="#2e395b"/>
        <path id="Trazado_199140" data-name="Trazado 199140" d="M102,112.19q21.5,16,43,32.05c9.37,6.94,10.09,11.56,3,20.44-2.17,3-5.17,3.56-8.44,2.57-2.62-.79-4.31-.17-6,2-6.7,8.48-12.83,17.39-19.38,26-.67.87-1.9,1.79-1.22,3s2.3,1.11,3.61,1c2.55-.15,4.23-1.71,5.68-3.64,4.18-5.6,8.4-11.16,12.57-16.77,1.18-1.59,2.24-4.11,5-2a121.371,121.371,0,0,1-17.51,24c-2.64,2.89-11.08,2.59-14.21.36-1.41-1-1.5-2-.54-3.34.77-1.07,1.4-2.22,2.1-3.34,0-2.37-1.8-3.4-3.36-4.59-13.76-10.61-28-20.65-41.81-31.14-5-3.77-5.8-6-4.35-11.22,5.94-10.41,13.91-19.37,20.68-29.19,3.93-5.7,8.84-10.72,11.67-17.22,1.58-3.62,5.12-4.43,8.47-3.12,2.53,1,4.68,3.07,6.86,4.85,1.06.86.5,1.73-.64,2.21-2.65.47-4.15-1.62-6.09-2.73-1.5-.87-3.11-1.53-4.48,0s-.35,3,.55,4.46C98.47,108.91,101.37,109.52,102,112.19Z" fill="#212250"/>
        <path id="Trazado_199141" data-name="Trazado 199141" d="M139.82,176.85c-2.18-.61-2.86,1.17-3.81,2.44-4.27,5.71-8.58,11.38-12.7,17.19-1.65,2.31-3.54,3.9-6.39,4.18-2.2.21-5,.23-6.08-1.34-1.25-1.77,1.3-3.34,2.39-4.82,6.57-8.95,13.34-17.74,19.79-26.77,1.59-2.24,2.77-3.32,5.49-2,3.3,1.64,6.45.42,9.49-1.08C146,169.2,142.28,172.61,139.82,176.85Z" fill="#acbacd"/>
        <path id="Trazado_199142" data-name="Trazado 199142" d="M60.14,147.6c-.45,4.62,1.6,7.79,5.31,10.49,14.36,10.47,28.6,21.11,42.85,31.74,1.54,1.14,4.41,2.15,1.36,4.72-15.78-11.74-31.61-23.41-47.3-35.28C57.1,155.3,56.69,151.9,60.14,147.6Z" fill="#bbcfe1"/>
        <path id="Trazado_199143" data-name="Trazado 199143" d="M102,112.19c-2.28-1.37-4.61-2.74-6.2-4.92-1.3-1.77-2.54-3.81-.57-5.85s4.06-2,6.29-.39c1.87,1.39,3.77,2.73,5.66,4.1a12.87,12.87,0,0,1-5.18,7.06Z" fill="#a9b6cb"/>
        <path id="Trazado_199144" data-name="Trazado 199144" d="M137.92,431.71a15.14,15.14,0,0,1,6.88-17.91c6.9-3.93,14.68-2.42,20.08,3.88,0,3.07,2.51,5.27,2.63,8.39.34,8.67-5,15.34-13,16.56-6.64,1-16.35-6.23-16-13.55a1.55,1.55,0,0,0-.15-.89C138.34,429.34,139,430.62,137.92,431.71Z" fill="#364a60"/>
        <path id="Trazado_199145" data-name="Trazado 199145" d="M137.92,431.71v-6.25c.73,6.73,3.75,11.67,9.6,14.92,4.39,2.44,11,1.19,15-2.89,4.36-4.43,5.48-10.29,3-15-.78-1.47-2.6-2.95-.66-4.85,5.63,8,4.05,18.65-3.49,23.53s-18,2-23-6.63a8.72,8.72,0,0,1-.45-2.83Z" fill="#282e53"/>
        <path id="Trazado_199146" data-name="Trazado 199146" d="M415.72,134.91c-.28.38-.55,1.05-.82,1.05-.58,0-1.45-.18-1.68-.59-1.28-2.26-3.52-3.93-4-6.61,0-.18.86-.82,1-.73,2.25,1.25,3.1,3.71,4.67,5.56a9.16,9.16,0,0,1,.83,1.32Z" fill="#484c72"/>
        <path id="Trazado_199147" data-name="Trazado 199147" d="M388.51,117.29c3.07,1.81,5.05,4.39,6.43,9C390.88,123.58,389.29,120.72,388.51,117.29Z" fill="#42466a"/>
        <path id="Trazado_199148" data-name="Trazado 199148" d="M378.55,122.7c1.4.69,2,.78,2.22,1.12,1.48,2.26,3.77,4,4.32,6.85,0,.17-1,.76-1,.69a17.44,17.44,0,0,1-5.54-8.66Z" fill="#414469"/>
        <path id="Trazado_199149" data-name="Trazado 199149" d="M372.24,114.21c-3.34-2.06-4.28-4.82-6-6.94-.42-.53-.6-1.2.17-1.67a1.05,1.05,0,0,1,1.62.46C369.44,108.34,371.85,110.08,372.24,114.21Z" fill="#393d65"/>
        <path id="Trazado_199150" data-name="Trazado 199150" d="M375.43,99.59c1.08-.65,1.63-.25,2,.29,1.43,2.3,3.8,4,4.17,6.93a2.14,2.14,0,0,1-1.16.5C378.38,105,376,102.8,375.43,99.59Z" fill="#42456b"/>
        <path id="Trazado_199151" data-name="Trazado 199151" d="M391,99.84c-.25.59-.32,1.19-.64,1.38a1.38,1.38,0,0,1-1.27-.14,4.43,4.43,0,0,1-1.19-1.53c-1-2-3.31-3.2-3.13-5.75,0-.18,1-.54,1.12-.44C387.66,95.49,389.33,97.66,391,99.84Z" fill="#3e4368"/>
        <path id="Trazado_199152" data-name="Trazado 199152" d="M403.34,119.19c-3.33-1.5-4.76-4.39-5.81-7.56C400.88,113.05,402.19,116.05,403.34,119.19Z" fill="#43486e"/>
        <path id="Trazado_199153" data-name="Trazado 199153" d="M390.47,139.13a15.27,15.27,0,0,1,6.78,9.73C393.61,145.85,391.67,143.46,390.47,139.13Z" fill="#383d61"/>
        <path id="Trazado_199154" data-name="Trazado 199154" d="M406,141.36c-3.21-1.35-4.55-4.14-5.48-7.26C403.63,135.42,404.59,138.54,406,141.36Z" fill="#33375a"/>
        <path id="Trazado_199155" data-name="Trazado 199155" d="M434.15,391.19q-7.47,8.34-14.95,16.67l-1.42-1.27L432.65,390Z" fill="#3f436a"/>
        <path id="Trazado_199156" data-name="Trazado 199156" d="M422.13,380.68l-14.79,16.66L406,396.13l14.82-16.69Z" fill="#393e65"/>
        <path id="Trazado_199157" data-name="Trazado 199157" d="M429.32,416l14.93-16.79,1.35,1.17q-7.46,8.41-14.9,16.82Z" fill="#3a3e63"/>
        <path id="Trazado_199158" data-name="Trazado 199158" d="M451,401.29c-1.79-3.58-2.71-6.81-2.41-9.67.43-4.08,3.48-1.54,5.89-1.25C446.82,392,453.53,397.51,451,401.29Z" fill="#3f426b"/>
        <path id="Trazado_199159" data-name="Trazado 199159" d="M430.88,370.22c-7.87,1.95-.39,7.65-3.25,11a15.71,15.71,0,0,1-2.5-9.32C425.26,367.5,428.62,370.65,430.88,370.22Z" fill="#3f426b"/>
        <path id="Trazado_199160" data-name="Trazado 199160" d="M443.49,381.34c-2.38,1.09-5.71.06-4.26,3.77a9.15,9.15,0,0,1,.49,6.71c-2.19-3.13-2.24-6.42-2.75-9.46C436.59,380.07,437.29,379.93,443.49,381.34Z" fill="#31335c"/>
        <path id="Trazado_199161" data-name="Trazado 199161" d="M148.23,159.81c-2.13,4.74-6.15,5.08-10,3.33-3.22-1.45-4.56-.56-6.33,2-5.27,7.47-10.87,14.71-16.17,22.15-1.85,2.61-3.17,2.86-5.87.82-14.16-10.74-28.54-21.2-42.78-31.83-5.43-4.06-5.93-7.25-1.91-12.57,8.6-11.38,16.6-23.21,25.79-34.14,5.52,3.36,10.49,7.49,15.61,11.38,11.75,8.93,24,17.14,35.63,26.26C146.17,150.29,150.83,153.4,148.23,159.81Z" fill="#c5d0e2"/>
        <path id="Trazado_199162" data-name="Trazado 199162" d="M148.23,159.81c.62-5.38-2.66-8.68-6.45-11.5-15.67-11.68-31.42-23.25-47.14-34.86-1.47-1.09-3-2.15-3.7-3.93.45-1,.27-3.22,2.27-1.46,12,10.56,25.37,19.18,38,28.89,5.38,4.14,11,8.07,16.09,12.5C150.57,152.3,151.83,156,148.23,159.81Z" fill="#2bbcac"/>
        <path id="Trazado_199163" data-name="Trazado 199163" d="M146.78,415.49c3.13-2.82,6.7-1.84,10.24-1.29C153.69,415.05,150.12,413.8,146.78,415.49Z" fill="#7e86a9"/>
        <path id="Trazado_199164" data-name="Trazado 199164" d="M107.79,131.27c.36.26.89.46,1.07.83.45.9-.27,1.56-.74,2.21q-5,6.83-10,13.63-4.59,6.21-9.22,12.36c-.47.62-1,1.59-1.93,1a1.46,1.46,0,0,1-.2-2.2Q96.85,145.49,107,131.94a4.55,4.55,0,0,1,.79-.67Z" fill="#2b2b57"/>
        <path id="Trazado_199165" data-name="Trazado 199165" d="M116.86,138.22c-.51.76-1,1.45-1.45,2.12q-9,12.18-18.07,24.34c-.69.92-1.37,3-2.89,1.73s.36-2.35,1-3.3q8.93-12.24,18-24.39c.64-.86,1.06-2.27,2.6-1.66C116.44,137.2,116.6,137.81,116.86,138.22Z" fill="#2c2b56"/>
        <path id="Trazado_199166" data-name="Trazado 199166" d="M122.67,141.88a2.05,2.05,0,0,1-.15,2.73q-9.42,12.79-18.88,25.56c-.64.86-1.3,2.34-2.68,1.39-1.15-.8-.1-1.81.43-2.53q9.9-13.36,19.89-26.68C121.51,142,122.15,142,122.67,141.88Z" fill="#2c2c57"/>
        <path id="Trazado_199167" data-name="Trazado 199167" d="M79.69,155.61c-.24-.14-.91-.32-1-.61a2.65,2.65,0,0,1,.26-1.81c2-2.82,4.13-5.57,6.22-8.33.4-.53.87-1.11,1.61-.8a1.84,1.84,0,0,1,.93,1C88,145.76,80.66,155.47,79.69,155.61Z" fill="#34385f"/>
        <path id="Trazado_199168" data-name="Trazado 199168" d="M123.29,160.68c-1.07-.38-1.56-1.06-1-1.91,2.2-3.12,4.48-6.17,6.76-9.23a1.26,1.26,0,0,1,1.76-.36c.83.57.75,1.37.18,2.13-2.2,2.92-4.37,5.85-6.6,8.73C124.17,160.38,123.63,160.5,123.29,160.68Z" fill="#353762"/>
        <path id="Trazado_199169" data-name="Trazado 199169" d="M147.87,107l3,7-4.1,1.73-8.42-19.88,7.76-3.29a9.86,9.86,0,0,1,4.29-.85,6.67,6.67,0,0,1,3.6,1.22,7.19,7.19,0,0,1,2.37,3,6.22,6.22,0,0,1-.05,5.46,9.07,9.07,0,0,1-4.83,4Zm-1.4-3.32,3.66-1.55a3.9,3.9,0,0,0,2.15-1.81,3,3,0,0,0-.07-2.55,3.57,3.57,0,0,0-1.86-2,3.48,3.48,0,0,0-2.77.08l-3.76,1.59Z" fill="#12263f"/>
        <path id="Trazado_199170" data-name="Trazado 199170" d="M168.69,106.45l-4,1.67-8.89-21,4-1.68Z" fill="#12263f"/>
        <path id="Trazado_199171" data-name="Trazado 199171" d="M180.5,101.44a4.61,4.61,0,0,1-.95-1.16,5.22,5.22,0,0,1-3.06,3.18,5.73,5.73,0,0,1-4.13.27,4.4,4.4,0,0,1-2.76-2.57,4.5,4.5,0,0,1,.21-4.34,9.29,9.29,0,0,1,4.49-3.4l1.82-.77-.36-.85a2.62,2.62,0,0,0-1.22-1.41,2.25,2.25,0,0,0-1.92.09,2.54,2.54,0,0,0-1.36,1.14,1.75,1.75,0,0,0,0,1.55l-3.95,1.67a4.32,4.32,0,0,1-.21-2.71,5.67,5.67,0,0,1,1.51-2.66,8.82,8.82,0,0,1,3-2,7,7,0,0,1,4.92-.47,5.21,5.21,0,0,1,3.23,3.18l2.72,6.41a7.79,7.79,0,0,0,1.93,2.93l.1.23Zm-4.42-1.36A3.78,3.78,0,0,0,177.52,99a2.71,2.71,0,0,0,.65-1.51L177.1,95l-1.48.62c-2,.84-2.74,2-2.28,3.39l.08.24a1.71,1.71,0,0,0,1,1,2.24,2.24,0,0,0,1.66-.17Z" fill="#12263f"/>
        <path id="Trazado_199172" data-name="Trazado 199172" d="M184.31,82.4l.84,1.66a5.62,5.62,0,0,1,3.41-3.78,4.65,4.65,0,0,1,4.08-.11,7,7,0,0,1,2.93,3.63l4,9.55-4,1.67-4-9.45A2.72,2.72,0,0,0,190.34,84a2.63,2.63,0,0,0-2.06.2,2.94,2.94,0,0,0-1.89,2.48L190.8,97.1l-4,1.67L180.59,84Z" fill="#12263f"/>
        <path id="Trazado_199173" data-name="Trazado 199173" d="M194.69,73.49a2.08,2.08,0,0,1,0-1.71,2.77,2.77,0,0,1,3.23-1.37,2.242,2.242,0,0,1,1.22,2.94,2.46,2.46,0,0,1-1.37,1.25,2.43,2.43,0,0,1-1.84.11,2.13,2.13,0,0,1-1.24-1.22Zm12.08,16.83-4,1.67-6.25-14.77,4-1.68Z" fill="#12263f"/>
        <path id="Trazado_199174" data-name="Trazado 199174" d="M211.1,88.48l-5-11.88-2.2.93-1.22-2.89,2.2-.94-.54-1.25a5.51,5.51,0,0,1-.2-4.46,6,6,0,0,1,3.41-3.07,10.521,10.521,0,0,1,2.12-.58l1.26,3.08a5.87,5.87,0,0,0-1.26.39q-2.22.94-1.34,3L208.8,72l2.93-1.25,1.23,2.9L210,74.92l5,11.89Z" fill="#12263f"/>
        <path id="Trazado_199175" data-name="Trazado 199175" d="M212.13,66.1a2.08,2.08,0,0,1,0-1.71,2.41,2.41,0,0,1,1.37-1.26,2.48,2.48,0,0,1,1.86-.11A2.27,2.27,0,0,1,216.58,66a2.43,2.43,0,0,1-1.37,1.25,2.38,2.38,0,0,1-1.84.11A2.13,2.13,0,0,1,212.13,66.1ZM224.2,82.93l-3.95,1.68L214,69.83l4-1.68Z" fill="#12263f"/>
        <path id="Trazado_199176" data-name="Trazado 199176" d="M232.37,76a2.83,2.83,0,0,0,1.52-1.35,2.25,2.25,0,0,0,0-1.9l3.7-1.57a5.42,5.42,0,0,1,.35,3.1,5.79,5.79,0,0,1-1.38,2.87,7.54,7.54,0,0,1-2.8,2,7,7,0,0,1-5.86.11,8.67,8.67,0,0,1-4.18-4.79l-.11-.26a8.57,8.57,0,0,1-.5-6.22,6.93,6.93,0,0,1,4.13-4.15,6.8,6.8,0,0,1,5.11-.31,6.11,6.11,0,0,1,3.48,3.48l-3.7,1.57a3,3,0,0,0-1.5-1.57A2.87,2.87,0,0,0,226.89,69a6.26,6.26,0,0,0,.68,3.56l.17.41a6.45,6.45,0,0,0,2.09,3,2.61,2.61,0,0,0,2.54.03Z" fill="#12263f"/>
        <path id="Trazado_199177" data-name="Trazado 199177" d="M250.61,71.74a4.37,4.37,0,0,1-1-1.15,5.21,5.21,0,0,1-3.05,3.18,5.68,5.68,0,0,1-4.13.26,4.38,4.38,0,0,1-2.77-2.56,4.5,4.5,0,0,1,.21-4.34,9.26,9.26,0,0,1,4.5-3.4l1.81-.77-.36-.85a2.64,2.64,0,0,0-1.22-1.42,2.25,2.25,0,0,0-1.92.09,2.54,2.54,0,0,0-1.36,1.14,1.79,1.79,0,0,0,0,1.55l-3.95,1.67a4.31,4.31,0,0,1-.21-2.71,5.67,5.67,0,0,1,1.51-2.66,9,9,0,0,1,3-2,7,7,0,0,1,4.92-.46,5.24,5.24,0,0,1,3.24,3.18l2.71,6.4a7.63,7.63,0,0,0,1.93,2.93l.1.24Zm-4.43-1.36a3.59,3.59,0,0,0,1.44-1.07,2.8,2.8,0,0,0,.66-1.51l-1.08-2.54-1.48.63c-2,.84-2.73,2-2.28,3.38l.08.24a1.75,1.75,0,0,0,1,1,2.19,2.19,0,0,0,1.66-.13Z" fill="#12263f"/>
        <path id="Trazado_199178" data-name="Trazado 199178" d="M260.65,54.43a11.461,11.461,0,0,0-1.47.49c-1.49.63-2.26,1.55-2.29,2.76L261,67.35,257,69l-6.26-14.78,3.73-1.58.85,1.72A4,4,0,0,1,257.79,51a4.23,4.23,0,0,1,1.31-.34Z" fill="#12263f"/>
        <path id="Trazado_199179" data-name="Trazado 199179" d="M287.76,477l-1.83-16.86,4.56-1.93L292,481l-4.27,1.81-15.32-17,4.54-1.92Z" fill="#fff"/>
        <path id="Trazado_199180" data-name="Trazado 199180" d="M306.84,475.05a7.89,7.89,0,0,1-6.14.25,7.75,7.75,0,0,1-4.29-4.45l-.16-.38a9.83,9.83,0,0,1-.83-4.35,6.85,6.85,0,0,1,1.3-3.74,7.41,7.41,0,0,1,3.19-2.47,6.67,6.67,0,0,1,5.59-.11,8.41,8.41,0,0,1,4,4.68l.69,1.61-9.41,4a4,4,0,0,0,2.13,1.83,3.78,3.78,0,0,0,2.81-.15,4.65,4.65,0,0,0,2.87-3.17l2.86,1.35a6.41,6.41,0,0,1-1.58,3A8.49,8.49,0,0,1,306.84,475.05Zm-5.59-11.95a2.64,2.64,0,0,0-1.57,1.6,4.5,4.5,0,0,0,0,2.67l5.49-2.32-.13-.32a3.16,3.16,0,0,0-1.58-1.73,2.72,2.72,0,0,0-2.21.1Z" fill="#fff"/>
        <path id="Trazado_199181" data-name="Trazado 199181" d="M318.66,456.66a11.454,11.454,0,0,0-1.47.49c-1.5.63-2.26,1.55-2.3,2.76l4.1,9.67L315,471.25l-6.26-14.78,3.73-1.57.86,1.71a4,4,0,0,1,2.43-3.43,4.47,4.47,0,0,1,1.3-.34Z" fill="#fff"/>
        <path id="Trazado_199182" data-name="Trazado 199182" d="M317.34,448.34a2.12,2.12,0,0,1,0-1.71,2.79,2.79,0,0,1,3.23-1.37,2.05,2.05,0,0,1,1.22,1.21,2.09,2.09,0,0,1,0,1.73,2.76,2.76,0,0,1-3.21,1.36A2.09,2.09,0,0,1,317.34,448.34Zm12.07,16.83-4,1.67-6.26-14.77,4-1.68Z" fill="#fff"/>
        <path id="Trazado_199183" data-name="Trazado 199183" d="M333.74,463.33l-5-11.88-2.2.93-1.23-2.89,2.2-.94L327,447.3a5.58,5.58,0,0,1-.21-4.47,6,6,0,0,1,3.41-3.06,10.641,10.641,0,0,1,2.13-.58l1.25,3.08a5.639,5.639,0,0,0-1.25.39c-1.49.63-1.93,1.64-1.34,3l.5,1.19,2.94-1.25,1.22,2.9-2.93,1.24,5,11.88Z" fill="#fff"/>
        <path id="Trazado_199184" data-name="Trazado 199184" d="M334.78,441a2.12,2.12,0,0,1,0-1.71,2.47,2.47,0,0,1,1.38-1.26,2.41,2.41,0,0,1,1.85-.11,2.27,2.27,0,0,1,1.24,2.94,2.76,2.76,0,0,1-3.21,1.36,2.09,2.09,0,0,1-1.26-1.22Zm12.07,16.83-4,1.68-6.26-14.78,4-1.68Z" fill="#fff"/>
        <path id="Trazado_199185" data-name="Trazado 199185" d="M355,450.89a2.86,2.86,0,0,0,1.53-1.35,2.32,2.32,0,0,0,0-1.9l3.7-1.57a5.58,5.58,0,0,1,.35,3.1,5.89,5.89,0,0,1-1.39,2.87,7.461,7.461,0,0,1-2.8,2,7,7,0,0,1-5.85.11,8.67,8.67,0,0,1-4.19-4.8l-.11-.26a8.53,8.53,0,0,1-.49-6.21,6.86,6.86,0,0,1,4.12-4.15,6.75,6.75,0,0,1,5.11-.31,6,6,0,0,1,3.48,3.48l-3.7,1.57a2.93,2.93,0,0,0-1.5-1.57,2.55,2.55,0,0,0-2.11,0,2.6,2.6,0,0,0-1.66,1.89,6.43,6.43,0,0,0,.68,3.56l.18.41a6.44,6.44,0,0,0,2.08,3A2.64,2.64,0,0,0,355,450.89Z" fill="#fff"/>
        <path id="Trazado_199186" data-name="Trazado 199186" d="M373.25,446.59a4.791,4.791,0,0,1-1-1.15,5.18,5.18,0,0,1-3.05,3.18,5.68,5.68,0,0,1-4.13.26,4.38,4.38,0,0,1-2.77-2.56,4.55,4.55,0,0,1,.21-4.34,9.38,9.38,0,0,1,4.5-3.41l1.82-.76-.36-.85a2.68,2.68,0,0,0-1.22-1.42,2.25,2.25,0,0,0-1.92.09,2.57,2.57,0,0,0-1.37,1.14,1.79,1.79,0,0,0,0,1.55L360.05,440a4.24,4.24,0,0,1-.22-2.71,5.69,5.69,0,0,1,1.52-2.66,8.92,8.92,0,0,1,3-2,7,7,0,0,1,4.92-.46,5.2,5.2,0,0,1,3.24,3.17l2.71,6.41a7.63,7.63,0,0,0,1.94,2.93l.1.24Zm-4.43-1.36a3.55,3.55,0,0,0,1.45-1.07,2.78,2.78,0,0,0,.65-1.51l-1.08-2.54-1.47.63q-3,1.25-2.29,3.38l.08.24a1.77,1.77,0,0,0,1,1,2.17,2.17,0,0,0,1.66-.13Z" fill="#fff"/>
        <path id="Trazado_199187" data-name="Trazado 199187" d="M383.29,429.28a11.266,11.266,0,0,0-1.46.49c-1.5.63-2.26,1.55-2.3,2.76l4.1,9.67-3.95,1.67-6.26-14.78,3.73-1.58.86,1.72a4,4,0,0,1,2.42-3.43,4.3,4.3,0,0,1,1.31-.34Z" fill="#fff"/>
        <path id="Trazado_199188" data-name="Trazado 199188" d="M446.3,201.24,444.9,197l8.79-2.9L451,185.88l-8.79,2.9-1.4-4.23,20.51-6.76,1.4,4.23-8.31,2.74L457.1,193l8.31-2.74,1.4,4.23Z" fill="#fff"/>
        <path id="Trazado_199189" data-name="Trazado 199189" d="M450.33,213.5a5,5,0,0,1,1.24-.86,5.16,5.16,0,0,1-2.92-3.3,5.72,5.72,0,0,1,.07-4.14,4.37,4.37,0,0,1,2.79-2.55,4.55,4.55,0,0,1,4.31.57,9.34,9.34,0,0,1,3,4.76l.62,1.87.87-.28a2.68,2.68,0,0,0,1.51-1.1,2.25,2.25,0,0,0,.07-1.92,2.53,2.53,0,0,0-1-1.45,1.74,1.74,0,0,0-1.55-.14L458,200.89a4.29,4.29,0,0,1,2.72,0,5.79,5.79,0,0,1,2.53,1.73,8.84,8.84,0,0,1,1.74,3.14,7,7,0,0,1,.06,4.94,5.19,5.19,0,0,1-3.43,3L455,215.85a7.7,7.7,0,0,0-3.08,1.68l-.24.08Zm1.73-4.3a3.67,3.67,0,0,0,.95,1.53,2.69,2.69,0,0,0,1.44.77l2.63-.86-.51-1.52q-1-3.06-3.18-2.56l-.25.06a1.74,1.74,0,0,0-1.07.95,2.17,2.17,0,0,0-.01,1.63Z" fill="#fff"/>
        <path id="Trazado_199190" data-name="Trazado 199190" d="M457.61,225.48a2.82,2.82,0,0,0,1.22,1.63,2.25,2.25,0,0,0,1.89.19l1.26,3.82a5.49,5.49,0,0,1-3.11.09,5.8,5.8,0,0,1-2.75-1.62,7.45,7.45,0,0,1-1.77-3,7,7,0,0,1,.38-5.84,8.63,8.63,0,0,1,5.12-3.78l.27-.09a8.52,8.52,0,0,1,6.24,0,6.92,6.92,0,0,1,3.79,4.45,6.72,6.72,0,0,1-.12,5.12,6,6,0,0,1-3.75,3.18L465,225.88a2.785,2.785,0,0,0,.08-5.28,6.43,6.43,0,0,0-3.61.39l-.42.14a6.48,6.48,0,0,0-3.15,1.83,2.61,2.61,0,0,0-.29,2.52Z" fill="#fff"/>
        <path id="Trazado_199191" data-name="Trazado 199191" d="M459.51,242.29a7.86,7.86,0,0,1,.26-6.14,7.67,7.67,0,0,1,4.78-3.91l.4-.13a9.82,9.82,0,0,1,4.4-.47,6.89,6.89,0,0,1,3.61,1.6,7.47,7.47,0,0,1,2.21,3.39,6.68,6.68,0,0,1-.35,5.57,8.47,8.47,0,0,1-5,3.64l-1.67.55L465,236.68a4,4,0,0,0-2,2,3.82,3.82,0,0,0-.07,2.81,4.64,4.64,0,0,0,2.92,3.12l-1.58,2.74a6.37,6.37,0,0,1-2.84-1.82A8.57,8.57,0,0,1,459.51,242.29Zm12.37-4.6a2.7,2.7,0,0,0-1.47-1.69,4.46,4.46,0,0,0-2.67-.19l1.87,5.66.33-.1a3.25,3.25,0,0,0,1.86-1.43,2.79,2.79,0,0,0,.08-2.25Z" fill="#fff"/>
        <path id="Trazado_199192" data-name="Trazado 199192" d="M476.87,255.57a13.725,13.725,0,0,0-.37-1.5c-.51-1.54-1.37-2.38-2.57-2.51l-10,3.28-1.34-4.07,15.24-5,1.27,3.85-1.78.71a4,4,0,0,1,3.22,2.7,4.831,4.831,0,0,1,.23,1.33Z" fill="#fff"/>
        <path id="Trazado_199193" data-name="Trazado 199193" d="M71.15,303.12l-2.44-7.4H64.02l-1.48-4.49,23,.87,1.31,3.9-18,14.43-1.48-4.49Zm1.36-7.39,1.69,5.13,6.8-5.11Z" fill="#fff"/>
        <path id="Trazado_199194" data-name="Trazado 199194" d="M74.51,317.43a2.77,2.77,0,0,0,1.22,1.63,2.29,2.29,0,0,0,1.89.19l1.26,3.82a5.53,5.53,0,0,1-3.12.09A5.84,5.84,0,0,1,73,321.54a7.47,7.47,0,0,1-1.76-3,7,7,0,0,1,.38-5.84,8.68,8.68,0,0,1,5.12-3.7l.27-.08a8.52,8.52,0,0,1,6.24,0A6.86,6.86,0,0,1,87,313.35a6.77,6.77,0,0,1-.11,5.12,6.06,6.06,0,0,1-3.76,3.18l-1.25-3.82a3,3,0,0,0,1.69-1.37A2.87,2.87,0,0,0,82,312.55a6.3,6.3,0,0,0-3.6.39l-.42.13a6.35,6.35,0,0,0-3.15,1.84,2.61,2.61,0,0,0-.32,2.52Z" fill="#fff"/>
        <path id="Trazado_199195" data-name="Trazado 199195" d="M95,325.74,91.22,327l.86,2.6-3,1-.84-2.6-7.61,2.51a1.9,1.9,0,0,0-1.1.72,1.69,1.69,0,0,0,0,1.36,7.23,7.23,0,0,0,.49,1.17l-3.08,1a8.87,8.87,0,0,1-1.18-2.34q-1.41-4.29,2.88-5.79l8.21-2.71-.73-2.23,3-1,.73,2.23,3.75-1.24Z" fill="#fff"/>
        <path id="Trazado_199196" data-name="Trazado 199196" d="M82.15,345.49a5.36,5.36,0,0,1-3.21-3.57,5,5,0,0,1,.18-4.2A6.31,6.31,0,0,1,82.81,335l10-3.29,1.34,4.07-9.86,3.25c-1.59.53-2.14,1.51-1.67,3A3.1,3.1,0,0,0,85,344.4l10.8-3.56,1.35,4.08L81.9,350l-1.27-3.84Z" fill="#fff"/>
        <path id="Trazado_199197" data-name="Trazado 199197" d="M85.82,361.85a4.5,4.5,0,0,1,1.23-.86,5.21,5.21,0,0,1-2.92-3.3,5.71,5.71,0,0,1,.08-4.14A4.38,4.38,0,0,1,87,351a4.55,4.55,0,0,1,4.31.57,9.28,9.28,0,0,1,3,4.76l.62,1.87.87-.29a2.65,2.65,0,0,0,1.52-1.09,2.25,2.25,0,0,0,.06-1.92,2.55,2.55,0,0,0-1-1.46,1.75,1.75,0,0,0-1.54-.13l-1.35-4.07a4.29,4.29,0,0,1,2.72,0A5.73,5.73,0,0,1,98.73,351a8.86,8.86,0,0,1,1.75,3.14,7,7,0,0,1,.06,4.94,5.23,5.23,0,0,1-3.44,3l-6.6,2.18a7.63,7.63,0,0,0-3.09,1.68l-.24.08Zm1.72-4.3a3.67,3.67,0,0,0,.95,1.53,2.82,2.82,0,0,0,1.45.77l2.62-.86-.5-1.52c-.67-2-1.73-2.9-3.19-2.56l-.24.06a1.74,1.74,0,0,0-1.08.95,2.22,2.22,0,0,0-.01,1.63Z" fill="#fff"/>
        <path id="Trazado_199198" data-name="Trazado 199198" d="M102.25,373.28a11.751,11.751,0,0,0-.37-1.5c-.51-1.54-1.36-2.38-2.56-2.51l-10,3.28L88,368.48l15.24-5,1.26,3.85-1.77.71a4,4,0,0,1,3.21,2.7,4.5,4.5,0,0,1,.24,1.33Z" fill="#fff"/>
      </g>
    </g>
    <path id="Trazado_200688" data-name="Trazado 200688" d="M-47.277-3.8a4.254,4.254,0,0,1-.8,2.09,4.375,4.375,0,0,1-1.75,1.4A5.329,5.329,0,0,1-52.16.156a3.936,3.936,0,0,1-1.961-.52A3.443,3.443,0,0,1-55.437-1.8a5.312,5.312,0,0,1-.543-2.168,10.634,10.634,0,0,1,.2-2.391A7.578,7.578,0,0,1-54.875-8.9a5.666,5.666,0,0,1,1.551-1.758,4.679,4.679,0,0,1,2.891-.875,3.839,3.839,0,0,1,2.8,1.09A4.384,4.384,0,0,1-46.5-7.5l-2.281-.008a2.391,2.391,0,0,0-.43-1.578,1.752,1.752,0,0,0-1.336-.531,2.319,2.319,0,0,0-1.926.836A5.027,5.027,0,0,0-53.48-6.227,14.155,14.155,0,0,0-53.7-3.781a2.434,2.434,0,0,0,.461,1.52,1.543,1.543,0,0,0,1.18.512,2.356,2.356,0,0,0,1.676-.5,2.625,2.625,0,0,0,.832-1.535ZM-44.129,0h-2.219l1.469-8.453h2.219Zm-.492-10.6a1.1,1.1,0,0,1,.344-.867,1.209,1.209,0,0,1,.867-.344,1.215,1.215,0,0,1,.867.3,1.1,1.1,0,0,1,.383.828,1.132,1.132,0,0,1-.324.844,1.215,1.215,0,0,1-.887.375,1.235,1.235,0,0,1-.863-.3A1.091,1.091,0,0,1-44.621-10.6Zm6.063,8.945a1.447,1.447,0,0,0,1.016-.332,1.632,1.632,0,0,0,.531-.926l2.07-.008a3.037,3.037,0,0,1-.559,1.6A3.394,3.394,0,0,1-36.844-.211a3.847,3.847,0,0,1-1.77.375A3.123,3.123,0,0,1-41.051-.9a3.965,3.965,0,0,1-.867-2.766l.023-.43.008-.086A5.284,5.284,0,0,1-40.5-7.449a3.761,3.761,0,0,1,2.914-1.16,3.047,3.047,0,0,1,2.27.934A3.3,3.3,0,0,1-34.488-5.3h-2.055a1.73,1.73,0,0,0-.3-1.07,1.128,1.128,0,0,0-.891-.422q-1.578-.047-1.914,2.3a7.782,7.782,0,0,0-.086,1.438Q-39.652-1.68-38.559-1.656ZM-31.762,0H-33.98l2.086-12h2.211Zm6.7-8.609a3.39,3.39,0,0,1,1.926.574A3.234,3.234,0,0,1-21.945-6.5a4.762,4.762,0,0,1,.27,2.176,5.143,5.143,0,0,1-1.4,3.262A3.96,3.96,0,0,1-26.1.156,3.38,3.38,0,0,1-28-.41a3.222,3.222,0,0,1-1.187-1.527,4.657,4.657,0,0,1-.273-2.156,5.3,5.3,0,0,1,1.422-3.328A3.878,3.878,0,0,1-25.059-8.609Zm-2.227,5.315a1.95,1.95,0,0,0,.352,1.182,1.168,1.168,0,0,0,.945.449A1.712,1.712,0,0,0-24.395-2.6a4.647,4.647,0,0,0,.539-2.531,2.122,2.122,0,0,0-.363-1.2,1.149,1.149,0,0,0-.949-.464,1.715,1.715,0,0,0-1.574.924A4.6,4.6,0,0,0-27.285-3.294ZM-12.9-8.617A2.4,2.4,0,0,1-11-7.672L-10.168-12h2.211L-10.035,0H-12l.125-.906a2.736,2.736,0,0,1-2.2,1.07A2.433,2.433,0,0,1-15.465-.25a2.607,2.607,0,0,1-.918-1.168,4.7,4.7,0,0,1-.355-1.7,6.4,6.4,0,0,1,.023-.953l.047-.352A6.767,6.767,0,0,1-15.945-6.7a3.766,3.766,0,0,1,1.313-1.461A3.094,3.094,0,0,1-12.9-8.617ZM-14.5-4.07a6.327,6.327,0,0,0-.039,1q.078,1.375,1.109,1.4a1.885,1.885,0,0,0,1.617-.875l.6-3.359a1.248,1.248,0,0,0-1.219-.875,1.606,1.606,0,0,0-1.34.621A4.176,4.176,0,0,0-14.5-4.07ZM-4.262.156A3.677,3.677,0,0,1-6.227-.387,3.292,3.292,0,0,1-7.5-1.855a4.093,4.093,0,0,1-.328-2.059l.023-.312A5.465,5.465,0,0,1-7.09-6.492a4.341,4.341,0,0,1,1.547-1.59,3.827,3.827,0,0,1,2.094-.527,2.924,2.924,0,0,1,2.473,1.2A4.117,4.117,0,0,1-.34-4.447l-.125.962h-5.18a1.814,1.814,0,0,0,.4,1.313,1.521,1.521,0,0,0,1.172.508A2.7,2.7,0,0,0-1.965-2.6l1.008,1.25A3.135,3.135,0,0,1-2.332-.23,4.5,4.5,0,0,1-4.262.156Zm.7-6.945a1.565,1.565,0,0,0-1.082.383,3.363,3.363,0,0,0-.848,1.383h3.031l.047-.2A2.071,2.071,0,0,0-2.4-5.82a1.134,1.134,0,0,0-.383-.707A1.2,1.2,0,0,0-3.559-6.789ZM4.559-4.234A5.849,5.849,0,0,1,5.836-7.418a3.242,3.242,0,0,1,2.629-1.2,2.37,2.37,0,0,1,2.016.977l.289-.82,2.023.008L11.41-.289A3.983,3.983,0,0,1,9.973,2.383a4.471,4.471,0,0,1-3,.953A4.168,4.168,0,0,1,5.3,2.957a3.575,3.575,0,0,1-1.312-1L5.082.617a2.349,2.349,0,0,0,1.844.961,2.166,2.166,0,0,0,1.469-.449A2.4,2.4,0,0,0,9.223-.227l.125-.508a2.749,2.749,0,0,1-2.07.891A2.428,2.428,0,0,1,5.316-.762a3.947,3.947,0,0,1-.8-2.348A7.89,7.89,0,0,1,4.559-4.234Zm2.164.927A2.02,2.02,0,0,0,7.031-2.13a1.08,1.08,0,0,0,.895.466A1.972,1.972,0,0,0,9.52-2.431l.656-3.583a1.3,1.3,0,0,0-1.242-.767A1.728,1.728,0,0,0,7.5-6.1,3.561,3.561,0,0,0,6.77-4.23,8.214,8.214,0,0,0,6.723-3.307ZM17.09.156a3.677,3.677,0,0,1-1.965-.543,3.292,3.292,0,0,1-1.277-1.469,4.093,4.093,0,0,1-.328-2.059l.023-.312a5.465,5.465,0,0,1,.719-2.266,4.341,4.341,0,0,1,1.547-1.59A3.827,3.827,0,0,1,17.9-8.609a2.924,2.924,0,0,1,2.473,1.2,4.117,4.117,0,0,1,.637,2.962l-.125.962h-5.18a1.814,1.814,0,0,0,.4,1.313,1.521,1.521,0,0,0,1.172.508A2.7,2.7,0,0,0,19.387-2.6l1.008,1.25A3.135,3.135,0,0,1,19.02-.23,4.5,4.5,0,0,1,17.09.156Zm.7-6.945a1.565,1.565,0,0,0-1.082.383,3.363,3.363,0,0,0-.848,1.383h3.031l.047-.2a2.071,2.071,0,0,0,.008-.594,1.134,1.134,0,0,0-.383-.707A1.2,1.2,0,0,0,17.793-6.789Zm8.648,4.406q.125-.625-.867-.906l-.711-.18q-2.523-.7-2.453-2.453a2.428,2.428,0,0,1,1.059-1.949,3.942,3.942,0,0,1,2.457-.738,3.536,3.536,0,0,1,2.313.758,2.5,2.5,0,0,1,.9,1.977l-2.187-.008a.963.963,0,0,0-1.078-1.1,1.551,1.551,0,0,0-.895.258,1.061,1.061,0,0,0-.465.7q-.117.625.945.883l.313.07a6.285,6.285,0,0,1,1.648.59,2.488,2.488,0,0,1,.879.824,2.04,2.04,0,0,1,.285,1.18,2.251,2.251,0,0,1-.52,1.406,3.18,3.18,0,0,1-1.359.93,4.736,4.736,0,0,1-1.816.3,3.568,3.568,0,0,1-2.344-.809A2.607,2.607,0,0,1,21.59-2.7l2.078.016a1.142,1.142,0,0,0,1.3,1.227,1.845,1.845,0,0,0,1-.25A.987.987,0,0,0,26.441-2.383Zm7.625-8.148L33.7-8.453h1.406L34.816-6.8H33.41l-.719,4.234a1.077,1.077,0,0,0,.063.609q.109.211.531.227.125.008.672-.039L33.8-.039a3.706,3.706,0,0,1-1.266.18,1.985,1.985,0,0,1-1.617-.68,2.456,2.456,0,0,1-.437-1.8L31.207-6.8h-1.2L30.3-8.453h1.2l.359-2.078ZM37.246,0H35.027L36.5-8.453h2.219Zm-.492-10.6a1.1,1.1,0,0,1,.344-.867,1.209,1.209,0,0,1,.867-.344,1.215,1.215,0,0,1,.867.3,1.1,1.1,0,0,1,.383.828,1.132,1.132,0,0,1-.324.844A1.215,1.215,0,0,1,38-9.461a1.235,1.235,0,0,1-.863-.3A1.091,1.091,0,0,1,36.754-10.6Zm7.2,1.992a3.39,3.39,0,0,1,1.926.574A3.234,3.234,0,0,1,47.063-6.5a4.762,4.762,0,0,1,.27,2.176,5.143,5.143,0,0,1-1.4,3.262A3.96,3.96,0,0,1,42.91.156,3.38,3.38,0,0,1,41-.41a3.222,3.222,0,0,1-1.187-1.527,4.657,4.657,0,0,1-.273-2.156,5.3,5.3,0,0,1,1.422-3.328A3.878,3.878,0,0,1,43.949-8.609ZM41.723-3.294a1.95,1.95,0,0,0,.352,1.182,1.168,1.168,0,0,0,.945.449A1.712,1.712,0,0,0,44.613-2.6a4.647,4.647,0,0,0,.539-2.531,2.122,2.122,0,0,0-.363-1.2,1.149,1.149,0,0,0-.949-.464,1.715,1.715,0,0,0-1.574.924A4.6,4.6,0,0,0,41.723-3.294ZM44.965-12H47.52L45.035-9.578H43.09Zm6.484,3.539-.187,1a3.042,3.042,0,0,1,2.461-1.148,2.028,2.028,0,0,1,1.766.875A3.526,3.526,0,0,1,55.9-5.375L55.012,0h-2.2l.906-5.4a2.528,2.528,0,0,0,.016-.555.9.9,0,0,0-1-.82,1.9,1.9,0,0,0-1.555.8L50.121,0h-2.2l1.469-8.453ZM-43.02,15.383a2.4,2.4,0,0,1,1.906.945L-40.285,12h2.211l-2.078,12h-1.969l.125-.906a2.736,2.736,0,0,1-2.2,1.07,2.433,2.433,0,0,1-1.383-.414,2.607,2.607,0,0,1-.918-1.168,4.7,4.7,0,0,1-.355-1.7,6.4,6.4,0,0,1,.023-.953l.047-.352a6.767,6.767,0,0,1,.723-2.281,3.766,3.766,0,0,1,1.313-1.461A3.094,3.094,0,0,1-43.02,15.383Zm-1.6,4.547a6.327,6.327,0,0,0-.039,1q.078,1.375,1.109,1.4a1.885,1.885,0,0,0,1.617-.875l.6-3.359a1.248,1.248,0,0,0-1.219-.875,1.606,1.606,0,0,0-1.34.621A4.176,4.176,0,0,0-44.621,19.93Zm10.242,4.227a3.677,3.677,0,0,1-1.965-.543,3.292,3.292,0,0,1-1.277-1.469,4.093,4.093,0,0,1-.328-2.059l.023-.312a5.465,5.465,0,0,1,.719-2.266,4.341,4.341,0,0,1,1.547-1.59,3.827,3.827,0,0,1,2.094-.527,2.924,2.924,0,0,1,2.473,1.2,4.117,4.117,0,0,1,.637,2.962l-.125.962h-5.18a1.814,1.814,0,0,0,.4,1.313,1.521,1.521,0,0,0,1.172.508,2.7,2.7,0,0,0,2.109-.937l1.008,1.25a3.135,3.135,0,0,1-1.375,1.121A4.5,4.5,0,0,1-34.379,24.156Zm.7-6.945a1.565,1.565,0,0,0-1.082.383,3.363,3.363,0,0,0-.848,1.383h3.031l.047-.2a2.071,2.071,0,0,0,.008-.594,1.134,1.134,0,0,0-.383-.707A1.2,1.2,0,0,0-33.676,17.211ZM-23.652,24h-2.219l1.469-8.453h2.219Zm-.492-10.6a1.1,1.1,0,0,1,.344-.867,1.209,1.209,0,0,1,.867-.344,1.215,1.215,0,0,1,.867.3,1.1,1.1,0,0,1,.383.828,1.132,1.132,0,0,1-.324.844,1.215,1.215,0,0,1-.887.375,1.235,1.235,0,0,1-.863-.3A1.091,1.091,0,0,1-24.145,13.4Zm5.844,2.141-.187,1a3.042,3.042,0,0,1,2.461-1.148,2.028,2.028,0,0,1,1.766.875,3.526,3.526,0,0,1,.414,2.359L-14.738,24h-2.2l.906-5.4a2.528,2.528,0,0,0,.016-.555.9.9,0,0,0-1-.82,1.9,1.9,0,0,0-1.555.8L-19.629,24h-2.2l1.469-8.453Zm8.992,6.8a1.447,1.447,0,0,0,1.016-.332,1.632,1.632,0,0,0,.531-.926l2.07-.008a3.037,3.037,0,0,1-.559,1.6,3.394,3.394,0,0,1-1.344,1.109,3.847,3.847,0,0,1-1.77.375A3.123,3.123,0,0,1-11.8,23.1a3.965,3.965,0,0,1-.867-2.766l.023-.43.008-.086a5.284,5.284,0,0,1,1.391-3.27,3.761,3.761,0,0,1,2.914-1.16,3.047,3.047,0,0,1,2.27.934A3.3,3.3,0,0,1-5.238,18.7H-7.293a1.73,1.73,0,0,0-.3-1.07,1.128,1.128,0,0,0-.891-.422q-1.578-.047-1.914,2.3a7.782,7.782,0,0,0-.086,1.438Q-10.4,22.32-9.309,22.344ZM-2.512,24H-4.73l1.469-8.453h2.219ZM-3,13.4a1.1,1.1,0,0,1,.344-.867,1.209,1.209,0,0,1,.867-.344,1.215,1.215,0,0,1,.867.3,1.1,1.1,0,0,1,.383.828,1.132,1.132,0,0,1-.324.844,1.215,1.215,0,0,1-.887.375,1.235,1.235,0,0,1-.863-.3A1.091,1.091,0,0,1-3,13.4Zm6.555,1.984a2.4,2.4,0,0,1,1.906.945L6.285,12H8.5L6.418,24H4.449l.125-.906a2.736,2.736,0,0,1-2.2,1.07A2.433,2.433,0,0,1,.988,23.75,2.607,2.607,0,0,1,.07,22.582a4.7,4.7,0,0,1-.355-1.7,6.4,6.4,0,0,1,.023-.953l.047-.352A6.767,6.767,0,0,1,.508,17.3,3.766,3.766,0,0,1,1.82,15.836,3.094,3.094,0,0,1,3.551,15.383Zm-1.6,4.547a6.327,6.327,0,0,0-.039,1q.078,1.375,1.109,1.4a1.885,1.885,0,0,0,1.617-.875l.6-3.359a1.248,1.248,0,0,0-1.219-.875,1.606,1.606,0,0,0-1.34.621A4.176,4.176,0,0,0,1.949,19.93Zm10.242,4.227a3.677,3.677,0,0,1-1.965-.543,3.292,3.292,0,0,1-1.277-1.469,4.093,4.093,0,0,1-.328-2.059l.023-.312a5.465,5.465,0,0,1,.719-2.266,4.341,4.341,0,0,1,1.547-1.59A3.827,3.827,0,0,1,13,15.391a2.924,2.924,0,0,1,2.473,1.2,4.117,4.117,0,0,1,.637,2.962l-.125.962h-5.18a1.814,1.814,0,0,0,.4,1.313,1.521,1.521,0,0,0,1.172.508,2.7,2.7,0,0,0,2.109-.937l1.008,1.25a3.135,3.135,0,0,1-1.375,1.121A4.5,4.5,0,0,1,12.191,24.156Zm.7-6.945a1.565,1.565,0,0,0-1.082.383,3.363,3.363,0,0,0-.848,1.383H14l.047-.2a2.071,2.071,0,0,0,.008-.594,1.134,1.134,0,0,0-.383-.707A1.2,1.2,0,0,0,12.895,17.211Zm7.234-1.672-.187,1A3.042,3.042,0,0,1,22.4,15.391a2.028,2.028,0,0,1,1.766.875,3.526,3.526,0,0,1,.414,2.359L23.691,24h-2.2l.906-5.4a2.528,2.528,0,0,0,.016-.555.9.9,0,0,0-1-.82,1.9,1.9,0,0,0-1.555.8L18.8,24H16.6l1.469-8.453Zm9.758-2.07-.367,2.078h1.406L30.637,17.2H29.23l-.719,4.234a1.077,1.077,0,0,0,.063.609q.109.211.531.227.125.008.672-.039l-.156,1.727a3.706,3.706,0,0,1-1.266.18,1.985,1.985,0,0,1-1.617-.68,2.456,2.456,0,0,1-.437-1.8l.727-4.461h-1.2l.289-1.656h1.2l.359-2.078Zm4.867,10.688a3.677,3.677,0,0,1-1.965-.543,3.292,3.292,0,0,1-1.277-1.469,4.093,4.093,0,0,1-.328-2.059l.023-.312a5.465,5.465,0,0,1,.719-2.266,4.341,4.341,0,0,1,1.547-1.59,3.827,3.827,0,0,1,2.094-.527,2.924,2.924,0,0,1,2.473,1.2,4.117,4.117,0,0,1,.637,2.962l-.125.962h-5.18a1.814,1.814,0,0,0,.4,1.313,1.521,1.521,0,0,0,1.172.508,2.7,2.7,0,0,0,2.109-.937l1.008,1.25a3.135,3.135,0,0,1-1.375,1.121A4.5,4.5,0,0,1,34.754,24.156Zm.7-6.945a1.565,1.565,0,0,0-1.082.383,3.363,3.363,0,0,0-.848,1.383h3.031l.047-.2a2.071,2.071,0,0,0,.008-.594,1.134,1.134,0,0,0-.383-.707A1.2,1.2,0,0,0,35.457,17.211Zm8.648,4.406q.125-.625-.867-.906l-.711-.18q-2.523-.7-2.453-2.453a2.428,2.428,0,0,1,1.059-1.949,3.942,3.942,0,0,1,2.457-.738,3.536,3.536,0,0,1,2.313.758,2.5,2.5,0,0,1,.9,1.977l-2.187-.008a.963.963,0,0,0-1.078-1.1,1.551,1.551,0,0,0-.895.258,1.061,1.061,0,0,0-.465.7q-.117.625.945.883l.313.07a6.285,6.285,0,0,1,1.648.59,2.488,2.488,0,0,1,.879.824,2.04,2.04,0,0,1,.285,1.18,2.251,2.251,0,0,1-.52,1.406,3.18,3.18,0,0,1-1.359.93,4.736,4.736,0,0,1-1.816.3,3.568,3.568,0,0,1-2.344-.809,2.607,2.607,0,0,1-.953-2.051l2.078.016a1.142,1.142,0,0,0,1.3,1.227,1.845,1.845,0,0,0,1-.25A.987.987,0,0,0,44.105,21.617ZM-20,43.491V48h-2.637V35.2h4.992a5.776,5.776,0,0,1,2.536.527,3.886,3.886,0,0,1,1.683,1.5,4.178,4.178,0,0,1,.589,2.21,3.674,3.674,0,0,1-1.288,2.966,5.363,5.363,0,0,1-3.564,1.085Zm0-2.136h2.355a2.316,2.316,0,0,0,1.6-.492,1.79,1.79,0,0,0,.549-1.406,2.111,2.111,0,0,0-.554-1.521,2.068,2.068,0,0,0-1.529-.6H-20ZM-.606,48H-3.243V42.516H-8.385V48h-2.637V35.2h2.637v5.186h5.142V35.2H-.606Zm7.031-3.173,2.9-9.624h2.936L7.8,48H5.054L.615,35.2H3.542Zm13.605.536H15.407L14.528,48h-2.8l4.764-12.8h2.443L23.722,48h-2.8Zm-3.911-2.136h3.2l-1.608-4.79Z" transform="translate(800 7381.525)" fill="#12263f"/>
    <path id="Trazado_200687" data-name="Trazado 200687" d="M31,0A31,31,0,1,1,0,31,31,31,0,0,1,31,0Z" transform="translate(1037 7236.525)" fill="#b0c0d2"/>
    <path id="Trazado_200690" data-name="Trazado 200690" d="M31,0A31,31,0,1,1,0,31,31,31,0,0,1,31,0Z" transform="translate(1012 7546.525)" fill="#b0c0d2"/>
    <path id="Trazado_200689" data-name="Trazado 200689" d="M31,0A31,31,0,1,1,0,31,31,31,0,0,1,31,0Z" transform="translate(538 7171.525)" fill="#b0c0d2"/>
    <path id="Trazado_200691" data-name="Trazado 200691" d="M31,0A31,31,0,1,1,0,31,31,31,0,0,1,31,0Z" transform="translate(535 7566.525)" fill="#b0c0d2"/>
  </g>
</svg>
