<svg xmlns="http://www.w3.org/2000/svg" xmlns:xlink="http://www.w3.org/1999/xlink" width="135" height="136" viewBox="0 0 135 136">
  <defs>
    <clipPath id="clip-path">
      <rect id="Rectángulo_85348" data-name="Rectángulo 85348" width="135" height="136" transform="translate(733 3130)" fill="#fff"/>
    </clipPath>
  </defs>
  <g id="Enmascarar_grupo_142" data-name="Enmascarar grupo 142" transform="translate(-733 -3130)" clip-path="url(#clip-path)">
    <g id="Capa_2" data-name="Capa 2" transform="translate(742.798 3130)">
      <g id="Layer_1" data-name="Layer 1">
        <path id="Trazado_199506" data-name="Trazado 199506" d="M14.9,59.5a16.654,16.654,0,0,1-.562,4.564,9.43,9.43,0,0,1-1.579,3.2A6.164,6.164,0,0,1,10.4,69.211a6.9,6.9,0,0,1-2.985.627,6.813,6.813,0,0,1-2.963-.627,6.1,6.1,0,0,1-2.293-1.947,9.019,9.019,0,0,1-1.557-3.2,18.8,18.8,0,0,1,0-9.127,9.019,9.019,0,0,1,1.557-3.2A6.1,6.1,0,0,1,4.5,49.853a7.137,7.137,0,0,1,2.963-.627,7.246,7.246,0,0,1,2.985.627A6.164,6.164,0,0,1,12.8,51.735a9.43,9.43,0,0,1,1.579,3.2A16.654,16.654,0,0,1,14.9,59.5Zm-4.326,0a18.449,18.449,0,0,0-.26-3.417A6.748,6.748,0,0,0,9.6,53.92a2.53,2.53,0,0,0-.952-.973,2.357,2.357,0,0,0-2.163,0,2.53,2.53,0,0,0-.973,1.038,7.483,7.483,0,0,0-.67,2.163A18.449,18.449,0,0,0,4.326,59.5a18.3,18.3,0,0,0,.26,3.417,7.483,7.483,0,0,0,.67,2.163,2.4,2.4,0,0,0,.973,1.038,2.357,2.357,0,0,0,2.163,0,2.4,2.4,0,0,0,.973-1.038,6.748,6.748,0,0,0,.714-2.163A18.3,18.3,0,0,0,10.49,59.5Z" fill="#fdf1bf"/>
        <path id="Trazado_199507" data-name="Trazado 199507" d="M18.925,66.464H22.8V54.676l-2.249,1.99a1.211,1.211,0,0,1-.433.238,1.038,1.038,0,0,1-.433,0,1.406,1.406,0,0,1-.627-.151,1.514,1.514,0,0,1-.433-.346L17.3,54.7l6.251-5.256H27.1V66.464h3.309v3.093H18.925Z" fill="#fdf1bf"/>
        <path id="Trazado_199508" data-name="Trazado 199508" d="M34.93,66.464H38.8V54.676l-2.293,1.9a1.211,1.211,0,0,1-.433.238,1.038,1.038,0,0,1-.433,0,1.406,1.406,0,0,1-.627-.151,1.514,1.514,0,0,1-.433-.346l-1.341-1.8,6.251-5.256H43.04V66.291H46.35v3.093H34.887Z" fill="#fdf1bf"/>
        <path id="Trazado_199509" data-name="Trazado 199509" d="M62.917,59.5a16.654,16.654,0,0,1-.562,4.564,9.43,9.43,0,0,1-1.579,3.2A6.316,6.316,0,0,1,58.4,69.211a6.964,6.964,0,0,1-2.985.627,6.813,6.813,0,0,1-2.941-.627,6.315,6.315,0,0,1-2.357-1.882,9.387,9.387,0,0,1-1.536-3.2,15.854,15.854,0,0,1-.562-4.564A15.854,15.854,0,0,1,48.577,55a9.387,9.387,0,0,1,1.536-3.2,6.315,6.315,0,0,1,2.357-1.882,7.137,7.137,0,0,1,2.963-.627,7.31,7.31,0,0,1,2.985.627A6.315,6.315,0,0,1,60.776,51.8,9.43,9.43,0,0,1,62.355,55a16.654,16.654,0,0,1,.562,4.5Zm-4.326,0a18.449,18.449,0,0,0-.26-3.417,7.375,7.375,0,0,0-.714-2.163,2.531,2.531,0,0,0-.973-1.038,2.357,2.357,0,0,0-2.163,0,2.53,2.53,0,0,0-.973,1.038,7.483,7.483,0,0,0-.67,2.163,18.449,18.449,0,0,0-.26,3.417,18.3,18.3,0,0,0,.26,3.417,7.483,7.483,0,0,0,.67,2.163,2.4,2.4,0,0,0,.973,1.038,2.357,2.357,0,0,0,2.163,0,2.4,2.4,0,0,0,.973-1.038,7.375,7.375,0,0,0,.714-2.163A18.3,18.3,0,0,0,58.5,59.5Z" fill="#fdf1bf"/>
        <path id="Trazado_199510" data-name="Trazado 199510" d="M78.922,59.5a16.654,16.654,0,0,1-.562,4.564,9.43,9.43,0,0,1-1.579,3.2,6.316,6.316,0,0,1-2.357,1.882,6.964,6.964,0,0,1-2.985.627,6.813,6.813,0,0,1-2.963-.562,6.315,6.315,0,0,1-2.357-1.882,9.387,9.387,0,0,1-1.536-3.2,15.854,15.854,0,0,1-.562-4.564A15.853,15.853,0,0,1,64.582,55a9.387,9.387,0,0,1,1.536-3.2,6.316,6.316,0,0,1,2.357-1.882,7.138,7.138,0,0,1,2.9-.692,7.31,7.31,0,0,1,2.985.627,6.315,6.315,0,0,1,2.357,1.882,9.43,9.43,0,0,1,1.579,3.2A16.654,16.654,0,0,1,78.922,59.5Zm-4.326,0a18.45,18.45,0,0,0-.26-3.417,7.375,7.375,0,0,0-.8-2.011,2.531,2.531,0,0,0-.973-1.038,2.358,2.358,0,0,0-2.163,0,2.531,2.531,0,0,0-.973,1.038,7.484,7.484,0,0,0-.67,2.163,18.448,18.448,0,0,0-.26,3.417,18.3,18.3,0,0,0,.26,3.417,7.483,7.483,0,0,0,.67,2.163,2.4,2.4,0,0,0,.973,1.038,2.358,2.358,0,0,0,2.163,0,2.4,2.4,0,0,0,.973-1.038,7.375,7.375,0,0,0,.714-2.163,18.3,18.3,0,0,0,.26-3.569Z" fill="#fdf1bf"/>
        <path id="Trazado_199511" data-name="Trazado 199511" d="M82.945,66.464h3.871V54.676l-2.293,1.9a1.211,1.211,0,0,1-.433.238,1.038,1.038,0,0,1-.433,0,1.579,1.579,0,0,1-.649-.151,1.73,1.73,0,0,1-.411-.346l-1.363-1.8,6.272-5.256h3.525V66.291h3.331v3.093H82.9Z" fill="#fdf1bf"/>
        <path id="Trazado_199512" data-name="Trazado 199512" d="M110.932,59.5a16.654,16.654,0,0,1-.627,4.564,9.43,9.43,0,0,1-1.579,3.2,6.229,6.229,0,0,1-2.379,1.882,7.31,7.31,0,0,1-5.926,0,6.316,6.316,0,0,1-2.357-1.882,9.387,9.387,0,0,1-1.536-3.2,15.854,15.854,0,0,1-.562-4.564,15.854,15.854,0,0,1,.562-4.564,9.387,9.387,0,0,1,1.536-3.2,6.316,6.316,0,0,1,2.357-1.882,7.31,7.31,0,0,1,5.926,0,6.229,6.229,0,0,1,2.379,1.882,9.43,9.43,0,0,1,1.579,3.2A16.654,16.654,0,0,1,110.932,59.5Zm-4.326,0a18.449,18.449,0,0,0-.26-3.417,7.375,7.375,0,0,0-.714-2.163,2.531,2.531,0,0,0-.973-1.038,2.4,2.4,0,0,0-1.125-.281,2.314,2.314,0,0,0-1.1.281,2.53,2.53,0,0,0-.973,1.038,7.484,7.484,0,0,0-.67,2.163,18.448,18.448,0,0,0-.26,3.417,18.3,18.3,0,0,0,.26,3.417,7.484,7.484,0,0,0,.67,2.163,2.4,2.4,0,0,0,.973,1.038A2.395,2.395,0,0,0,105.7,65.08a7.375,7.375,0,0,0,.714-2.163,18.3,18.3,0,0,0,.108-3.417Z" fill="#fdf1bf"/>
        <path id="Trazado_199513" data-name="Trazado 199513" d="M2.92,99.49H6.791V87.876L4.542,89.758a1.016,1.016,0,0,1-.433.26,1.038,1.038,0,0,1-.433,0,1.406,1.406,0,0,1-.627-.151,1.514,1.514,0,0,1-.433-.346L1.276,87.811l6.251-5.256h3.547V99.49h3.309v3.093H2.92Z" fill="#fdf1bf"/>
        <path id="Trazado_199514" data-name="Trazado 199514" d="M30.907,92.613a16.654,16.654,0,0,1-.627,4.564,9.43,9.43,0,0,1-1.579,3.2,6.164,6.164,0,0,1-2.357,1.882,6.9,6.9,0,0,1-2.985.627,6.813,6.813,0,0,1-2.963-.627,6.1,6.1,0,0,1-2.336-1.882,9.019,9.019,0,0,1-1.557-3.2,18.8,18.8,0,0,1,0-9.127,9.019,9.019,0,0,1,1.557-3.2A6.1,6.1,0,0,1,20.4,82.966a7.138,7.138,0,0,1,2.963-.627,7.246,7.246,0,0,1,2.985.627A6.164,6.164,0,0,1,28.7,84.848a9.43,9.43,0,0,1,1.579,3.2,16.654,16.654,0,0,1,.627,4.564Zm-4.326,0a18.449,18.449,0,0,0-.26-3.417,6.748,6.748,0,0,0-.714-2.163,2.53,2.53,0,0,0-.973-1.038,2.358,2.358,0,0,0-2.163,0,2.53,2.53,0,0,0-.973,1.038,7.483,7.483,0,0,0-.67,2.163,22.623,22.623,0,0,0,0,6.835,7.483,7.483,0,0,0,.67,2.163,2.531,2.531,0,0,0,.973,1.038,2.357,2.357,0,0,0,2.163,0,2.531,2.531,0,0,0,.973-1.038,6.748,6.748,0,0,0,.714-2.163,18.449,18.449,0,0,0,.173-3.417Z" fill="#fdf1bf"/>
        <path id="Trazado_199515" data-name="Trazado 199515" d="M34.93,99.49H38.8V87.876l-2.293,1.882a1.017,1.017,0,0,1-.433.26,1.038,1.038,0,0,1-.433,0,1.406,1.406,0,0,1-.627-.151,1.514,1.514,0,0,1-.433-.346l-1.341-1.8,6.251-5.256H43.04V99.49H46.35v3.093H34.887Z" fill="#fdf1bf"/>
        <path id="Trazado_199516" data-name="Trazado 199516" d="M62.917,92.613a16.654,16.654,0,0,1-.562,4.564,9.43,9.43,0,0,1-1.579,3.2,6.315,6.315,0,0,1-2.357,1.882,6.964,6.964,0,0,1-2.985.627,6.813,6.813,0,0,1-2.963-.627,6.315,6.315,0,0,1-2.357-1.882,9.387,9.387,0,0,1-1.536-3.2,18.8,18.8,0,0,1,0-9.127,9.387,9.387,0,0,1,1.536-3.2,6.315,6.315,0,0,1,2.357-1.882,7.137,7.137,0,0,1,2.963-.627,7.31,7.31,0,0,1,2.985.627,6.315,6.315,0,0,1,2.358,1.882,9.43,9.43,0,0,1,1.579,3.2,16.654,16.654,0,0,1,.562,4.564Zm-4.326,0a18.449,18.449,0,0,0-.26-3.417,7.375,7.375,0,0,0-.714-2.163,2.53,2.53,0,0,0-.973-1.038,2.358,2.358,0,0,0-2.163,0,2.53,2.53,0,0,0-.973,1.038,7.483,7.483,0,0,0-.67,2.163,22.623,22.623,0,0,0,0,6.835,7.483,7.483,0,0,0,.67,2.163,2.53,2.53,0,0,0,.973,1.038,2.358,2.358,0,0,0,2.163,0,2.531,2.531,0,0,0,.973-1.038,7.375,7.375,0,0,0,.714-2.163,18.449,18.449,0,0,0,.173-3.417Z" fill="#fdf1bf"/>
        <path id="Trazado_199517" data-name="Trazado 199517" d="M67.048,99.49h3.871V87.876l-2.293,1.882a1.017,1.017,0,0,1-.433.26,1.038,1.038,0,0,1-.433,0,1.406,1.406,0,0,1-.627-.151,1.514,1.514,0,0,1-.433-.346l-1.341-1.8,6.251-5.256h3.525V99.49h3.331v3.093H67.048Z" fill="#fdf1bf"/>
        <path id="Trazado_199518" data-name="Trazado 199518" d="M82.945,99.49h3.871V87.876l-2.293,1.882a1.017,1.017,0,0,1-.433.26,1.038,1.038,0,0,1-.433,0,1.579,1.579,0,0,1-.649-.151,1.73,1.73,0,0,1-.411-.346l-1.363-1.8,6.272-5.256h3.525V99.49h3.331v3.093H82.9Z" fill="#fdf1bf"/>
        <path id="Trazado_199519" data-name="Trazado 199519" d="M110.932,92.613a16.654,16.654,0,0,1-.627,4.564,9.43,9.43,0,0,1-1.579,3.2,6.229,6.229,0,0,1-2.379,1.882,7.31,7.31,0,0,1-5.926,0,6.316,6.316,0,0,1-2.357-1.882,9.387,9.387,0,0,1-1.536-3.2,18.8,18.8,0,0,1,0-9.127,9.387,9.387,0,0,1,1.536-3.2,6.316,6.316,0,0,1,2.357-1.882,7.31,7.31,0,0,1,5.926,0,6.229,6.229,0,0,1,2.379,1.882,9.43,9.43,0,0,1,1.579,3.2A16.654,16.654,0,0,1,110.932,92.613Zm-4.326,0a18.448,18.448,0,0,0-.26-3.417,7.375,7.375,0,0,0-.714-2.163,2.531,2.531,0,0,0-.973-1.038,2.4,2.4,0,0,0-1.125-.281,2.314,2.314,0,0,0-1.1.281,2.531,2.531,0,0,0-.973,1.038,7.484,7.484,0,0,0-.67,2.163,22.623,22.623,0,0,0,0,6.835,7.484,7.484,0,0,0,.67,2.163,2.531,2.531,0,0,0,.973,1.038,2.314,2.314,0,0,0,1.1.281,2.4,2.4,0,0,0,1.125-.281,2.531,2.531,0,0,0,.973-1.038,7.375,7.375,0,0,0,.714-2.163,18.449,18.449,0,0,0,.173-3.417Z" fill="#fdf1bf"/>
        <path id="Trazado_199520" data-name="Trazado 199520" d="M14.9,125.726a16.654,16.654,0,0,1-.562,4.564,9.43,9.43,0,0,1-1.579,3.2,6.164,6.164,0,0,1-2.357,1.882A6.9,6.9,0,0,1,7.419,136a6.813,6.813,0,0,1-2.963-.627,6.1,6.1,0,0,1-2.293-1.882,9.019,9.019,0,0,1-1.557-3.2,18.8,18.8,0,0,1-.043-9.17,9.019,9.019,0,0,1,1.6-3.158A6.1,6.1,0,0,1,4.5,116.079a7.137,7.137,0,0,1,2.963-.627,7.246,7.246,0,0,1,2.985.627,6.164,6.164,0,0,1,2.357,1.882,9.43,9.43,0,0,1,1.536,3.158,16.654,16.654,0,0,1,.562,4.607Zm-4.326,0a18.449,18.449,0,0,0-.26-3.417,6.748,6.748,0,0,0-.714-2.163,2.531,2.531,0,0,0-.952-.973,2.358,2.358,0,0,0-2.163,0,2.531,2.531,0,0,0-.973,1.038,7.483,7.483,0,0,0-.67,2.163,22.623,22.623,0,0,0,0,6.835,7.483,7.483,0,0,0,.67,2.163,2.4,2.4,0,0,0,.973,1.038,2.357,2.357,0,0,0,2.163,0,2.4,2.4,0,0,0,.973-1.038,6.748,6.748,0,0,0,.714-2.163,18.3,18.3,0,0,0,.151-3.482Z" fill="#fdf1bf"/>
        <path id="Trazado_199521" data-name="Trazado 199521" d="M18.925,132.69H22.8v-11.7L20.5,122.871a1.016,1.016,0,0,1-.433.26,1.038,1.038,0,0,1-.433,0,1.406,1.406,0,0,1-.627-.151,1.514,1.514,0,0,1-.433-.346L17.3,120.924l6.251-5.256H27.1V132.69h3.309v3.093H18.925Z" fill="#fdf1bf"/>
        <path id="Trazado_199522" data-name="Trazado 199522" d="M46.912,125.726a16.654,16.654,0,0,1-.562,4.564,9.43,9.43,0,0,1-1.579,3.2,6.315,6.315,0,0,1-2.357,1.882,6.964,6.964,0,0,1-2.985.627,6.813,6.813,0,0,1-2.963-.627,6.315,6.315,0,0,1-2.357-1.882,9.387,9.387,0,0,1-1.536-3.2,18.8,18.8,0,0,1,0-9.127,9.387,9.387,0,0,1,1.536-3.2,6.316,6.316,0,0,1,2.357-1.882,7.137,7.137,0,0,1,2.963-.627,7.31,7.31,0,0,1,2.985.627,6.316,6.316,0,0,1,2.357,1.882,9.43,9.43,0,0,1,1.579,3.158A16.654,16.654,0,0,1,46.912,125.726Zm-4.326,0a18.449,18.449,0,0,0-.26-3.417,6.748,6.748,0,0,0-.714-2.163,2.53,2.53,0,0,0-.973-1.038,2.357,2.357,0,0,0-2.163,0,2.531,2.531,0,0,0-.973,1.038,7.483,7.483,0,0,0-.67,2.163,22.623,22.623,0,0,0,0,6.835,7.483,7.483,0,0,0,.67,2.163,2.4,2.4,0,0,0,.973,1.038,2.358,2.358,0,0,0,2.163,0,2.4,2.4,0,0,0,.973-1.038,6.748,6.748,0,0,0,.714-2.163,18.3,18.3,0,0,0,.173-3.417Z" fill="#fdf1bf"/>
        <path id="Trazado_199523" data-name="Trazado 199523" d="M50.935,132.69h3.871v-11.7l-2.293,1.882a1.016,1.016,0,0,1-.433.26,1.038,1.038,0,0,1-.433,0,1.406,1.406,0,0,1-.627-.151,1.514,1.514,0,0,1-.433-.346l-1.341-1.8,6.251-5.256h3.525V132.6h3.331V135.7H50.892Z" fill="#fdf1bf"/>
        <path id="Trazado_199524" data-name="Trazado 199524" d="M78.922,125.726a16.654,16.654,0,0,1-.562,4.564,9.43,9.43,0,0,1-1.579,3.2,6.315,6.315,0,0,1-2.357,1.882,6.964,6.964,0,0,1-2.985.627,6.813,6.813,0,0,1-2.963-.627,6.315,6.315,0,0,1-2.357-1.882,9.387,9.387,0,0,1-1.536-3.2,18.8,18.8,0,0,1,0-9.127,9.386,9.386,0,0,1,1.536-3.2,6.316,6.316,0,0,1,2.357-1.882,7.138,7.138,0,0,1,2.9-.627,7.31,7.31,0,0,1,2.985.627,6.316,6.316,0,0,1,2.357,1.882,9.43,9.43,0,0,1,1.644,3.158,16.654,16.654,0,0,1,.562,4.607Zm-4.326,0a18.45,18.45,0,0,0-.26-3.417,7.375,7.375,0,0,0-.714-2.163,2.531,2.531,0,0,0-.973-1.038,2.358,2.358,0,0,0-2.163,0,2.53,2.53,0,0,0-.973,1.038,7.484,7.484,0,0,0-.67,2.163,22.623,22.623,0,0,0,0,6.835,7.483,7.483,0,0,0,.67,2.163,2.4,2.4,0,0,0,.973,1.038,2.358,2.358,0,0,0,2.163,0,2.4,2.4,0,0,0,.973-1.038,7.375,7.375,0,0,0,.714-2.163,18.3,18.3,0,0,0,.173-3.417Z" fill="#fdf1bf"/>
        <path id="Trazado_199525" data-name="Trazado 199525" d="M94.927,125.726a16.654,16.654,0,0,1-.562,4.564,9.43,9.43,0,0,1-1.579,3.2,6.316,6.316,0,0,1-2.358,1.882,6.964,6.964,0,0,1-2.985.627,6.813,6.813,0,0,1-2.963-.627,6.315,6.315,0,0,1-2.293-1.882,9.387,9.387,0,0,1-1.536-3.2,18.8,18.8,0,0,1,0-9.127,9.387,9.387,0,0,1,1.536-3.2,6.316,6.316,0,0,1,2.357-1.882,7.137,7.137,0,0,1,2.963-.627,7.31,7.31,0,0,1,2.985.627,6.316,6.316,0,0,1,2.358,1.882,9.43,9.43,0,0,1,1.514,3.158A16.654,16.654,0,0,1,94.927,125.726Zm-4.326,0a18.448,18.448,0,0,0-.26-3.417,7.375,7.375,0,0,0-.714-2.163,2.53,2.53,0,0,0-.952-.973,2.4,2.4,0,0,0-1.125-.281,2.163,2.163,0,0,0-1.1.281,2.53,2.53,0,0,0-.973,1.038,7.483,7.483,0,0,0-.67,2.163,22.623,22.623,0,0,0,0,6.835,7.483,7.483,0,0,0,.67,2.163,2.4,2.4,0,0,0,.973,1.038,2.163,2.163,0,0,0,1.1.281,2.293,2.293,0,0,0,2.163-1.319,7.375,7.375,0,0,0,.714-2.163,18.3,18.3,0,0,0,.087-3.482Z" fill="#fdf1bf"/>
        <path id="Trazado_199526" data-name="Trazado 199526" d="M110.932,125.726a16.654,16.654,0,0,1-.627,4.564,9.43,9.43,0,0,1-1.579,3.2,6.229,6.229,0,0,1-2.379,1.882,7.31,7.31,0,0,1-5.926,0,6.315,6.315,0,0,1-2.357-1.882,9.387,9.387,0,0,1-1.536-3.2,18.8,18.8,0,0,1,0-9.127,9.387,9.387,0,0,1,1.536-3.2,6.316,6.316,0,0,1,2.357-1.882,7.31,7.31,0,0,1,5.926,0,6.229,6.229,0,0,1,2.379,1.882,9.43,9.43,0,0,1,1.579,3.158,16.654,16.654,0,0,1,.627,4.607Zm-4.326,0a18.448,18.448,0,0,0-.26-3.417,7.375,7.375,0,0,0-.714-2.163,2.531,2.531,0,0,0-.973-1.038,2.4,2.4,0,0,0-1.125-.281,2.314,2.314,0,0,0-1.1.281,2.53,2.53,0,0,0-.973,1.038,7.484,7.484,0,0,0-.67,2.163,22.623,22.623,0,0,0,0,6.835,7.484,7.484,0,0,0,.67,2.163,2.4,2.4,0,0,0,.973,1.038,2.395,2.395,0,0,0,3.266-1.038,7.376,7.376,0,0,0,.714-2.163,18.3,18.3,0,0,0,.108-3.417Z" fill="#fdf1bf"/>
        <path id="Trazado_199527" data-name="Trazado 199527" d="M105.849,47.82V27.035C105.849,12.134,93,0,77.17,0H70.335C54.547,0,41.7,12.112,41.656,26.992v1.99H55.909V27.035h2.163A11.96,11.96,0,0,1,70.379,15.443h6.835A11.96,11.96,0,0,1,89.52,27.035V47.82h-57.4V107.1h83.269V47.82Z" fill="#fff"/>
        <path id="Trazado_199528" data-name="Trazado 199528" d="M76.975,13.431a13.626,13.626,0,0,1,13.6,13.6v22.71h11.441V27.035A25.067,25.067,0,0,0,76.975,1.99H73.753V13.431Z" fill="#312c2f"/>
        <path id="Trazado_199529" data-name="Trazado 199529" d="M71.374,13.431a13.626,13.626,0,0,0-13.6,13.6v22.71H46.393V27.035A25.067,25.067,0,0,1,71.374,1.99H74.6V13.431Z" fill="#574d55"/>
        <path id="Trazado_199530" data-name="Trazado 199530" d="M111.018,49.81H73.753v55.3h37.266Z" fill="#e0dfdf"/>
        <path id="Trazado_199531" data-name="Trazado 199531" d="M56.926,49.81H36.487v55.3H73.753V49.81Z" fill="#fdf0bd"/>
        <path id="Trazado_199532" data-name="Trazado 199532" d="M81.15,70.357a7.419,7.419,0,1,0-11.312,6.272l-2.79,15.616H80.414L77.646,76.629A7.375,7.375,0,0,0,81.15,70.357Z" fill="#fff"/>
      </g>
    </g>
  </g>
</svg>
