<svg xmlns="http://www.w3.org/2000/svg" xmlns:xlink="http://www.w3.org/1999/xlink" width="135" height="136" viewBox="0 0 135 136">
  <defs>
    <clipPath id="clip-path">
      <rect id="Rectángulo_85363" data-name="Rectángulo 85363" width="135" height="136" transform="translate(-2108 -8497)" fill="#fff"/>
    </clipPath>
  </defs>
  <g id="Enmascarar_grupo_144" data-name="Enmascarar grupo 144" transform="translate(2108 8497)" clip-path="url(#clip-path)">
    <g id="_4Recurso_4" data-name="4Recurso 4" transform="translate(-2107.853 -8482.597)">
      <g id="Capa_2" data-name="Capa 2">
        <g id="Layer_1" data-name="Layer 1">
          <path id="Trazado_199541" data-name="Trazado 199541" d="M50.115,21.183a2.328,2.328,0,0,1-2.239-1.635,57.419,57.419,0,0,0-3.448-9.863c-4.247-6.629-9.845-4.94-10.485-4.727A2.31,2.31,0,0,1,32.415.6C35.7-.586,43.255-.746,48.409,7.18a59.871,59.871,0,0,1,4,11.089,2.275,2.275,0,0,1-2.221,2.914Z" fill="#a1a0a0"/>
          <path id="Trazado_199542" data-name="Trazado 199542" d="M84.591,42.509a3.856,3.856,0,0,1-1.066-7.535c9.365-2.968,25.555-9.17,29.092-13.257,1.635-1.866,4.052-10.912,5.331-18.18a3.856,3.856,0,1,1,7.606,1.28c-.693,4.034-3.2,17.54-7.109,21.965-6.1,6.984-28.292,14.093-32.681,15.532A3.857,3.857,0,0,1,84.591,42.509Z" fill="#312c2f"/>
          <path id="Trazado_199543" data-name="Trazado 199543" d="M50.115,42.509a3.857,3.857,0,0,1-1.173-.2c-4.39-1.439-26.586-8.548-32.575-15.532-3.927-4.425-6.38-17.9-7.055-21.965A3.856,3.856,0,1,1,16.9,3.554c1.226,7.233,3.554,16.243,5.331,18.18,3.554,4.087,19.726,10.29,29.092,13.257a3.856,3.856,0,0,1-1.155,7.535Z" fill="#574d55"/>
          <path id="Trazado_199544" data-name="Trazado 199544" d="M90.847,66.838a3.839,3.839,0,0,1-2.328-6.913c3.074-2.328,18.784-13.968,26.5-14.839,4.692-.515,14.519,3.732,17.434,5.047a3.856,3.856,0,1,1-3.181,7.02c-5.562-2.506-11.818-4.549-13.4-4.39-4.123.444-15.763,8.05-22.694,13.293A3.785,3.785,0,0,1,90.847,66.838Z" fill="#312c2f"/>
          <path id="Trazado_199545" data-name="Trazado 199545" d="M43.86,66.838a3.821,3.821,0,0,1-2.328-.782C34.6,60.725,22.961,53.207,18.838,52.763c-1.564-.178-7.837,1.884-13.4,4.39a3.856,3.856,0,1,1-3.181-7.02C5.171,48.818,15,44.57,19.708,45.086c7.695.871,23.4,12.44,26.479,14.839a3.839,3.839,0,0,1,.746,5.331A3.785,3.785,0,0,1,43.86,66.838Z" fill="#574d55"/>
          <path id="Trazado_199546" data-name="Trazado 199546" d="M110.306,107.25a3.555,3.555,0,0,1-.622,0,3.821,3.821,0,0,1-3.181-4.425c.96-5.918,1.191-12.44.48-13.862-1.919-3.181-14.217-8.886-24.453-12.44A3.856,3.856,0,0,1,85,69.308c4,1.351,24.222,8.459,28.594,15.728,2.577,4.283,1.208,14.75.515,19.069A3.856,3.856,0,0,1,110.306,107.25Z" fill="#312c2f"/>
          <path id="Trazado_199547" data-name="Trazado 199547" d="M20.579,107.25a3.856,3.856,0,0,1-3.8-3.217c-.693-4.318-2.061-14.786.515-19.068,4.372-7.268,24.6-14.377,28.594-15.728a3.856,3.856,0,1,1,2.47,7.3C38.1,80.1,25.822,85.729,23.885,88.981c-.675,1.4-.444,8.015.5,13.826a3.821,3.821,0,0,1-3.181,4.425A3.555,3.555,0,0,1,20.579,107.25Z" fill="#574d55"/>
          <path id="Trazado_199548" data-name="Trazado 199548" d="M37.924,30.211A67.158,67.158,0,0,0,33.765,54.06C33.765,81.3,48.942,95.7,67.673,95.7V30.9C57.508,30.9,47.574,30.691,37.924,30.211Z" fill="#fdf0bd"/>
          <path id="Trazado_199549" data-name="Trazado 199549" d="M97.369,30.211q-14.475.613-29.731.622V95.7c18.731,0,33.925-14.395,33.925-41.638a67.531,67.531,0,0,0-4.194-23.849Z" fill="#fdf1bf"/>
          <path id="Trazado_199550" data-name="Trazado 199550" d="M37.924,30.211A67.158,67.158,0,0,0,33.765,54.06C33.765,81.3,48.942,95.7,67.673,95.7V30.9C57.508,30.9,47.574,30.691,37.924,30.211Z" fill="#fdf0bd"/>
          <path id="Trazado_199551" data-name="Trazado 199551" d="M97.369,30.211q-14.475.613-29.731.622V95.7c18.731,0,33.925-14.395,33.925-41.638a67.531,67.531,0,0,0-4.194-23.849Z" fill="#e0dfdf"/>
          <path id="Trazado_199552" data-name="Trazado 199552" d="M99.519,37.444a66.053,66.053,0,0,0-2.2-7.109q-14.475.613-29.731.622c-10.183,0-20.01-.267-29.66-.746A67.158,67.158,0,0,0,33.765,54.06,52.763,52.763,0,0,0,38.386,77a93.477,93.477,0,0,0,24.08-7.357C79.829,61.72,93.051,49.76,99.519,37.444Z" fill="#a1a0a0"/>
          <path id="Trazado_199553" data-name="Trazado 199553" d="M41.478,30.353q12.618.533,25.875.551V7.8C56.211,8.033,46.507,17.06,41.478,30.353Z" fill="#574d55"/>
          <path id="Trazado_199554" data-name="Trazado 199554" d="M93.815,30.353c-5.083-13.4-14.892-22.5-26.177-22.5h-.284v23.1h.284Q81.055,30.9,93.815,30.353Z" fill="#312c2f"/>
          <path id="Trazado_199555" data-name="Trazado 199555" d="M64.847,30.9,61.6,95.165a34.12,34.12,0,0,0,3.856.444h2.186V30.9Z" fill="#574d55"/>
          <path id="Trazado_199556" data-name="Trazado 199556" d="M73.129,95.254,69.859,30.9H67.638V95.61h2.2A28.614,28.614,0,0,0,73.129,95.254Z" fill="#312c2f"/>
          <path id="Trazado_199557" data-name="Trazado 199557" d="M84.609,21.183a2.47,2.47,0,0,1-.622,0A2.328,2.328,0,0,1,82.37,18.34a59.871,59.871,0,0,1,4-11.231C91.451-.817,99.022-.658,102.363.533a2.351,2.351,0,0,1-1.635,4.407c-.6-.213-6.22-1.9-10.467,4.727a57.418,57.418,0,0,0-3.43,9.881A2.292,2.292,0,0,1,84.609,21.183Z" fill="#312c2f"/>
          <path id="Trazado_199558" data-name="Trazado 199558" d="M74.089,12.635c3.092,1,5.936.764,6.415-.515A22.676,22.676,0,0,0,69.486,7.962a1,1,0,0,0-.3.462C68.757,9.756,70.961,11.64,74.089,12.635Z" fill="#fdf0bd"/>
          <path id="Trazado_199559" data-name="Trazado 199559" d="M60.618,12.635c-3.092,1-5.936.764-6.415-.515A22.676,22.676,0,0,1,65.221,7.962a1.208,1.208,0,0,1,.32.462C65.949,9.756,63.763,11.64,60.618,12.635Z" fill="#fdf0bd"/>
        </g>
      </g>
    </g>
  </g>
</svg>
